<svg width="1514" height="353" viewBox="0 0 1514 353" fill="none" xmlns="http://www.w3.org/2000/svg">
<mask id="mask0_5693_23875" style="mask-type:alpha" maskUnits="userSpaceOnUse" x="0" y="0" width="1514" height="353">
<rect width="1514" height="353" fill="#D9D9D9"/>
</mask>
<g mask="url(#mask0_5693_23875)">
<g clip-path="url(#clip0_5693_23875)">
<path d="M24.9385 82.9797C25.0783 83.2594 25.358 83.4459 25.661 83.5158C25.964 83.5857 26.2904 83.5158 26.5467 83.3293C31.7446 79.5764 37.3154 76.2896 43.1193 73.539C43.399 73.3992 43.6088 73.1661 43.7021 72.8864C43.7953 72.6066 43.7487 72.2803 43.6088 72.0239C32.3273 52.8163 10.6967 40.9048 -12.8452 40.9048C-36.3871 40.9048 -58.717 53.2126 -69.8353 73.0029C-69.9752 73.2593 -70.0218 73.5624 -69.9285 73.8421C-69.8353 74.1218 -69.6488 74.3549 -69.3691 74.4948C-63.5652 77.4085 -58.041 80.8118 -52.9597 84.658C-52.7732 84.7979 -52.5401 84.8678 -52.307 84.8678C-52.2138 84.8678 -52.1439 84.8678 -52.0507 84.8445C-51.7243 84.7746 -51.4679 84.5648 -51.3281 84.2617C-44.452 70.3455 -29.3479 61.3478 -12.8452 61.3478C3.65746 61.3478 17.736 69.6462 24.9851 82.9797H24.9385Z" fill="#AC0202"/>
<path d="M-30.9562 107.642C-30.7464 107.945 -30.4201 108.108 -30.0705 108.108H-30.0472C-29.6742 108.108 -29.3479 107.898 -29.1614 107.595C-24.6628 100.416 -18.7424 96.2898 -12.9152 96.2898C-7.76391 96.2898 -2.4728 99.7863 2.0025 106.103C2.21228 106.383 2.5386 106.57 2.88823 106.57C3.23786 106.57 3.5642 106.406 3.77398 106.127C5.80185 103.306 9.25155 98.8539 11.5591 96.2665C11.8388 95.9402 11.9088 95.4973 11.7456 95.101C7.50339 85.334 -1.70361 79.5298 -12.9152 79.5298C-25.0125 79.5298 -33.8232 85.0543 -39.0677 95.9169C-39.2542 96.2898 -39.2075 96.756 -38.9278 97.0824C-37.0165 99.3901 -32.751 105.078 -31.0028 107.642H-30.9562Z" fill="#AC0202"/>
<path d="M-110.859 63.2825C-103.12 63.8186 -95.4751 65.1473 -88.1328 67.2452C-88.0396 67.2685 -87.923 67.2918 -87.8298 67.2918C-87.4336 67.2918 -87.0606 67.082 -86.8741 66.7091C-72.8422 40.4385 -44.4987 24.1214 -12.8919 24.1214C18.7149 24.1214 46.6156 40.2054 60.7641 66.1263C60.9971 66.5692 61.5099 66.8023 61.9994 66.6625C68.6424 64.9142 75.5652 63.7953 82.6044 63.3058C82.9541 63.2825 83.2804 63.0727 83.4669 62.7697C83.6534 62.4666 83.6766 62.0937 83.5135 61.7673C66.7311 25.45 28.4114 2 -14.1272 2C-56.6659 2 -95.0089 25.45 -111.768 61.744C-111.908 62.0703 -111.908 62.4433 -111.721 62.7463C-111.535 63.0494 -111.209 63.2592 -110.859 63.2825Z" fill="#AC0202"/>
<path d="M249.193 82.9797C249.333 83.2594 249.612 83.4459 249.915 83.5158C250.218 83.5857 250.545 83.5158 250.801 83.3293C255.999 79.5764 261.57 76.2663 267.35 73.539C267.63 73.3992 267.84 73.1661 267.933 72.8864C268.026 72.5833 267.98 72.2803 267.84 72.0239C256.558 52.8163 234.928 40.9048 211.409 40.9048C187.891 40.9048 165.537 53.2126 154.419 73.0029C154.279 73.2593 154.233 73.5624 154.326 73.8421C154.419 74.1218 154.606 74.3549 154.885 74.4948C160.712 77.4085 166.213 80.8118 171.295 84.658C171.481 84.7979 171.714 84.8678 171.947 84.8678C172.041 84.8678 172.11 84.8678 172.204 84.8445C172.53 84.7746 172.786 84.5648 172.926 84.2617C179.802 70.3455 194.907 61.3478 211.409 61.3478C227.912 61.3478 241.99 69.6462 249.239 82.9797H249.193Z" fill="#AC0202"/>
<path d="M211.363 79.5063C199.265 79.5063 190.455 85.0309 185.21 95.8934C185.024 96.2664 185.07 96.7326 185.35 97.0589C187.261 99.3433 191.503 105.031 193.275 107.618C193.485 107.898 193.881 108.085 194.231 108.085C194.767 108.085 195.21 107.712 195.303 107.199C199.778 100.252 205.605 96.2664 211.316 96.2664C216.467 96.2664 221.758 99.7629 226.234 106.08C226.443 106.36 226.77 106.546 227.119 106.546C227.469 106.546 227.795 106.383 228.005 106.103C229.986 103.329 233.413 98.9237 235.79 96.2431C236.07 95.9167 236.14 95.4738 235.977 95.0776C231.734 85.3106 222.527 79.5063 211.293 79.5063H211.363Z" fill="#AC0202"/>
<path d="M113.419 63.2825C121.157 63.8186 128.803 65.1473 136.145 67.2452C136.238 67.2685 136.355 67.2918 136.448 67.2918C136.844 67.2918 137.217 67.082 137.404 66.7091C151.435 40.4385 179.779 24.1214 211.386 24.1214C242.993 24.1214 270.893 40.2054 285.042 66.1263C285.275 66.5692 285.788 66.8023 286.277 66.6625C292.92 64.9142 299.843 63.7953 306.882 63.3058C307.232 63.2825 307.558 63.0727 307.745 62.7697C307.931 62.4666 307.954 62.0937 307.791 61.7673C291.009 25.45 252.689 2 210.127 2C167.565 2 129.245 25.45 112.486 61.744C112.347 62.0703 112.347 62.4433 112.533 62.7463C112.72 63.0494 113.046 63.2592 113.395 63.2825H113.419Z" fill="#AC0202"/>
<path d="M137.054 160.905C137.194 161.185 137.474 161.372 137.777 161.442C138.08 161.512 138.406 161.442 138.662 161.255C143.86 157.502 149.431 154.192 155.212 151.465C155.491 151.325 155.701 151.092 155.794 150.812C155.887 150.509 155.841 150.206 155.701 149.95C144.42 130.742 122.789 118.831 99.2703 118.831C75.7517 118.831 53.3985 131.138 42.2802 150.929C42.1403 151.185 42.0937 151.488 42.1869 151.768C42.2802 152.048 42.4667 152.281 42.7464 152.421C48.5736 155.334 54.0745 158.738 59.1558 162.584C59.3423 162.724 59.5753 162.794 59.8084 162.794C59.9017 162.794 59.9716 162.794 60.0648 162.77C60.3912 162.7 60.6475 162.491 60.7874 162.188C67.6635 148.271 82.7676 139.274 99.2703 139.274C115.773 139.274 129.851 147.572 137.101 160.905H137.054Z" fill="#AC0202"/>
<path d="M99.2471 174.239C104.398 174.239 109.689 177.712 114.165 184.053C114.375 184.332 114.701 184.519 115.05 184.519C115.4 184.519 115.726 184.356 115.936 184.076C117.941 181.255 121.414 176.803 123.721 174.216C124.001 173.889 124.071 173.446 123.908 173.05C119.666 163.283 110.459 157.479 99.2471 157.479C87.1498 157.479 78.339 163.004 73.0946 173.866C72.9081 174.239 72.9547 174.705 73.2344 175.032C75.1457 177.339 79.4112 183.027 81.1594 185.591C81.3692 185.894 81.6955 186.057 82.0452 186.057H82.0685C82.4414 186.057 82.7677 185.848 82.9542 185.544C87.4528 178.365 93.3733 174.239 99.2005 174.239H99.2471Z" fill="#AC0202"/>
<path d="M0.370933 139.693C0.23108 140.02 0.231072 140.393 0.417543 140.696C0.604013 140.999 0.930344 141.209 1.27998 141.232C9.01851 141.768 16.6638 143.097 24.0061 145.195C24.0993 145.218 24.2159 145.241 24.3091 145.241C24.7054 145.241 25.0783 145.031 25.2648 144.658C39.2967 118.388 67.6402 102.071 99.247 102.071C130.854 102.071 158.755 118.155 172.903 144.076C173.136 144.519 173.649 144.728 174.138 144.612C180.781 142.864 187.704 141.745 194.743 141.255C195.093 141.232 195.419 141.022 195.606 140.719C195.792 140.416 195.816 140.043 195.652 139.717C178.893 103.423 140.574 79.9727 98.0117 79.9727C55.4497 79.9727 17.1533 103.423 0.370933 139.717V139.693Z" fill="#AC0202"/>
<path d="M323.501 118.831C299.47 118.831 277.63 131.138 266.511 150.929C266.371 151.185 266.325 151.488 266.418 151.768C266.511 152.048 266.698 152.281 266.977 152.421C272.781 155.334 278.306 158.738 283.387 162.584C283.573 162.724 283.806 162.794 284.04 162.794C284.133 162.794 284.203 162.794 284.296 162.77C284.599 162.7 284.879 162.491 285.018 162.188C291.895 148.271 306.999 139.274 323.501 139.274C340.004 139.274 354.083 147.572 361.332 160.905C361.471 161.185 361.751 161.372 362.054 161.442C362.357 161.512 362.684 161.442 362.94 161.255C368.138 157.502 373.709 154.192 379.489 151.465C379.769 151.325 379.979 151.092 380.072 150.812C380.165 150.509 380.119 150.206 379.979 149.95C368.697 130.742 347.067 118.831 323.548 118.831H323.501Z" fill="#AC0202"/>
<path d="M323.501 157.456C311.404 157.456 302.593 162.98 297.349 173.843C297.162 174.216 297.209 174.682 297.489 175.008C299.4 177.293 303.642 182.98 305.414 185.568C305.623 185.871 306.043 186.034 306.393 186.034C306.882 186.034 307.278 185.708 307.395 185.241C311.87 178.225 317.721 174.216 323.478 174.216C328.629 174.216 333.92 177.689 338.396 184.029C338.605 184.309 338.932 184.495 339.281 184.495C339.678 184.589 339.957 184.332 340.167 184.052C342.172 181.255 345.645 176.803 347.952 174.192C348.232 173.866 348.302 173.423 348.139 173.027C343.897 163.26 334.69 157.456 323.455 157.456H323.501Z" fill="#AC0202"/>
<path d="M419.907 139.693C403.148 103.399 364.828 79.9492 322.266 79.9492C279.704 79.9492 241.408 103.399 224.625 139.693C224.485 140.02 224.485 140.393 224.672 140.696C224.858 140.999 225.185 141.208 225.534 141.232C233.273 141.768 240.918 143.097 248.26 145.194C248.354 145.218 248.47 145.241 248.564 145.241C248.96 145.241 249.333 145.031 249.519 144.658C263.551 118.388 291.895 102.071 323.501 102.071C355.108 102.071 383.009 118.155 397.157 144.076C397.39 144.518 397.903 144.728 398.393 144.612C405.036 142.863 411.958 141.745 418.998 141.255C419.347 141.232 419.674 141.022 419.86 140.719C420.047 140.416 420.07 140.043 419.907 139.717V139.693Z" fill="#AC0202"/>
<path d="M-12.8918 195.801C-36.9232 195.801 -58.7636 208.109 -69.8819 227.899C-70.0218 228.155 -70.0684 228.458 -69.9752 228.738C-69.8819 229.018 -69.6955 229.251 -69.4158 229.391C-63.6119 232.281 -58.0877 235.708 -53.0063 239.554C-52.8199 239.694 -52.5868 239.764 -52.3537 239.764C-52.2605 239.764 -52.1905 239.764 -52.0973 239.74C-51.771 239.671 -51.5146 239.461 -51.3747 239.158C-44.4986 225.242 -29.3945 216.244 -12.8918 216.244C3.61082 216.244 17.6894 224.542 24.9384 237.876C25.0783 238.155 25.358 238.342 25.661 238.412C25.964 238.482 26.2903 238.412 26.5467 238.225C31.7446 234.472 37.3154 231.162 43.1193 228.435C43.399 228.295 43.6088 228.062 43.702 227.782C43.7953 227.479 43.7486 227.176 43.6088 226.92C32.3273 207.712 10.6967 195.801 -12.8452 195.801H-12.8918Z" fill="#AC0202"/>
<path d="M2.91154 261.489C3.26118 261.489 3.58751 261.326 3.79729 261.046C5.80185 258.249 9.27486 253.797 11.5824 251.186C11.8621 250.86 11.9321 250.417 11.7689 250.02C7.5267 240.253 -1.68029 234.449 -12.8918 234.449C-24.9891 234.449 -33.7999 239.974 -39.0444 250.836C-39.2308 251.209 -39.1842 251.675 -38.9045 252.002C-36.9699 254.309 -32.7277 259.997 -30.9795 262.561C-30.793 262.841 -30.3735 263.028 -30.0472 263.028H-30.0005C-29.511 263.028 -29.1148 262.701 -28.9982 262.235C-24.523 255.219 -18.6724 251.209 -12.9152 251.209C-7.76391 251.209 -2.4728 254.682 2.0025 261.023C2.21228 261.303 2.5386 261.489 2.88823 261.489H2.91154Z" fill="#AC0202"/>
<path d="M60.7641 221.046C60.9971 221.489 61.5099 221.722 61.9994 221.582C68.6424 219.834 75.5652 218.715 82.6044 218.225C82.9541 218.202 83.2804 217.992 83.4669 217.689C83.6534 217.386 83.6766 217.013 83.5135 216.687C66.7544 180.393 28.4347 156.943 -14.1272 156.943C-56.6892 156.943 -95.0089 180.393 -111.768 216.687C-111.908 217.013 -111.908 217.386 -111.721 217.689C-111.535 217.992 -111.209 218.202 -110.859 218.225C-103.144 218.761 -95.4984 220.09 -88.1328 222.188C-88.0396 222.211 -87.923 222.235 -87.8298 222.235C-87.4336 222.235 -87.0606 222.025 -86.8741 221.652C-72.8422 195.381 -44.4987 179.064 -12.8919 179.064C18.7149 179.064 46.6156 195.148 60.7641 221.069V221.046Z" fill="#AC0202"/>
<path d="M211.386 195.801C187.354 195.801 165.514 208.109 154.396 227.899C154.256 228.155 154.209 228.458 154.303 228.738C154.396 229.018 154.582 229.251 154.862 229.391C160.666 232.281 166.19 235.708 171.271 239.531C171.458 239.671 171.691 239.741 171.924 239.741C172.017 239.741 172.087 239.741 172.18 239.717C172.507 239.647 172.763 239.438 172.903 239.135C179.779 225.218 194.883 216.221 211.386 216.221C227.889 216.221 241.967 224.519 249.216 237.852C249.356 238.132 249.636 238.319 249.939 238.389C250.242 238.459 250.568 238.389 250.824 238.202C256.022 234.449 261.593 231.139 267.374 228.412C267.653 228.272 267.863 228.039 267.956 227.759C268.05 227.456 268.003 227.153 267.863 226.897C256.582 207.689 234.951 195.778 211.433 195.778L211.386 195.801Z" fill="#AC0202"/>
<path d="M211.363 234.449C199.265 234.449 190.455 239.974 185.21 250.836C185.024 251.233 185.07 251.675 185.35 252.002C187.285 254.309 191.527 259.997 193.275 262.561C193.485 262.864 193.811 263.028 194.161 263.028C194.534 263.028 194.86 262.818 195.07 262.515C199.568 255.335 205.489 251.209 211.316 251.209C216.467 251.209 221.758 254.682 226.234 261.023C226.443 261.303 226.77 261.489 227.119 261.489C227.469 261.489 227.795 261.326 228.005 261.046C230.033 258.226 233.483 253.773 235.79 251.186C236.07 250.86 236.14 250.417 235.977 250.02C231.734 240.253 222.527 234.449 211.293 234.449H211.363Z" fill="#AC0202"/>
<path d="M210.127 156.943C167.589 156.943 129.245 180.393 112.486 216.687C112.347 217.013 112.347 217.386 112.533 217.689C112.72 217.992 113.046 218.202 113.395 218.225C121.111 218.761 128.756 220.09 136.122 222.165C136.215 222.188 136.331 222.211 136.425 222.211C136.821 222.211 137.194 222.002 137.38 221.629C151.412 195.358 179.756 179.041 211.363 179.041C242.969 179.041 270.87 195.125 285.018 221.046C285.252 221.489 285.764 221.722 286.254 221.582C292.897 219.834 299.82 218.715 306.859 218.225C307.208 218.202 307.535 217.992 307.721 217.689C307.908 217.386 307.931 217.013 307.768 216.687C291.009 180.393 252.689 156.943 210.127 156.943Z" fill="#AC0202"/>
<path d="M99.2469 273.75C75.2155 273.75 53.3752 286.058 42.2569 305.848C42.117 306.105 42.0704 306.408 42.1636 306.687C42.2569 306.967 42.4433 307.2 42.723 307.34C48.5269 310.231 54.0511 313.657 59.1325 317.48C59.3189 317.62 59.552 317.69 59.7851 317.69C59.8783 317.69 59.9483 317.69 60.0415 317.667C60.3678 317.597 60.6242 317.387 60.7641 317.084C67.6402 303.168 82.7443 294.17 99.2469 294.17C115.75 294.17 129.828 302.468 137.077 315.802C137.217 316.081 137.497 316.268 137.8 316.338C138.103 316.408 138.429 316.338 138.686 316.151C143.883 312.398 149.454 309.088 155.258 306.361C155.538 306.221 155.748 305.988 155.841 305.708C155.934 305.405 155.887 305.102 155.748 304.846C144.466 285.638 122.836 273.727 99.3169 273.727L99.2469 273.75Z" fill="#AC0202"/>
<path d="M99.2471 312.398C87.1498 312.398 78.339 317.923 73.0946 328.785C72.9081 329.158 72.9547 329.625 73.2344 329.951C75.169 332.259 79.4112 337.946 81.1594 340.511C81.3692 340.814 81.7887 340.977 82.1384 340.977C82.6279 340.977 83.0241 340.65 83.1407 340.184C87.616 333.168 93.4665 329.158 99.2238 329.158C104.375 329.158 109.666 332.632 114.141 338.972C114.351 339.252 114.678 339.438 115.027 339.438C115.377 339.438 115.703 339.275 115.913 338.995C117.894 336.221 121.321 331.816 123.698 329.135C123.978 328.809 124.048 328.366 123.885 327.97C119.642 318.203 110.435 312.398 99.2238 312.398H99.2471Z" fill="#AC0202"/>
<path d="M97.9884 234.892C55.4497 234.892 17.1067 258.342 0.347617 294.636C0.207764 294.962 0.207756 295.335 0.394227 295.638C0.580698 295.941 0.907028 296.151 1.25666 296.175C8.97189 296.711 16.6172 298.039 23.9828 300.137C24.076 300.161 24.1926 300.184 24.2858 300.184C24.682 300.184 25.055 299.974 25.2415 299.601C39.2734 273.331 67.6169 257.013 99.2237 257.013C130.831 257.013 158.731 273.097 172.88 299.018C173.113 299.461 173.626 299.671 174.115 299.555C180.758 297.806 187.681 296.687 194.72 296.198C195.07 296.175 195.396 295.965 195.582 295.662C195.769 295.359 195.792 294.986 195.629 294.659C178.87 258.365 140.55 234.915 97.9884 234.915V234.892Z" fill="#AC0202"/>
</g>
<g clip-path="url(#clip1_5693_23875)">
<path d="M1346.94 392.98C1347.08 393.259 1347.36 393.446 1347.66 393.516C1347.96 393.586 1348.29 393.516 1348.55 393.329C1353.74 389.576 1359.32 386.29 1365.12 383.539C1365.4 383.399 1365.61 383.166 1365.7 382.886C1365.8 382.607 1365.75 382.28 1365.61 382.024C1354.33 362.816 1332.7 350.905 1309.15 350.905C1285.61 350.905 1263.28 363.213 1252.16 383.003C1252.02 383.259 1251.98 383.562 1252.07 383.842C1252.16 384.122 1252.35 384.355 1252.63 384.495C1258.43 387.409 1263.96 390.812 1269.04 394.658C1269.23 394.798 1269.46 394.868 1269.69 394.868C1269.79 394.868 1269.86 394.868 1269.95 394.844C1270.28 394.775 1270.53 394.565 1270.67 394.262C1277.55 380.346 1292.65 371.348 1309.15 371.348C1325.66 371.348 1339.74 379.646 1346.99 392.98H1346.94Z" fill="#AC0202"/>
<path d="M1211.14 373.282C1218.88 373.819 1226.52 375.147 1233.87 377.245C1233.96 377.269 1234.08 377.292 1234.17 377.292C1234.57 377.292 1234.94 377.082 1235.13 376.709C1249.16 350.438 1277.5 334.121 1309.11 334.121C1340.71 334.121 1368.62 350.205 1382.76 376.126C1383 376.569 1383.51 376.802 1384 376.662C1390.64 374.914 1397.57 373.795 1404.6 373.306C1404.95 373.282 1405.28 373.073 1405.47 372.77C1405.65 372.467 1405.68 372.094 1405.51 371.767C1388.73 335.45 1350.41 312 1307.87 312C1265.33 312 1226.99 335.45 1210.23 371.744C1210.09 372.07 1210.09 372.443 1210.28 372.746C1210.47 373.049 1210.79 373.259 1211.14 373.282Z" fill="#AC0202"/>
<path d="M1571.19 392.98C1571.33 393.259 1571.61 393.446 1571.92 393.516C1572.22 393.586 1572.54 393.516 1572.8 393.329C1578 389.576 1583.57 386.266 1589.35 383.539C1589.63 383.399 1589.84 383.166 1589.93 382.886C1590.03 382.583 1589.98 382.28 1589.84 382.024C1578.56 362.816 1556.93 350.905 1533.41 350.905C1509.89 350.905 1487.54 363.213 1476.42 383.003C1476.28 383.259 1476.23 383.562 1476.33 383.842C1476.42 384.122 1476.61 384.355 1476.89 384.495C1482.71 387.409 1488.21 390.812 1493.29 394.658C1493.48 394.798 1493.71 394.868 1493.95 394.868C1494.04 394.868 1494.11 394.868 1494.2 394.844C1494.53 394.775 1494.79 394.565 1494.93 394.262C1501.8 380.346 1516.91 371.348 1533.41 371.348C1549.91 371.348 1563.99 379.646 1571.24 392.98H1571.19Z" fill="#AC0202"/>
<path d="M1435.42 373.282C1443.16 373.819 1450.8 375.147 1458.14 377.245C1458.24 377.269 1458.35 377.292 1458.45 377.292C1458.84 377.292 1459.22 377.082 1459.4 376.709C1473.44 350.438 1501.78 334.121 1533.39 334.121C1564.99 334.121 1592.89 350.205 1607.04 376.126C1607.27 376.569 1607.79 376.802 1608.28 376.662C1614.92 374.914 1621.84 373.795 1628.88 373.306C1629.23 373.282 1629.56 373.073 1629.74 372.77C1629.93 372.467 1629.95 372.094 1629.79 371.767C1613.01 335.45 1574.69 312 1532.13 312C1489.57 312 1451.25 335.45 1434.49 371.744C1434.35 372.07 1434.35 372.443 1434.53 372.746C1434.72 373.049 1435.05 373.259 1435.4 373.282H1435.42Z" fill="#AC0202"/>
</g>
<g clip-path="url(#clip2_5693_23875)">
<path d="M14.9385 392.98C15.0783 393.259 15.358 393.446 15.661 393.516C15.964 393.586 16.2904 393.516 16.5467 393.329C21.7446 389.576 27.3154 386.29 33.1193 383.539C33.399 383.399 33.6088 383.166 33.7021 382.886C33.7953 382.607 33.7487 382.28 33.6088 382.024C22.3273 362.816 0.696734 350.905 -22.8452 350.905C-46.3871 350.905 -68.717 363.213 -79.8353 383.003C-79.9752 383.259 -80.0218 383.562 -79.9285 383.842C-79.8353 384.122 -79.6488 384.355 -79.3691 384.495C-73.5652 387.409 -68.041 390.812 -62.9597 394.658C-62.7732 394.798 -62.5401 394.868 -62.307 394.868C-62.2138 394.868 -62.1439 394.868 -62.0507 394.844C-61.7243 394.775 -61.4679 394.565 -61.3281 394.262C-54.452 380.346 -39.3479 371.348 -22.8452 371.348C-6.34254 371.348 7.73601 379.646 14.9851 392.98H14.9385Z" fill="#AC0202"/>
<path d="M-120.859 373.282C-113.12 373.819 -105.475 375.147 -98.1328 377.245C-98.0396 377.269 -97.923 377.292 -97.8298 377.292C-97.4336 377.292 -97.0606 377.082 -96.8741 376.709C-82.8422 350.438 -54.4987 334.121 -22.8919 334.121C8.71491 334.121 36.6156 350.205 50.7641 376.126C50.9971 376.569 51.5099 376.802 51.9994 376.662C58.6424 374.914 65.5652 373.795 72.6044 373.306C72.9541 373.282 73.2804 373.073 73.4669 372.77C73.6534 372.467 73.6766 372.094 73.5135 371.767C56.7311 335.45 18.4114 312 -24.1272 312C-66.6659 312 -105.009 335.45 -121.768 371.744C-121.908 372.07 -121.908 372.443 -121.721 372.746C-121.535 373.049 -121.209 373.259 -120.859 373.282Z" fill="#AC0202"/>
<path d="M239.193 392.98C239.333 393.259 239.612 393.446 239.915 393.516C240.218 393.586 240.545 393.516 240.801 393.329C245.999 389.576 251.57 386.266 257.35 383.539C257.63 383.399 257.84 383.166 257.933 382.886C258.026 382.583 257.98 382.28 257.84 382.024C246.558 362.816 224.928 350.905 201.409 350.905C177.891 350.905 155.537 363.213 144.419 383.003C144.279 383.259 144.233 383.562 144.326 383.842C144.419 384.122 144.606 384.355 144.885 384.495C150.712 387.409 156.213 390.812 161.295 394.658C161.481 394.798 161.714 394.868 161.947 394.868C162.041 394.868 162.11 394.868 162.204 394.844C162.53 394.775 162.786 394.565 162.926 394.262C169.802 380.346 184.907 371.348 201.409 371.348C217.912 371.348 231.99 379.646 239.239 392.98H239.193Z" fill="#AC0202"/>
<path d="M103.419 373.282C111.157 373.819 118.803 375.147 126.145 377.245C126.238 377.269 126.355 377.292 126.448 377.292C126.844 377.292 127.217 377.082 127.404 376.709C141.435 350.438 169.779 334.121 201.386 334.121C232.993 334.121 260.893 350.205 275.042 376.126C275.275 376.569 275.788 376.802 276.277 376.662C282.92 374.914 289.843 373.795 296.882 373.306C297.232 373.282 297.558 373.073 297.745 372.77C297.931 372.467 297.954 372.094 297.791 371.767C281.009 335.45 242.689 312 200.127 312C157.565 312 119.245 335.45 102.486 371.744C102.347 372.07 102.347 372.443 102.533 372.746C102.72 373.049 103.046 373.259 103.395 373.282H103.419Z" fill="#AC0202"/>
</g>
<g clip-path="url(#clip3_5693_23875)">
<path d="M466.938 237.98C467.078 238.259 467.358 238.446 467.661 238.516C467.964 238.586 468.29 238.516 468.547 238.329C473.745 234.576 479.315 231.29 485.119 228.539C485.399 228.399 485.609 228.166 485.702 227.886C485.795 227.607 485.749 227.28 485.609 227.024C474.327 207.816 452.697 195.905 429.155 195.905C405.613 195.905 383.283 208.213 372.165 228.003C372.025 228.259 371.978 228.562 372.071 228.842C372.165 229.122 372.351 229.355 372.631 229.495C378.435 232.409 383.959 235.812 389.04 239.658C389.227 239.798 389.46 239.868 389.693 239.868C389.786 239.868 389.856 239.868 389.949 239.844C390.276 239.775 390.532 239.565 390.672 239.262C397.548 225.346 412.652 216.348 429.155 216.348C445.657 216.348 459.736 224.646 466.985 237.98H466.938Z" fill="#AC0202"/>
<path d="M411.044 262.642C411.254 262.945 411.58 263.108 411.93 263.108H411.953C412.326 263.108 412.652 262.898 412.839 262.595C417.337 255.416 423.258 251.29 429.085 251.29C434.236 251.29 439.527 254.786 444.002 261.103C444.212 261.383 444.539 261.57 444.888 261.57C445.238 261.57 445.564 261.406 445.774 261.127C447.802 258.306 451.252 253.854 453.559 251.266C453.839 250.94 453.909 250.497 453.746 250.101C449.503 240.334 440.296 234.53 429.085 234.53C416.988 234.53 408.177 240.054 402.932 250.917C402.746 251.29 402.792 251.756 403.072 252.082C404.984 254.39 409.249 260.078 410.997 262.642H411.044Z" fill="#AC0202"/>
<path d="M331.141 218.282C338.88 218.819 346.525 220.147 353.867 222.245C353.96 222.269 354.077 222.292 354.17 222.292C354.566 222.292 354.939 222.082 355.126 221.709C369.158 195.438 397.501 179.121 429.108 179.121C460.715 179.121 488.616 195.205 502.764 221.126C502.997 221.569 503.51 221.802 503.999 221.662C510.642 219.914 517.565 218.795 524.604 218.306C524.954 218.282 525.28 218.073 525.467 217.77C525.653 217.467 525.677 217.094 525.513 216.767C508.731 180.45 470.411 157 427.873 157C385.334 157 346.991 180.45 330.232 216.744C330.092 217.07 330.092 217.443 330.279 217.746C330.465 218.049 330.791 218.259 331.141 218.282Z" fill="#AC0202"/>
<path d="M354.8 315.905C354.94 316.185 355.219 316.372 355.522 316.442C355.825 316.512 356.152 316.442 356.408 316.255C361.606 312.502 367.177 309.192 372.957 306.465C373.237 306.325 373.447 306.092 373.54 305.812C373.633 305.509 373.587 305.206 373.447 304.95C362.165 285.742 340.535 273.831 317.016 273.831C293.497 273.831 271.144 286.138 260.026 305.929C259.886 306.185 259.839 306.488 259.933 306.768C260.026 307.048 260.212 307.281 260.492 307.421C266.319 310.334 271.82 313.738 276.901 317.584C277.088 317.724 277.321 317.794 277.554 317.794C277.647 317.794 277.717 317.794 277.811 317.77C278.137 317.7 278.393 317.491 278.533 317.188C285.409 303.271 300.513 294.274 317.016 294.274C333.519 294.274 347.597 302.572 354.846 315.905H354.8Z" fill="#AC0202"/>
<path d="M298.905 340.591C299.115 340.871 299.511 341.057 299.861 341.057H299.884C300.42 341.057 300.863 340.684 300.956 340.172C305.431 333.225 311.259 329.239 316.969 329.239C322.121 329.239 327.412 332.712 331.887 339.053C332.097 339.332 332.423 339.519 332.773 339.519C333.122 339.519 333.449 339.356 333.658 339.076C335.663 336.279 339.136 331.826 341.444 329.216C341.723 328.889 341.793 328.446 341.63 328.05C337.388 318.283 328.181 312.479 316.969 312.479C304.872 312.479 296.061 318.004 290.817 328.866C290.63 329.239 290.677 329.705 290.957 330.032C292.868 332.316 297.11 338.004 298.882 340.591H298.905Z" fill="#AC0202"/>
<path d="M219.002 296.232C226.741 296.768 234.386 298.097 241.728 300.195C241.822 300.218 241.938 300.241 242.031 300.241C242.428 300.241 242.801 300.031 242.987 299.658C257.019 273.388 285.363 257.071 316.969 257.071C348.576 257.071 376.477 273.155 390.625 299.076C390.858 299.519 391.371 299.728 391.861 299.612C398.504 297.864 405.426 296.745 412.466 296.255C412.815 296.232 413.142 296.022 413.328 295.719C413.515 295.416 413.538 295.043 413.375 294.717C396.616 258.423 358.296 234.973 315.734 234.973C273.172 234.973 234.852 258.399 218.093 294.693C217.953 295.02 217.953 295.393 218.14 295.696C218.326 295.999 218.653 296.209 219.002 296.232Z" fill="#AC0202"/>
<path d="M691.193 237.98C691.333 238.259 691.612 238.446 691.915 238.516C692.218 238.586 692.545 238.516 692.801 238.329C697.999 234.576 703.57 231.266 709.35 228.539C709.63 228.399 709.84 228.166 709.933 227.886C710.026 227.583 709.98 227.28 709.84 227.024C698.558 207.816 676.928 195.905 653.409 195.905C629.891 195.905 607.537 208.213 596.419 228.003C596.279 228.259 596.233 228.562 596.326 228.842C596.419 229.122 596.606 229.355 596.885 229.495C602.712 232.409 608.213 235.812 613.295 239.658C613.481 239.798 613.714 239.868 613.947 239.868C614.041 239.868 614.11 239.868 614.204 239.844C614.53 239.775 614.786 239.565 614.926 239.262C621.802 225.346 636.907 216.348 653.409 216.348C669.912 216.348 683.99 224.646 691.239 237.98H691.193Z" fill="#AC0202"/>
<path d="M653.363 234.506C641.265 234.506 632.455 240.031 627.21 250.893C627.024 251.266 627.07 251.733 627.35 252.059C629.261 254.343 633.503 260.031 635.275 262.618C635.485 262.898 635.881 263.085 636.231 263.085C636.767 263.085 637.21 262.712 637.303 262.199C641.778 255.252 647.605 251.266 653.316 251.266C658.467 251.266 663.758 254.763 668.234 261.08C668.443 261.36 668.77 261.546 669.119 261.546C669.469 261.546 669.795 261.383 670.005 261.103C671.986 258.329 675.413 253.924 677.79 251.243C678.07 250.917 678.14 250.474 677.977 250.078C673.734 240.311 664.527 234.506 653.293 234.506H653.363Z" fill="#AC0202"/>
<path d="M555.419 218.282C563.157 218.819 570.803 220.147 578.145 222.245C578.238 222.269 578.355 222.292 578.448 222.292C578.844 222.292 579.217 222.082 579.404 221.709C593.435 195.438 621.779 179.121 653.386 179.121C684.993 179.121 712.893 195.205 727.042 221.126C727.275 221.569 727.788 221.802 728.277 221.662C734.92 219.914 741.843 218.795 748.882 218.306C749.232 218.282 749.558 218.073 749.745 217.77C749.931 217.467 749.954 217.094 749.791 216.767C733.009 180.45 694.689 157 652.127 157C609.565 157 571.245 180.45 554.486 216.744C554.347 217.07 554.347 217.443 554.533 217.746C554.72 218.049 555.046 218.259 555.395 218.282H555.419Z" fill="#AC0202"/>
<path d="M579.054 315.905C579.194 316.185 579.474 316.372 579.777 316.442C580.08 316.512 580.406 316.442 580.662 316.255C585.86 312.502 591.431 309.192 597.212 306.465C597.491 306.325 597.701 306.092 597.794 305.812C597.887 305.509 597.841 305.206 597.701 304.95C586.42 285.742 564.789 273.831 541.27 273.831C517.752 273.831 495.398 286.138 484.28 305.929C484.14 306.185 484.094 306.488 484.187 306.768C484.28 307.048 484.467 307.281 484.746 307.421C490.574 310.334 496.074 313.738 501.156 317.584C501.342 317.724 501.575 317.794 501.808 317.794C501.902 317.794 501.972 317.794 502.065 317.77C502.391 317.7 502.648 317.491 502.787 317.188C509.664 303.271 524.768 294.274 541.27 294.274C557.773 294.274 571.851 302.572 579.101 315.905H579.054Z" fill="#AC0202"/>
<path d="M541.247 329.239C546.398 329.239 551.689 332.712 556.165 339.053C556.375 339.332 556.701 339.519 557.05 339.519C557.4 339.519 557.726 339.356 557.936 339.076C559.941 336.255 563.414 331.803 565.721 329.216C566.001 328.889 566.071 328.446 565.908 328.05C561.666 318.283 552.459 312.479 541.247 312.479C529.15 312.479 520.339 318.004 515.095 328.866C514.908 329.239 514.955 329.705 515.234 330.032C517.146 332.339 521.411 338.027 523.159 340.591C523.369 340.894 523.696 341.057 524.045 341.057H524.068C524.441 341.057 524.768 340.848 524.954 340.544C529.453 333.365 535.373 329.239 541.2 329.239H541.247Z" fill="#AC0202"/>
<path d="M442.371 294.693C442.231 295.02 442.231 295.393 442.418 295.696C442.604 295.999 442.93 296.209 443.28 296.232C451.019 296.768 458.664 298.097 466.006 300.195C466.099 300.218 466.216 300.241 466.309 300.241C466.705 300.241 467.078 300.031 467.265 299.658C481.297 273.388 509.64 257.071 541.247 257.071C572.854 257.071 600.755 273.155 614.903 299.076C615.136 299.519 615.649 299.728 616.138 299.612C622.781 297.864 629.704 296.745 636.743 296.255C637.093 296.232 637.419 296.022 637.606 295.719C637.792 295.416 637.816 295.043 637.652 294.717C620.893 258.423 582.574 234.973 540.012 234.973C497.45 234.973 459.153 258.423 442.371 294.717V294.693Z" fill="#AC0202"/>
<path d="M765.501 273.831C741.47 273.831 719.63 286.138 708.511 305.929C708.371 306.185 708.325 306.488 708.418 306.768C708.511 307.048 708.698 307.281 708.977 307.421C714.781 310.334 720.306 313.738 725.387 317.584C725.573 317.724 725.806 317.794 726.04 317.794C726.133 317.794 726.203 317.794 726.296 317.77C726.599 317.7 726.879 317.491 727.018 317.188C733.895 303.271 748.999 294.274 765.501 294.274C782.004 294.274 796.083 302.572 803.332 315.905C803.471 316.185 803.751 316.372 804.054 316.442C804.357 316.512 804.684 316.442 804.94 316.255C810.138 312.502 815.709 309.192 821.489 306.465C821.769 306.325 821.979 306.092 822.072 305.812C822.165 305.509 822.119 305.206 821.979 304.95C810.697 285.742 789.067 273.831 765.548 273.831H765.501Z" fill="#AC0202"/>
<path d="M765.501 312.456C753.404 312.456 744.593 317.98 739.349 328.843C739.162 329.216 739.209 329.682 739.489 330.008C741.4 332.293 745.642 337.98 747.414 340.568C747.623 340.871 748.043 341.034 748.393 341.034C748.882 341.034 749.278 340.708 749.395 340.241C753.87 333.225 759.721 329.216 765.478 329.216C770.629 329.216 775.92 332.689 780.396 339.029C780.605 339.309 780.932 339.495 781.281 339.495C781.678 339.589 781.957 339.332 782.167 339.052C784.172 336.255 787.645 331.803 789.952 329.192C790.232 328.866 790.302 328.423 790.139 328.027C785.897 318.26 776.69 312.456 765.455 312.456H765.501Z" fill="#AC0202"/>
<path d="M861.907 294.693C845.148 258.399 806.828 234.949 764.266 234.949C721.704 234.949 683.408 258.399 666.625 294.693C666.485 295.02 666.485 295.393 666.672 295.696C666.858 295.999 667.185 296.208 667.534 296.232C675.273 296.768 682.918 298.097 690.26 300.194C690.354 300.218 690.47 300.241 690.564 300.241C690.96 300.241 691.333 300.031 691.519 299.658C705.551 273.388 733.895 257.071 765.501 257.071C797.108 257.071 825.009 273.155 839.157 299.076C839.39 299.518 839.903 299.728 840.393 299.612C847.036 297.863 853.958 296.745 860.998 296.255C861.347 296.232 861.674 296.022 861.86 295.719C862.047 295.416 862.07 295.043 861.907 294.717V294.693Z" fill="#AC0202"/>
<path d="M429.108 350.801C405.077 350.801 383.236 363.109 372.118 382.899C371.978 383.155 371.932 383.458 372.025 383.738C372.118 384.018 372.305 384.251 372.584 384.391C378.388 387.281 383.912 390.708 388.994 394.554C389.18 394.694 389.413 394.764 389.646 394.764C389.74 394.764 389.809 394.764 389.903 394.74C390.229 394.671 390.485 394.461 390.625 394.158C397.501 380.242 412.606 371.244 429.108 371.244C445.611 371.244 459.689 379.542 466.938 392.876C467.078 393.155 467.358 393.342 467.661 393.412C467.964 393.482 468.29 393.412 468.547 393.225C473.745 389.472 479.315 386.162 485.119 383.435C485.399 383.295 485.609 383.062 485.702 382.782C485.795 382.479 485.749 382.176 485.609 381.92C474.327 362.712 452.697 350.801 429.155 350.801H429.108Z" fill="#AC0202"/>
<path d="M502.764 376.046C502.997 376.489 503.51 376.722 503.999 376.582C510.642 374.834 517.565 373.715 524.604 373.225C524.954 373.202 525.28 372.992 525.467 372.689C525.653 372.386 525.677 372.013 525.513 371.687C508.754 335.393 470.435 311.943 427.873 311.943C385.311 311.943 346.991 335.393 330.232 371.687C330.092 372.013 330.092 372.386 330.279 372.689C330.465 372.992 330.791 373.202 331.141 373.225C338.856 373.761 346.502 375.09 353.867 377.188C353.96 377.211 354.077 377.235 354.17 377.235C354.566 377.235 354.939 377.025 355.126 376.652C369.158 350.381 397.501 334.064 429.108 334.064C460.715 334.064 488.616 350.148 502.764 376.069V376.046Z" fill="#AC0202"/>
<path d="M653.386 350.801C629.354 350.801 607.514 363.109 596.396 382.899C596.256 383.155 596.209 383.458 596.303 383.738C596.396 384.018 596.582 384.251 596.862 384.391C602.666 387.281 608.19 390.708 613.271 394.531C613.458 394.671 613.691 394.741 613.924 394.741C614.017 394.741 614.087 394.741 614.18 394.717C614.507 394.647 614.763 394.438 614.903 394.135C621.779 380.218 636.883 371.221 653.386 371.221C669.889 371.221 683.967 379.519 691.216 392.852C691.356 393.132 691.636 393.319 691.939 393.389C692.242 393.459 692.568 393.389 692.824 393.202C698.022 389.449 703.593 386.139 709.374 383.412C709.653 383.272 709.863 383.039 709.956 382.759C710.05 382.456 710.003 382.153 709.863 381.897C698.582 362.689 676.951 350.778 653.433 350.778L653.386 350.801Z" fill="#AC0202"/>
<path d="M652.127 311.943C609.589 311.943 571.245 335.393 554.486 371.687C554.347 372.013 554.347 372.386 554.533 372.689C554.72 372.992 555.046 373.202 555.395 373.225C563.111 373.761 570.756 375.09 578.122 377.165C578.215 377.188 578.331 377.211 578.425 377.211C578.821 377.211 579.194 377.002 579.38 376.629C593.412 350.358 621.756 334.041 653.363 334.041C684.969 334.041 712.87 350.125 727.018 376.046C727.252 376.489 727.764 376.722 728.254 376.582C734.897 374.834 741.82 373.715 748.859 373.225C749.208 373.202 749.535 372.992 749.721 372.689C749.908 372.386 749.931 372.013 749.768 371.687C733.009 335.393 694.689 311.943 652.127 311.943Z" fill="#AC0202"/>
</g>
<g clip-path="url(#clip4_5693_23875)">
<path d="M901.8 237.905C901.94 238.185 902.219 238.372 902.522 238.442C902.825 238.512 903.152 238.442 903.408 238.255C908.606 234.502 914.177 231.192 919.957 228.465C920.237 228.325 920.447 228.092 920.54 227.812C920.633 227.509 920.587 227.206 920.447 226.95C909.165 207.742 887.535 195.831 864.016 195.831C840.497 195.831 818.144 208.138 807.026 227.929C806.886 228.185 806.839 228.488 806.933 228.768C807.026 229.048 807.212 229.281 807.492 229.421C813.319 232.334 818.82 235.738 823.901 239.584C824.088 239.724 824.321 239.794 824.554 239.794C824.647 239.794 824.717 239.794 824.811 239.77C825.137 239.7 825.393 239.491 825.533 239.188C832.409 225.271 847.513 216.274 864.016 216.274C880.519 216.274 894.597 224.572 901.846 237.905H901.8Z" fill="#AC0202"/>
<path d="M845.905 262.591C846.115 262.871 846.511 263.057 846.861 263.057H846.884C847.42 263.057 847.863 262.684 847.956 262.172C852.431 255.225 858.259 251.239 863.969 251.239C869.121 251.239 874.412 254.712 878.887 261.053C879.097 261.332 879.423 261.519 879.773 261.519C880.122 261.519 880.449 261.356 880.658 261.076C882.663 258.279 886.136 253.826 888.444 251.216C888.723 250.889 888.793 250.446 888.63 250.05C884.388 240.283 875.181 234.479 863.969 234.479C851.872 234.479 843.061 240.004 837.817 250.866C837.63 251.239 837.677 251.705 837.957 252.032C839.868 254.316 844.11 260.004 845.882 262.591H845.905Z" fill="#AC0202"/>
<path d="M766.002 218.232C773.741 218.768 781.386 220.097 788.728 222.195C788.822 222.218 788.938 222.241 789.031 222.241C789.428 222.241 789.801 222.031 789.987 221.658C804.019 195.388 832.363 179.071 863.969 179.071C895.576 179.071 923.477 195.155 937.625 221.076C937.858 221.519 938.371 221.728 938.861 221.612C945.504 219.864 952.426 218.745 959.466 218.255C959.815 218.232 960.142 218.022 960.328 217.719C960.515 217.416 960.538 217.043 960.375 216.717C943.616 180.423 905.296 156.973 862.734 156.973C820.172 156.973 781.852 180.399 765.093 216.693C764.953 217.02 764.953 217.393 765.14 217.696C765.326 217.999 765.653 218.209 766.002 218.232Z" fill="#AC0202"/>
<path d="M1238.19 159.98C1238.33 160.259 1238.61 160.446 1238.92 160.516C1239.22 160.586 1239.54 160.516 1239.8 160.329C1245 156.576 1250.57 153.266 1256.35 150.539C1256.63 150.399 1256.84 150.166 1256.93 149.886C1257.03 149.583 1256.98 149.28 1256.84 149.024C1245.56 129.816 1223.93 117.905 1200.41 117.905C1176.89 117.905 1154.54 130.213 1143.42 150.003C1143.28 150.259 1143.23 150.562 1143.33 150.842C1143.42 151.122 1143.61 151.355 1143.89 151.495C1149.71 154.409 1155.21 157.812 1160.29 161.658C1160.48 161.798 1160.71 161.868 1160.95 161.868C1161.04 161.868 1161.11 161.868 1161.2 161.844C1161.53 161.775 1161.79 161.565 1161.93 161.262C1168.8 147.346 1183.91 138.348 1200.41 138.348C1216.91 138.348 1230.99 146.646 1238.24 159.98H1238.19Z" fill="#AC0202"/>
<path d="M1200.36 156.506C1188.27 156.506 1179.45 162.031 1174.21 172.893C1174.02 173.266 1174.07 173.733 1174.35 174.059C1176.26 176.343 1180.5 182.031 1182.27 184.618C1182.48 184.898 1182.88 185.085 1183.23 185.085C1183.77 185.085 1184.21 184.712 1184.3 184.199C1188.78 177.252 1194.61 173.266 1200.32 173.266C1205.47 173.266 1210.76 176.763 1215.23 183.08C1215.44 183.36 1215.77 183.546 1216.12 183.546C1216.47 183.546 1216.8 183.383 1217.01 183.103C1218.99 180.329 1222.41 175.924 1224.79 173.243C1225.07 172.917 1225.14 172.474 1224.98 172.078C1220.73 162.311 1211.53 156.506 1200.29 156.506H1200.36Z" fill="#AC0202"/>
<path d="M1102.42 140.282C1110.16 140.819 1117.8 142.147 1125.14 144.245C1125.24 144.269 1125.35 144.292 1125.45 144.292C1125.84 144.292 1126.22 144.082 1126.4 143.709C1140.44 117.438 1168.78 101.121 1200.39 101.121C1231.99 101.121 1259.89 117.205 1274.04 143.126C1274.27 143.569 1274.79 143.802 1275.28 143.662C1281.92 141.914 1288.84 140.795 1295.88 140.306C1296.23 140.282 1296.56 140.073 1296.74 139.77C1296.93 139.467 1296.95 139.094 1296.79 138.767C1280.01 102.45 1241.69 79 1199.13 79C1156.57 79 1118.25 102.45 1101.49 138.744C1101.35 139.07 1101.35 139.443 1101.53 139.746C1101.72 140.049 1102.05 140.259 1102.4 140.282H1102.42Z" fill="#AC0202"/>
<path d="M1126.05 237.905C1126.19 238.185 1126.47 238.372 1126.78 238.442C1127.08 238.512 1127.41 238.442 1127.66 238.255C1132.86 234.502 1138.43 231.192 1144.21 228.465C1144.49 228.325 1144.7 228.092 1144.79 227.812C1144.89 227.509 1144.84 227.206 1144.7 226.95C1133.42 207.742 1111.79 195.831 1088.27 195.831C1064.75 195.831 1042.4 208.138 1031.28 227.929C1031.14 228.185 1031.09 228.488 1031.19 228.768C1031.28 229.048 1031.47 229.281 1031.75 229.421C1037.57 232.334 1043.07 235.738 1048.16 239.584C1048.34 239.724 1048.58 239.794 1048.81 239.794C1048.9 239.794 1048.97 239.794 1049.06 239.77C1049.39 239.7 1049.65 239.491 1049.79 239.188C1056.66 225.271 1071.77 216.274 1088.27 216.274C1104.77 216.274 1118.85 224.572 1126.1 237.905H1126.05Z" fill="#AC0202"/>
<path d="M1088.25 251.239C1093.4 251.239 1098.69 254.712 1103.16 261.053C1103.37 261.332 1103.7 261.519 1104.05 261.519C1104.4 261.519 1104.73 261.356 1104.94 261.076C1106.94 258.255 1110.41 253.803 1112.72 251.216C1113 250.889 1113.07 250.446 1112.91 250.05C1108.67 240.283 1099.46 234.479 1088.25 234.479C1076.15 234.479 1067.34 240.004 1062.09 250.866C1061.91 251.239 1061.95 251.705 1062.23 252.032C1064.15 254.339 1068.41 260.027 1070.16 262.591C1070.37 262.894 1070.7 263.057 1071.05 263.057H1071.07C1071.44 263.057 1071.77 262.848 1071.95 262.544C1076.45 255.365 1082.37 251.239 1088.2 251.239H1088.25Z" fill="#AC0202"/>
<path d="M989.371 216.693C989.231 217.02 989.231 217.393 989.418 217.696C989.604 217.999 989.93 218.209 990.28 218.232C998.019 218.768 1005.66 220.097 1013.01 222.195C1013.1 222.218 1013.22 222.241 1013.31 222.241C1013.71 222.241 1014.08 222.031 1014.26 221.658C1028.3 195.388 1056.64 179.071 1088.25 179.071C1119.85 179.071 1147.75 195.155 1161.9 221.076C1162.14 221.519 1162.65 221.728 1163.14 221.612C1169.78 219.864 1176.7 218.745 1183.74 218.255C1184.09 218.232 1184.42 218.022 1184.61 217.719C1184.79 217.416 1184.82 217.043 1184.65 216.717C1167.89 180.423 1129.57 156.973 1087.01 156.973C1044.45 156.973 1006.15 180.423 989.371 216.717V216.693Z" fill="#AC0202"/>
<path d="M1312.5 195.831C1288.47 195.831 1266.63 208.138 1255.51 227.929C1255.37 228.185 1255.32 228.488 1255.42 228.768C1255.51 229.048 1255.7 229.281 1255.98 229.421C1261.78 232.334 1267.31 235.738 1272.39 239.584C1272.57 239.724 1272.81 239.794 1273.04 239.794C1273.13 239.794 1273.2 239.794 1273.3 239.77C1273.6 239.7 1273.88 239.491 1274.02 239.188C1280.89 225.271 1296 216.274 1312.5 216.274C1329 216.274 1343.08 224.572 1350.33 237.905C1350.47 238.185 1350.75 238.372 1351.05 238.442C1351.36 238.512 1351.68 238.442 1351.94 238.255C1357.14 234.502 1362.71 231.192 1368.49 228.465C1368.77 228.325 1368.98 228.092 1369.07 227.812C1369.17 227.509 1369.12 227.206 1368.98 226.95C1357.7 207.742 1336.07 195.831 1312.55 195.831H1312.5Z" fill="#AC0202"/>
<path d="M1312.5 234.456C1300.4 234.456 1291.59 239.98 1286.35 250.843C1286.16 251.216 1286.21 251.682 1286.49 252.008C1288.4 254.293 1292.64 259.98 1294.41 262.568C1294.62 262.871 1295.04 263.034 1295.39 263.034C1295.88 263.034 1296.28 262.708 1296.39 262.241C1300.87 255.225 1306.72 251.216 1312.48 251.216C1317.63 251.216 1322.92 254.689 1327.4 261.029C1327.61 261.309 1327.93 261.495 1328.28 261.495C1328.68 261.589 1328.96 261.332 1329.17 261.052C1331.17 258.255 1334.64 253.803 1336.95 251.192C1337.23 250.866 1337.3 250.423 1337.14 250.027C1332.9 240.26 1323.69 234.456 1312.45 234.456H1312.5Z" fill="#AC0202"/>
<path d="M1408.91 216.693C1392.15 180.399 1353.83 156.949 1311.27 156.949C1268.7 156.949 1230.41 180.399 1213.63 216.693C1213.49 217.02 1213.49 217.393 1213.67 217.696C1213.86 217.999 1214.18 218.208 1214.53 218.232C1222.27 218.768 1229.92 220.097 1237.26 222.194C1237.35 222.218 1237.47 222.241 1237.56 222.241C1237.96 222.241 1238.33 222.031 1238.52 221.658C1252.55 195.388 1280.89 179.071 1312.5 179.071C1344.11 179.071 1372.01 195.155 1386.16 221.076C1386.39 221.518 1386.9 221.728 1387.39 221.612C1394.04 219.863 1400.96 218.745 1408 218.255C1408.35 218.232 1408.67 218.022 1408.86 217.719C1409.05 217.416 1409.07 217.043 1408.91 216.717V216.693Z" fill="#AC0202"/>
<path d="M976.108 272.801C952.077 272.801 930.236 285.109 919.118 304.899C918.978 305.155 918.932 305.458 919.025 305.738C919.118 306.018 919.305 306.251 919.584 306.391C925.388 309.281 930.912 312.708 935.994 316.554C936.18 316.694 936.413 316.764 936.646 316.764C936.74 316.764 936.809 316.764 936.903 316.74C937.229 316.671 937.485 316.461 937.625 316.158C944.501 302.242 959.606 293.244 976.108 293.244C992.611 293.244 1006.69 301.542 1013.94 314.876C1014.08 315.155 1014.36 315.342 1014.66 315.412C1014.96 315.482 1015.29 315.412 1015.55 315.225C1020.74 311.472 1026.32 308.162 1032.12 305.435C1032.4 305.295 1032.61 305.062 1032.7 304.782C1032.8 304.479 1032.75 304.176 1032.61 303.92C1021.33 284.712 999.697 272.801 976.155 272.801H976.108Z" fill="#AC0202"/>
<path d="M991.912 338.489C992.261 338.489 992.588 338.326 992.797 338.046C994.802 335.249 998.275 330.797 1000.58 328.186C1000.86 327.86 1000.93 327.417 1000.77 327.02C996.527 317.253 987.32 311.449 976.108 311.449C964.011 311.449 955.2 316.974 949.956 327.836C949.769 328.209 949.816 328.675 950.095 329.002C952.03 331.309 956.272 336.997 958.02 339.561C958.207 339.841 958.627 340.028 958.953 340.028H958.999C959.489 340.028 959.885 339.701 960.002 339.235C964.477 332.219 970.328 328.209 976.085 328.209C981.236 328.209 986.527 331.682 991.003 338.023C991.212 338.303 991.539 338.489 991.888 338.489H991.912Z" fill="#AC0202"/>
<path d="M1049.76 298.046C1050 298.489 1050.51 298.722 1051 298.582C1057.64 296.834 1064.57 295.715 1071.6 295.225C1071.95 295.202 1072.28 294.992 1072.47 294.689C1072.65 294.386 1072.68 294.013 1072.51 293.687C1055.75 257.393 1017.43 233.943 974.873 233.943C932.311 233.943 893.991 257.393 877.232 293.687C877.092 294.013 877.092 294.386 877.279 294.689C877.465 294.992 877.791 295.202 878.141 295.225C885.856 295.761 893.502 297.09 900.867 299.188C900.96 299.211 901.077 299.235 901.17 299.235C901.566 299.235 901.939 299.025 902.126 298.652C916.158 272.381 944.501 256.064 976.108 256.064C1007.71 256.064 1035.62 272.148 1049.76 298.069V298.046Z" fill="#AC0202"/>
<path d="M863.969 350.75C839.938 350.75 818.098 363.058 806.979 382.848C806.839 383.105 806.793 383.408 806.886 383.687C806.979 383.967 807.166 384.2 807.445 384.34C813.249 387.231 818.774 390.657 823.855 394.48C824.041 394.62 824.274 394.69 824.508 394.69C824.601 394.69 824.671 394.69 824.764 394.667C825.09 394.597 825.347 394.387 825.486 394.084C832.363 380.168 847.467 371.17 863.969 371.17C880.472 371.17 894.551 379.468 901.8 392.802C901.939 393.081 902.219 393.268 902.522 393.338C902.825 393.408 903.152 393.338 903.408 393.151C908.606 389.398 914.177 386.088 919.981 383.361C920.26 383.221 920.47 382.988 920.563 382.708C920.656 382.405 920.61 382.102 920.47 381.846C909.189 362.638 887.558 350.727 864.039 350.727L863.969 350.75Z" fill="#AC0202"/>
<path d="M862.734 311.892C820.195 311.892 781.852 335.342 765.093 371.636C764.953 371.962 764.953 372.335 765.14 372.638C765.326 372.941 765.653 373.151 766.002 373.175C773.717 373.711 781.363 375.039 788.728 377.114C788.822 377.137 788.938 377.161 789.031 377.161C789.428 377.161 789.801 376.951 789.987 376.578C804.019 350.307 832.363 333.99 863.969 333.99C895.576 333.99 923.477 350.074 937.625 375.995C937.858 376.438 938.371 376.648 938.861 376.531C945.504 374.783 952.426 373.664 959.466 373.175C959.815 373.151 960.142 372.941 960.328 372.638C960.515 372.335 960.538 371.962 960.375 371.636C943.616 335.342 905.296 311.892 862.734 311.892Z" fill="#AC0202"/>
<path d="M1200.39 272.801C1176.35 272.801 1154.51 285.109 1143.4 304.899C1143.26 305.155 1143.21 305.458 1143.3 305.738C1143.4 306.018 1143.58 306.251 1143.86 306.391C1149.67 309.281 1155.19 312.708 1160.27 316.531C1160.46 316.671 1160.69 316.741 1160.92 316.741C1161.02 316.741 1161.09 316.741 1161.18 316.717C1161.51 316.647 1161.76 316.438 1161.9 316.135C1168.78 302.218 1183.88 293.221 1200.39 293.221C1216.89 293.221 1230.97 301.519 1238.22 314.852C1238.36 315.132 1238.64 315.319 1238.94 315.389C1239.24 315.459 1239.57 315.389 1239.82 315.202C1245.02 311.449 1250.59 308.139 1256.37 305.412C1256.65 305.272 1256.86 305.039 1256.96 304.759C1257.05 304.456 1257 304.153 1256.86 303.897C1245.58 284.689 1223.95 272.778 1200.43 272.778L1200.39 272.801Z" fill="#AC0202"/>
<path d="M1200.36 311.449C1188.27 311.449 1179.45 316.974 1174.21 327.836C1174.02 328.233 1174.07 328.675 1174.35 329.002C1176.28 331.309 1180.53 336.997 1182.27 339.561C1182.48 339.864 1182.81 340.028 1183.16 340.028C1183.53 340.028 1183.86 339.818 1184.07 339.515C1188.57 332.335 1194.49 328.209 1200.32 328.209C1205.47 328.209 1210.76 331.682 1215.23 338.023C1215.44 338.303 1215.77 338.489 1216.12 338.489C1216.47 338.489 1216.8 338.326 1217.01 338.046C1219.03 335.226 1222.48 330.773 1224.79 328.186C1225.07 327.86 1225.14 327.417 1224.98 327.02C1220.73 317.253 1211.53 311.449 1200.29 311.449H1200.36Z" fill="#AC0202"/>
<path d="M1199.13 233.943C1156.59 233.943 1118.25 257.393 1101.49 293.687C1101.35 294.013 1101.35 294.386 1101.53 294.689C1101.72 294.992 1102.05 295.202 1102.4 295.225C1110.11 295.761 1117.76 297.09 1125.12 299.165C1125.21 299.188 1125.33 299.211 1125.42 299.211C1125.82 299.211 1126.19 299.002 1126.38 298.629C1140.41 272.358 1168.76 256.041 1200.36 256.041C1231.97 256.041 1259.87 272.125 1274.02 298.046C1274.25 298.489 1274.76 298.722 1275.25 298.582C1281.9 296.834 1288.82 295.715 1295.86 295.225C1296.21 295.202 1296.53 294.992 1296.72 294.689C1296.91 294.386 1296.93 294.013 1296.77 293.687C1280.01 257.393 1241.69 233.943 1199.13 233.943Z" fill="#AC0202"/>
<path d="M1088.25 350.75C1064.22 350.75 1042.38 363.058 1031.26 382.848C1031.12 383.105 1031.07 383.408 1031.16 383.687C1031.26 383.967 1031.44 384.2 1031.72 384.34C1037.53 387.231 1043.05 390.657 1048.13 394.48C1048.32 394.62 1048.55 394.69 1048.79 394.69C1048.88 394.69 1048.95 394.69 1049.04 394.667C1049.37 394.597 1049.62 394.387 1049.76 394.084C1056.64 380.168 1071.74 371.17 1088.25 371.17C1104.75 371.17 1118.83 379.468 1126.08 392.802C1126.22 393.081 1126.5 393.268 1126.8 393.338C1127.1 393.408 1127.43 393.338 1127.69 393.151C1132.88 389.398 1138.45 386.088 1144.26 383.361C1144.54 383.221 1144.75 382.988 1144.84 382.708C1144.93 382.405 1144.89 382.102 1144.75 381.846C1133.47 362.638 1111.84 350.727 1088.32 350.727L1088.25 350.75Z" fill="#AC0202"/>
<path d="M1086.99 311.892C1044.45 311.892 1006.11 335.342 989.348 371.636C989.208 371.962 989.208 372.335 989.394 372.638C989.581 372.941 989.907 373.151 990.257 373.175C997.972 373.711 1005.62 375.039 1012.98 377.137C1013.08 377.161 1013.19 377.184 1013.29 377.184C1013.68 377.184 1014.05 376.974 1014.24 376.601C1028.27 350.331 1056.62 334.013 1088.22 334.013C1119.83 334.013 1147.73 350.097 1161.88 376.018C1162.11 376.461 1162.63 376.671 1163.12 376.555C1169.76 374.806 1176.68 373.687 1183.72 373.198C1184.07 373.175 1184.4 372.965 1184.58 372.662C1184.77 372.359 1184.79 371.986 1184.63 371.659C1167.87 335.365 1129.55 311.915 1086.99 311.915V311.892Z" fill="#AC0202"/>
</g>
<g clip-path="url(#clip5_5693_23875)">
<path d="M1346.94 80.9797C1347.08 81.2594 1347.36 81.4459 1347.66 81.5158C1347.96 81.5857 1348.29 81.5158 1348.55 81.3293C1353.74 77.5764 1359.32 74.2896 1365.12 71.539C1365.4 71.3992 1365.61 71.1661 1365.7 70.8864C1365.8 70.6066 1365.75 70.2803 1365.61 70.0239C1354.33 50.8163 1332.7 38.9048 1309.15 38.9048C1285.61 38.9048 1263.28 51.2126 1252.16 71.0029C1252.02 71.2593 1251.98 71.5624 1252.07 71.8421C1252.16 72.1218 1252.35 72.3549 1252.63 72.4948C1258.43 75.4085 1263.96 78.8118 1269.04 82.658C1269.23 82.7979 1269.46 82.8678 1269.69 82.8678C1269.79 82.8678 1269.86 82.8678 1269.95 82.8445C1270.28 82.7746 1270.53 82.5648 1270.67 82.2617C1277.55 68.3455 1292.65 59.3478 1309.15 59.3478C1325.66 59.3478 1339.74 67.6462 1346.99 80.9797H1346.94Z" fill="#AC0202"/>
<path d="M1291.04 105.642C1291.25 105.945 1291.58 106.108 1291.93 106.108H1291.95C1292.33 106.108 1292.65 105.898 1292.84 105.595C1297.34 98.4157 1303.26 94.2898 1309.08 94.2898C1314.24 94.2898 1319.53 97.7863 1324 104.103C1324.21 104.383 1324.54 104.57 1324.89 104.57C1325.24 104.57 1325.56 104.406 1325.77 104.127C1327.8 101.306 1331.25 96.8539 1333.56 94.2665C1333.84 93.9402 1333.91 93.4973 1333.75 93.101C1329.5 83.334 1320.3 77.5298 1309.08 77.5298C1296.99 77.5298 1288.18 83.0543 1282.93 93.9169C1282.75 94.2898 1282.79 94.756 1283.07 95.0824C1284.98 97.3901 1289.25 103.078 1291 105.642H1291.04Z" fill="#AC0202"/>
<path d="M1211.14 61.2825C1218.88 61.8186 1226.52 63.1473 1233.87 65.2452C1233.96 65.2685 1234.08 65.2918 1234.17 65.2918C1234.57 65.2918 1234.94 65.082 1235.13 64.7091C1249.16 38.4385 1277.5 22.1214 1309.11 22.1214C1340.71 22.1214 1368.62 38.2054 1382.76 64.1263C1383 64.5692 1383.51 64.8023 1384 64.6625C1390.64 62.9142 1397.57 61.7953 1404.6 61.3058C1404.95 61.2825 1405.28 61.0727 1405.47 60.7697C1405.65 60.4666 1405.68 60.0937 1405.51 59.7673C1388.73 23.45 1350.41 0 1307.87 0C1265.33 0 1226.99 23.45 1210.23 59.744C1210.09 60.0703 1210.09 60.4433 1210.28 60.7463C1210.47 61.0494 1210.79 61.2592 1211.14 61.2825Z" fill="#AC0202"/>
<path d="M1234.8 158.905C1234.94 159.185 1235.22 159.372 1235.52 159.442C1235.83 159.512 1236.15 159.442 1236.41 159.255C1241.61 155.502 1247.18 152.192 1252.96 149.465C1253.24 149.325 1253.45 149.092 1253.54 148.812C1253.63 148.509 1253.59 148.206 1253.45 147.95C1242.17 128.742 1220.53 116.831 1197.02 116.831C1173.5 116.831 1151.14 129.138 1140.03 148.929C1139.89 149.185 1139.84 149.488 1139.93 149.768C1140.03 150.048 1140.21 150.281 1140.49 150.421C1146.32 153.334 1151.82 156.738 1156.9 160.584C1157.09 160.724 1157.32 160.794 1157.55 160.794C1157.65 160.794 1157.72 160.794 1157.81 160.77C1158.14 160.7 1158.39 160.491 1158.53 160.188C1165.41 146.271 1180.51 137.274 1197.02 137.274C1213.52 137.274 1227.6 145.572 1234.85 158.905H1234.8Z" fill="#AC0202"/>
<path d="M1178.91 183.591C1179.11 183.871 1179.51 184.057 1179.86 184.057H1179.88C1180.42 184.057 1180.86 183.684 1180.96 183.172C1185.43 176.225 1191.26 172.239 1196.97 172.239C1202.12 172.239 1207.41 175.712 1211.89 182.053C1212.1 182.332 1212.42 182.519 1212.77 182.519C1213.12 182.519 1213.45 182.356 1213.66 182.076C1215.66 179.279 1219.14 174.826 1221.44 172.216C1221.72 171.889 1221.79 171.446 1221.63 171.05C1217.39 161.283 1208.18 155.479 1196.97 155.479C1184.87 155.479 1176.06 161.004 1170.82 171.866C1170.63 172.239 1170.68 172.705 1170.96 173.032C1172.87 175.316 1177.11 181.004 1178.88 183.591H1178.91Z" fill="#AC0202"/>
<path d="M1099 139.232C1106.74 139.768 1114.39 141.097 1121.73 143.195C1121.82 143.218 1121.94 143.241 1122.03 143.241C1122.43 143.241 1122.8 143.031 1122.99 142.658C1137.02 116.388 1165.36 100.071 1196.97 100.071C1228.58 100.071 1256.48 116.155 1270.63 142.076C1270.86 142.519 1271.37 142.728 1271.86 142.612C1278.5 140.864 1285.43 139.745 1292.47 139.255C1292.82 139.232 1293.14 139.022 1293.33 138.719C1293.51 138.416 1293.54 138.043 1293.37 137.717C1276.62 101.423 1238.3 77.9727 1195.73 77.9727C1153.17 77.9727 1114.85 101.399 1098.09 137.693C1097.95 138.02 1097.95 138.393 1098.14 138.696C1098.33 138.999 1098.65 139.209 1099 139.232Z" fill="#AC0202"/>
<path d="M1571.19 80.9797C1571.33 81.2594 1571.61 81.4459 1571.92 81.5158C1572.22 81.5857 1572.54 81.5158 1572.8 81.3293C1578 77.5764 1583.57 74.2663 1589.35 71.539C1589.63 71.3992 1589.84 71.1661 1589.93 70.8864C1590.03 70.5833 1589.98 70.2803 1589.84 70.0239C1578.56 50.8163 1556.93 38.9048 1533.41 38.9048C1509.89 38.9048 1487.54 51.2126 1476.42 71.0029C1476.28 71.2593 1476.23 71.5624 1476.33 71.8421C1476.42 72.1218 1476.61 72.3549 1476.89 72.4948C1482.71 75.4085 1488.21 78.8118 1493.29 82.658C1493.48 82.7979 1493.71 82.8678 1493.95 82.8678C1494.04 82.8678 1494.11 82.8678 1494.2 82.8445C1494.53 82.7746 1494.79 82.5648 1494.93 82.2617C1501.8 68.3455 1516.91 59.3478 1533.41 59.3478C1549.91 59.3478 1563.99 67.6462 1571.24 80.9797H1571.19Z" fill="#AC0202"/>
<path d="M1533.36 77.5063C1521.27 77.5063 1512.45 83.0309 1507.21 93.8934C1507.02 94.2664 1507.07 94.7326 1507.35 95.0589C1509.26 97.3433 1513.5 103.031 1515.27 105.618C1515.48 105.898 1515.88 106.085 1516.23 106.085C1516.77 106.085 1517.21 105.712 1517.3 105.199C1521.78 98.2524 1527.61 94.2664 1533.32 94.2664C1538.47 94.2664 1543.76 97.7629 1548.23 104.08C1548.44 104.36 1548.77 104.546 1549.12 104.546C1549.47 104.546 1549.8 104.383 1550.01 104.103C1551.99 101.329 1555.41 96.9237 1557.79 94.2431C1558.07 93.9167 1558.14 93.4738 1557.98 93.0776C1553.73 83.3106 1544.53 77.5063 1533.29 77.5063H1533.36Z" fill="#AC0202"/>
<path d="M1435.42 61.2825C1443.16 61.8186 1450.8 63.1473 1458.14 65.2452C1458.24 65.2685 1458.35 65.2918 1458.45 65.2918C1458.84 65.2918 1459.22 65.082 1459.4 64.7091C1473.44 38.4385 1501.78 22.1214 1533.39 22.1214C1564.99 22.1214 1592.89 38.2054 1607.04 64.1263C1607.27 64.5692 1607.79 64.8023 1608.28 64.6625C1614.92 62.9142 1621.84 61.7953 1628.88 61.3058C1629.23 61.2825 1629.56 61.0727 1629.74 60.7697C1629.93 60.4666 1629.95 60.0937 1629.79 59.7673C1613.01 23.45 1574.69 0 1532.13 0C1489.57 0 1451.25 23.45 1434.49 59.744C1434.35 60.0703 1434.35 60.4433 1434.53 60.7463C1434.72 61.0494 1435.05 61.2592 1435.4 61.2825H1435.42Z" fill="#AC0202"/>
<path d="M1459.05 158.905C1459.19 159.185 1459.47 159.372 1459.78 159.442C1460.08 159.512 1460.41 159.442 1460.66 159.255C1465.86 155.502 1471.43 152.192 1477.21 149.465C1477.49 149.325 1477.7 149.092 1477.79 148.812C1477.89 148.509 1477.84 148.206 1477.7 147.95C1466.42 128.742 1444.79 116.831 1421.27 116.831C1397.75 116.831 1375.4 129.138 1364.28 148.929C1364.14 149.185 1364.09 149.488 1364.19 149.768C1364.28 150.048 1364.47 150.281 1364.75 150.421C1370.57 153.334 1376.07 156.738 1381.16 160.584C1381.34 160.724 1381.58 160.794 1381.81 160.794C1381.9 160.794 1381.97 160.794 1382.06 160.77C1382.39 160.7 1382.65 160.491 1382.79 160.188C1389.66 146.271 1404.77 137.274 1421.27 137.274C1437.77 137.274 1451.85 145.572 1459.1 158.905H1459.05Z" fill="#AC0202"/>
<path d="M1421.25 172.239C1426.4 172.239 1431.69 175.712 1436.16 182.053C1436.37 182.332 1436.7 182.519 1437.05 182.519C1437.4 182.519 1437.73 182.356 1437.94 182.076C1439.94 179.255 1443.41 174.803 1445.72 172.216C1446 171.889 1446.07 171.446 1445.91 171.05C1441.67 161.283 1432.46 155.479 1421.25 155.479C1409.15 155.479 1400.34 161.004 1395.09 171.866C1394.91 172.239 1394.95 172.705 1395.23 173.032C1397.15 175.339 1401.41 181.027 1403.16 183.591C1403.37 183.894 1403.7 184.057 1404.05 184.057H1404.07C1404.44 184.057 1404.77 183.848 1404.95 183.544C1409.45 176.365 1415.37 172.239 1421.2 172.239H1421.25Z" fill="#AC0202"/>
<path d="M1322.37 137.693C1322.23 138.02 1322.23 138.393 1322.42 138.696C1322.6 138.999 1322.93 139.209 1323.28 139.232C1331.02 139.768 1338.66 141.097 1346.01 143.195C1346.1 143.218 1346.22 143.241 1346.31 143.241C1346.71 143.241 1347.08 143.031 1347.26 142.658C1361.3 116.388 1389.64 100.071 1421.25 100.071C1452.85 100.071 1480.75 116.155 1494.9 142.076C1495.14 142.519 1495.65 142.728 1496.14 142.612C1502.78 140.864 1509.7 139.745 1516.74 139.255C1517.09 139.232 1517.42 139.022 1517.61 138.719C1517.79 138.416 1517.82 138.043 1517.65 137.717C1500.89 101.423 1462.57 77.9727 1420.01 77.9727C1377.45 77.9727 1339.15 101.423 1322.37 137.717V137.693Z" fill="#AC0202"/>
<path d="M1309.11 193.801C1285.08 193.801 1263.24 206.109 1252.12 225.899C1251.98 226.155 1251.93 226.458 1252.02 226.738C1252.12 227.018 1252.3 227.251 1252.58 227.391C1258.39 230.281 1263.91 233.708 1268.99 237.554C1269.18 237.694 1269.41 237.764 1269.65 237.764C1269.74 237.764 1269.81 237.764 1269.9 237.74C1270.23 237.671 1270.49 237.461 1270.63 237.158C1277.5 223.242 1292.61 214.244 1309.11 214.244C1325.61 214.244 1339.69 222.542 1346.94 235.876C1347.08 236.155 1347.36 236.342 1347.66 236.412C1347.96 236.482 1348.29 236.412 1348.55 236.225C1353.74 232.472 1359.32 229.162 1365.12 226.435C1365.4 226.295 1365.61 226.062 1365.7 225.782C1365.8 225.479 1365.75 225.176 1365.61 224.92C1354.33 205.712 1332.7 193.801 1309.15 193.801H1309.11Z" fill="#AC0202"/>
<path d="M1324.91 259.489C1325.26 259.489 1325.59 259.326 1325.8 259.046C1327.8 256.249 1331.27 251.797 1333.58 249.186C1333.86 248.86 1333.93 248.417 1333.77 248.02C1329.53 238.253 1320.32 232.449 1309.11 232.449C1297.01 232.449 1288.2 237.974 1282.96 248.836C1282.77 249.209 1282.82 249.675 1283.1 250.002C1285.03 252.309 1289.27 257.997 1291.02 260.561C1291.21 260.841 1291.63 261.028 1291.95 261.028H1292C1292.49 261.028 1292.89 260.701 1293 260.235C1297.48 253.219 1303.33 249.209 1309.08 249.209C1314.24 249.209 1319.53 252.682 1324 259.023C1324.21 259.303 1324.54 259.489 1324.89 259.489H1324.91Z" fill="#AC0202"/>
<path d="M1382.76 219.046C1383 219.489 1383.51 219.722 1384 219.582C1390.64 217.834 1397.57 216.715 1404.6 216.225C1404.95 216.202 1405.28 215.992 1405.47 215.689C1405.65 215.386 1405.68 215.013 1405.51 214.687C1388.75 178.393 1350.43 154.943 1307.87 154.943C1265.31 154.943 1226.99 178.393 1210.23 214.687C1210.09 215.013 1210.09 215.386 1210.28 215.689C1210.47 215.992 1210.79 216.202 1211.14 216.225C1218.86 216.761 1226.5 218.09 1233.87 220.188C1233.96 220.211 1234.08 220.235 1234.17 220.235C1234.57 220.235 1234.94 220.025 1235.13 219.652C1249.16 193.381 1277.5 177.064 1309.11 177.064C1340.71 177.064 1368.62 193.148 1382.76 219.069V219.046Z" fill="#AC0202"/>
<path d="M1196.97 271.75C1172.94 271.75 1151.1 284.058 1139.98 303.848C1139.84 304.105 1139.79 304.408 1139.89 304.687C1139.98 304.967 1140.17 305.2 1140.45 305.34C1146.25 308.231 1151.77 311.657 1156.85 315.48C1157.04 315.62 1157.27 315.69 1157.51 315.69C1157.6 315.69 1157.67 315.69 1157.76 315.667C1158.09 315.597 1158.35 315.387 1158.49 315.084C1165.36 301.168 1180.47 292.17 1196.97 292.17C1213.47 292.17 1227.55 300.468 1234.8 313.802C1234.94 314.081 1235.22 314.268 1235.52 314.338C1235.83 314.408 1236.15 314.338 1236.41 314.151C1241.61 310.398 1247.18 307.088 1252.98 304.361C1253.26 304.221 1253.47 303.988 1253.56 303.708C1253.66 303.405 1253.61 303.102 1253.47 302.846C1242.19 283.638 1220.56 271.727 1197.04 271.727L1196.97 271.75Z" fill="#AC0202"/>
<path d="M1196.97 310.398C1184.87 310.398 1176.06 315.923 1170.82 326.785C1170.63 327.182 1170.68 327.625 1170.96 327.951C1172.87 330.235 1177.11 335.923 1178.88 338.511C1179.09 338.814 1179.42 338.977 1179.77 338.977C1180.14 338.977 1180.47 338.767 1180.68 338.464C1185.18 331.284 1191.1 327.158 1196.92 327.158C1202.07 327.158 1207.37 330.632 1211.84 336.972C1212.05 337.252 1212.38 337.438 1212.73 337.438C1213.08 337.438 1213.4 337.275 1213.61 336.995C1215.59 334.221 1219 329.816 1221.4 327.135C1221.68 326.809 1221.75 326.366 1221.58 325.97C1217.34 316.203 1208.13 310.398 1196.92 310.398H1196.97Z" fill="#AC0202"/>
<path d="M1195.73 232.892C1153.2 232.892 1114.85 256.342 1098.09 292.636C1097.95 292.962 1097.95 293.335 1098.14 293.638C1098.33 293.941 1098.65 294.151 1099 294.175C1106.72 294.711 1114.36 296.039 1121.73 298.114C1121.82 298.137 1121.94 298.161 1122.03 298.161C1122.43 298.161 1122.8 297.951 1122.99 297.578C1137.02 271.307 1165.36 254.99 1196.97 254.99C1228.58 254.99 1256.48 271.074 1270.63 296.995C1270.86 297.438 1271.37 297.648 1271.86 297.531C1278.5 295.783 1285.43 294.664 1292.47 294.175C1292.82 294.151 1293.14 293.941 1293.33 293.638C1293.51 293.335 1293.54 292.962 1293.37 292.636C1276.62 256.342 1238.3 232.892 1195.73 232.892Z" fill="#AC0202"/>
<path d="M1533.39 193.801C1509.35 193.801 1487.51 206.109 1476.4 225.899C1476.26 226.155 1476.21 226.458 1476.3 226.738C1476.4 227.018 1476.58 227.251 1476.86 227.391C1482.67 230.281 1488.19 233.708 1493.27 237.531C1493.46 237.671 1493.69 237.741 1493.92 237.741C1494.02 237.741 1494.09 237.741 1494.18 237.717C1494.51 237.647 1494.76 237.438 1494.9 237.135C1501.78 223.218 1516.88 214.221 1533.39 214.221C1549.89 214.221 1563.97 222.519 1571.22 235.852C1571.36 236.132 1571.64 236.319 1571.94 236.389C1572.24 236.459 1572.57 236.389 1572.82 236.202C1578.02 232.449 1583.59 229.139 1589.37 226.412C1589.65 226.272 1589.86 226.039 1589.96 225.759C1590.05 225.456 1590 225.153 1589.86 224.897C1578.58 205.689 1556.95 193.778 1533.43 193.778L1533.39 193.801Z" fill="#AC0202"/>
<path d="M1533.36 232.449C1521.27 232.449 1512.45 237.974 1507.21 248.836C1507.02 249.233 1507.07 249.675 1507.35 250.002C1509.28 252.309 1513.53 257.997 1515.27 260.561C1515.48 260.864 1515.81 261.028 1516.16 261.028C1516.53 261.028 1516.86 260.818 1517.07 260.515C1521.57 253.335 1527.49 249.209 1533.32 249.209C1538.47 249.209 1543.76 252.682 1548.23 259.023C1548.44 259.303 1548.77 259.489 1549.12 259.489C1549.47 259.489 1549.8 259.326 1550.01 259.046C1552.03 256.226 1555.48 251.773 1557.79 249.186C1558.07 248.86 1558.14 248.417 1557.98 248.02C1553.73 238.253 1544.53 232.449 1533.29 232.449H1533.36Z" fill="#AC0202"/>
<path d="M1532.13 154.943C1489.59 154.943 1451.25 178.393 1434.49 214.687C1434.35 215.013 1434.35 215.386 1434.53 215.689C1434.72 215.992 1435.05 216.202 1435.4 216.225C1443.11 216.761 1450.76 218.09 1458.12 220.165C1458.21 220.188 1458.33 220.211 1458.42 220.211C1458.82 220.211 1459.19 220.002 1459.38 219.629C1473.41 193.358 1501.76 177.041 1533.36 177.041C1564.97 177.041 1592.87 193.125 1607.02 219.046C1607.25 219.489 1607.76 219.722 1608.25 219.582C1614.9 217.834 1621.82 216.715 1628.86 216.225C1629.21 216.202 1629.53 215.992 1629.72 215.689C1629.91 215.386 1629.93 215.013 1629.77 214.687C1613.01 178.393 1574.69 154.943 1532.13 154.943Z" fill="#AC0202"/>
<path d="M1421.25 271.75C1397.22 271.75 1375.38 284.058 1364.26 303.848C1364.12 304.105 1364.07 304.408 1364.16 304.687C1364.26 304.967 1364.44 305.2 1364.72 305.34C1370.53 308.231 1376.05 311.657 1381.13 315.48C1381.32 315.62 1381.55 315.69 1381.79 315.69C1381.88 315.69 1381.95 315.69 1382.04 315.667C1382.37 315.597 1382.62 315.387 1382.76 315.084C1389.64 301.168 1404.74 292.17 1421.25 292.17C1437.75 292.17 1451.83 300.468 1459.08 313.802C1459.22 314.081 1459.5 314.268 1459.8 314.338C1460.1 314.408 1460.43 314.338 1460.69 314.151C1465.88 310.398 1471.45 307.088 1477.26 304.361C1477.54 304.221 1477.75 303.988 1477.84 303.708C1477.93 303.405 1477.89 303.102 1477.75 302.846C1466.47 283.638 1444.84 271.727 1421.32 271.727L1421.25 271.75Z" fill="#AC0202"/>
<path d="M1421.25 310.398C1409.15 310.398 1400.34 315.923 1395.09 326.785C1394.91 327.158 1394.95 327.625 1395.23 327.951C1397.17 330.259 1401.41 335.946 1403.16 338.511C1403.37 338.814 1403.79 338.977 1404.14 338.977C1404.63 338.977 1405.02 338.65 1405.14 338.184C1409.62 331.168 1415.47 327.158 1421.22 327.158C1426.37 327.158 1431.67 330.632 1436.14 336.972C1436.35 337.252 1436.68 337.438 1437.03 337.438C1437.38 337.438 1437.7 337.275 1437.91 336.995C1439.89 334.221 1443.32 329.816 1445.7 327.135C1445.98 326.809 1446.05 326.366 1445.88 325.97C1441.64 316.203 1432.44 310.398 1421.22 310.398H1421.25Z" fill="#AC0202"/>
<path d="M1419.99 232.892C1377.45 232.892 1339.11 256.342 1322.35 292.636C1322.21 292.962 1322.21 293.335 1322.39 293.638C1322.58 293.941 1322.91 294.151 1323.26 294.175C1330.97 294.711 1338.62 296.039 1345.98 298.137C1346.08 298.161 1346.19 298.184 1346.29 298.184C1346.68 298.184 1347.05 297.974 1347.24 297.601C1361.27 271.331 1389.62 255.013 1421.22 255.013C1452.83 255.013 1480.73 271.097 1494.88 297.018C1495.11 297.461 1495.63 297.671 1496.12 297.555C1502.76 295.806 1509.68 294.687 1516.72 294.198C1517.07 294.175 1517.4 293.965 1517.58 293.662C1517.77 293.359 1517.79 292.986 1517.63 292.659C1500.87 256.365 1462.55 232.915 1419.99 232.915V232.892Z" fill="#AC0202"/>
</g>
</g>
<defs>
<clipPath id="clip0_5693_23875">
<rect width="644" height="339" fill="white" transform="translate(-224 2)"/>
</clipPath>
<clipPath id="clip1_5693_23875">
<rect width="644" height="339" fill="white" transform="translate(1098 312)"/>
</clipPath>
<clipPath id="clip2_5693_23875">
<rect width="644" height="339" fill="white" transform="translate(-234 312)"/>
</clipPath>
<clipPath id="clip3_5693_23875">
<rect width="644" height="339" fill="white" transform="translate(218 157)"/>
</clipPath>
<clipPath id="clip4_5693_23875">
<rect width="644" height="339" fill="white" transform="translate(765 79)"/>
</clipPath>
<clipPath id="clip5_5693_23875">
<rect width="644" height="339" fill="white" transform="translate(1098)"/>
</clipPath>
</defs>
</svg>
