<svg width="75" height="207" viewBox="0 0 75 207" fill="none" xmlns="http://www.w3.org/2000/svg">
<path d="M62.9927 24.2734C60.6752 28.4599 57.3858 31.525 53.1245 33.4687C51.7789 34.4406 50.4332 35.1881 48.8633 35.7862H47.8167C47.2934 35.7862 46.8448 35.861 46.3963 36.0105C43.4807 36.9076 40.5651 37.5804 37.5748 38.029C34.7339 38.4775 31.8931 39.2251 29.2018 40.197C24.3425 41.9164 19.4084 42.8883 14.3996 43.1873C14.1753 43.1873 14.0258 43.1125 14.0258 42.8883C13.8763 42.7388 13.652 42.664 13.5025 42.5892C13.2035 42.5892 13.054 42.365 13.054 42.1407C13.1287 41.8417 13.2782 41.6174 13.652 41.5426C14.8482 41.5426 15.9695 41.0941 16.9414 40.2717C16.9414 40.2717 16.9414 40.2717 17.0909 40.197C18.2123 39.6737 19.3337 39.2999 20.6046 39.1503C27.7814 36.9076 34.5097 33.7677 40.7894 29.7308C43.6302 27.5628 46.2468 25.0957 48.5643 22.4044C49.8352 20.9093 50.4332 19.1151 50.4332 17.1713C50.4332 16.1247 50.2837 15.0781 49.9099 14.1062C48.5643 11.9382 46.6953 10.7421 44.1535 10.5178C43.4807 10.5178 42.8826 10.4431 42.2845 10.4431C38.8457 10.4431 35.631 11.4897 32.865 13.5829C29.2766 16.7975 25.2396 19.1151 20.6793 20.5355H20.6046C19.9317 20.685 19.2589 20.7597 18.5861 20.685C17.0162 20.7597 15.4462 20.5355 13.9511 20.0869C11.484 19.4888 9.76458 18.0684 8.79272 15.6762V15.4519C8.79272 14.7043 9.017 13.9567 9.54031 13.3586C9.54031 13.2839 9.54031 13.2839 9.61507 13.2839C11.3345 12.4615 13.2035 11.9382 15.1472 11.6392C18.1375 10.8169 20.9036 9.62072 23.5202 7.97604C26.2862 6.18183 29.127 4.68666 32.0426 3.341C35.2572 1.84584 38.6961 1.02349 42.2845 0.94873C46.172 1.02349 49.7604 1.99535 53.1245 3.86432C55.2178 4.91094 57.1615 6.18183 58.9557 7.75176C60.0771 8.79838 61.1237 9.91976 62.1703 11.1907C63.2917 12.3868 63.8898 13.9567 63.8898 15.6762V15.7509C64.114 16.7975 64.2636 17.9189 64.3383 19.0403C64.2636 20.9093 63.815 22.6287 62.9927 24.2734Z" fill="white"/>
<path d="M37.4252 120.01C41.6117 116.421 44.3778 111.936 45.6487 106.478C46.6205 102.74 47.0691 98.9277 47.0691 95.0403C47.0691 93.5451 46.9943 92.1247 46.9196 90.5548C45.2749 91.1529 43.6302 91.8257 42.0603 92.5733C41.9855 92.5733 41.9108 92.648 41.9108 92.648C39.967 93.3209 37.9486 93.6199 35.9301 93.5451H35.332C34.5097 93.3209 33.9863 92.7975 33.6126 92.05C33.6126 92.05 33.5378 91.9752 33.5378 91.9004C33.463 91.5266 33.3883 91.1528 33.3883 90.7043C33.3883 90.4053 33.463 90.0315 33.5378 89.6577C33.5378 89.5082 33.6126 89.4334 33.7621 89.2839H33.9116C33.9863 89.2091 34.1359 89.1344 34.2854 89.0596C34.2854 88.9849 34.3601 88.9101 34.5097 88.9101V88.6858C34.5097 88.5363 34.5844 88.3868 34.7339 88.312C34.8087 88.312 34.9582 88.312 35.1077 88.312C35.332 88.3868 35.631 88.3868 35.9301 88.312C36.8272 88.312 37.6495 88.013 38.3971 87.3402V87.1907C41.3874 85.3217 44.303 83.2285 47.2186 80.9109C47.4429 79.5653 47.5924 78.0701 47.5924 76.6497C47.5176 74.706 47.3681 72.6875 47.0691 70.7438C46.9943 70.669 47.0691 70.5943 47.1439 70.5195C47.1439 70.37 47.1439 70.2205 47.2186 69.9962C47.1439 70.0709 47.0691 69.9962 47.1439 69.9214C46.9943 69.8467 46.9196 69.6972 46.9196 69.5476C46.9943 69.3981 47.0691 69.1738 47.2186 69.0243C47.3681 69.0243 47.5176 69.0243 47.8167 68.9496C47.6672 68.9496 47.5924 68.8 47.6672 68.6505C47.6672 68.501 47.7419 68.4263 47.8914 68.2767C47.9662 68.1272 48.1157 68.1272 48.2652 68.1272H48.4147C48.7885 68.1272 49.1623 68.0525 49.5361 67.7534C49.6109 67.6039 49.6856 67.6039 49.9099 67.6039C51.5546 68.3515 53.0498 69.1738 54.4702 70.2205C55.442 70.968 56.1149 71.9399 56.4887 73.136C57.012 74.1079 57.311 75.1545 57.3858 76.2011C58.8809 77.0982 60.0771 78.3691 61.0489 79.8643C61.1237 79.9391 61.1237 80.0138 61.1237 80.0886V80.3129C61.1237 82.4809 60.3014 84.2003 58.6567 85.4712C58.5819 85.546 58.5072 85.6207 58.3576 85.546C58.0586 85.6207 57.9091 85.845 57.7596 86.0693C57.6848 89.0596 57.6101 91.9752 57.6101 94.8908C57.6101 97.5821 57.6848 100.199 57.7596 102.815V103.338C57.7596 104.46 57.6848 105.432 57.4605 106.404V106.703C57.4605 107.226 57.311 107.749 57.1615 108.198C57.012 108.198 57.012 108.273 57.012 108.347C56.7129 108.646 56.6382 108.945 56.6382 109.244V109.543C56.0401 111.113 55.2925 112.609 54.4702 114.104C53.3488 116.122 51.7041 117.543 49.6109 118.29C48.4148 119.038 47.2934 119.561 46.0225 119.86C42.135 121.879 38.0981 123.374 33.9116 124.495C33.7621 124.645 33.5378 124.719 33.3135 124.719C32.9397 124.719 32.6407 124.57 32.3417 124.271C32.1921 124.047 32.1921 123.822 32.3417 123.673C32.4912 123.299 32.865 123.075 33.3135 123.075C34.7339 122.252 36.0796 121.281 37.4252 120.084V120.01ZM17.0909 82.9294C17.3152 81.2847 17.6142 79.7148 17.8385 77.9953V77.6216C17.8385 76.6497 17.7637 75.7526 17.5395 74.706V74.5565C17.5395 74.2574 17.689 74.0331 17.8385 73.8089C18.1375 73.5846 18.3618 73.4351 18.7356 73.3603H18.9599V73.136C18.9599 72.9118 19.0346 72.837 19.1842 72.7623C19.3337 72.6875 19.4832 72.6875 19.7822 72.7623C22.025 74.5565 23.2211 76.9487 23.2211 79.8643C23.2211 80.1633 23.1464 80.4624 23.1464 80.7614C23.2959 84.4993 23.4454 88.312 23.4454 92.05C23.1464 96.0122 22.9968 100.049 23.0716 104.011C22.9968 105.955 22.9968 107.899 23.1464 109.768C23.2959 110.74 23.7444 111.487 24.3425 112.085C25.5386 111.562 26.5105 110.665 27.1833 109.543C27.3328 109.244 27.6319 108.945 28.0057 108.721C28.1552 108.572 28.3795 108.497 28.6037 108.497H28.9028C28.9028 108.572 28.9775 108.646 29.127 108.721C29.2018 108.871 29.2766 108.945 29.3513 109.095V109.244C28.3795 111.936 27.8562 114.702 27.8562 117.468V117.991C27.7066 119.785 27.1086 121.355 26.0619 122.626C25.9124 122.776 25.7629 122.85 25.6134 122.776H25.5386C25.2396 122.701 24.9406 122.701 24.7163 122.701H24.1182C23.9687 122.776 23.8939 122.776 23.7444 122.701C22.324 121.654 21.0531 120.458 19.9317 119.038C16.1938 115.375 14.3249 110.889 14.3249 105.581V104.983C15.2967 97.7316 16.1938 90.4053 17.0909 83.0789V82.9294Z" fill="white"/>
<path d="M1.54115 201.962C1.24211 202.037 1.01784 201.962 0.868319 201.813C0.718802 201.588 0.644043 201.439 0.644043 201.215C0.644043 201.065 0.644043 200.916 0.79356 200.766C1.69066 200.093 2.36349 199.196 2.81204 198.15V197.85C2.81204 197.626 2.8868 197.477 3.11107 197.402V197.327C3.03632 197.252 3.03632 197.178 3.11107 197.028C3.41011 196.58 3.85866 196.131 4.45673 195.757C8.64321 188.805 11.7831 181.329 13.9511 173.404C11.2598 174.825 8.71797 176.245 6.10142 177.666C5.87714 177.74 5.65287 177.74 5.50335 177.591C4.23245 176.245 3.55963 174.601 3.55963 172.732C3.48487 172.582 3.55963 172.507 3.63438 172.358C3.93342 171.984 4.15769 171.535 4.30721 171.087C4.23245 170.937 4.23245 170.788 4.23245 170.638C4.23245 169.966 4.53149 169.367 5.0548 168.919C5.12956 167.648 5.80238 166.751 7.07328 166.302C7.14804 166.302 7.22279 166.302 7.37231 166.377C8.26941 166.975 9.017 167.723 9.68983 168.695C11.7083 168.097 13.652 167.349 15.5958 166.377C16.0443 165.106 16.2686 163.686 16.4181 162.265C15.222 162.639 14.1006 162.938 12.9044 163.088C12.5307 163.237 12.2316 163.237 11.8578 163.237C11.5588 163.312 11.3345 163.237 11.185 163.163C11.0355 163.237 10.9607 163.163 10.9607 162.938C9.98886 161.817 9.46555 160.546 9.39079 159.051C9.39079 159.051 9.39079 158.976 9.46555 158.976C9.54031 158.228 9.68983 157.556 9.9141 156.883C9.9141 156.733 9.98886 156.584 10.2879 156.434C10.2131 156.285 10.2879 156.135 10.4374 155.986C10.4374 155.911 10.5122 155.911 10.6617 155.911C10.6617 155.836 10.7364 155.761 10.886 155.687H11.2598C12.5307 155.911 13.8763 156.135 15.222 156.285C15.9695 155.986 16.7171 155.687 17.4647 155.537C17.4647 155.462 17.5395 155.462 17.6142 155.462C17.8385 154.491 18.0628 153.593 18.2123 152.696C14.7734 152.547 12.1569 150.977 10.4374 147.987C10.1384 147.613 9.98886 147.239 10.0636 146.716V146.566C9.98886 146.417 10.0636 146.267 10.3627 146.118C10.4374 145.968 10.5122 145.819 10.6617 145.594C10.5122 145.445 10.4374 145.295 10.5122 145.071C10.9607 144.174 11.6335 143.651 12.6802 143.501C12.8297 143.576 13.054 143.576 13.2782 143.576H13.353C14.6239 144.024 15.82 144.622 16.9414 145.445C17.7637 145.37 18.5861 145.295 19.4084 145.071V143.352C18.1375 142.38 17.39 141.109 17.2404 139.539C17.2404 139.315 17.3152 139.09 17.4647 138.941H17.689C17.689 138.866 17.689 138.791 17.6142 138.642C17.6142 138.492 17.6142 138.343 17.689 138.193C17.8385 138.044 17.988 137.969 18.2123 137.969V137.819C18.2123 137.67 18.2871 137.52 18.3618 137.371C18.4366 137.371 18.5861 137.371 18.8104 137.296H19.2589C19.7075 137.296 20.2308 137.221 20.6793 136.997C20.7541 136.997 20.8288 136.922 20.9036 136.922C21.1279 136.922 21.3522 136.922 21.6512 136.773H22.025C24.7163 137.745 26.8095 139.539 28.3047 142.006H29.0523C31.0708 142.081 32.7902 142.828 34.0611 144.398C34.1359 144.548 34.1359 144.697 34.2106 144.772C40.7894 144.024 47.3681 142.978 53.8721 141.782C55.9654 141.184 58.2081 140.66 60.4509 140.212C61.1237 140.212 61.4975 139.913 61.647 139.165C61.7218 139.016 61.8713 138.941 62.0208 138.866C62.0956 138.791 62.2451 138.791 62.3198 138.866C62.4694 138.866 62.6189 138.866 62.6936 138.866C62.7684 138.941 62.8431 138.941 62.9179 138.866C63.0674 138.642 63.2917 138.642 63.5907 138.791C63.7402 138.941 63.8898 139.016 63.9645 139.016C64.114 139.016 64.2636 139.016 64.2636 138.941C64.4131 139.016 64.4878 139.016 64.6374 139.016C66.7306 140.436 68.5996 142.006 70.319 143.725C70.319 143.875 70.3938 143.95 70.3938 143.95C70.5433 144.249 70.5433 144.548 70.5433 144.847C70.5433 145.22 70.5433 145.52 70.3938 145.819C70.1695 146.641 69.5714 147.089 68.6743 147.015H68.5996C67.2539 147.314 65.983 147.463 64.6374 147.388H63.2917C59.9276 147.688 56.7129 147.987 53.4983 148.286C55.2178 149.706 56.5634 151.425 57.5353 153.444C57.5353 153.743 57.4605 153.892 57.311 154.042C57.1615 154.266 56.9372 154.416 56.7877 154.491H57.0867C57.5353 154.191 57.9838 154.042 58.5819 153.967C58.9557 154.042 59.2547 154.117 59.6285 154.191C63.8898 155.836 67.7025 158.154 71.0666 161.219C71.2161 161.219 71.2161 161.294 71.2161 161.443C71.4404 162.265 71.5151 163.088 71.5899 163.91C71.5151 164.957 71.3656 165.929 71.0666 166.9V172.134C71.0666 175.871 70.9918 179.535 70.9918 183.198V183.347C70.319 185.142 69.5714 186.936 68.8238 188.655C67.9267 190.674 66.3568 191.72 64.1888 191.795C63.9645 191.87 63.815 191.795 63.815 191.646C62.9927 190.3 61.946 189.403 60.6004 188.954C59.7033 188.879 58.8062 188.805 57.8343 188.805C53.6478 188.879 49.4614 189.178 45.2749 189.702C48.2652 191.047 51.2556 192.094 54.4702 192.916C59.1052 193.963 63.6655 195.383 68.0762 197.178H68.2258C69.1976 197.85 70.2442 198.523 71.2161 199.196C71.8889 199.495 72.5618 199.944 73.3093 200.467C73.8327 200.99 74.1317 201.514 74.2064 202.186C74.1317 202.859 73.7579 203.457 73.2346 203.906C72.4122 204.429 71.5899 204.878 70.7676 205.252C70.7676 205.326 70.6928 205.401 70.618 205.401C67.7025 205.924 64.7869 206.298 61.8713 206.597H57.6848C57.5353 206.597 57.5353 206.597 57.5353 206.522C55.4421 205.401 53.2741 204.504 51.0313 203.981H50.8818C45.6487 201.738 40.4903 199.57 35.332 197.402C33.0892 196.804 30.996 195.832 29.0523 194.561C28.4542 194.262 27.8562 194.113 27.2581 194.113C26.8095 194.113 26.361 194.262 25.9124 194.412C23.5949 196.206 21.0531 197.252 18.2123 197.626C15.222 198.224 12.1569 198.523 9.09176 198.523H6.92376C5.27907 200.093 3.48487 201.215 1.54115 201.962ZM61.8713 163.088C60.8247 162.191 59.6285 161.593 58.2081 161.294C58.8062 162.041 59.2547 162.863 59.7033 163.686C59.778 163.835 59.778 163.985 59.8528 164.06C59.3295 169.741 59.0305 175.423 59.1052 181.03C59.7033 181.329 60.3761 181.478 61.0489 181.478V181.329C61.0489 181.179 61.0489 181.03 60.9742 180.88C60.8994 180.806 60.8247 180.731 60.8994 180.581C61.946 174.9 62.6189 169.143 62.6936 163.312C62.4694 163.312 62.3198 163.237 62.0956 163.163C62.0208 163.237 61.946 163.237 61.8713 163.088ZM31.8931 184.02C33.6126 184.768 35.4068 185.441 37.201 186.039C36.4534 184.693 36.1543 183.198 36.1543 181.553C36.1543 181.254 36.1543 180.955 36.2291 180.656C36.2291 180.058 36.3786 179.535 36.6777 178.937V178.039C36.6777 176.694 36.6029 175.273 36.4534 173.853C36.0796 174.601 35.5563 175.273 34.8835 175.722C33.2388 178.339 32.2669 181.105 31.8931 184.02ZM41.836 181.927C42.5088 181.927 43.1816 181.927 43.8545 181.777C43.7797 181.478 43.6302 181.254 43.4807 180.955C43.4059 180.88 43.3312 180.656 43.4059 180.432C43.4807 180.357 43.4807 180.282 43.4807 180.207C43.4807 179.983 43.4807 179.834 43.4059 179.609C43.3312 179.535 43.2564 179.46 43.2564 179.385V174.9C43.1817 172.208 43.2564 169.442 43.4059 166.751C43.1817 166.9 43.1069 167.05 42.9574 167.125C42.5088 171.162 42.2845 175.199 42.2845 179.161V180.432C42.2845 180.581 42.2845 180.656 42.2098 180.806C41.9855 181.03 41.836 181.404 41.836 181.777V181.927ZM52.0032 173.404V172.134C51.1808 172.283 50.4332 172.358 49.6856 172.358H49.4614V172.582C49.4614 172.806 49.3866 173.105 49.3119 173.33C50.209 173.404 51.1061 173.479 52.0032 173.404ZM49.2371 163.536C49.5361 164.284 49.7604 165.106 49.8352 165.929C50.209 165.929 50.6575 165.854 51.1061 165.854C51.4051 165.854 51.7789 165.929 52.2274 165.929V165.63C52.2274 165.106 52.1527 164.508 52.0032 163.91V163.761C52.0032 163.462 51.9284 163.163 51.7789 162.863C51.6294 162.789 50.807 163.013 49.2371 163.536ZM49.0876 179.31C49.0876 179.908 49.0876 180.581 49.0128 181.179H51.8536C51.7041 180.506 51.6294 179.834 51.5546 179.161C51.1808 179.31 50.807 179.385 50.4332 179.31C49.9099 179.385 49.4614 179.31 49.0876 179.161V179.31ZM26.5105 159.2C26.2115 160.097 26.0619 160.845 26.0619 161.667C26.7348 161.368 27.4076 161.144 28.0804 160.845C28.3047 160.621 28.4542 160.396 28.6785 160.097C28.6785 160.097 28.7533 160.023 28.828 159.948C29.2766 159.574 29.8746 159.2 30.4727 158.976C30.5475 158.976 30.6222 158.901 30.697 158.901C30.7717 158.901 30.7717 158.901 30.8465 158.976C33.3135 159.649 35.5563 160.695 37.6495 162.191C38.0981 162.041 38.6214 161.742 39.0699 161.443C39.0699 161.294 39.0699 161.219 39.2194 161.144C42.2845 158.303 45.0506 155.163 47.5176 151.65V151.5C46.9943 151.052 46.5458 150.603 46.172 150.005C44.8263 150.603 43.4807 150.977 42.135 151.201H42.0603C40.8641 151.425 39.7428 151.65 38.6961 151.874H38.3223C36.0796 150.977 34.4349 149.407 33.3883 147.164C31.9679 148.36 30.3979 149.257 28.6785 149.781C28.4542 150.304 28.2299 150.753 28.0804 151.201C28.4542 151.201 28.828 151.052 29.2018 150.753H29.4261C32.1174 150.827 34.2106 152.023 35.631 154.416C35.631 154.64 35.631 154.79 35.631 154.864C34.6592 156.659 33.164 157.556 31.2203 157.481H30.4727C29.2018 158.303 27.8562 158.901 26.5105 159.2ZM24.2677 169.367C24.1182 170.04 23.8939 170.713 23.6697 171.386C25.3144 170.788 26.8843 170.115 28.4542 169.293V169.143C28.6037 169.218 28.6785 169.143 28.6785 168.919C28.828 168.844 29.0523 168.844 29.2766 168.844C29.2766 168.919 29.3513 168.919 29.5008 168.919C29.7251 168.919 29.8746 168.844 30.0241 168.62H30.6222C32.7155 169.592 34.5844 170.863 36.2291 172.358V171.535C36.2291 169.517 35.631 167.723 34.4349 166.078C30.996 167.05 27.6319 168.097 24.2677 169.367ZM22.1745 176.769C21.6512 178.264 21.0531 179.759 20.4551 181.179C21.8755 181.254 23.2959 181.404 24.7163 181.553C25.2396 179.983 25.7629 178.338 26.4357 176.769C25.9124 176.843 25.4639 176.843 24.9406 176.843C23.9687 176.843 23.0716 176.769 22.1745 176.769ZM15.8948 189.478C14.9977 190.898 13.9511 192.169 12.9044 193.29H13.054C14.9229 192.767 16.6424 191.795 18.2123 190.449C17.4647 190.076 16.6424 189.777 15.8948 189.478Z" fill="white"/>
</svg>
