<svg width="1526" height="309" viewBox="0 0 1526 309" fill="none" xmlns="http://www.w3.org/2000/svg">
<path fill-rule="evenodd" clip-rule="evenodd" d="M1291.57 219.82H1330.55L1330.61 219.83V223.8H1324.53V250H1360.55V154.009H1359V150.578H1360.55V121.157H1359V117.726H1360.83L1364.92 113.208V107.12H1363.79V96.9542H1370.63L1376.8 57.4331H1376.49C1376.25 57.4331 1376.05 57.2179 1376.05 56.9597C1376.05 56.7017 1376.25 56.4865 1376.49 56.4865H1376.83V55.6689H1376.46C1376.32 55.6689 1376.21 55.5507 1376.21 55.4C1376.21 55.2494 1376.32 55.1311 1376.46 55.1311H1376.83V52.1084H1375.66V51.4414H1376.83V50H1377.45V51.4414H1378.62V52.1084H1377.45V55.1311H1377.84C1377.98 55.1311 1378.09 55.2494 1378.09 55.4C1378.09 55.5507 1377.98 55.6689 1377.84 55.6689H1377.45V56.4865H1377.81C1378.05 56.4865 1378.25 56.7017 1378.25 56.9597C1378.25 57.2179 1378.05 57.4331 1377.81 57.4331H1377.47L1383.64 96.9542H1390.48V107.12H1389.35V113.208L1393.44 117.726H1395.27V121.157H1393.72V150.578H1395.27V154.009H1393.72V157.043L1414.75 138.595V135.217H1412.63V134.001H1414.75V131.377H1415.88V134.001H1418V135.217H1415.88V138.713L1436.91 157.054V154.009H1435.36V150.578H1436.91V121.157H1435.36V117.726H1437.19L1441.28 113.208V107.12H1440.15V96.9542H1446.99L1453.16 57.4331H1452.82C1452.58 57.4331 1452.38 57.2179 1452.38 56.9597C1452.38 56.7017 1452.58 56.4865 1452.82 56.4865H1453.18V55.6689H1452.78C1452.64 55.6689 1452.53 55.5507 1452.53 55.4C1452.53 55.2494 1452.64 55.1311 1452.78 55.1311H1453.18V52.1084H1452.01V51.4414H1453.18V50H1453.8V51.4414H1454.97V52.1084H1453.8V55.1311H1454.17C1454.31 55.1311 1454.42 55.2494 1454.42 55.4C1454.42 55.5507 1454.31 55.6689 1454.17 55.6689H1453.8V56.4865H1454.14C1454.38 56.4865 1454.58 56.7017 1454.58 56.9597C1454.58 57.2179 1454.38 57.4331 1454.14 57.4331H1453.83L1460 96.9542H1466.84V107.12H1465.71V113.208L1469.8 117.726H1471.63V121.157H1470.13V150.578H1471.68V154.009H1470.13V250H1526V309H0V250H22.5172V236.796H21.9514V235.521H22.5172V227.666H20.8501V225.277H22.5172V199.738H20.8501V197.349H22.5172V191.721H15.4243V190.031C15.6971 189.94 15.9497 189.849 16.1923 189.758C15.778 189.636 15.4446 189.251 15.2526 188.806C15.0505 188.32 15 187.764 15 187.227C15.0101 186.731 15.1111 186.134 15.5153 185.952C15.7679 185.84 16.0912 185.962 16.2428 186.235C16.3943 186.498 16.3539 186.893 16.1519 187.116C16.141 187.128 16.1299 187.14 16.1188 187.152C16.0988 187.173 16.0785 187.193 16.0583 187.213C15.9329 187.339 15.8164 187.456 15.8488 187.682C15.929 188.23 16.4944 188.105 16.9008 188.016C17.0056 187.993 17.0999 187.972 17.1724 187.966C17.5461 187.936 17.9301 188.128 18.1726 188.462C18.2019 188.499 18.2285 188.538 18.2524 188.579C18.2947 188.651 18.3286 188.729 18.3545 188.806C21.5876 187.136 22.4364 185.395 22.5172 185.213V172.823H15.4344V171.132C15.6971 171.041 15.9497 170.95 16.1923 170.859C15.778 170.738 15.4446 170.353 15.2526 169.908C15.0505 169.422 15 168.865 15 168.329C15.0101 167.833 15.1111 167.235 15.5153 167.053C15.7679 166.942 16.0912 167.063 16.2428 167.337C16.3943 167.6 16.3539 167.995 16.1519 168.217C16.1327 168.239 16.1129 168.26 16.093 168.28L16.0583 168.315C15.9329 168.441 15.8164 168.557 15.8488 168.784C15.9497 169.472 16.8187 169.098 17.1724 169.068C17.5461 169.037 17.9301 169.229 18.1726 169.563C18.2131 169.614 18.2485 169.67 18.2788 169.728C18.309 169.786 18.3342 169.847 18.3545 169.908C21.5876 168.237 22.4364 166.496 22.5172 166.314V130.542H15.4243V128.851C15.6971 128.76 15.9497 128.669 16.1923 128.578C15.778 128.457 15.4446 128.072 15.2526 127.627C15.0505 127.141 15 126.584 15 126.047C15 125.552 15.1111 124.964 15.5153 124.782C15.7679 124.671 16.0912 124.792 16.2428 125.066C16.3943 125.329 16.3539 125.724 16.1519 125.946C16.1216 125.981 16.0897 126.013 16.0583 126.044C15.9329 126.17 15.8164 126.286 15.8488 126.513C15.929 127.06 16.4944 126.936 16.9006 126.847C17.0055 126.823 17.0997 126.803 17.1724 126.797C17.5461 126.766 17.9301 126.958 18.1726 127.293C18.2534 127.394 18.314 127.515 18.3545 127.637C21.5876 125.967 22.4364 124.225 22.5172 124.043V110.459H15.4344V108.769C15.6971 108.677 15.9497 108.586 16.1923 108.495C15.778 108.374 15.4446 107.989 15.2526 107.544C15.0505 107.058 15 106.501 15 105.965C15 105.459 15.1111 104.872 15.4446 104.669C15.6069 104.598 15.7986 104.622 15.9551 104.722C16.0419 104.777 16.1179 104.855 16.172 104.953C16.3236 105.216 16.2832 105.61 16.0811 105.833C16.0508 105.868 16.0188 105.9 15.9874 105.931L15.9867 105.932C15.9319 105.987 15.8788 106.04 15.8392 106.101C15.7885 106.18 15.7598 106.273 15.778 106.4C15.8583 106.947 16.4235 106.823 16.8296 106.734C16.9346 106.71 17.0289 106.69 17.1016 106.683C17.4755 106.653 17.8594 106.845 18.1018 107.179C18.1826 107.281 18.2433 107.402 18.2837 107.524C21.6987 105.762 22.4565 103.91 22.4565 103.91H25.3665V89.5767H23.1941V88.1393H24.1035C23.9014 87.9368 23.7397 87.6837 23.6185 87.4104C23.3861 86.8436 23.3254 86.1958 23.3254 85.5682C23.3254 84.9912 23.4468 84.2927 23.9216 84.0802C24.2247 83.9385 24.6086 84.0903 24.7804 84.4042C24.9623 84.7179 24.9117 85.1735 24.6793 85.4366C24.5076 85.639 24.2753 85.7706 24.3257 86.1046C24.4369 86.9043 25.4574 86.4691 25.8716 86.4387C26.3162 86.3982 26.7607 86.621 27.0437 87.0157C27.1345 87.1473 27.2053 87.2889 27.2559 87.4408C29.802 86.0743 31.7722 84.4851 33.2069 83.0883C31.3074 81.8026 30.0546 79.6263 30.0546 77.1565C30.0546 73.2087 33.2574 70 37.1979 70C41.1383 70 44.3412 73.2087 44.3412 77.1565C44.3412 79.6162 43.0985 81.7926 41.2091 83.0781C42.6337 84.475 44.5939 86.0642 47.14 87.4307C47.1904 87.2788 47.2612 87.1372 47.3522 87.0056C47.635 86.621 48.0796 86.3881 48.5242 86.4286C48.611 86.4349 48.7244 86.4591 48.8503 86.486C49.326 86.5872 49.9822 86.7267 50.0701 86.0946C50.1095 85.8257 49.9763 85.6927 49.8344 85.5509C49.7946 85.5112 49.754 85.4708 49.7164 85.4265C49.4941 85.1633 49.4436 84.7078 49.6154 84.394C49.7871 84.0802 50.1711 83.9283 50.4742 84.0701C50.939 84.2826 51.0703 84.9709 51.0703 85.5581C51.0804 86.1857 51.0198 86.8335 50.7773 87.4004C50.6561 87.6736 50.4944 87.9268 50.2924 88.1292H51.2017V89.5665H49.0294V103.9H51.9493C51.9493 103.9 53.0304 105.944 56.0919 107.564C56.1077 107.505 56.1281 107.449 56.1517 107.395C56.1676 107.36 56.1848 107.325 56.2032 107.291C56.2235 107.254 56.2452 107.219 56.2679 107.183L56.2838 107.159C56.5162 106.825 56.9103 106.633 57.2841 106.663C57.3558 106.669 57.4489 106.689 57.5524 106.712C57.9589 106.799 58.5272 106.92 58.6077 106.38C58.6481 106.096 58.4562 105.985 58.3046 105.813C58.1025 105.59 58.0621 105.206 58.2136 104.932C58.3551 104.649 58.6785 104.527 58.9412 104.649C59.3453 104.831 59.4564 105.428 59.4564 105.924C59.4564 106.151 59.4478 106.378 59.4231 106.6C59.3884 106.914 59.3221 107.219 59.2039 107.503C59.0118 107.969 58.6481 108.364 58.2136 108.475C58.4763 108.566 58.7491 108.647 59.0321 108.728V110.419H51.9493V123.993C51.9493 123.993 53.0304 126.037 56.0919 127.657C56.1323 127.505 56.203 127.374 56.2838 127.252C56.5162 126.918 56.9103 126.726 57.2841 126.756C57.3558 126.762 57.449 126.782 57.5526 126.804C57.959 126.891 58.5272 127.013 58.6077 126.473C58.64 126.246 58.5236 126.129 58.3981 126.004C58.3804 125.986 58.3625 125.968 58.345 125.949C58.3313 125.935 58.3177 125.921 58.3046 125.906C58.1025 125.683 58.0621 125.298 58.2136 125.025C58.3551 124.742 58.6785 124.62 58.9412 124.742C59.3453 124.924 59.4564 125.521 59.4564 126.017C59.4564 126.564 59.4059 127.11 59.2039 127.596C59.0118 128.062 58.6481 128.457 58.2136 128.568C58.4763 128.659 58.7491 128.74 59.0321 128.821V130.511H51.9493V166.264C51.9493 166.264 53.0304 168.308 56.0919 169.928C56.1323 169.776 56.203 169.645 56.2838 169.523C56.5162 169.189 56.9103 168.997 57.2841 169.027C57.3228 169.03 57.3676 169.038 57.4167 169.047L57.4657 169.057L57.5458 169.074L57.5509 169.075L57.5524 169.075C57.9589 169.162 58.5272 169.284 58.6077 168.744C58.64 168.517 58.5236 168.4 58.3981 168.275C58.3667 168.243 58.3348 168.211 58.3046 168.177C58.1025 167.954 58.0621 167.569 58.2136 167.296C58.2642 167.195 58.3379 167.114 58.4237 167.058C58.4546 167.038 58.4871 167.021 58.5206 167.007C58.6549 166.952 58.806 166.95 58.9412 167.013C59.3453 167.195 59.4564 167.792 59.4564 168.288C59.4564 168.835 59.4059 169.381 59.2039 169.867C59.0118 170.333 58.6481 170.728 58.2136 170.839C58.4763 170.93 58.7491 171.011 59.0321 171.092V172.782H51.9493V185.162C51.9493 185.162 53.0304 187.207 56.0919 188.826C56.1323 188.675 56.203 188.543 56.2838 188.422C56.5162 188.087 56.9103 187.895 57.2841 187.925C57.3558 187.932 57.4489 187.952 57.5524 187.974C57.9589 188.061 58.5272 188.183 58.6077 187.642C58.64 187.415 58.5236 187.299 58.3981 187.173C58.3667 187.142 58.3348 187.11 58.3046 187.075C58.1025 186.853 58.0621 186.468 58.2136 186.195C58.3551 185.911 58.6785 185.79 58.9412 185.911C59.3453 186.093 59.4564 186.691 59.4564 187.187C59.4564 187.733 59.4059 188.28 59.2039 188.766C59.0118 189.231 58.6481 189.626 58.2136 189.737C58.4763 189.828 58.7491 189.909 59.0321 189.99V191.681H51.9493V197.309H53.6266V199.698H51.9493V205.113H60.5679V196.398H62.5886V162.225H56.597V160.231V157.467C70.3887 158.095 71.6315 151.576 71.7021 151.151V149.997C71.4092 149.764 71.1768 149.43 71.0151 149.056C70.7524 148.438 70.6918 147.719 70.6918 147.031C70.6918 146.393 70.8333 145.624 71.3485 145.391C71.6819 145.25 72.0962 145.412 72.2882 145.756C72.47 146.1 72.4196 146.596 72.1669 146.889C71.985 147.112 71.7324 147.254 71.783 147.618C71.8796 148.32 72.6119 148.16 73.1354 148.046C73.2686 148.017 73.3882 147.991 73.4803 147.983C73.9653 147.942 74.4604 148.185 74.7737 148.62C75.0364 148.985 75.1576 149.481 75.1071 149.957H79.0071V149.592C79.0071 143.529 83.9176 138.609 89.9697 138.609C96.0219 138.609 100.932 143.529 100.932 149.592V149.957H104.832C104.782 149.491 104.903 148.995 105.166 148.62C105.479 148.185 105.974 147.942 106.459 147.983C106.523 147.987 106.601 148 106.687 148.018C106.731 148.026 106.777 148.036 106.825 148.047C107.347 148.158 108.061 148.311 108.156 147.618C108.187 147.437 108.139 147.311 108.061 147.203C108.014 147.139 107.956 147.081 107.897 147.021C107.855 146.979 107.813 146.936 107.772 146.889C107.51 146.606 107.459 146.1 107.651 145.756C107.843 145.401 108.257 145.24 108.591 145.391C109.106 145.624 109.248 146.393 109.248 147.031C109.258 147.719 109.187 148.438 108.924 149.056C108.763 149.43 108.52 149.774 108.227 150.007V151.151C108.288 151.515 109.47 158.105 123.332 157.477V160.069V162.235H117.341V196.408H119.361V205.123H127.98V199.708H126.303V197.319H127.98V191.691H120.897V190.001C121.007 189.969 121.116 189.938 121.223 189.906C121.287 189.886 121.351 189.867 121.414 189.847C121.516 189.815 121.617 189.782 121.716 189.747C121.281 189.636 120.927 189.241 120.725 188.776C120.523 188.29 120.473 187.733 120.473 187.197C120.483 186.701 120.584 186.103 120.988 185.921C121.241 185.81 121.564 185.931 121.716 186.205C121.867 186.468 121.827 186.863 121.625 187.085L121.608 187.104C121.598 187.114 121.589 187.125 121.579 187.135C121.563 187.151 121.547 187.167 121.531 187.183C121.406 187.309 121.289 187.426 121.322 187.652C121.402 188.199 121.967 188.075 122.374 187.986C122.478 187.963 122.573 187.942 122.645 187.936C123.019 187.905 123.403 188.098 123.645 188.432C123.726 188.553 123.797 188.695 123.837 188.837C126.899 187.227 127.98 185.172 127.98 185.172V172.793H120.897V171.102C121.033 171.063 121.166 171.024 121.298 170.984C121.363 170.964 121.429 170.944 121.493 170.923L121.581 170.894L121.639 170.875L121.716 170.849C121.281 170.738 120.917 170.343 120.725 169.877C120.523 169.391 120.473 168.835 120.473 168.298C120.483 167.802 120.584 167.205 120.988 167.023C121.241 166.911 121.564 167.033 121.716 167.306C121.867 167.569 121.827 167.964 121.625 168.187C121.594 168.221 121.562 168.253 121.531 168.285C121.406 168.411 121.289 168.527 121.322 168.754C121.402 169.301 121.967 169.177 122.374 169.087C122.449 169.071 122.519 169.055 122.579 169.046C122.603 169.042 122.625 169.039 122.645 169.037C123.019 169.007 123.403 169.199 123.645 169.533C123.693 169.605 123.737 169.683 123.773 169.764C123.799 169.821 123.821 169.88 123.837 169.938C126.899 168.329 127.98 166.274 127.98 166.274V130.522H120.897V128.831C121.18 128.75 121.453 128.669 121.716 128.578C121.281 128.467 120.927 128.072 120.725 127.606C120.523 127.12 120.473 126.564 120.473 126.027C120.483 125.531 120.584 124.934 120.988 124.752C121.241 124.641 121.564 124.762 121.716 125.035C121.867 125.298 121.827 125.693 121.625 125.916C121.473 126.088 121.281 126.199 121.322 126.483C121.402 127.03 121.967 126.906 122.373 126.816C122.43 126.804 122.483 126.792 122.532 126.783C122.557 126.778 122.582 126.774 122.604 126.771C122.619 126.769 122.632 126.767 122.645 126.766C123.019 126.736 123.403 126.928 123.645 127.262C123.726 127.384 123.797 127.525 123.837 127.667C126.899 126.058 127.98 124.003 127.98 124.003V110.429H120.897V108.738C121.18 108.657 121.453 108.576 121.716 108.485C121.281 108.374 120.917 107.979 120.725 107.513C120.523 107.028 120.473 106.471 120.473 105.934C120.483 105.438 120.584 104.841 120.988 104.659C121.241 104.548 121.564 104.669 121.716 104.942C121.867 105.206 121.827 105.6 121.625 105.823C121.594 105.857 121.562 105.89 121.531 105.921L121.53 105.922C121.471 105.981 121.413 106.039 121.373 106.108C121.328 106.183 121.305 106.271 121.322 106.39C121.402 106.937 121.967 106.813 122.373 106.723L122.383 106.721C122.424 106.712 122.463 106.704 122.5 106.696C122.554 106.685 122.603 106.677 122.645 106.673C123.019 106.643 123.403 106.835 123.645 107.169C123.726 107.291 123.797 107.432 123.837 107.574C126.899 105.965 127.98 103.91 127.98 103.91H130.9V89.5767H128.728V88.1393H129.637C129.435 87.9368 129.273 87.6837 129.152 87.4104C128.92 86.8436 128.859 86.1958 128.859 85.5682C128.859 84.9912 128.98 84.2927 129.455 84.0802C129.758 83.9385 130.142 84.0903 130.314 84.4042C130.496 84.7179 130.445 85.1735 130.213 85.4366C130.176 85.4797 130.137 85.5197 130.098 85.559C129.955 85.7042 129.819 85.8417 129.859 86.1046C129.947 86.7368 130.603 86.5972 131.079 86.496C131.154 86.48 131.225 86.465 131.288 86.4541C131.312 86.4501 131.334 86.4465 131.356 86.4437L131.378 86.4412C131.387 86.4402 131.396 86.4393 131.405 86.4387C131.85 86.3982 132.294 86.621 132.577 87.0157C132.668 87.1473 132.739 87.2889 132.789 87.4408C135.335 86.0743 137.296 84.4851 138.72 83.0883C136.831 81.8026 135.588 79.6263 135.588 77.1666C135.588 73.2189 138.791 70.0101 142.731 70.0101C146.672 70.0101 149.875 73.2189 149.875 77.1666C149.875 79.6365 148.622 81.8127 146.722 83.0984C148.167 84.4952 150.127 86.0845 152.673 87.4509C152.724 87.2991 152.795 87.1573 152.886 87.0258C153.169 86.6411 153.613 86.4083 154.058 86.4489C154.144 86.4552 154.258 86.4792 154.384 86.5061C154.859 86.6073 155.516 86.7469 155.604 86.1147C155.643 85.8459 155.51 85.713 155.368 85.5712L155.36 85.5631L155.318 85.5215C155.307 85.5093 155.295 85.4968 155.283 85.4841C155.272 85.4719 155.261 85.4595 155.25 85.4468C155.028 85.1836 154.977 84.728 155.149 84.4142C155.321 84.1005 155.705 83.9486 156.008 84.0903C156.472 84.3029 156.604 84.9912 156.604 85.5782C156.614 86.2059 156.553 86.8538 156.311 87.4205C156.19 87.6938 156.028 87.9469 155.826 88.1494H156.735V89.5868H154.563V103.92H157.473C157.473 103.92 158.23 105.772 161.646 107.534C161.696 107.412 161.757 107.291 161.827 107.19C162.06 106.855 162.454 106.663 162.828 106.694C162.899 106.7 162.993 106.72 163.096 106.742C163.503 106.829 164.071 106.951 164.151 106.41C164.184 106.183 164.067 106.067 163.942 105.941C163.91 105.91 163.878 105.878 163.848 105.843C163.646 105.621 163.606 105.236 163.757 104.963C163.899 104.679 164.222 104.558 164.485 104.679C164.889 104.861 165 105.459 165 105.955C165 106.501 164.949 107.048 164.747 107.534C164.555 107.979 164.222 108.354 163.808 108.485C164.05 108.576 164.303 108.667 164.566 108.759V110.449H157.483V124.033C157.564 124.215 158.412 125.956 161.646 127.627C161.676 127.554 161.71 127.481 161.747 127.413C161.761 127.387 161.776 127.362 161.791 127.338C161.803 127.319 161.815 127.3 161.827 127.282C162.06 126.948 162.454 126.756 162.828 126.786C162.899 126.793 162.992 126.812 163.096 126.835C163.502 126.922 164.071 127.044 164.151 126.503C164.184 126.276 164.067 126.16 163.942 126.034C163.92 126.012 163.897 125.99 163.876 125.966C163.866 125.957 163.857 125.946 163.848 125.936C163.646 125.714 163.606 125.329 163.757 125.056C163.899 124.772 164.222 124.651 164.485 124.772C164.889 124.954 165 125.552 165 126.047C165 126.594 164.949 127.141 164.747 127.627H164.717C164.525 128.072 164.192 128.447 163.777 128.578C164.03 128.669 164.283 128.76 164.545 128.851V130.542H157.463V166.314C157.543 166.496 158.392 168.237 161.625 169.908C161.655 169.837 161.688 169.765 161.724 169.698C161.75 169.651 161.778 169.605 161.807 169.563C162.04 169.229 162.434 169.037 162.807 169.068C162.879 169.074 162.972 169.094 163.076 169.116C163.482 169.203 164.051 169.325 164.131 168.784C164.172 168.501 163.979 168.389 163.828 168.217C163.626 167.995 163.585 167.61 163.737 167.337C163.879 167.053 164.202 166.932 164.464 167.053C164.869 167.235 164.98 167.833 164.98 168.329C164.98 168.875 164.929 169.422 164.727 169.908C164.535 170.353 164.202 170.728 163.788 170.859C164.04 170.95 164.293 171.041 164.555 171.132V172.823H157.473V185.213C157.554 185.395 158.402 187.136 161.635 188.806C161.652 188.766 161.67 188.726 161.689 188.687C161.705 188.653 161.722 188.619 161.74 188.586C161.765 188.543 161.79 188.501 161.817 188.462C162.05 188.128 162.444 187.936 162.818 187.966C162.889 187.972 162.982 187.992 163.086 188.014C163.492 188.101 164.061 188.223 164.141 187.682C164.174 187.456 164.057 187.339 163.932 187.213C163.9 187.182 163.868 187.15 163.838 187.116C163.636 186.893 163.596 186.508 163.747 186.235C163.889 185.952 164.212 185.83 164.475 185.952C164.879 186.134 164.99 186.731 164.99 187.227C164.99 187.774 164.939 188.32 164.737 188.806C164.545 189.251 164.212 189.626 163.798 189.758C164.05 189.849 164.303 189.94 164.566 190.031V191.721H157.483V197.349H159.15V199.738H157.483V225.277H159.15V227.666H157.483V235.521H158.049V236.796H157.483V250H176.049C175.264 249.045 174.791 247.818 174.791 246.48C174.792 243.431 177.243 240.96 180.271 240.96C183.299 240.962 185.751 243.431 185.751 246.48C185.751 247.818 185.278 249.045 184.493 250H219.694C218.908 249.045 218.435 247.818 218.435 246.48C218.437 243.431 220.888 240.96 223.916 240.96C226.942 240.962 229.395 243.431 229.396 246.48C229.395 247.818 228.923 249.045 228.137 250H277V242.98H294.72V233.68H298.77V210.34C294.94 209.31 280.55 204.85 280.55 196.17C280.55 196.17 281.31 196.69 282.69 197.33C282.58 196.96 282.49 196.59 282.4 196.21C282.02 194.57 281.9 192.52 283.09 191.61C283.85 191.02 285.02 191.18 285.72 191.96C286.42 192.74 286.59 194.05 286.11 194.95C286.049 195.064 285.983 195.174 285.917 195.282L285.873 195.352C285.559 195.859 285.264 196.336 285.55 197.06C286.225 198.79 287.995 197.944 289.267 197.336C289.598 197.178 289.895 197.036 290.13 196.96C291.35 196.56 292.78 196.89 293.83 197.81C294.41 198.31 294.86 198.98 295.16 199.72C297.13 199.6 299.23 199.25 301.43 198.55V190.52H304.96V170.21C301.62 169.31 289.1 165.44 289.1 157.88C289.1 157.88 289.77 158.33 290.97 158.89C290.927 158.732 290.886 158.576 290.846 158.42L290.797 158.224C290.776 158.14 290.755 158.055 290.734 157.97L290.72 157.91C290.39 156.48 290.29 154.71 291.32 153.91C291.98 153.4 293 153.54 293.61 154.22C294.22 154.9 294.36 156.04 293.95 156.82C293.912 156.891 293.872 156.961 293.831 157.029L293.796 157.089L293.747 157.168C293.477 157.608 293.223 158.021 293.47 158.65C294.056 160.146 295.588 159.418 296.697 158.891C296.989 158.752 297.251 158.627 297.46 158.56C298.52 158.21 299.76 158.5 300.68 159.3C301.18 159.73 301.58 160.31 301.84 160.96C303.56 160.85 305.4 160.54 307.33 159.93H307.56V153.14H310.61V135.59C307.72 134.81 296.9 131.46 296.9 124.93C296.9 124.93 297.47 125.32 298.51 125.8C298.464 125.638 298.421 125.472 298.379 125.307L298.323 125.084L298.29 124.95C298 123.71 297.92 122.18 298.81 121.49C299.39 121.05 300.26 121.17 300.79 121.76C301.31 122.35 301.44 123.33 301.08 124.01C301.053 124.061 301.025 124.11 300.996 124.159C300.964 124.211 300.932 124.263 300.901 124.313L300.9 124.315C300.666 124.691 300.446 125.043 300.66 125.59C301.168 126.885 302.503 126.249 303.462 125.792C303.71 125.674 303.933 125.568 304.11 125.51C305.03 125.21 306.1 125.46 306.89 126.15C307.32 126.53 307.67 127.03 307.89 127.59C309.38 127.5 310.97 127.23 312.63 126.7H312.72V120.95H315.36V105.73C312.86 105.06 303.47 102.15 303.47 96.49C303.47 96.49 303.97 96.83 304.87 97.25C304.8 97.01 304.74 96.76 304.68 96.52C304.43 95.45 304.35 94.12 305.13 93.52C305.63 93.14 306.39 93.24 306.85 93.75C307.3 94.26 307.41 95.11 307.1 95.7C307.053 95.79 307 95.876 306.949 95.9607C306.747 96.2897 306.557 96.6007 306.74 97.0699C307.183 98.1859 308.328 97.642 309.158 97.2476C309.377 97.1436 309.574 97.05 309.73 97C310.52 96.75 311.45 96.96 312.14 97.5601C312.52 97.89 312.82 98.33 313.01 98.8101C314.3 98.74 315.67 98.5 317.1 98.05V92.8101H319.4V79.5601C317.22 78.98 309.05 76.45 309.05 71.52C309.05 71.52 309.49 71.8199 310.27 72.1801C310.21 71.97 310.16 71.75 310.11 71.54C309.89 70.61 309.83 69.45 310.5 68.9301C310.93 68.6 311.59 68.6899 311.99 69.13C312.39 69.5699 312.48 70.3101 312.21 70.8199C312.168 70.8976 312.122 70.9712 312.078 71.0435C311.897 71.3345 311.73 71.6035 311.89 72.02C312.271 72.9955 313.274 72.5179 313.997 72.1738C314.186 72.0841 314.355 72.0034 314.49 71.96C315.18 71.73 315.99 71.92 316.59 72.4399C316.91 72.73 317.17 73.11 317.34 73.53C318.46 73.46 319.66 73.26 320.92 72.86H321.07V68.4301H323.06V56.98C321.18 56.48 314.12 54.29 314.12 50.03C314.12 50.03 314.49 50.29 315.17 50.6C315.12 50.42 315.07 50.23 315.03 50.05C314.84 49.24 314.79 48.24 315.37 47.79C315.74 47.5 316.32 47.58 316.66 47.96C317 48.34 317.08 48.98 316.85 49.42C316.813 49.4908 316.772 49.558 316.731 49.6243C316.581 49.8666 316.439 50.0966 316.58 50.45C316.913 51.2976 317.779 50.8839 318.403 50.5859C318.474 50.5516 318.543 50.5189 318.607 50.4899C318.689 50.4525 318.765 50.421 318.83 50.4C319.42 50.21 320.12 50.37 320.64 50.8199C320.92 51.0699 321.14 51.4 321.29 51.76C322.26 51.7 323.29 51.53 324.38 51.1801H324.45V47.49H326.17V37.5601H326.11C326.11 37.5601 317.78 35.23 317.78 29.9C317.78 29.9 318.16 30.21 318.83 30.58C318.73 30.3 318.66 30.02 318.59 29.73C318.42 29.02 318.37 28.13 318.89 27.73C319.23 27.47 319.74 27.54 320.04 27.88C320.34 28.22 320.42 28.79 320.21 29.1801C320.191 29.2177 320.171 29.254 320.15 29.2896L320.124 29.3326L320.118 29.3429L320.115 29.3479L320.101 29.3715C319.969 29.5869 319.846 29.7891 319.97 30.1C320.262 30.843 321.023 30.4801 321.577 30.2166C321.723 30.1466 321.855 30.0836 321.96 30.05C322.49 29.88 323.11 30.02 323.57 30.42C323.95 30.75 324.21 31.25 324.29 31.77C326.04 31.61 328.02 30.9301 330.1 29.26L345.02 17.23C344.94 17.1 344.9 16.9399 344.9 16.77C344.9 16.3199 345.2 15.96 345.57 15.96H345.71C345.8 15.66 345.9 15.0601 345.8 13.96C345.8 13.96 344.81 13.23 346.32 11.12L346.51 4L346.7 11.12C348.21 13.23 347.22 13.97 347.22 13.97C347.11 15.0699 347.22 15.6801 347.31 15.97H347.45C347.82 15.97 348.12 16.34 348.12 16.78C348.12 16.96 348.07 17.12 347.99 17.26L362.88 29.26C364.96 30.9301 366.94 31.62 368.69 31.77C368.77 31.25 369.03 30.75 369.41 30.42C369.87 30.02 370.49 29.88 371.02 30.05C371.08 30.0709 371.15 30.1017 371.227 30.1378L371.305 30.1747L371.373 30.2073C371.925 30.4742 372.713 30.8552 373.01 30.1C373.14 29.7753 373.006 29.5626 372.866 29.339C372.833 29.2871 372.8 29.2346 372.77 29.1801C372.56 28.79 372.64 28.22 372.94 27.88C373.24 27.54 373.75 27.47 374.08 27.73C374.6 28.13 374.55 29.02 374.38 29.73C374.31 30.01 374.23 30.3 374.14 30.58C374.81 30.21 375.19 29.9 375.19 29.9C375.19 35.23 366.86 37.5601 366.86 37.5601H366.8V47.49H368.52V51.1801H368.59C369.58 51.49 370.53 51.67 371.43 51.74C371.57 51.38 371.79 51.0601 372.07 50.8199C372.58 50.37 373.28 50.21 373.88 50.4C373.996 50.4374 374.144 50.5077 374.307 50.5859C374.931 50.8839 375.797 51.2975 376.13 50.45C376.276 50.0945 376.127 49.8564 375.97 49.6041L375.927 49.5356C375.904 49.4979 375.881 49.4595 375.86 49.42C375.62 48.98 375.71 48.34 376.05 47.96C376.39 47.58 376.96 47.5 377.34 47.79C377.92 48.24 377.87 49.24 377.68 50.05C377.653 50.1699 377.623 50.2927 377.589 50.417C377.562 50.5208 377.532 50.6254 377.5 50.73C378.36 50.36 378.85 50.03 378.85 50.03C378.85 54.29 371.79 56.47 369.91 56.98V68.4301H371.9V72.86H372.05C373.2 73.23 374.3 73.4301 375.34 73.51C375.5 73.09 375.76 72.72 376.08 72.4399C376.68 71.92 377.49 71.74 378.18 71.96C378.314 72.0034 378.484 72.084 378.672 72.1737L378.673 72.1744C379.394 72.5186 380.392 72.995 380.78 72.02C380.937 71.6118 380.774 71.3453 380.599 71.061L380.563 71.0015C380.549 70.9792 380.536 70.9568 380.523 70.9341C380.501 70.8969 380.48 70.8589 380.46 70.8199C380.19 70.3101 380.28 69.5699 380.68 69.13C381.07 68.6899 381.74 68.6 382.17 68.9301C382.84 69.45 382.78 70.61 382.56 71.54C382.5 71.8 382.43 72.0699 382.35 72.33C383.35 71.9 383.91 71.52 383.91 71.52C383.91 76.45 375.74 78.97 373.56 79.5601V92.8101H375.86V98.05C377.17 98.47 378.42 98.7 379.61 98.79C379.81 98.3199 380.1 97.89 380.47 97.5699C381.16 96.97 382.08 96.75 382.88 97.01C383.037 97.0603 383.235 97.1549 383.455 97.26C384.285 97.6565 385.427 98.2026 385.87 97.08C386.06 96.6133 385.868 96.303 385.666 95.9758L385.662 95.9707C385.61 95.886 385.557 95.8 385.51 95.71C385.19 95.12 385.3 94.27 385.76 93.76C386.22 93.25 386.98 93.15 387.48 93.53C388.25 94.13 388.18 95.46 387.93 96.53C387.86 96.83 387.78 97.14 387.69 97.4399C388.83 96.95 389.48 96.51 389.48 96.51C389.48 102.17 380.09 105.08 377.59 105.75V120.97H380.23V126.72H380.32C381.84 127.2 383.3 127.47 384.68 127.58C384.91 127.03 385.24 126.54 385.67 126.17C386.46 125.48 387.53 125.23 388.45 125.53C388.627 125.588 388.85 125.694 389.098 125.812C390.057 126.269 391.392 126.905 391.9 125.61C392.115 125.069 391.893 124.712 391.658 124.332C391.597 124.234 391.535 124.135 391.48 124.03C391.12 123.35 391.24 122.37 391.77 121.78C392.3 121.19 393.17 121.07 393.75 121.51C394.64 122.2 394.56 123.73 394.27 124.97C394.19 125.32 394.09 125.67 393.99 126.02C395.31 125.44 396.06 124.94 396.06 124.94C396.06 131.47 385.24 134.82 382.35 135.6V153.15H385.4V159.94H385.63C387.39 160.5 389.08 160.81 390.67 160.94C390.93 160.31 391.32 159.74 391.81 159.31C392.73 158.51 393.97 158.23 395.03 158.57C395.238 158.637 395.501 158.761 395.793 158.9C396.902 159.428 398.434 160.156 399.02 158.66C399.274 158.034 399.018 157.621 398.747 157.183C398.676 157.069 398.604 156.952 398.54 156.83C398.13 156.04 398.27 154.91 398.88 154.23C399.49 153.55 400.5 153.41 401.17 153.92C402.2 154.71 402.1 156.49 401.77 157.92C401.709 158.189 401.64 158.463 401.564 158.734C401.527 158.867 401.489 158.999 401.45 159.13C402.98 158.46 403.84 157.88 403.84 157.88C403.84 165.44 391.32 169.31 387.98 170.21V190.52H391.51V198.55C393.51 199.18 395.44 199.53 397.26 199.68C397.55 198.95 398 198.29 398.57 197.8C399.63 196.88 401.05 196.55 402.27 196.95C402.41 196.995 402.572 197.064 402.749 197.145C402.869 197.2 402.996 197.26 403.128 197.323L403.13 197.324C404.4 197.93 406.167 198.773 406.85 197.05C407.136 196.32 406.842 195.848 406.529 195.344C406.481 195.267 406.432 195.19 406.386 195.11C406.353 195.054 406.321 194.998 406.29 194.94C405.81 194.04 405.98 192.73 406.68 191.95C407.38 191.17 408.54 191.01 409.31 191.6C410.5 192.51 410.38 194.56 410 196.2C409.89 196.67 409.77 197.14 409.63 197.6C411.39 196.84 412.38 196.17 412.38 196.17C412.38 204.85 398 209.31 394.16 210.34V233.68H398.21V242.98H398.3H416.02V250H465V240.22H474.3V234.78L477.39 231.43V178.33L475.19 175C474.19 175.07 470.78 175.03 472.14 171.12C472.14 171.12 472.67 169.38 470.6 170.15C470.6 170.15 471.07 169.04 472.17 169.12C473.84 169.25 473.76 171.04 473.76 171.04C473.76 171.04 473.75 171.97 474.44 172.35V171.49H476.05L474.12 169.86V168.95C473.14 168.93 471.38 168.56 472.25 166.04C472.25 166.04 472.65 164.73 471.1 165.31C471.1 165.31 471.45 164.48 472.27 164.54C473.52 164.64 473.46 165.98 473.46 165.98C473.46 165.98 473.45 167.17 474.61 167.08L475.87 166.01H474.11V164.7C473.43 164.47 472.84 163.87 473.36 162.37C473.36 162.37 473.7 161.26 472.39 161.75C472.39 161.75 472.69 161.05 473.38 161.1C474.44 161.18 474.39 162.31 474.39 162.31C474.39 162.31 474.37 163.41 475.52 163.21C475.52 161.5 475.78 156.71 478.28 153.84C478.28 153.84 479.46 152.58 479.68 151.63H479.39V150.91H479.56C479.54 150.53 479.53 148.73 481.11 147.19C482.69 148.72 482.68 150.52 482.66 150.91H482.83V151.63H482.55C482.77 152.58 483.95 153.84 483.95 153.84C486.45 156.71 486.71 161.49 486.71 163.21C487.85 163.42 487.84 162.31 487.84 162.31C487.84 162.31 487.8 161.18 488.85 161.1C489.13 161.08 489.33 161.18 489.49 161.3V146.96L488.05 144.77C487.4 144.81 485.16 144.79 486.05 142.22C486.05 142.22 486.4 141.07 485.04 141.58C485.04 141.58 485.35 140.84 486.07 140.9C487.17 140.98 487.12 142.16 487.12 142.16C487.12 142.16 487.11 142.77 487.57 143.02V142.45H488.63L487.36 141.38V140.78C486.71 140.77 485.56 140.52 486.13 138.87C486.13 138.87 486.39 138.01 485.37 138.39C485.37 138.39 485.6 137.84 486.14 137.88C486.96 137.94 486.92 138.82 486.92 138.82C486.92 138.82 486.92 139.6 487.68 139.54L488.51 138.84H487.36V137.98C486.91 137.83 486.52 137.44 486.86 136.45C486.86 136.45 487.08 135.73 486.22 136.05C486.22 136.05 486.41 135.59 486.87 135.62C487.56 135.68 487.53 136.42 487.53 136.42C487.53 136.42 487.52 137.14 488.27 137.01C488.27 135.88 488.44 132.74 490.08 130.85C490.08 130.85 490.86 130.02 491 129.4H490.81V128.93H490.92C490.91 128.67 490.9 127.49 491.94 126.48C492.98 127.5 492.97 128.68 492.96 128.93H493.07V129.4H492.88C493.02 130.02 493.8 130.85 493.8 130.85C495.44 132.74 495.61 135.88 495.61 137.01C496.35 137.15 496.35 136.42 496.35 136.42C496.35 136.42 496.32 135.67 497.01 135.62C497.21 135.61 497.36 135.69 497.46 135.78V125.1L496.49 123.62C496.05 123.65 494.54 123.64 495.14 121.9C495.14 121.9 495.38 121.13 494.46 121.47C494.46 121.47 494.67 120.97 495.16 121.01C495.9 121.06 495.87 121.86 495.87 121.86C495.87 121.86 495.86 122.27 496.17 122.44V122.06H496.88L496.02 121.34V120.93C495.58 120.92 494.8 120.76 495.19 119.64C495.19 119.64 495.37 119.06 494.68 119.32C494.68 119.32 494.84 118.95 495.2 118.98C495.76 119.02 495.73 119.62 495.73 119.62C495.73 119.62 495.72 120.15 496.24 120.11L496.8 119.64H496.02V119.06C495.72 118.96 495.46 118.7 495.69 118.03C495.69 118.03 495.84 117.54 495.26 117.76C495.26 117.76 495.39 117.45 495.7 117.47C496.17 117.51 496.15 118.01 496.15 118.01C496.15 118.01 496.14 118.5 496.65 118.41C496.65 117.64 496.76 115.52 497.87 114.25C497.87 114.25 498.39 113.69 498.49 113.27H498.36V112.95H498.43C498.42 112.78 498.42 111.98 499.12 111.3C499.83 111.98 499.81 112.78 499.81 112.95H499.88V113.27H499.75C499.85 113.69 500.37 114.25 500.37 114.25C501.47 115.53 501.59 117.65 501.59 118.41C502.09 118.5 502.09 118.01 502.09 118.01C502.09 118.01 502.07 117.51 502.54 117.47C502.85 117.45 502.98 117.76 502.98 117.76C502.4 117.54 502.55 118.03 502.55 118.03C502.78 118.69 502.52 118.96 502.22 119.06V119.64H501.47L502.01 120.11C502.51 120.14 502.51 119.62 502.51 119.62C502.51 119.62 502.49 119.02 503.04 118.98C503.4 118.95 503.56 119.32 503.56 119.32C502.87 119.06 503.05 119.64 503.05 119.64C503.44 120.75 502.66 120.92 502.22 120.93V121.08H502.79C502.837 121.057 502.891 121.033 502.952 121.018C502.995 121.007 503.041 121 503.09 121C503.142 120.996 503.191 121 503.236 121.008C503.311 121.021 503.377 121.049 503.44 121.08H503.56C503.59 117.79 504.12 109.29 508.6 104.15C508.6 104.15 510.76 101.85 511.16 100.11H510.64V98.8H510.95C510.91 98.1 510.89 94.8101 513.78 92C516.67 94.8101 516.65 98.1 516.61 98.8H516.92V100.11H516.4C516.8 101.85 518.96 104.15 518.96 104.15C523.43 109.3 523.97 117.8 524 121.08H524.67C524.707 121.055 524.749 121.036 524.795 121.022C524.816 121.016 524.839 121.011 524.862 121.007C524.911 120.998 524.964 120.996 525.02 121C525.14 121.01 525.24 121.04 525.32 121.08H525.89V120.93C525.45 120.92 524.67 120.76 525.06 119.64C525.06 119.64 525.24 119.06 524.55 119.32C524.55 119.32 524.71 118.95 525.07 118.98C525.63 119.02 525.6 119.62 525.6 119.62C525.6 119.62 525.59 120.14 526.1 120.11L526.64 119.64H525.89V119.06C525.59 118.96 525.33 118.7 525.56 118.03C525.56 118.03 525.71 117.54 525.13 117.76C525.13 117.76 525.26 117.45 525.57 117.47C526.04 117.51 526.02 118.01 526.02 118.01C526.02 118.01 526.01 118.5 526.52 118.41C526.53 117.64 526.64 115.52 527.75 114.25C527.75 114.25 528.27 113.69 528.37 113.27H528.24V112.95H528.31C528.3 112.78 528.3 111.98 529 111.3C529.71 111.98 529.7 112.78 529.69 112.95H529.77V113.27H529.64C529.74 113.69 530.26 114.25 530.26 114.25C531.37 115.53 531.49 117.65 531.49 118.41C531.99 118.5 531.99 118.01 531.99 118.01C531.99 118.01 531.97 117.51 532.44 117.47C532.75 117.45 532.88 117.76 532.88 117.76C532.3 117.54 532.45 118.03 532.45 118.03C532.68 118.69 532.42 118.96 532.12 119.06V119.64H531.34L531.9 120.11C532.41 120.14 532.41 119.62 532.41 119.62C532.41 119.62 532.39 119.02 532.94 118.98C533.3 118.95 533.46 119.32 533.46 119.32C532.77 119.06 532.95 119.64 532.95 119.64C533.34 120.75 532.56 120.92 532.12 120.93V121.34L531.26 122.06H531.97V122.44C532.27 122.27 532.27 121.86 532.27 121.86C532.27 121.86 532.24 121.07 532.98 121.01C533.47 120.97 533.68 121.47 533.68 121.47C532.76 121.13 533 121.9 533 121.9C533.6 123.63 532.09 123.65 531.65 123.62L530.68 125.1V135.78C530.752 135.708 530.849 135.647 530.971 135.625C531.02 135.617 531.073 135.614 531.13 135.62C531.82 135.68 531.79 136.42 531.79 136.42C531.79 136.42 531.78 137.14 532.53 137.01C532.53 135.88 532.7 132.74 534.34 130.85C534.34 130.85 535.12 130.02 535.26 129.4H535.07V128.93H535.18C535.17 128.67 535.16 127.49 536.2 126.48C537.24 127.5 537.23 128.68 537.22 128.93H537.33V129.4H537.14C537.28 130.02 538.06 130.85 538.06 130.85C539.7 132.74 539.87 135.88 539.87 137.01C540.61 137.15 540.61 136.42 540.61 136.42C540.61 136.42 540.58 135.67 541.27 135.62C541.73 135.59 541.92 136.05 541.92 136.05C541.06 135.73 541.28 136.45 541.28 136.45C541.63 137.44 541.24 137.83 540.79 137.98V138.84H539.64L540.47 139.54C541.23 139.6 541.23 138.82 541.23 138.82C541.23 138.82 541.19 137.94 542.01 137.88C542.55 137.84 542.78 138.39 542.78 138.39C541.76 138.01 542.02 138.87 542.02 138.87C542.59 140.52 541.44 140.76 540.79 140.78V141.38L539.52 142.45H540.58V143.02C541.03 142.77 541.03 142.16 541.03 142.16C541.03 142.16 540.98 140.98 542.08 140.9C542.8 140.85 543.11 141.58 543.11 141.58C541.75 141.07 542.1 142.22 542.1 142.22C542.99 144.79 540.75 144.81 540.1 144.77L538.66 146.96V161.3C538.82 161.17 539.03 161.08 539.3 161.1C540.36 161.18 540.31 162.31 540.31 162.31C540.31 162.31 540.29 163.41 541.44 163.21C541.44 161.5 541.7 156.71 544.2 153.84C544.2 153.84 545.38 152.58 545.6 151.63H545.32V150.91H545.49C545.47 150.53 545.46 148.73 547.04 147.19C548.62 148.72 548.61 150.52 548.59 150.91H548.76V151.63H548.47C548.69 152.58 549.87 153.84 549.87 153.84C552.37 156.71 552.63 161.49 552.63 163.21C553.77 163.42 553.76 162.31 553.76 162.31C553.76 162.31 553.72 161.18 554.77 161.1C555.46 161.04 555.76 161.75 555.76 161.75C554.45 161.27 554.79 162.37 554.79 162.37C555.31 163.87 554.72 164.47 554.04 164.7V166.01H552.28L553.54 167.08C554.7 167.16 554.69 165.98 554.69 165.98C554.69 165.98 554.63 164.64 555.88 164.54C556.7 164.47 557.05 165.31 557.05 165.31C555.5 164.74 555.9 166.04 555.9 166.04C556.77 168.55 555.01 168.93 554.03 168.95V169.86L552.1 171.49H553.71V172.35C554.4 171.97 554.39 171.04 554.39 171.04C554.39 171.04 554.31 169.25 555.98 169.12C557.08 169.03 557.55 170.15 557.55 170.15C555.48 169.38 556.01 171.12 556.01 171.12C557.37 175.03 553.96 175.07 552.97 175L550.77 178.33V231.43L553.86 234.78V240.22H553.9H563.2V250H607V231.166H616.849V175.112H613.626V170.722H616.389V157.562H617.2L615.798 155.885L617.6 153.843H620.893L622.695 155.885L621.293 157.562H622.104V158.944H633.895V118.916H631.463V115.593H633.555V105.654H634.166L633.105 104.384L634.466 102.839H636.948L638.31 104.384L637.249 105.654H637.859V106.701H654.605V87.8096H650.861V84.7812L660.811 75.361V61.6321H657.488V58.4513L659.54 56.9067C659.459 56.9067 659.389 56.9169 659.319 56.9169C656.637 56.8356 654.775 54.6914 653.634 52.4456C653.43 52.0448 653.241 51.6364 653.058 51.2242C652.919 50.9124 652.784 50.5985 652.649 50.2844L652.647 50.2811C652.382 49.6643 652.116 49.0466 651.822 48.4417C651.612 48.0048 651.362 47.517 650.961 47.2223C650.591 46.9479 650.231 46.704 650.091 46.2263C650.501 46.4093 650.982 46.3381 651.382 46.2263C651.672 46.145 651.962 46.0333 652.253 45.952C651.472 45.7996 650.791 45.5049 650.121 44.885C650.791 44.9967 651.502 44.8341 652.062 44.448C651.352 44.631 650.671 44.4684 649.94 43.7875C651.123 43.5658 652.198 42.9833 653.263 42.406C653.37 42.348 653.477 42.2902 653.584 42.2327C653.629 42.2073 653.674 42.1843 653.719 42.1615C653.764 42.1387 653.809 42.1158 653.854 42.0905C653.184 41.755 652.663 41.0641 652.553 40.3019C653.063 40.8912 653.754 41.2977 654.505 41.4807C654.558 41.4916 654.613 41.5024 654.668 41.5128C654.704 41.5195 654.739 41.526 654.775 41.5322C654.839 41.5435 654.903 41.5536 654.965 41.562C655.716 41.2368 656.507 41.0132 657.317 40.9929C657.788 40.9828 658.358 41.186 658.759 41.4197C658.995 41.556 659.185 41.7714 659.377 41.9888C659.543 42.1765 659.71 42.3658 659.91 42.5071C660.29 42.7814 660.771 42.9644 661.241 42.8932C661.331 42.8811 661.42 42.86 661.509 42.839C661.574 42.8236 661.639 42.8083 661.703 42.7968C661.79 42.7809 661.876 42.7717 661.961 42.7781C662.015 42.7821 662.069 42.7926 662.122 42.8119C662.763 43.0355 662.653 43.8484 662.492 44.3667C662.362 44.7631 662.212 45.2102 661.802 45.3931C661.499 45.5281 661.212 45.4528 660.918 45.3755C660.814 45.348 660.708 45.3203 660.601 45.3016C660.13 45.2203 659.74 45.1492 659.419 44.7427C659.378 44.6921 659.34 44.637 659.301 44.5817C659.2 44.4366 659.098 44.2906 658.939 44.2245C658.749 44.1432 658.499 44.2041 658.368 44.3768C658.228 44.5497 658.238 44.8037 658.368 44.9764C658.539 45.1898 658.839 45.2305 659.109 45.2305C659.69 45.2509 660.32 45.5455 660.741 45.9418C661.121 46.2975 661.261 46.887 661.011 47.3746C660.801 47.7811 660.41 48.0861 659.98 48.1876C660.16 47.8929 660.14 47.4662 659.92 47.1918C659.652 46.8536 659.227 46.8485 658.808 46.8436C658.585 46.8409 658.363 46.8383 658.168 46.7853C657.828 46.6938 657.528 46.4805 657.327 46.1857C657.302 46.1471 657.278 46.1062 657.256 46.0641C657.237 46.0299 657.219 45.995 657.201 45.96C657.136 45.8341 657.07 45.7068 656.977 45.6064C656.507 45.0883 655.996 45.515 655.706 45.9824C655.336 46.5719 655.165 47.1613 655.185 47.8523C655.226 48.9905 655.616 50.1693 656.276 51.1652C657.067 52.3541 658.228 53.2788 659.61 53.5634C660.901 53.8174 662.412 53.4313 663.253 52.3643C664.154 51.2261 664.624 49.7932 664.815 48.3502C664.83 48.2474 664.843 48.1437 664.856 48.0389C664.871 47.9094 664.885 47.7783 664.899 47.646L664.901 47.6295C664.912 47.5251 664.923 47.4199 664.935 47.3137L664.941 47.2524C665.13 45.4485 665.342 43.4143 666.836 41.877C668.935 39.7057 672.369 40.1038 673.531 40.2384L673.553 40.241L674.263 40.3324L674.272 40.3335C675.96 40.5465 677.559 40.748 678.868 40.1494C680.479 39.428 680.219 38.1171 679.919 36.7147C679.859 36.4403 679.799 36.1659 679.759 35.8916C677.326 35.8916 676.946 32.7719 676.946 32.7719C677.887 34.6823 679.188 35.0684 679.689 35.1395C679.689 35.0074 679.689 34.8855 679.699 34.7534C679.699 34.7394 679.699 34.7256 679.7 34.712C679.703 34.665 679.71 34.6204 679.717 34.5767C679.721 34.5507 679.725 34.525 679.729 34.4994C679.028 33.9811 677.366 32.4669 678.127 30.343C678.127 30.343 678.257 32.4467 679.979 33.6763C680.309 32.9648 680.89 32.3654 681.61 32.0503C680.76 33.3104 681.13 34.3469 681.66 35.3834C681.76 35.5676 681.861 35.7557 681.961 35.9454L682.111 36.2307L682.141 36.2878C682.411 35.6071 682.832 35.0176 683.362 34.5298C682.691 33.8083 682.621 32.3654 682.621 29.5199C682.621 27.8838 683.252 26.7559 684.203 26.1259C682.892 23.6157 686.275 22 686.275 22C686.275 22 689.758 23.626 688.447 26.136C689.398 26.766 690.018 27.894 690.018 29.5302C690.018 32.0503 689.968 33.5034 689.388 34.3063C689.928 34.733 690.369 35.2716 690.689 35.9017L690.959 35.3834C691.49 34.3571 691.86 33.3104 691.009 32.0503C691.73 32.3654 692.31 32.9648 692.641 33.6763C694.352 32.4467 694.493 30.343 694.493 30.343C695.253 32.4669 693.582 33.9811 692.891 34.4994C692.894 34.5249 692.898 34.5514 692.903 34.5782C692.907 34.6052 692.911 34.6327 692.914 34.6598C692.918 34.6918 692.921 34.7233 692.921 34.7534C692.931 34.8855 692.931 35.0074 692.931 35.1395C693.432 35.0684 694.733 34.6823 695.674 32.7719C695.674 32.7719 695.293 35.8916 692.861 35.8916C692.821 36.1659 692.761 36.4403 692.701 36.7147C692.401 38.1171 692.14 39.4177 693.752 40.1494C695.061 40.748 696.659 40.5465 698.348 40.3335L698.356 40.3324L699.067 40.241C700.208 40.0986 703.671 39.6921 705.783 41.877C707.295 43.4318 707.505 45.4948 707.685 47.3137C707.725 47.6694 707.765 48.0149 707.805 48.3502C707.995 49.7831 708.466 51.2159 709.367 52.3643C710.207 53.4414 711.719 53.8276 713.01 53.5634C714.391 53.2788 715.552 52.3541 716.343 51.1652C717.004 50.1794 717.394 49.0006 717.434 47.8523C717.454 47.1613 717.284 46.5719 716.914 45.9824C716.623 45.515 716.113 45.0883 715.643 45.6064C715.546 45.7113 715.478 45.8417 715.41 45.9728C715.372 46.0449 715.335 46.1172 715.292 46.1857C715.102 46.4805 714.792 46.6938 714.451 46.7853C714.257 46.8383 714.035 46.8409 713.812 46.8436C713.393 46.8485 712.967 46.8536 712.7 47.1918C712.479 47.4662 712.459 47.8828 712.64 48.1876C712.199 48.0758 711.819 47.771 711.609 47.3746C711.358 46.8971 711.489 46.3076 711.879 45.9418C712.309 45.5354 712.94 45.2509 713.51 45.2305C713.781 45.2203 714.081 45.1898 714.251 44.9764C714.371 44.8037 714.381 44.5497 714.251 44.3768C714.197 44.3048 714.124 44.2523 714.042 44.2214C713.928 44.1781 713.797 44.1771 713.681 44.2245C713.521 44.2906 713.42 44.4366 713.319 44.5817L713.318 44.5828C713.28 44.6377 713.241 44.6924 713.2 44.7427C712.88 45.1492 712.49 45.2203 712.019 45.3016C711.916 45.3201 711.813 45.3479 711.711 45.3757L711.708 45.3765C711.414 45.4563 711.122 45.5359 710.818 45.3931C710.408 45.2102 710.257 44.7732 710.127 44.3667C709.967 43.8484 709.857 43.0355 710.498 42.8119C710.698 42.7466 710.913 42.7952 711.125 42.8431C711.175 42.8542 711.224 42.8654 711.272 42.875C711.308 42.8821 711.343 42.8883 711.378 42.8932C711.849 42.9644 712.319 42.7814 712.71 42.5071C712.909 42.3658 713.076 42.1765 713.242 41.9888C713.359 41.8561 713.476 41.7242 713.603 41.6106C713.684 41.538 713.769 41.4728 713.861 41.4197C714.261 41.186 714.832 40.9929 715.302 40.9929C716.113 41.0132 716.894 41.2368 717.654 41.562C717.815 41.5416 717.965 41.5214 718.115 41.4807C718.866 41.2977 719.556 40.8912 720.067 40.3019C719.957 41.0641 719.446 41.7449 718.765 42.0905C718.856 42.1311 718.946 42.1819 719.036 42.2327C719.142 42.29 719.249 42.3479 719.356 42.4058L719.357 42.4065C720.422 42.9835 721.497 43.5659 722.679 43.7875C721.948 44.4684 721.258 44.631 720.557 44.448C721.118 44.8341 721.828 44.9967 722.499 44.885C721.828 45.5049 721.148 45.7996 720.367 45.952C720.464 45.9825 720.56 46.0142 720.657 46.0458L720.665 46.0483C720.767 46.0815 720.869 46.1147 720.971 46.1467C721.06 46.1746 721.149 46.2014 721.238 46.2263C721.638 46.3381 722.119 46.4093 722.529 46.2263C722.397 46.6776 722.068 46.9203 721.719 47.1771L721.658 47.2223C721.258 47.517 721.008 48.0048 720.797 48.4417C720.682 48.6772 720.571 48.9153 720.463 49.1547L720.399 49.2958C720.25 49.6295 720.105 49.9657 719.96 50.3021L719.95 50.3252L719.949 50.3267C719.642 51.0388 719.335 51.7522 718.986 52.4456C717.865 54.6405 716.053 56.7238 713.46 56.8965L715.532 58.4513V61.6321H712.209V75.361L722.159 84.7812V87.8096H718.415V106.701H735.091V105.654H735.701L734.64 104.384L736.002 102.839H738.484L739.845 104.384L738.784 105.654H739.395V115.593H741.487V118.916H739.055V158.944H750.846V157.562H751.656L750.255 155.885L752.057 153.843H755.35L757.152 155.885L755.75 157.562H756.561V170.722H759.324V175.112H756.101V231.166H756.151H766V250H774V242.04H796.04V189.48H792.59V184.19H804.71V142.72H788.36V139.91C788.93 139.75 789.47 139.57 790 139.39C789.13 139.16 788.41 138.38 788.01 137.45C787.6 136.48 787.5 135.37 787.5 134.29C787.51 133.29 787.72 132.09 788.53 131.73C789.05 131.49 789.7 131.75 790 132.29C790.3 132.83 790.22 133.61 789.82 134.06C789.761 134.127 789.698 134.19 789.636 134.252C789.384 134.504 789.146 134.743 789.21 135.2C789.369 136.29 790.51 136.044 791.327 135.868C791.537 135.823 791.725 135.782 791.87 135.77C792.62 135.7 793.4 136.09 793.88 136.76C794.05 137 794.17 137.27 794.26 137.56C799.25 134.94 801.62 131.76 802.34 130.64H801.29V127.69L812.96 116.05V105.61C812.96 105.61 813.22 106.44 813.85 107.2C813.67 106.58 813.62 105.92 813.62 105.26C813.62 104.5 813.78 103.59 814.4 103.31C814.8 103.13 815.29 103.32 815.52 103.74C815.75 104.15 815.68 104.74 815.38 105.09C815.16 105.35 814.86 105.52 814.92 105.96C815.039 106.782 815.901 106.598 816.524 106.465C816.614 106.446 816.7 106.428 816.777 106.414L816.813 106.408L816.857 106.401L816.896 106.395C816.915 106.393 816.933 106.391 816.95 106.39C817.53 106.34 818.12 106.64 818.49 107.15C818.74 107.51 818.88 107.98 818.89 108.44H825.46C825.46 107.4 826.28 106.55 827.28 106.55C827.69 106.55 828.07 106.69 828.37 106.93C828.77 106.21 829.4 105.62 830.17 105.24C829.81 104.79 829.59 104.24 829.59 103.62C829.59 102.18 830.77 101 832.21 101C833.65 101 834.83 102.17 834.83 103.62C834.83 104.23 834.61 104.79 834.25 105.24C835.02 105.63 835.65 106.21 836.05 106.93C836.35 106.69 836.73 106.55 837.14 106.55C838.15 106.55 838.96 107.39 838.96 108.44H845.53C845.54 107.97 845.67 107.51 845.93 107.15C846.3 106.64 846.89 106.34 847.47 106.39C847.524 106.395 847.586 106.405 847.654 106.418C847.693 106.426 847.734 106.434 847.776 106.443L847.875 106.465C848.499 106.6 849.38 106.792 849.5 105.96C849.556 105.608 849.375 105.429 849.183 105.238C849.135 105.19 849.086 105.142 849.04 105.09C848.74 104.75 848.67 104.16 848.9 103.74C849.13 103.32 849.62 103.13 850.02 103.31C850.63 103.59 850.8 104.5 850.8 105.26C850.8 105.92 850.75 106.58 850.57 107.2C851.2 106.44 851.46 105.61 851.46 105.61V116.05L863.13 127.69V130.64H862.03C862.64 131.71 864.72 134.64 870.19 137.46C870.28 137.21 870.39 136.97 870.54 136.76C871.02 136.09 871.79 135.71 872.55 135.77C872.7 135.781 872.896 135.822 873.114 135.869C873.93 136.042 875.052 136.281 875.21 135.2C875.274 134.737 875.038 134.504 874.788 134.255C874.749 134.216 874.709 134.177 874.67 134.136C874.646 134.111 874.623 134.086 874.6 134.06C874.21 133.61 874.12 132.83 874.42 132.29C874.72 131.75 875.37 131.5 875.89 131.73C876.7 132.1 876.92 133.29 876.92 134.29C876.93 135.37 876.82 136.48 876.41 137.45C876.03 138.34 875.35 139.1 874.52 139.36C875.02 139.55 875.53 139.73 876.06 139.91V142.72H859.71V184.19H871.83V189.48H868.38V242.04H890.42V250H917.317C915.154 247.621 913.821 244.374 913.821 240.794L906 231.054H914.861L920.348 236.919H955.612V211.806H954.746L945.885 208.777H956.496L969.224 193L981.95 208.777H992.171L983.306 211.806H982.441V236.922H1009.68V234.398H1030.52C1033.65 231.054 1042.5 221.31 1042.5 221.31L1061 219.358C1049.28 224.092 1043.81 240.794 1043.81 240.794C1043.81 244.374 1042.47 247.621 1040.31 250H1078.55V241.05H1081.41V238.63H1085.21C1084.81 238.51 1084.52 238.14 1084.52 237.71C1084.52 237.23 1084.88 236.83 1085.34 236.75C1084.88 236.68 1084.52 236.28 1084.52 235.8V234.68C1084.52 234.2 1084.88 233.8 1085.34 233.73V189.77C1084.88 189.7 1084.52 189.3 1084.52 188.82V187.7C1084.52 187.22 1084.88 186.82 1085.34 186.74C1084.88 186.67 1084.52 186.27 1084.52 185.79C1084.52 185.67 1084.55 185.55 1084.59 185.44H1079.01V182.15C1079.67 181.96 1080.31 181.76 1080.93 181.55C1079.91 181.28 1079.06 180.36 1078.6 179.27C1078.11 178.14 1078 176.84 1078 175.58C1078 174.41 1078.25 173.02 1079.2 172.59C1079.81 172.32 1080.57 172.62 1080.92 173.25C1081.27 173.88 1081.17 174.79 1080.71 175.32C1080.64 175.402 1080.56 175.478 1080.49 175.553C1080.19 175.844 1079.92 176.117 1080 176.65C1080.18 177.922 1081.52 177.633 1082.47 177.426C1082.72 177.372 1082.94 177.324 1083.11 177.31C1084 177.23 1084.91 177.68 1085.47 178.47C1085.67 178.75 1085.82 179.07 1085.93 179.41C1093.13 175.63 1095.66 170.81 1095.66 170.81H1095.73V164.01H1107.76V146.03C1107.3 145.96 1106.94 145.56 1106.94 145.08V143.96C1106.94 143.48 1107.3 143.08 1107.76 143C1107.3 142.93 1106.94 142.53 1106.94 142.05C1106.94 141.89 1106.98 141.73 1107.06 141.59H1106.08V140.04C1106.4 139.95 1106.7 139.86 1106.99 139.76C1106.51 139.63 1106.11 139.19 1105.89 138.68C1105.66 138.15 1105.61 137.54 1105.61 136.94C1105.62 136.39 1105.73 135.73 1106.18 135.53C1106.47 135.4 1106.83 135.54 1106.99 135.84C1107.15 136.14 1107.11 136.57 1106.89 136.82C1106.86 136.859 1106.82 136.895 1106.78 136.93C1106.64 137.068 1106.51 137.195 1106.55 137.45C1106.64 138.044 1107.26 137.91 1107.71 137.814C1107.83 137.789 1107.94 137.766 1108.02 137.76C1108.44 137.73 1108.86 137.94 1109.13 138.31C1109.23 138.44 1109.3 138.59 1109.35 138.75C1112.74 136.96 1113.94 134.69 1113.94 134.69V130.77H1113.96C1113.86 130.35 1113.83 129.91 1113.83 129.47C1113.84 128.92 1113.95 128.26 1114.4 128.06C1114.69 127.93 1115.05 128.07 1115.21 128.37C1115.37 128.67 1115.33 129.1 1115.11 129.35C1115.08 129.389 1115.04 129.425 1115 129.46C1114.86 129.597 1114.73 129.725 1114.77 129.98C1114.86 130.574 1115.48 130.44 1115.93 130.344C1116.05 130.319 1116.16 130.296 1116.24 130.29C1116.66 130.26 1117.08 130.47 1117.35 130.84C1117.59 131.16 1117.69 131.6 1117.64 132.01C1119.7 132.49 1122.73 132.97 1127.02 133.13V133.01C1127.02 132.5 1127.41 132.09 1127.9 132.09C1128.1 132.09 1128.28 132.16 1128.43 132.28C1128.71 131.76 1129.24 131.38 1129.87 131.26C1129.64 131.12 1129.48 130.86 1129.48 130.57C1129.48 130.12 1129.84 129.76 1130.29 129.76C1130.74 129.76 1131.1 130.12 1131.1 130.57C1131.1 130.86 1130.94 131.12 1130.71 131.26C1131.34 131.38 1131.87 131.77 1132.15 132.28C1132.3 132.16 1132.48 132.09 1132.68 132.09C1133.16 132.09 1133.56 132.5 1133.56 133.01V133.13C1137.84 132.96 1140.88 132.49 1142.94 132.01C1142.89 131.59 1143 131.15 1143.23 130.83C1143.49 130.46 1143.92 130.25 1144.34 130.28C1144.42 130.286 1144.54 130.31 1144.66 130.337C1145.11 130.435 1145.72 130.569 1145.81 129.97C1145.84 129.713 1145.71 129.585 1145.57 129.446C1145.54 129.412 1145.5 129.377 1145.47 129.34C1145.25 129.09 1145.21 128.66 1145.37 128.36C1145.53 128.05 1145.89 127.92 1146.18 128.05C1146.63 128.25 1146.75 128.91 1146.75 129.46C1146.75 129.89 1146.72 130.34 1146.61 130.76L1146.64 130.74V134.7C1146.75 134.95 1147.72 136.85 1151.25 138.67C1151.3 138.53 1151.37 138.4 1151.45 138.29C1151.71 137.92 1152.14 137.71 1152.56 137.74C1152.64 137.746 1152.76 137.77 1152.88 137.797C1153.33 137.895 1153.94 138.029 1154.03 137.43C1154.06 137.173 1153.93 137.045 1153.79 136.906C1153.76 136.872 1153.72 136.837 1153.69 136.8C1153.47 136.55 1153.43 136.12 1153.59 135.82C1153.75 135.51 1154.11 135.38 1154.4 135.51C1154.85 135.71 1154.97 136.37 1154.97 136.92C1154.98 137.51 1154.92 138.12 1154.69 138.66C1154.48 139.15 1154.11 139.58 1153.65 139.72L1153.65 139.721L1153.96 139.83C1154.14 139.893 1154.32 139.957 1154.5 140.02V141.57H1153.52C1153.55 141.611 1153.57 141.655 1153.58 141.701C1153.6 141.752 1153.62 141.807 1153.63 141.863C1153.64 141.917 1153.64 141.973 1153.64 142.03C1153.64 142.51 1153.28 142.91 1152.82 142.99C1153.28 143.06 1153.64 143.46 1153.64 143.94V145.06C1153.64 145.54 1153.28 145.94 1152.82 146.01V163.99H1164.85V170.79H1164.9C1164.9 170.79 1166.69 175.13 1174.7 179.26C1174.81 178.97 1174.95 178.69 1175.12 178.45C1175.69 177.67 1176.59 177.22 1177.48 177.29C1177.57 177.298 1177.68 177.316 1177.8 177.339C1177.9 177.358 1178.01 177.382 1178.12 177.406C1179.07 177.613 1180.41 177.902 1180.59 176.63C1180.67 176.097 1180.4 175.824 1180.1 175.533C1180.06 175.487 1180.01 175.441 1179.97 175.393C1179.94 175.363 1179.91 175.332 1179.88 175.3C1179.42 174.77 1179.32 173.87 1179.67 173.23C1180.02 172.59 1180.78 172.3 1181.39 172.57C1182.34 173 1182.59 174.39 1182.59 175.56C1182.59 176.82 1182.47 178.11 1181.99 179.25C1181.55 180.29 1180.76 181.18 1179.79 181.49C1180.36 181.7 1180.96 181.91 1181.58 182.12V185.41H1176C1176.05 185.52 1176.07 185.64 1176.07 185.76C1176.07 186.24 1175.71 186.64 1175.25 186.72C1175.71 186.79 1176.07 187.19 1176.07 187.67V188.79C1176.07 189.27 1175.71 189.67 1175.25 189.74V233.7C1175.71 233.77 1176.07 234.17 1176.07 234.65V235.77C1176.07 236.25 1175.71 236.65 1175.25 236.73C1175.71 236.8 1176.07 237.2 1176.07 237.68C1176.07 238.11 1175.78 238.48 1175.38 238.6H1179.18L1179.16 238.63V241.05H1182.02V250H1217.08V223.8H1211V219.83H1249.98V207.75H1239.13C1239.13 207.75 1226.17 204.12 1226.17 195.83C1226.17 195.83 1226.75 196.31 1227.78 196.88C1227.64 196.46 1227.53 196.03 1227.43 195.6C1227.17 194.49 1227.1 193.11 1227.9 192.49C1228.42 192.09 1229.21 192.2 1229.68 192.73C1230.15 193.26 1230.26 194.14 1229.94 194.75C1229.89 194.835 1229.84 194.917 1229.79 194.998C1229.57 195.343 1229.37 195.668 1229.56 196.17C1230.02 197.337 1231.22 196.765 1232.08 196.354C1232.3 196.247 1232.5 196.151 1232.66 196.1C1233.48 195.84 1234.45 196.06 1235.16 196.68C1235.74 197.18 1236.14 197.94 1236.27 198.74C1238.99 198.5 1242.08 197.44 1245.31 194.84L1249.97 191.08V181.84H1239.12C1239.12 181.84 1226.16 178.21 1226.16 169.92C1226.16 169.92 1226.74 170.4 1227.77 170.97C1227.68 170.707 1227.61 170.44 1227.54 170.172C1227.5 170.012 1227.46 169.851 1227.42 169.69C1227.16 168.58 1227.09 167.2 1227.89 166.58C1228.41 166.18 1229.2 166.29 1229.67 166.82C1230.14 167.35 1230.25 168.23 1229.93 168.84C1229.88 168.926 1229.83 169.007 1229.78 169.088C1229.56 169.433 1229.36 169.758 1229.55 170.26C1230.01 171.427 1231.21 170.855 1232.07 170.444L1232.18 170.388C1232.25 170.357 1232.31 170.328 1232.37 170.301C1232.47 170.255 1232.57 170.217 1232.65 170.19C1233.47 169.93 1234.44 170.15 1235.15 170.77C1235.73 171.27 1236.13 172.03 1236.26 172.83C1238.98 172.59 1242.07 171.53 1245.3 168.93L1249.96 165.17V155.93H1239.11C1239.11 155.93 1226.15 152.3 1226.15 144.01C1226.15 144.01 1226.73 144.49 1227.76 145.06C1227.62 144.64 1227.51 144.21 1227.41 143.78C1227.15 142.67 1227.08 141.29 1227.88 140.67C1228.4 140.27 1229.19 140.38 1229.66 140.91C1230.13 141.44 1230.24 142.32 1229.92 142.93C1229.87 143.015 1229.82 143.096 1229.77 143.177L1229.77 143.178C1229.55 143.523 1229.35 143.848 1229.54 144.35C1230 145.517 1231.2 144.945 1232.06 144.534C1232.28 144.427 1232.48 144.332 1232.64 144.28C1233.46 144.02 1234.43 144.24 1235.14 144.86C1235.72 145.36 1236.12 146.12 1236.25 146.92C1238.97 146.67 1242.06 145.61 1245.29 143.01L1249.95 139.25V130.01H1239.1C1239.1 130.01 1226.36 126.45 1226.14 118.31V118.1C1226.14 118.1 1226.72 118.58 1227.75 119.15C1227.61 118.73 1227.5 118.3 1227.4 117.87C1227.14 116.76 1227.07 115.38 1227.87 114.76C1228.39 114.36 1229.18 114.47 1229.65 115C1230.12 115.53 1230.23 116.41 1229.91 117.02C1229.9 117.038 1229.89 117.057 1229.88 117.074C1229.84 117.141 1229.8 117.205 1229.76 117.268C1229.54 117.613 1229.34 117.938 1229.53 118.44C1229.99 119.607 1231.19 119.035 1232.05 118.624C1232.27 118.517 1232.47 118.422 1232.63 118.37C1233.45 118.11 1234.42 118.33 1235.13 118.95C1235.71 119.45 1236.11 120.21 1236.24 121.01C1236.64 120.98 1237.05 120.92 1237.47 120.85L1237.48 120.85L1237.49 120.849C1237.49 120.848 1237.5 120.847 1237.51 120.846C1237.52 120.844 1237.53 120.842 1237.53 120.84C1237.56 120.835 1237.58 120.83 1237.6 120.83C1237.63 120.82 1237.66 120.81 1237.69 120.81C1237.73 120.8 1237.82 120.78 1237.82 120.78L1237.91 120.75H1237.98C1238.01 120.74 1238.04 120.73 1238.07 120.73C1238.09 120.726 1238.11 120.72 1238.14 120.714L1238.14 120.713C1238.16 120.708 1238.18 120.702 1238.2 120.698C1238.21 120.695 1238.23 120.692 1238.24 120.69L1238.35 120.65H1238.4C1238.46 120.63 1238.53 120.62 1238.59 120.6C1239.46 120.37 1240.36 120.05 1241.28 119.62C1241.34 119.59 1241.41 119.56 1241.47 119.53L1241.51 119.51C1241.54 119.495 1241.57 119.479 1241.61 119.464C1241.64 119.45 1241.67 119.435 1241.7 119.42C1241.79 119.37 1241.88 119.33 1241.97 119.28C1242.01 119.264 1242.04 119.249 1242.08 119.231C1242.11 119.216 1242.14 119.199 1242.17 119.18L1242.22 119.15C1243.22 118.61 1244.24 117.94 1245.28 117.1L1249.94 113.34V104.1H1239.09C1239.09 104.1 1226.13 100.47 1226.13 92.1801C1226.13 92.1801 1226.71 92.66 1227.74 93.23C1227.6 92.8101 1227.49 92.38 1227.39 91.95C1227.13 90.84 1227.06 89.46 1227.86 88.84C1228.38 88.4399 1229.17 88.55 1229.64 89.08C1230.11 89.61 1230.22 90.49 1229.9 91.1C1229.85 91.1855 1229.8 91.2675 1229.75 91.3484C1229.53 91.6929 1229.33 92.0179 1229.52 92.52C1229.98 93.6869 1231.18 93.1146 1232.04 92.704C1232.26 92.5973 1232.46 92.5015 1232.62 92.45C1233.44 92.1899 1234.41 92.41 1235.12 93.03C1235.7 93.53 1236.1 94.29 1236.23 95.09C1238.95 94.85 1242.04 93.79 1245.27 91.1899L1249.93 87.4301V78.1899H1239.08C1239.08 78.1899 1226.12 74.5599 1226.12 66.27C1226.12 66.27 1226.7 66.75 1227.73 67.3199C1227.59 66.9 1227.48 66.47 1227.38 66.04C1227.12 64.9301 1227.05 63.55 1227.85 62.9301C1228.37 62.53 1229.16 62.64 1229.63 63.17C1230.1 63.7 1230.21 64.58 1229.89 65.1899C1229.84 65.2748 1229.79 65.3562 1229.74 65.4365L1229.74 65.4384C1229.52 65.7828 1229.32 66.1079 1229.51 66.61C1229.97 67.7769 1231.17 67.2047 1232.03 66.7941C1232.25 66.6874 1232.45 66.5916 1232.61 66.54C1233.43 66.28 1234.4 66.5 1235.11 67.12C1235.69 67.62 1236.09 68.38 1236.22 69.1801C1238.94 68.9399 1242.03 67.88 1245.26 65.28L1249.92 61.52V52.21H1239.07C1239.07 52.21 1226.11 48.58 1226.11 40.29C1226.11 40.29 1226.7 40.77 1227.74 41.35C1227.59 40.92 1227.47 40.48 1227.37 40.03C1227.11 38.92 1227.04 37.54 1227.84 36.92C1228.36 36.52 1229.15 36.63 1229.62 37.16C1230.09 37.6899 1230.2 38.5699 1229.88 39.1801C1229.86 39.2083 1229.85 39.2361 1229.83 39.2635C1229.8 39.3195 1229.76 39.3741 1229.73 39.4283C1229.51 39.7728 1229.31 40.0978 1229.5 40.6C1229.96 41.7668 1231.16 41.1947 1232.02 40.7841C1232.24 40.6774 1232.44 40.5815 1232.6 40.53C1233.42 40.27 1234.39 40.49 1235.1 41.11C1235.69 41.62 1236.1 42.4 1236.22 43.21C1238.93 42.97 1242.02 41.91 1245.25 39.3101L1268.46 20.6C1268.34 20.39 1268.27 20.15 1268.27 19.88C1268.27 19.1899 1268.74 18.62 1269.31 18.62H1269.52C1269.66 18.16 1269.82 17.22 1269.66 15.51C1269.66 15.51 1268.13 14.36 1270.47 11.08L1270.77 0L1271.07 11.08C1273.42 14.36 1271.88 15.51 1271.88 15.51C1271.72 17.22 1271.88 18.16 1272.02 18.62H1272.24C1272.81 18.62 1273.28 19.1899 1273.28 19.88C1273.28 20.16 1273.2 20.42 1273.07 20.63L1296.23 39.3C1299.46 41.89 1302.55 42.96 1305.26 43.2C1305.39 42.39 1305.79 41.61 1306.38 41.1C1307.09 40.47 1308.05 40.25 1308.88 40.52C1308.99 40.5555 1309.12 40.6124 1309.26 40.6793C1309.33 40.7091 1309.39 40.7408 1309.46 40.7737L1309.46 40.774C1310.32 41.1847 1311.52 41.757 1311.98 40.59C1312.17 40.1083 1311.97 39.7887 1311.76 39.4491C1311.71 39.3586 1311.65 39.2667 1311.6 39.17C1311.27 38.5601 1311.39 37.6801 1311.86 37.15C1312.33 36.62 1313.12 36.51 1313.64 36.91C1314.44 37.53 1314.37 38.91 1314.11 40.02C1314.01 40.46 1313.89 40.91 1313.74 41.34C1314.79 40.76 1315.37 40.28 1315.37 40.28C1315.37 48.5699 1302.41 52.2 1302.41 52.2H1291.56V61.51L1296.22 65.27C1299.32 67.76 1302.28 68.84 1304.91 69.14C1305.05 68.35 1305.45 67.61 1306.02 67.11C1306.73 66.48 1307.69 66.26 1308.52 66.53C1308.68 66.5815 1308.88 66.6774 1309.1 66.7841C1309.96 67.1947 1311.16 67.7668 1311.62 66.6C1311.81 66.1183 1311.61 65.7987 1311.4 65.4591C1311.35 65.3687 1311.29 65.2767 1311.24 65.1801C1310.91 64.5699 1311.03 63.6899 1311.5 63.16C1311.97 62.63 1312.76 62.52 1313.28 62.92C1314.08 63.54 1314.01 64.92 1313.75 66.03C1313.63 66.54 1313.49 67.05 1313.31 67.54C1314.61 66.88 1315.36 66.26 1315.36 66.26V66.65C1314.97 74.66 1302.41 78.1801 1302.41 78.1801H1291.56V87.42L1296.22 91.1801C1299.32 93.67 1302.28 94.75 1304.91 95.05C1305.05 94.26 1305.45 93.52 1306.02 93.02C1306.73 92.39 1307.69 92.17 1308.52 92.4399C1308.68 92.4913 1308.88 92.587 1309.1 92.6936L1309.1 92.694C1309.96 93.1046 1311.16 93.6769 1311.62 92.51C1311.81 92.0283 1311.61 91.7087 1311.4 91.3691C1311.35 91.2787 1311.29 91.1868 1311.24 91.09C1310.91 90.48 1311.03 89.6 1311.5 89.0699C1311.97 88.54 1312.76 88.4301 1313.28 88.83C1314.08 89.45 1314.01 90.83 1313.75 91.9399C1313.63 92.45 1313.49 92.96 1313.31 93.45C1314.61 92.79 1315.36 92.17 1315.36 92.17V92.5601C1314.97 100.57 1302.41 104.09 1302.41 104.09H1291.56V113.33L1296.22 117.09C1297.09 117.8 1297.96 118.39 1298.81 118.88L1298.81 118.885L1298.82 118.892L1298.83 118.894L1298.83 118.899C1298.85 118.908 1298.86 118.914 1298.87 118.92C1298.88 118.931 1298.9 118.943 1298.92 118.954C1298.96 118.973 1298.99 118.99 1298.99 118.99L1299.11 119.06L1299.13 119.071L1299.14 119.08L1299.15 119.087C1299.16 119.095 1299.18 119.102 1299.19 119.109L1299.2 119.116L1299.23 119.13C1299.26 119.14 1299.3 119.16 1299.33 119.18C1299.36 119.195 1299.39 119.213 1299.43 119.231L1299.43 119.231L1299.43 119.232C1299.46 119.249 1299.49 119.266 1299.52 119.28L1299.58 119.31C1299.61 119.323 1299.64 119.338 1299.67 119.353L1299.72 119.379L1299.75 119.394L1299.78 119.41C1300.77 119.91 1301.74 120.28 1302.68 120.54L1302.74 120.56L1302.76 120.566C1302.78 120.574 1302.8 120.58 1302.82 120.58C1302.84 120.583 1302.86 120.59 1302.88 120.598C1302.93 120.613 1302.97 120.63 1302.97 120.63H1303.03C1303.08 120.65 1303.13 120.66 1303.18 120.67C1303.21 120.67 1303.28 120.69 1303.28 120.69L1303.39 120.72C1303.42 120.73 1303.46 120.74 1303.49 120.74C1303.5 120.74 1303.51 120.741 1303.52 120.743C1303.53 120.745 1303.54 120.747 1303.54 120.75C1303.56 120.755 1303.58 120.76 1303.6 120.76C1304.05 120.85 1304.49 120.92 1304.92 120.97C1305.06 120.18 1305.46 119.44 1306.03 118.94C1306.74 118.31 1307.7 118.09 1308.53 118.36C1308.63 118.392 1308.74 118.44 1308.87 118.498C1308.94 118.534 1309.03 118.573 1309.11 118.614L1309.11 118.614C1309.97 119.025 1311.17 119.597 1311.63 118.43C1311.82 117.948 1311.62 117.629 1311.41 117.289L1311.39 117.248L1311.35 117.187C1311.32 117.129 1311.28 117.071 1311.25 117.01C1310.92 116.4 1311.04 115.52 1311.51 114.99C1311.98 114.46 1312.77 114.35 1313.29 114.75C1314.09 115.37 1314.02 116.75 1313.76 117.86C1313.64 118.37 1313.5 118.88 1313.32 119.37C1314.62 118.71 1315.37 118.09 1315.37 118.09V118.35V118.48C1314.98 126.49 1302.42 130.01 1302.42 130.01H1291.57V139.25L1296.23 143.01C1299.33 145.5 1302.29 146.58 1304.92 146.88C1305.06 146.09 1305.46 145.35 1306.03 144.85C1306.74 144.22 1307.7 144 1308.53 144.27C1308.69 144.321 1308.89 144.417 1309.11 144.524L1309.11 144.524C1309.97 144.935 1311.17 145.507 1311.63 144.34C1311.82 143.858 1311.62 143.539 1311.41 143.199L1311.37 143.137L1311.34 143.076C1311.32 143.043 1311.3 143.01 1311.28 142.976C1311.27 142.958 1311.26 142.939 1311.25 142.92C1310.92 142.31 1311.04 141.43 1311.51 140.9C1311.98 140.37 1312.77 140.26 1313.29 140.66C1314.09 141.28 1314.02 142.66 1313.76 143.77C1313.64 144.28 1313.5 144.79 1313.32 145.28C1314.62 144.62 1315.37 144 1315.37 144V144.39C1314.98 152.4 1302.42 155.92 1302.42 155.92H1291.57V165.16L1296.23 168.92C1299.33 171.41 1302.29 172.49 1304.92 172.79C1305.06 172 1305.46 171.26 1306.03 170.76C1306.74 170.13 1307.7 169.91 1308.53 170.18C1308.69 170.231 1308.89 170.327 1309.11 170.434L1309.11 170.434C1309.97 170.845 1311.17 171.417 1311.63 170.25C1311.82 169.768 1311.62 169.449 1311.41 169.109C1311.36 169.019 1311.3 168.927 1311.25 168.83C1310.92 168.22 1311.04 167.34 1311.51 166.81C1311.98 166.28 1312.77 166.17 1313.29 166.57C1314.09 167.19 1314.02 168.57 1313.76 169.68C1313.64 170.19 1313.5 170.7 1313.32 171.19C1314.62 170.53 1315.37 169.91 1315.37 169.91V170.3C1314.98 178.31 1302.42 181.83 1302.42 181.83H1291.57V191.07L1296.23 194.83C1299.33 197.32 1302.29 198.4 1304.92 198.7C1305.06 197.91 1305.46 197.17 1306.03 196.67C1306.74 196.04 1307.7 195.82 1308.53 196.09C1308.69 196.141 1308.89 196.237 1309.11 196.344C1309.97 196.755 1311.17 197.327 1311.63 196.16C1311.82 195.678 1311.62 195.359 1311.41 195.019C1311.36 194.929 1311.3 194.837 1311.25 194.74C1310.92 194.13 1311.04 193.25 1311.51 192.72C1311.98 192.19 1312.77 192.08 1313.29 192.48C1314.09 193.1 1314.02 194.48 1313.76 195.59C1313.64 196.1 1313.5 196.61 1313.32 197.1C1314.62 196.44 1315.37 195.82 1315.37 195.82V196.21C1314.98 204.22 1302.42 207.74 1302.42 207.74H1291.57V219.82ZM1368.13 250H1386.09V236.72C1386.09 231.406 1382.05 227.06 1377.11 227.06C1372.17 227.06 1368.13 231.406 1368.13 236.72V250ZM1406.31 250H1424.27V236.731C1424.27 231.417 1420.23 227.071 1415.29 227.071C1410.35 227.071 1406.31 231.417 1406.31 236.731V250ZM1444.51 250H1462.47V236.731C1462.47 231.417 1458.43 227.071 1453.49 227.071C1448.55 227.071 1444.51 231.417 1444.51 236.731V250ZM297.44 239.81H296.27V234.87H297.44V239.81ZM303.79 195.85H302.77V191.55H303.79V195.85ZM383.26 154.03H384.14V157.74H383.26V154.03ZM378.37 121.73H379.13V124.95H378.37V121.73ZM374.22 93.47H374.88V96.27H374.22V93.47ZM370.45 69H371.02V71.42H370.45V69ZM370.91 113.91C372.24 113.91 373.32 115.83 373.32 118.18V120.95H368.49V118.18C368.49 115.83 369.58 113.91 370.9 113.91H370.91ZM372.66 121.73V124.95H371.9V121.73H372.66ZM368.59 96.27V93.47H369.25V96.27H368.59ZM367.24 47.98H367.74V50.08H367.24V47.98ZM367.73 86.66C368.89 86.66 369.83 88.33 369.83 90.37V92.78H365.63V90.37C365.63 88.33 366.58 86.66 367.73 86.66ZM367.38 93.47V96.27H366.72V93.47H367.38ZM365.58 71.42V69H366.15V71.42H365.58ZM364.835 63.11C365.833 63.115 366.65 64.5531 366.65 66.3199V68.41H363.02V66.3199C363.02 64.5531 363.838 63.115 364.835 63.11ZM364.53 68.99V71.41H363.96V68.99H364.53ZM363.02 50.08V47.98H363.52V50.08H363.02ZM360.8 45.66C360.8 44.13 361.51 42.88 362.37 42.88C363.23 42.88 363.94 44.13 363.94 45.66V47.47H360.79V45.66H360.8ZM362.11 47.98V50.08H361.61V47.98H362.11ZM344.15 45.66C344.15 44.13 345.17 42.88 346.41 42.88C347.65 42.88 348.67 44.13 348.67 45.66V47.47H344.14V45.66H344.15ZM348.06 47.98V50.08H347.56V47.98H348.06ZM346.65 47.98V50.08H346.15V47.98H346.65ZM345.25 47.98V50.08H344.75V47.98H345.25ZM343.8 66.3199C343.8 64.55 344.98 63.11 346.41 63.11C347.84 63.11 349.02 64.55 349.02 66.3199V68.41H343.8V66.3199ZM348.32 68.99V71.41H347.75V68.99H348.32ZM346.7 68.99V71.41H346.13V68.99H346.7ZM345.08 68.99V71.41H344.51V68.99H345.08ZM343.4 90.37C343.4 88.33 344.76 86.66 346.42 86.66C348.08 86.66 349.44 88.33 349.44 90.37V92.78H343.4V90.37ZM348.63 93.46V96.26H347.97V93.46H348.63ZM346.75 93.46V96.26H346.09V93.46H346.75ZM344.87 93.46V96.26H344.21V93.46H344.87ZM342.95 118.16C342.95 115.81 344.51 113.89 346.42 113.89C348.33 113.89 349.89 115.81 349.89 118.16V120.93H342.95V118.16ZM348.95 121.71V124.93H348.19V121.71H348.95ZM346.79 121.71V124.93H346.03V121.71H346.79ZM344.63 121.71V124.93H343.87V121.71H344.63ZM342.41 149.91C342.41 147.2 344.21 144.99 346.41 144.99C348.61 144.99 350.41 147.2 350.41 149.91V153.11H342.4V149.91H342.41ZM349.33 154.01V157.72H348.45V154.01H349.33ZM346.84 154.01V157.72H345.96V154.01H346.84ZM344.35 154.01V157.72H343.47V154.01H344.35ZM341.77 186.79C341.77 183.66 343.85 181.1 346.4 181.1C348.95 181.1 351.03 183.66 351.03 186.79V190.49H341.77V186.79ZM349.78 191.53V195.83H348.76V191.53H349.78ZM346.9 191.53V195.83H345.88V191.53H346.9ZM344.02 191.53V195.83H343V191.53H344.02ZM328.85 45.65C328.85 44.12 329.56 42.87 330.42 42.87C331.28 42.87 331.99 44.12 331.99 45.65V47.46H328.84V45.65H328.85ZM331.18 47.97V50.0699H330.68V47.97H331.18ZM329.77 47.97V50.0699H329.27V47.97H329.77ZM326.14 66.3101C326.14 64.54 326.96 63.1 327.96 63.1C328.96 63.1 329.78 64.54 329.78 66.3101V68.4H326.15V66.3101H326.14ZM328.83 68.98V71.4H328.26V68.98H328.83ZM327.21 68.98V71.4H326.64V68.98H327.21ZM325.06 47.97H325.56V50.0699H325.06V47.97ZM322.97 90.36C322.97 88.3199 323.92 86.65 325.07 86.65C326.22 86.65 327.17 88.3199 327.17 90.36V92.77H322.97V90.36ZM326.08 93.45V96.25H325.42V93.45H326.08ZM324.2 93.45V96.25H323.54V93.45H324.2ZM321.77 68.98H322.34V71.4H321.77V68.98ZM317.91 93.45H318.57V96.25H317.91V93.45ZM313.67 121.71H314.43V124.93H313.67V121.71ZM308.66 154.01H309.54V157.72H308.66V154.01ZM307.31 239.79H306.14V234.85H307.31V239.79ZM310.61 239.79H309.44V234.85H310.61V239.79ZM312.53 233.65H305.13V229.4C305.13 225.8 306.8 222.86 308.83 222.86C310.86 222.86 312.53 225.8 312.53 229.4V233.65ZM311.36 195.83V191.53H312.38V195.83H311.36ZM315.25 195.83H314.23V191.53H315.25V195.83ZM316.92 190.49H310.48V186.79C310.48 183.66 311.93 181.1 313.7 181.1C315.47 181.1 316.92 183.66 316.92 186.79V190.49ZM316.99 157.73H316.11V154.02H316.99V157.73ZM319.48 157.73H318.6V154.02H319.48V157.73ZM320.91 153.11H315.35V149.91C315.35 147.2 316.6 144.99 318.13 144.99C319.66 144.99 320.91 147.2 320.91 149.91V153.11ZM320.13 124.93V121.71H320.89V124.93H320.13ZM323.05 124.93H322.29V121.71H323.05V124.93ZM324.29 120.93H319.47V118.16C319.47 115.81 320.56 113.89 321.88 113.89C323.2 113.89 324.29 115.81 324.29 118.16V120.93ZM327.14 239.79H325.97V234.85H327.14V239.79ZM330.44 239.79H329.27V234.85H330.44V239.79ZM333.74 239.79H332.57V234.85H333.74V239.79ZM337.04 239.79H335.87V234.85H337.04V239.79ZM340.34 239.79H339.17V234.85H340.34V239.79ZM343.64 239.79H342.47V234.85H343.64V239.79ZM346.94 239.79H345.77V234.85H346.94V239.79ZM350.24 239.79H349.07V234.85H350.24V239.79ZM353.54 239.79H352.37V234.85H353.54V239.79ZM356.84 239.79H355.67V234.85H356.84V239.79ZM360.14 239.79H358.97V234.85H360.14V239.79ZM363.44 239.79H362.27V234.85H363.44V239.79ZM366.74 239.79H365.57V234.85H366.74V239.79ZM368.56 233.65H324.39V215.84H368.56V233.65ZM370.42 124.93H369.66V121.71H370.42V124.93ZM371.79 149.91C371.79 147.2 373.04 144.99 374.57 144.99C376.1 144.99 377.35 147.2 377.35 149.91V153.11H371.78V149.91H371.79ZM374.11 157.72H373.23V154.01H374.11V157.72ZM375.72 154.01H376.6V157.72H375.72V154.01ZM375.79 186.79C375.79 183.66 377.24 181.1 379.01 181.1C380.78 181.1 382.23 183.66 382.23 186.79V190.49H375.79V186.79ZM381.35 191.53V195.83H380.33V191.53H381.35ZM378.47 195.83H377.45V191.53H378.47V195.83ZM383.26 239.79H382.09V234.85H383.26V239.79ZM386.56 239.79H385.39V234.85H386.56V239.79ZM387.58 233.65H380.18V229.4C380.18 225.8 381.85 222.86 383.88 222.86C385.91 222.86 387.58 225.8 387.58 229.4V233.65ZM389.97 195.83H388.95V191.53H389.97V195.83ZM396.48 239.79H395.31V234.85H396.48V239.79ZM832.21 101.48C831.03 101.48 830.07 102.44 830.07 103.62C830.07 104.17 830.28 104.67 830.62 105.05C831.11 104.87 831.65 104.76 832.21 104.76C832.77 104.76 833.31 104.87 833.8 105.05C834.14 104.67 834.35 104.17 834.35 103.62C834.35 102.44 833.39 101.48 832.21 101.48ZM832.21 169.09C838.12 169.09 842.93 164.28 842.93 158.37C842.93 152.46 838.12 147.65 832.21 147.65C826.3 147.65 821.49 152.46 821.49 158.37C821.49 164.28 826.3 169.09 832.21 169.09ZM832.93 142.72V146.23H832.94C835.65 146.39 838.13 147.44 840.08 149.1L846.46 142.72H832.93ZM832.93 173.97H845.77L839.72 167.92C837.82 169.41 835.48 170.35 832.93 170.5V173.97ZM831.49 173.97V170.5L831.48 170.49C828.99 170.35 826.69 169.44 824.82 168.01L818.87 173.97H831.49ZM831.49 146.23V145.3H831.5V142.72H817.97L824.35 149.1C826.3 147.44 828.77 146.39 831.49 146.23ZM820.07 157.64C820.24 154.73 821.44 152.1 823.3 150.09L817.79 144.58V157.64H820.07ZM823.73 167.07C821.62 165.01 820.25 162.2 820.07 159.08V159.09H817.79V173.01L823.73 167.07ZM846.62 184.18V176.7H817.79V184.18H846.62ZM844.34 159.08C844.16 162.15 842.84 164.92 840.79 166.96L846.62 172.79V159.08H844.34ZM841.11 150.09C842.97 152.1 844.17 154.73 844.34 157.64H846.62V144.58L841.11 150.09ZM812.69 242.03H851.73V189.47H812.69V242.03ZM960.558 238.501H964.216V240.797H960.558V238.501ZM959.775 240.797H957.432V238.501H959.775V240.797ZM968.834 216.9L972.147 212.794V229.98H965.516V212.785L968.834 216.9ZM968.642 231.859V236.919H964.999V231.859H968.642ZM969.425 231.859H973.068V236.919H969.425V231.859ZM973.851 231.859H977.495V236.919H973.851V231.859ZM973.624 229.976V212.722L976.992 216.897L980.621 212.396V229.976H973.624ZM960.679 216.897L960.681 216.895L960.682 216.897H960.679ZM960.681 216.895L964.039 212.731V229.976H957.435V212.873L960.681 216.895ZM964.216 231.856V236.916H960.558V231.856H964.216ZM964.999 238.495H968.642V240.791H964.999V238.495ZM969.425 238.495H973.068V240.791H969.425V238.495ZM973.851 238.495H977.495V240.791H973.851V238.495ZM978.278 238.495H980.621V240.791H978.278V238.495ZM978.278 236.916V231.856H980.621V236.916H978.278ZM957.432 231.856H959.775V236.916H957.432V231.856ZM923.97 240.791L921.822 238.495H955.612V240.791H923.97ZM982.441 240.791V238.495H1009.68V240.791H982.441ZM1130.3 129.85C1129.92 129.85 1129.61 130.16 1129.61 130.54C1129.61 130.85 1129.82 131.11 1130.1 131.2H1130.3H1130.5C1130.78 131.11 1130.99 130.85 1130.99 130.54C1130.99 130.16 1130.68 129.85 1130.3 129.85ZM1115.87 211.84V241.02H1144.73V211.84C1144.73 203.99 1138.24 200.06 1130.3 200.06C1122.36 200.06 1115.87 203.99 1115.87 211.84ZM30.4385 77.1666C30.4385 73.391 33.4999 70.324 37.2687 70.324C41.0374 70.324 44.0988 73.391 44.0988 77.1666C44.0988 79.5353 42.8864 81.6306 41.0474 82.8553C39.2994 81.0941 38.4104 79.6871 38.2891 79.4846C38.4305 79.3733 38.5215 79.181 38.5215 78.9583V78.8976V78.8368V78.7761L38.5012 78.7559C38.4305 78.5028 38.2385 78.3206 38.0062 78.3206H37.895C37.8243 78.0878 37.7435 77.6222 37.8243 76.7617H37.8345V76.7313H37.8546L37.8613 76.7244L37.8657 76.7196L37.8756 76.7083C37.8832 76.6993 37.8909 76.6892 37.895 76.6808C37.895 76.6808 37.9153 76.6605 37.9153 76.6403C37.9153 76.6403 37.9235 76.6281 37.9293 76.6165C37.9327 76.6099 37.9354 76.6034 37.9354 76.5997C37.9354 76.5997 37.9557 76.5695 37.9658 76.5492C37.9658 76.5374 37.9728 76.5255 37.9785 76.5156C37.9825 76.5087 37.986 76.5027 37.986 76.4985C37.986 76.4985 37.9945 76.4816 38.0005 76.4641C38.0038 76.4546 38.0062 76.4449 38.0062 76.4379C38.0062 76.4379 38.0164 76.3872 38.0264 76.3669L38.0294 76.3501L38.033 76.327C38.0349 76.3131 38.0365 76.298 38.0365 76.286V76.1949V76.0936V75.9924C38.0365 75.9924 38.0365 75.9115 38.0264 75.8811C37.9658 75.5066 37.7537 75.0005 37.2484 74.3324C36.7332 75.0005 36.531 75.5066 36.4705 75.8811C36.4705 75.8811 36.4603 75.9519 36.4603 75.9924V76.0936V76.1949V76.2759C36.4603 76.2759 36.4603 76.2954 36.4622 76.3159C36.4636 76.3317 36.4661 76.348 36.4705 76.3568C36.4705 76.3568 36.473 76.3698 36.4769 76.3853C36.4807 76.4003 36.4857 76.4177 36.4906 76.4277C36.4906 76.4277 36.5007 76.4783 36.5109 76.4884C36.5109 76.4884 36.531 76.5289 36.531 76.5492L36.5432 76.5682C36.5494 76.5781 36.5565 76.5901 36.5614 76.5997C36.5614 76.5997 36.5815 76.6301 36.5917 76.6403L36.6219 76.6707L36.6422 76.701L36.6624 76.7212L36.6826 76.7415C36.7634 77.6019 36.6826 78.0776 36.6119 78.3003H36.5007C36.2683 78.3003 36.0764 78.4825 36.0056 78.7356V78.7964L35.9855 78.8165V78.8773V78.938C35.9855 79.1709 36.0966 79.3834 36.2583 79.4948C36.0865 79.7681 35.1873 81.1448 33.4797 82.8452C31.6307 81.6205 30.4183 79.5251 30.4183 77.1362L30.4385 77.1666ZM32.6614 182.571C31.3478 182.571 30.2769 181.498 30.2769 180.182C30.2769 178.866 31.3478 177.793 32.6614 177.793C33.9749 177.793 35.0458 178.866 35.0458 180.182C35.0458 181.498 33.9749 182.571 32.6614 182.571ZM33.4595 98.0795C33.4595 95.974 35.167 94.2734 37.2585 94.2734C39.35 94.2734 41.0575 95.9841 41.0575 98.0795C41.0575 100.175 39.35 101.885 37.2585 101.885C35.167 101.885 33.4595 100.175 33.4595 98.0795ZM41.8658 182.571C40.5524 182.571 39.4813 181.498 39.4813 180.182C39.4813 178.866 40.5524 177.793 41.8658 177.793C43.1793 177.793 44.2502 178.866 44.2502 180.182C44.2502 181.498 43.1793 182.571 41.8658 182.571ZM59.5575 208.514C60.9215 208.514 62.0632 209.648 62.3259 211.237H56.7891C57.0518 209.648 58.1935 208.514 59.5575 208.514ZM62.3259 224.548H56.7891V212.037H62.3259V224.548ZM62.6492 205.133H61.851V197.471H62.6492V205.133ZM85.7161 216.035C85.7161 213.1 87.6459 211.754 90 211.754C92.3541 211.754 94.2839 213.09 94.2839 216.035V219.123H85.7059V216.035H85.7161ZM85.7161 219.851H94.2941V225.439H85.7161V219.851ZM82.0887 212.037V219.112H72.0255V212.037H82.0887ZM71.3788 175.455C73.1874 175.455 74.6929 176.74 75.0465 178.451H67.7112C68.0648 176.74 69.5702 175.455 71.3788 175.455ZM67.7819 181.184H74.9757V194.495H67.7819V181.184ZM72.0255 219.851H82.0887V224.548H72.0255V219.851ZM101.286 248.022H78.7141V236.573C78.7141 233.638 83.7963 233.274 90 233.274C96.2037 233.274 101.286 233.638 101.286 236.573V248.022ZM107.985 224.558H97.9213V219.861H107.985V224.558ZM107.985 219.133H97.9213V212.057H107.985V219.133ZM112.228 194.505H105.034V181.194H112.228V194.505ZM104.964 178.471C105.317 176.76 106.833 175.475 108.631 175.475C110.43 175.475 111.955 176.76 112.299 178.471H104.964ZM117.361 197.491H118.159V205.154H117.361V197.491ZM123.221 224.568H117.684V212.057H123.221V224.568ZM117.684 211.257C117.947 209.668 119.089 208.535 120.453 208.535C121.817 208.535 122.958 209.668 123.221 211.257H117.684ZM135.911 77.1768C135.911 73.4011 138.973 70.334 142.741 70.334C146.51 70.334 149.572 73.4011 149.572 77.1768C149.572 79.5555 148.349 81.6509 146.51 82.8857C144.803 81.1852 143.903 79.8086 143.732 79.5353C143.893 79.424 144.004 79.2214 144.004 78.9785V78.9178V78.8976V78.8571V78.7964L143.984 78.7761C143.913 78.5231 143.722 78.3408 143.489 78.3408H143.378C143.307 78.108 143.226 77.6423 143.307 76.782L143.328 76.7516L143.348 76.7313L143.368 76.701L143.398 76.6707C143.398 76.6707 143.418 76.6403 143.428 76.6301C143.428 76.6301 143.434 76.6224 143.439 76.6123C143.444 76.6022 143.449 76.5896 143.449 76.5796C143.449 76.5796 143.469 76.5391 143.469 76.5188C143.469 76.5188 143.473 76.5033 143.478 76.4867C143.481 76.4764 143.485 76.4658 143.489 76.4581C143.489 76.4581 143.499 76.4075 143.509 76.3872C143.509 76.3872 143.513 76.3701 143.516 76.35C143.518 76.3353 143.519 76.319 143.519 76.3063V76.2151V76.1139V76.0127C143.519 76.0127 143.519 75.9863 143.518 75.9581C143.517 75.9458 143.516 75.9331 143.514 75.922C143.513 75.9139 143.511 75.9069 143.509 75.9014C143.449 75.5269 143.237 75.0208 142.731 74.3527C142.216 75.0208 142.004 75.5269 141.953 75.9014C141.953 75.9014 141.943 75.9722 141.943 76.0127V76.1139V76.205V76.2961C141.943 76.2961 141.943 76.3119 141.945 76.33L141.946 76.3447C141.947 76.3496 141.947 76.3544 141.948 76.3589L141.95 76.3661L141.951 76.37C141.952 76.3727 141.952 76.375 141.953 76.3771C141.953 76.3771 141.964 76.4277 141.974 76.448C141.974 76.448 141.977 76.4622 141.982 76.478C141.984 76.485 141.987 76.4922 141.989 76.4987L141.994 76.5087C141.994 76.5087 142.002 76.5248 142.008 76.5416C142.011 76.5516 142.014 76.5619 142.014 76.5695C142.014 76.5695 142.02 76.5787 142.027 76.5905C142.033 76.5999 142.04 76.611 142.044 76.62L142.047 76.6244L142.051 76.631L142.058 76.6427C142.062 76.6497 142.065 76.6566 142.065 76.6605L142.085 76.6909C142.085 76.6909 142.097 76.7068 142.108 76.7211L142.12 76.7358L142.125 76.7415V76.7617H142.155C142.236 77.6322 142.155 78.108 142.085 78.3307H141.974C141.741 78.3307 141.549 78.5129 141.479 78.766V78.7863C141.479 78.7863 141.479 78.7903 141.478 78.7958C141.478 78.7991 141.477 78.8029 141.477 78.8068L141.475 78.8137C141.473 78.819 141.471 78.8237 141.468 78.8267V78.9077C141.468 78.9077 141.465 78.9198 141.463 78.9341L141.46 78.9498C141.459 78.9567 141.458 78.9633 141.458 78.9684C141.458 79.1912 141.549 79.3834 141.691 79.4948C141.569 79.6973 140.68 81.1042 138.932 82.8655C137.094 81.6407 135.881 79.5454 135.881 77.1768H135.911ZM138.134 182.581C136.821 182.581 135.75 181.508 135.75 180.192C135.75 178.876 136.821 177.803 138.134 177.803C139.448 177.803 140.519 178.876 140.519 180.192C140.519 181.508 139.448 182.581 138.134 182.581ZM138.932 98.0896C138.932 95.9841 140.64 94.2836 142.731 94.2836C144.823 94.2836 146.53 95.9943 146.53 98.0896C146.53 100.185 144.823 101.896 142.731 101.896C140.64 101.896 138.932 100.185 138.932 98.0896ZM147.339 182.581C146.025 182.581 144.954 181.508 144.954 180.192C144.954 178.876 146.025 177.803 147.339 177.803C148.652 177.803 149.723 178.876 149.723 180.192C149.723 181.508 148.652 182.581 147.339 182.581ZM178.901 246.48C178.902 247.242 179.515 247.859 180.271 247.86C181.027 247.859 181.641 247.242 181.641 246.48C181.64 245.719 181.027 245.1 180.271 245.1C179.515 245.102 178.902 245.719 178.901 246.48ZM223.916 247.86C223.159 247.859 222.547 247.242 222.546 246.48C222.546 245.719 223.159 245.102 223.916 245.1C224.672 245.1 225.284 245.719 225.286 246.48C225.284 247.242 224.672 247.859 223.916 247.86ZM186.059 212.957L211.61 207H211.919L237.47 212.959C237.808 213.039 238.036 213.362 237.996 213.709C237.956 214.057 237.662 214.321 237.315 214.321H233.857V243.25H229.933C229.614 242.645 229.234 242.078 228.76 241.604C228.155 240.991 227.424 240.494 226.618 240.145H230.65V238.247H191.953V240.145H221.213C220.406 240.494 219.675 240.992 219.071 241.604C218.599 242.077 218.219 242.645 217.898 243.25H186.29C185.97 242.645 185.591 242.078 185.117 241.604C183.888 240.359 182.153 239.58 180.272 239.582C178.391 239.58 176.657 240.36 175.428 241.604C174.954 242.077 174.574 242.645 174.254 243.25H173V228.119L183.507 220.134H188.745V214.319H186.214C185.866 214.319 185.573 214.056 185.533 213.708C185.494 213.36 185.721 213.037 186.059 212.957ZM204.743 229.105V214.321H191.953V229.105H204.743ZM207.483 229.105H230.65V214.321H207.483V229.105ZM489.47 169.24C489.47 169.24 489.41 169.27 489.38 169.28H488.1V168.94C488.5 168.94 489.04 168.86 489.47 168.61V169.24ZM489.47 164.64C488.72 164.99 488.76 165.96 488.76 165.96C488.76 165.96 488.77 167.13 487.63 167.06L486.41 165.99H488.1V164.68C488.78 164.45 489.37 163.85 488.85 162.35C488.85 162.35 488.58 161.46 489.47 161.63V164.64ZM497.46 140.95C497.46 140.95 497.4 140.98 497.37 140.99H496.53V140.76C496.81 140.76 497.18 140.7 497.46 140.52V140.95ZM497.46 137.93C496.93 138.15 496.96 138.81 496.96 138.81C496.96 138.81 496.96 139.58 496.22 139.53L495.42 138.83H496.53V137.97C496.98 137.82 497.37 137.43 497.02 136.44C497.02 136.44 496.84 135.84 497.46 135.98V137.93ZM504.3 201.87C504.3 201.87 502.781 191.363 514.065 182.544C525.339 191.363 523.83 201.87 523.83 201.87H504.3ZM507.83 240.67V236.82H506.76V209.68H507.83V205.9H520.29V209.68H521.36V236.82H520.29V240.67H507.83ZM531.59 140.99H530.75C530.75 140.99 530.69 140.96 530.66 140.95V140.52C530.681 140.533 530.702 140.545 530.724 140.557C530.743 140.567 530.762 140.577 530.781 140.586C530.848 140.618 530.918 140.644 530.988 140.666C531.198 140.73 531.415 140.754 531.59 140.76V140.99ZM531.9 139.53C531.15 139.58 531.16 138.81 531.16 138.81C531.16 138.81 531.19 138.15 530.66 137.93V135.97C531.28 135.83 531.1 136.43 531.1 136.43C530.76 137.42 531.15 137.81 531.59 137.96V138.82H532.7L531.9 139.52V139.53ZM540.02 169.28H538.74C538.74 169.28 538.715 169.268 538.69 169.256C538.675 169.25 538.661 169.244 538.65 169.24V168.6C539.08 168.85 539.62 168.92 540.02 168.93V169.27V169.28ZM540.49 167.05C539.35 167.12 539.36 165.95 539.36 165.95C539.36 165.95 539.4 164.98 538.65 164.63V161.62C539.54 161.45 539.27 162.34 539.27 162.34C538.75 163.84 539.34 164.44 540.02 164.67V165.98H541.71L540.49 167.05ZM629.982 231.166H647.648H647.658V201.198C647.658 201.198 647.688 192.56 638.82 186.819C629.942 192.56 629.982 201.198 629.982 201.198V231.166ZM643.805 158.954H657.147H657.157V138.63C657.157 138.63 657.177 132.106 650.481 127.767C643.775 132.106 643.805 138.63 643.805 138.63V158.954ZM693.772 102.656C693.772 98.5712 690.509 95.2583 686.485 95.2583C682.461 95.2583 679.198 98.5712 679.198 102.656C679.198 106.741 682.461 110.054 686.485 110.054C690.509 110.054 693.772 106.741 693.772 102.656ZM698.787 138.63C698.787 138.63 698.837 132.106 686.445 127.767C674.053 132.106 674.103 138.63 674.103 138.63V158.954H698.787V138.63ZM667.337 47.5881C667.307 47.9641 667.267 48.33 667.217 48.6958C667.067 49.7831 666.796 50.7993 666.396 51.7343L678.087 42.944C676.68 43.1653 675.254 42.9884 673.954 42.8271L673.913 42.822L673.222 42.7407C670.93 42.4664 669.419 42.7712 668.538 43.6453C667.648 44.5692 667.5 45.9996 667.342 47.5339L667.337 47.5881ZM670.1 231.166H702.79V201.198C702.79 201.198 702.86 192.56 686.445 186.819C670.029 192.56 670.1 201.198 670.1 201.198V231.166ZM694.919 42.9965L706.023 51.3379C705.713 50.5148 705.483 49.6306 705.353 48.6855C705.303 48.33 705.273 47.954 705.233 47.5779C705.083 46.0231 704.932 44.5598 704.032 43.635C703.151 42.7712 701.639 42.4563 699.347 42.7306L698.656 42.8119C697.47 42.9637 696.195 43.1256 694.919 42.9965ZM722.419 127.757C715.713 132.096 715.743 138.62 715.743 138.62H715.753V158.944H729.095V138.62C729.095 138.62 729.115 132.096 722.419 127.757ZM725.242 231.166H742.908H742.918V201.198C742.918 201.198 742.948 192.56 734.08 186.819C725.201 192.56 725.242 201.198 725.242 201.198V231.166ZM1382.32 127.934V145.124H1377.36V127.934C1377.36 126.461 1378.47 125.267 1379.84 125.267C1381.21 125.267 1382.32 126.461 1382.32 127.934ZM1374.35 107.442L1376.9 98.0945V97.589H1376.18V97.1694H1376.9V96.2766H1377.29V97.1694H1378.01V97.589H1377.29V98.0945L1379.84 107.442V117.726H1378.66V107.604L1377.4 104.237C1377.67 104.097 1377.85 103.785 1377.85 103.419C1377.85 102.924 1377.51 102.516 1377.09 102.516C1376.67 102.516 1376.33 102.914 1376.33 103.419C1376.33 103.785 1376.52 104.097 1376.78 104.237L1375.52 107.604V117.726H1374.34V107.442H1374.35ZM1371.88 127.934C1371.88 126.461 1372.99 125.267 1374.36 125.267C1375.73 125.267 1376.84 126.461 1376.84 127.934V145.124H1371.88V127.934ZM1365.56 107.13H1369.01L1368.72 108.981L1365.56 112.466V107.13ZM1382.35 196.682H1377.39V179.493C1377.39 178.019 1378.5 176.825 1379.87 176.825C1381.24 176.825 1382.35 178.019 1382.35 179.493V196.682ZM1383.78 204.793V220.025H1377.44V204.793C1377.44 202.911 1378.86 201.383 1380.61 201.383C1382.36 201.383 1383.78 202.911 1383.78 204.793ZM1377.21 174.039C1376.18 174.039 1375.35 173.146 1375.35 172.038C1375.35 170.93 1376.18 170.037 1377.21 170.037C1378.24 170.037 1379.07 170.93 1379.07 172.038C1379.07 173.146 1378.24 174.039 1377.21 174.039ZM1376.87 179.493V196.682H1371.91V179.493C1371.91 178.019 1373.02 176.825 1374.39 176.825C1375.76 176.825 1376.87 178.019 1376.87 179.493ZM1373.6 201.372C1375.35 201.372 1376.77 202.9 1376.77 204.782V220.014H1370.43V204.782C1370.43 202.9 1371.85 201.372 1373.6 201.372ZM1386.31 196.682H1385.04V173.566C1385.04 169.177 1381.47 165.595 1377.1 165.595C1372.73 165.595 1369.16 169.177 1369.16 173.566V196.682H1367.89V173.566C1367.89 168.424 1372.02 164.229 1377.1 164.229C1382.18 164.229 1386.31 168.413 1386.31 173.566V196.682ZM1388.64 112.466L1385.48 108.981L1385.19 107.13H1388.64V112.466ZM1415.29 147.028C1417.45 147.028 1419.2 148.911 1419.2 151.234C1419.2 153.558 1417.45 155.429 1415.29 155.429C1413.13 155.429 1411.38 153.547 1411.38 151.234C1411.38 148.921 1413.13 147.028 1415.29 147.028ZM1405.11 220.036V204.804C1405.11 202.921 1406.53 201.394 1408.28 201.394C1410.03 201.394 1411.45 202.921 1411.45 204.804V220.036H1405.11ZM1412.12 220.036V204.804C1412.12 202.921 1413.54 201.394 1415.29 201.394C1417.04 201.394 1418.46 202.921 1418.46 204.804V220.036H1412.12ZM1425.47 220.036H1419.13V204.804C1419.13 202.921 1420.55 201.394 1422.3 201.394C1424.05 201.394 1425.47 202.921 1425.47 204.804V220.036ZM1415.29 196.467C1407.83 196.467 1401.79 189.97 1401.79 181.945C1401.79 173.921 1407.83 167.423 1415.29 167.423C1422.75 167.423 1428.79 173.921 1428.79 181.945C1428.79 189.97 1422.75 196.467 1415.29 196.467ZM1436.86 180.127H1433.3V179.579C1433.3 169.521 1425.22 161.346 1415.28 161.346C1405.34 161.346 1397.26 169.521 1397.26 179.579V180.127H1393.68V179.03H1396.24C1396.53 168.628 1404.95 160.248 1415.27 160.248C1425.59 160.248 1434.01 168.628 1434.3 179.03H1436.86V180.127ZM1458.7 127.945V145.135H1453.74V127.945C1453.74 126.471 1454.85 125.277 1456.22 125.277C1457.59 125.277 1458.7 126.471 1458.7 127.945ZM1450.74 107.453L1453.29 98.1052V97.5997H1452.57V97.1802H1453.29V96.2874H1453.68V97.1802H1454.4V97.5997H1453.68V98.1052L1456.23 107.453V117.737H1455.05V107.615L1453.79 104.248C1454.06 104.108 1454.24 103.796 1454.24 103.43C1454.24 102.935 1453.9 102.526 1453.48 102.526C1453.06 102.526 1452.72 102.924 1452.72 103.43C1452.72 103.796 1452.91 104.108 1453.17 104.248L1451.91 107.615V117.737H1450.73V107.453H1450.74ZM1448.27 127.945C1448.27 126.471 1449.38 125.277 1450.75 125.277C1452.12 125.277 1453.23 126.471 1453.23 127.945V145.135H1448.27V127.945ZM1441.95 107.141H1445.4L1445.11 108.991L1441.95 112.477V107.141ZM1453.72 196.693V179.503C1453.72 178.03 1454.83 176.836 1456.2 176.836C1457.57 176.836 1458.68 178.03 1458.68 179.503V196.693H1453.72ZM1460.16 204.804V220.036H1453.82V204.804C1453.82 202.921 1455.24 201.394 1456.99 201.394C1458.74 201.394 1460.16 202.921 1460.16 204.804ZM1453.38 174.05C1452.35 174.05 1451.52 173.157 1451.52 172.049C1451.52 170.941 1452.35 170.048 1453.38 170.048C1454.41 170.048 1455.24 170.941 1455.24 172.049C1455.24 173.157 1454.41 174.05 1453.38 174.05ZM1453.2 179.503V196.693H1448.24V179.503C1448.24 178.03 1449.35 176.836 1450.72 176.836C1452.09 176.836 1453.2 178.03 1453.2 179.503ZM1449.98 201.383C1451.73 201.383 1453.15 202.911 1453.15 204.793V220.025H1446.81V204.793C1446.81 202.911 1448.23 201.383 1449.98 201.383ZM1462.69 196.693H1461.42V173.576C1461.42 169.188 1457.85 165.605 1453.48 165.605C1449.11 165.605 1445.54 169.188 1445.54 173.576V196.693H1444.27V173.576C1444.27 168.434 1448.4 164.239 1453.48 164.239C1458.56 164.239 1462.69 168.424 1462.69 173.576V196.693ZM1465.03 112.477L1461.87 108.991L1461.58 107.141H1465.03V112.477ZM1404.93 181.924C1404.93 175.76 1409.57 170.769 1415.3 170.769C1421.03 170.769 1425.67 175.76 1425.67 181.924C1425.67 188.088 1421.03 193.079 1415.3 193.079C1409.57 193.079 1404.93 188.088 1404.93 181.924ZM1414.41 174.254C1414.03 173.254 1412.97 172.77 1412.04 173.168C1411.11 173.576 1410.65 174.717 1411.03 175.717C1411.41 176.717 1412.47 177.201 1413.4 176.803C1414.33 176.395 1414.78 175.254 1414.41 174.254ZM1407.16 185.441C1407.54 186.442 1408.6 186.926 1409.53 186.528C1410.46 186.119 1410.91 184.979 1410.54 183.978C1410.16 182.978 1409.1 182.494 1408.17 182.892C1407.24 183.301 1406.79 184.441 1407.16 185.441ZM1408.2 180.784C1409.13 181.203 1410.19 180.74 1410.59 179.751C1410.98 178.75 1410.55 177.61 1409.63 177.18C1408.7 176.76 1407.64 177.223 1407.24 178.213C1406.85 179.213 1407.28 180.353 1408.2 180.784ZM1411.86 190.605C1412.79 191.024 1413.85 190.562 1414.25 189.572C1414.64 188.572 1414.21 187.431 1413.29 187.001C1412.36 186.582 1411.3 187.044 1410.9 188.034C1410.51 189.034 1410.94 190.174 1411.86 190.605ZM1415.31 178.256C1413.43 178.256 1411.9 179.901 1411.9 181.924C1411.9 183.946 1413.43 185.592 1415.31 185.592C1417.19 185.592 1418.72 183.946 1418.72 181.924C1418.72 179.901 1417.19 178.256 1415.31 178.256ZM1416.21 189.594C1416.59 190.594 1417.65 191.078 1418.58 190.68C1419.51 190.271 1419.96 189.131 1419.59 188.131C1419.21 187.13 1418.15 186.646 1417.22 187.044C1416.29 187.453 1415.84 188.593 1416.21 189.594ZM1417.33 176.846C1418.26 177.266 1419.32 176.803 1419.72 175.814C1420.11 174.813 1419.68 173.673 1418.76 173.243C1417.83 172.823 1416.77 173.286 1416.37 174.276C1415.98 175.276 1416.41 176.416 1417.33 176.846ZM1420.99 186.668C1421.92 187.087 1422.98 186.625 1423.38 185.635C1423.77 184.635 1423.34 183.494 1422.42 183.064C1421.49 182.645 1420.43 183.107 1420.03 184.097C1419.64 185.097 1420.07 186.237 1420.99 186.668ZM1422.45 180.966C1423.38 180.558 1423.83 179.417 1423.46 178.417C1423.08 177.417 1422.02 176.932 1421.09 177.331C1420.16 177.739 1419.71 178.88 1420.08 179.88C1420.46 180.88 1421.52 181.364 1422.45 180.966Z" fill="#C30F23"/>
</svg>
