<svg width="434" height="205" viewBox="0 0 434 205" fill="none" xmlns="http://www.w3.org/2000/svg">
<mask id="mask0_5693_23693" style="mask-type:alpha" maskUnits="userSpaceOnUse" x="0" y="0" width="434" height="205">
<path d="M0 0H434V205H0V0Z" fill="#D9D9D9"/>
</mask>
<g mask="url(#mask0_5693_23693)">
<path d="M302.3 39.8214C304.515 39.5562 306.4 40.0882 307.809 41.7314C309.549 42.1591 312.156 42.1457 312.86 43.1359C314.053 44.7848 315.438 44.8181 316.961 45.3326C319.005 46.052 320.982 47.0171 322.931 47.9911C324.704 48.883 326.442 49.8233 328.183 50.7504C329.899 51.7412 331.616 52.732 333.354 53.6722L337.89 56.1006C339.391 56.9219 340.884 57.7957 342.367 58.6411C345.346 60.3472 348.324 62.0533 351.138 64.0298C353.011 65.3022 354.855 66.5967 356.698 67.8912L362.07 72.0057C365.657 74.7136 369.035 77.7119 372.48 80.5455C374.279 82.1163 376.091 83.6892 377.89 85.2599C379.707 86.8065 381.473 88.4125 383.192 90.0648L387.152 93.8044L390.974 97.6565C393.548 100.202 395.964 102.884 398.414 105.531L398.361 105.522C396.849 103.512 395.318 101.444 393.81 99.4073C392.228 97.4125 390.601 95.4376 388.833 93.5884C380.13 84.6748 370.469 76.5927 360.389 69.0235C358.671 67.7086 357.226 66.0327 355.596 64.5836C354.737 63.798 354.015 62.8319 353.071 62.1541C351.633 61.1135 350.198 60.0465 348.727 59.0411L344.275 56.0865L339.778 53.165L335.151 50.4655C329.752 47.2778 323.733 45.5154 318.236 42.4335C315.285 40.8937 312.104 39.7758 308.967 38.557C305.827 37.3513 302.703 36.2156 299.844 34.3533C299.343 34.0299 298.461 33.7263 298.017 33.8845C295.545 34.7426 294.045 33.4899 292.258 32.0965C291.01 31.127 289.29 30.5809 287.703 30.0428C286.5 29.6338 285.273 29.2884 284.047 28.9431C282.816 28.6241 281.581 28.3314 280.37 27.975C277.666 27.1632 274.952 26.3361 272.248 25.5243C269.531 24.7103 266.787 24.0674 264.056 23.3456C261.32 22.65 258.569 21.9656 255.796 21.3316C252.981 20.7986 250.158 20.3051 247.328 19.8643C231.202 17.4242 214.501 16.8889 197.66 17.6404C194.021 17.8659 190.385 17.984 186.721 18.1111C183.073 18.2271 179.402 18.65 175.757 19.077L171.634 19.6296L167.52 20.3727L159.317 21.9574C156.598 22.587 153.897 23.2735 151.183 23.9578L147.13 24.9941L143.106 26.1836C141.206 26.7557 139.422 27.6974 137.526 28.2432C133.726 29.3064 129.992 30.6234 126.223 31.8266C122.463 33.0583 118.798 34.5347 115.093 35.9238C113.572 36.4893 112.26 37.5201 110.812 38.2188L104.255 41.4036L97.7951 44.739C94.7483 46.2337 91.6747 47.643 88.7099 49.2993C87.5071 49.9833 86.3042 50.6674 85.1234 51.382L81.6363 53.6022L74.6841 58.073C66.2321 63.3961 58.0673 69.1162 50.2669 75.3402C48.2958 76.859 46.4131 78.5001 44.5192 80.1258C42.6144 81.7363 40.7647 83.4231 38.904 85.0946C33.0456 90.4022 27.3217 95.8799 21.889 102.066C19.9744 104.241 18.5685 106.863 16.4375 110.218C18.6462 109.237 19.9095 108.765 22.0118 107.942C21.2756 108.998 20.6979 109.823 20.1896 110.551C19.6793 111.292 19.2648 111.941 18.8877 112.609C18.6622 113.005 18.3919 113.595 18.2154 114.107C18.0235 114.629 17.9102 115.083 18.0112 115.127C19.2244 115.807 19.1438 116.982 18.858 118.258C18.7192 118.87 18.4631 119.625 18.327 120.305C18.1603 121.007 18.12 121.595 18.2007 122.269C19.317 121.031 20.3227 119.978 21.27 119.037L22.7006 117.607L24.0859 116.291C25.0115 115.4 25.9155 114.56 26.8111 113.773C27.7088 112.972 28.6128 112.132 29.5021 111.384C29.6828 113.033 29.3006 114.321 28.7206 115.496C27.5432 117.871 26.1579 120.28 25.0345 122.907C24.6478 123.803 24.3247 124.723 24.1933 125.457C24.1363 125.813 24.0729 126.207 24.0117 126.589C23.9789 126.961 23.9787 127.299 24.0222 127.616C24.1656 128.152 24.1794 128.991 24.5065 129.475C24.8162 129.984 25.346 130.298 26.0611 130.467C28.8501 130.914 30.5151 130.21 33.01 127.277C35.4181 124.466 37.7445 121.911 40.1108 119.443C42.4792 116.963 44.857 114.591 47.3011 112.312C51.7881 108.066 56.4434 104.117 62.0488 99.7135C56.3178 105.824 49.741 110.058 46.8592 117.166C45.4713 120.601 43.5256 123.81 41.6988 127.12C40.7844 128.782 39.9247 130.439 39.1554 132.204C38.7729 133.074 38.4278 133.963 38.0984 134.923C37.9392 135.41 37.78 135.897 37.6208 136.384C37.4379 136.935 37.3746 137.33 36.9857 138.239C39.8306 139.6 42.1461 140.727 44.3952 142.1C45.981 139.872 47.3481 138.081 48.8136 136.265C50.2528 134.444 51.7167 132.723 53.1917 131.016C56.1437 127.59 59.2129 124.358 62.3285 121.174C59.4798 128.328 55.9494 135.022 52.9955 142.158C58.9799 143.969 58.8946 143.996 62.3537 140.017C63.1109 139.167 63.7997 138.238 64.6474 137.497C66.6001 135.841 68.6323 134.277 70.6692 132.769L71.0927 133.242C69.0542 137.786 67.1715 142.369 65.262 147.96C69.5051 145.402 69.3 149.202 71.0688 151.213C75.3601 146.841 79.6933 142.881 84.5628 138.859C83.7418 145.151 80.3997 148.905 77.5305 152.992C78.7514 152.028 79.935 151.044 81.1911 150.112C80.7997 152.046 81.2251 153.599 82.5496 156.025C84.7064 151.499 87.8467 148.414 91.2256 145.691C89.9732 148.701 86.4229 149.886 85.5998 154.004C88.0236 153.449 89.5416 151.979 91.0659 150.469C92.6496 149.009 94.2219 147.454 96.8108 147.046C94.6491 151.854 93.0613 155.944 91.7764 159.746C92.9172 160.037 94.5495 160.461 96.1181 160.861C96.6391 161.903 97.0959 162.84 97.761 164.161C99.9736 162.735 101.955 161.488 104.317 160.14C104.203 162.361 104.174 163.976 104.176 165.812C105.21 165.762 105.755 165.728 106.569 165.697C105.588 167.523 104.693 169.147 103.678 171.265C105.36 170.711 106.234 169.974 107.321 170.176C109.087 170.527 109.99 169.943 110.896 169.09C111.72 168.332 112.545 167.56 113.402 166.847C118.135 163.086 123.316 159.897 128.18 156.413C139.437 148.328 151.533 141.741 164.221 137.017C172.275 134.086 180.544 131.838 189.052 130.369C197.439 128.895 206.07 128.176 214.833 128.314C223.584 128.355 232.514 129.721 241.324 131.837C242.772 132.232 244.189 132.23 245.56 129.994C244.249 129.419 243.204 128.954 241.602 128.252C243.421 128.018 249.742 128.992 256.191 130.85C257.83 131.235 259.409 131.825 260.973 132.333C262.521 132.865 264.044 133.379 265.451 133.861C268.2 134.977 270.535 135.986 271.965 136.661C281.215 141.331 290.088 146.25 298.379 151.845C306.576 157.358 312.773 165.073 320.129 171.206C319.896 169.968 319.51 168.84 318.843 167.95C317.493 166.101 315.868 164.544 314.346 162.843C312.926 161.346 311.43 159.905 309.971 158.402C308.479 156.935 306.901 155.588 305.326 154.216C303.618 152.754 301.768 151.499 299.962 150.143C298.138 148.811 296.205 147.651 294.349 146.354C292.884 145.309 291.323 144.438 289.808 143.452C288.291 142.48 286.76 141.506 285.171 140.643C283.273 139.61 281.423 138.436 279.47 137.488L273.606 134.509C276.979 133.674 279.832 135.657 283.364 134.078C282.607 133.498 281.656 133.453 280.818 133.13C279.825 132.755 278.752 132.38 278.015 131.587C277.118 130.62 276.382 132.094 275.974 132.028C274.492 131.764 273.109 130.961 271.65 130.471C270.175 129.991 268.924 128.873 267.585 127.969C266.221 127.13 264.737 126.541 262.902 127.042C262.45 127.172 261.948 126.511 261.467 126.232L259.416 125.052L257.324 123.961C256.43 123.48 255.557 122.948 254.667 122.441C253.127 122.45 251.615 122.37 250.067 122.431C252.625 121.209 252.627 121.277 254.634 122.476L257.044 122.593L257.266 121.549C254.522 120.569 251.835 119.234 248.96 118.651C246.04 118.007 243.101 117.319 240.154 116.846C237.214 116.414 234.274 115.983 231.353 115.433C229.343 115.178 227.338 114.802 225.323 114.411L222.297 113.844C221.286 113.669 220.284 113.602 219.272 113.521C217.137 113.367 215.003 113.294 212.867 113.235C210.741 113.285 208.619 113.39 206.5 113.387L203.887 113.359L201.294 113.455C199.557 113.514 197.821 113.573 196.091 113.673C194.304 113.791 192.564 114.119 190.798 114.362C189.041 114.633 187.27 114.821 185.537 115.19L179.29 116.279L173.107 117.635C172.827 117.698 172.494 117.59 171.832 117.511C172.966 115.575 174.629 115.72 176.077 115.359C177.145 115.098 178.19 114.726 179.214 114.31C180.677 113.776 182.051 112.863 183.572 112.554C193.267 110.669 203.198 109.834 213.223 109.757C214.338 109.787 215.456 109.804 217.257 109.851C216.17 109.055 215.76 108.747 214.783 108.023C217.351 108.085 219.78 108.002 222.126 108.014C224.479 108.149 226.752 108.366 228.965 108.869C229.852 109.066 230.715 109.15 231.567 109.139C232.43 109.142 233.269 109.128 234.121 109.036C235.822 108.863 237.515 108.487 239.25 108.186C225.532 105.376 211.607 104.018 197.708 104.351C198.216 103.542 198.793 103.392 199.365 103.362L202.709 103.211C203.824 103.16 204.948 103.219 206.069 103.21L212.781 103.262L219.5 103.693C220.62 103.778 221.737 103.796 222.848 103.933L226.196 104.349C235.36 105.267 244.485 107.353 253.471 109.632C260.98 111.863 268.372 114.318 275.427 117.447C283.599 120.932 291.441 124.957 298.859 129.521L300.989 130.794L303.065 132.153L307.223 134.831L311.245 137.69L313.242 139.117L315.186 140.63C316.455 141.63 317.619 142.789 318.808 143.87C319.961 145.013 321.154 146.069 322.552 146.779C324.364 147.677 325.785 148.998 327.101 150.383C327.758 151.083 328.385 151.804 329.009 152.538L330.819 154.799C331.664 155.839 332.561 156.806 333.469 157.789C334.358 158.808 335.258 159.843 336.204 160.926C335.328 158.397 334.568 156.157 333.67 154.015C333.499 153.569 333.347 153.086 333.082 152.72L331.23 150.048L329.285 147.455C327.971 145.719 326.631 143.979 325.161 142.38C323.593 140.63 321.691 139.192 319.864 137.711C314.252 132.829 308.308 128.245 301.927 124.198C294.237 119.306 286.148 114.634 277.174 112.114C276.825 112.017 276.504 111.831 276.166 111.669L273.198 110.234C272.207 109.765 271.179 109.357 270.169 108.925C268.149 108.061 266.1 107.206 264.047 106.377C261.964 105.651 259.848 104.961 257.722 104.336C256.651 104.029 255.582 103.709 254.503 103.455C253.406 103.225 252.318 103.023 251.213 102.846C248.951 102.483 246.735 101.911 244.51 101.311C242.281 100.737 240.046 100.284 237.796 99.8419L233.68 99.0868C232.305 98.8256 230.931 98.7265 229.559 98.5331C226.801 98.2255 224.04 97.7688 221.281 97.5554C220.295 97.478 219.319 97.1728 218.336 96.9881L218.386 95.7546C220.282 95.6271 222.205 95.1666 224.11 95.4049C226.981 95.6768 229.802 96.3456 232.638 96.6659C235.12 97.0103 237.598 97.462 240.073 97.8459L243.783 98.4414C245.016 98.6662 246.253 98.9458 247.479 99.2101L254.853 100.772C257.292 101.379 259.708 102.05 262.128 102.695C264.438 103.268 266.688 104.048 268.922 104.838C271.153 105.655 273.418 106.343 275.568 107.322L281.82 109.985C283.883 110.924 285.891 111.948 287.921 112.921C289.955 113.869 291.926 114.954 293.898 116.04C295.856 117.124 297.853 118.132 299.738 119.339C301.923 120.688 304.139 121.935 306.252 123.394C308.355 124.838 310.497 126.208 312.567 127.687C312.871 127.898 313.354 127.827 313.749 127.89C313.27 126.585 312.443 125.94 311.607 125.347L306.757 121.761C305.144 120.544 303.438 119.488 301.762 118.328L301.795 118.374C295.955 114.656 289.796 111.414 283.529 108.249C282.306 107.634 280.436 107.429 279.963 106.341C278.135 102.174 274.639 102.099 271.116 102.1C270.512 102.084 269.667 102.218 269.378 101.835C267.828 99.8045 265.617 99.7871 263.476 99.5918C262.759 99.5172 261.887 99.4042 261.411 98.9229C260.263 97.7535 259.521 96.9058 257.678 98.4721C257.24 98.8471 256.483 98.6852 255.636 98.4143C254.771 98.1675 253.82 97.7855 253.022 97.6304C252.806 94.7752 250.489 95.3345 248.966 94.8201C247.816 94.4196 246.622 94.1201 245.438 93.849C244.242 93.5626 243.035 93.4362 241.833 93.1893C237.991 92.4916 234.16 91.4719 230.282 90.9978C226.406 90.4296 222.517 89.8593 218.607 89.9199C216.489 89.9173 214.372 89.8204 212.267 89.7388C210.159 89.7515 208.059 89.7246 205.947 89.6825C204.667 89.6661 203.379 89.6212 202.095 89.6311L198.243 89.7549C195.674 89.8688 193.089 89.8318 190.541 90.1515C187.628 90.48 184.721 90.8501 181.839 91.3996C182.585 90.4532 183.449 90.2816 184.327 90.1931C194.366 88.6872 204.547 88.2298 214.705 88.3355L222.329 88.5877C224.869 88.739 227.403 89.0108 229.934 89.2147L233.739 89.5555L237.527 90.0827L245.1 91.1632C248.607 91.8476 252.101 92.6109 255.577 93.3983C259.045 94.2384 262.449 95.3111 265.885 96.2675C275.261 99.2299 284.393 102.787 293.173 106.936L299.854 110.289C302.078 111.402 304.182 112.752 306.267 114.058C315.945 120.429 324.857 127.541 333.901 134.418C336.807 136.746 339.34 139.541 341.791 142.35C342.629 143.268 343.166 144.46 344.008 145.351C349.227 151.088 354.206 156.974 358.625 163.243C359.652 164.663 360.568 166.187 361.412 167.739C362.271 169.281 363.117 170.82 363.948 172.37L365.806 175.759L367.581 179.161L368.31 178.738C367.709 177.44 367.048 176.174 366.523 174.821C365.523 172.474 363.994 170.151 363.823 167.6C363.721 165.883 363.319 164.348 362.739 162.919C362.128 161.512 361.338 160.211 360.494 158.915C358.288 155.592 355.831 152.404 353.324 149.276C348.693 143.485 343.774 137.811 338.416 132.524C333.074 127.214 327.451 122.06 321.42 117.341C320.716 116.769 319.996 116.208 319.257 115.684C316.585 113.839 313.821 112.14 311.085 110.351C308.276 108.686 305.464 107.033 302.655 105.368C300.536 104.191 298.474 102.916 296.37 101.647C294.275 100.406 292.091 99.3 289.881 98.2706L287.039 96.9776L284.132 95.8363L278.283 93.6019C276.316 92.9084 274.324 92.2916 272.337 91.6354C270.347 91.0055 268.371 90.2835 266.352 89.7436C265.424 89.4731 264.62 88.7639 263.372 88.0507C264.255 87.6796 264.66 87.3398 264.972 87.4168L268.496 88.158L271.995 89.057C274.312 89.6718 276.642 90.2888 278.944 90.9957C280.314 91.4584 281.462 92.5468 282.812 93.0469C284.959 93.8774 287.156 94.5674 289.26 95.4989L295.624 98.1398C297.75 99.0208 299.797 100.051 301.884 101.007L304.997 102.465L308.049 104.048C308.759 104.418 309.34 104.997 310.05 105.368C310.312 105.504 310.749 105.304 311.134 105.258C311.033 104.878 311.055 104.49 310.892 104.41C302.646 99.4559 293.929 95.2497 285.013 91.4434C283.155 90.6594 281.142 89.9179 279.642 88.5841C276.872 86.2503 273.643 85.5161 270.202 85.1796C268.473 85.0235 266.718 84.6069 265.052 84.0561C264.552 83.8948 264.318 82.9126 263.497 81.5529C266.048 82.1378 267.779 82.456 269.455 82.941C278.203 85.7757 286.885 88.7751 295.145 92.719C301.725 95.6915 308.024 99.2397 314.13 102.986C316.703 104.614 319.173 106.373 321.663 108.095C324.086 109.901 326.508 111.707 328.933 113.5C330.982 115.11 333.048 116.697 335.117 118.271C337.153 119.879 339.136 121.561 341.124 123.216C344.313 126.049 347.41 128.948 350.425 131.942C350.987 132.477 351.84 132.709 352.563 133.081C347.7 127.227 342.265 122.077 336.669 117.008C335.958 116.395 334.993 115.849 334.681 115.016C333.47 111.799 331.213 109.804 327.897 109.109C327.427 109.007 326.908 108.546 326.684 108.091C325.883 106.438 324.725 105.159 323.344 104.182C321.978 103.193 320.446 102.394 318.984 101.498C316.622 99.9855 314.17 98.6202 311.754 97.1933L308.116 95.0574L304.386 93.0689C300.024 90.6548 295.488 88.5637 290.939 86.4705C288.624 85.5052 286.189 84.8714 283.855 83.9435L280.847 82.7589L277.793 81.6885L271.673 79.5456C269.626 78.8525 267.545 78.2757 265.474 77.6463C263.398 77.0432 261.337 76.348 259.231 75.848C256.517 75.183 253.723 74.8559 250.992 74.2151C242.797 72.3869 234.488 70.8507 226.045 69.9812C225.275 69.8982 224.508 69.802 223.735 69.7453L221.403 69.641L216.743 69.5002C215.183 69.4658 213.641 69.4071 212.077 69.3989L207.407 69.486C204.391 69.5282 201.362 69.2309 198.347 69.3541C199.743 68.4717 201.233 68.1036 202.74 68.1296C205.964 68.1344 209.18 68.1918 212.385 68.2339C215.591 68.4382 218.784 68.6403 221.978 68.7482C224.255 68.7762 226.517 69.0584 228.787 69.2069L235.587 69.7182C240.088 70.2651 244.592 70.7858 249.069 71.4775L258.82 73.3665C260.445 73.6678 262.053 74.0744 263.657 74.5072L268.44 75.8148C280.616 79.4022 292.44 84.0936 303.798 89.5873C306.558 90.9749 309.583 91.7979 312.209 93.4339C315.1 95.1799 317.966 96.9086 320.686 98.8835L324.814 101.746C326.189 102.682 327.521 103.719 328.88 104.666C330.607 105.928 332.862 106.425 334.806 107.425L335.327 106.618C333.654 105.189 331.853 103.969 330.134 102.573C329.123 101.803 328.098 101.045 327.088 100.276C326.078 99.5061 325.081 98.7389 324.259 97.8106C323.185 96.5991 322.126 95.795 320.679 95.1443C317.492 93.7286 313.947 92.9437 312.399 88.9707C312.065 88.1074 310.521 87.8056 309.508 87.3057C309.346 87.2256 309.064 87.3828 308.756 87.4547C309.335 87.966 309.762 88.3315 310.2 88.7122L309.672 89.4777C307.719 87.7742 305.465 86.6026 303.184 85.5079C300.891 84.411 298.509 83.5294 296.328 82.1536L299.531 82.7084C287.226 76.3069 274.106 71.7044 260.747 68.17C257.669 67.4196 254.594 66.656 251.492 65.9692C248.754 65.2868 245.933 64.9554 243.139 64.453L238.943 63.7793C237.552 63.5292 236.145 63.3032 234.722 63.1694C225.912 62.0655 216.987 61.1727 207.98 61.2113C206.468 61.2115 204.96 61.2797 203.449 61.3611C201.94 61.4292 200.425 61.5369 198.91 61.7256C195.889 62.0503 192.878 62.3093 189.87 62.2178C185.919 62.2853 181.998 62.668 178.122 63.2739C174.263 64.0308 170.406 64.7746 166.586 65.6999C163.776 66.3958 160.912 66.9211 158.058 67.4618C155.228 68.1139 152.384 68.764 149.583 69.5694C135.517 73.8024 122.037 79.8435 109.261 86.969C107.929 87.6999 106.489 88.2649 105.148 88.9673L104.727 88.144C105.425 87.6623 106.079 87.1195 106.819 86.712C115.107 81.8214 123.803 77.5898 132.687 73.861C134.636 73.0673 136.538 72.1447 138.481 71.3094C141.919 69.9855 145.363 68.6221 148.853 67.3876L154.135 65.6715C155.9 65.1045 157.655 64.5092 159.455 64.0559L166.248 62.2585C168.518 61.6512 170.831 61.2803 173.122 60.7979C174.973 60.4472 176.835 60.1119 178.713 59.8466C180.585 59.6207 182.456 59.3948 184.323 59.1142C186.827 58.7334 189.283 57.7242 191.806 57.6434C194.514 57.4979 197.235 57.4488 199.938 57.4238C202.645 57.4536 205.345 57.6171 208.035 57.6711C209.352 57.707 210.684 57.3945 211.999 57.1873C214.204 56.9069 216.41 56.357 218.63 56.4029C234.08 56.8317 249.48 58.4941 263.972 63.2089C275.105 66.9121 286.438 70.2023 297.3 74.7527C308.416 79.3979 319.139 84.9786 329.323 91.3096C330.581 92.0512 331.73 92.9643 332.933 93.7917C335.889 95.8046 338.871 97.7407 341.708 99.9098L346.004 103.069L350.169 106.382C351.65 107.578 353.132 108.774 354.545 110.054L355.146 109.341C348.152 101.794 340.024 95.2673 331.434 89.3408C322.819 83.4101 313.686 78.2601 304.531 72.9986C308.356 74.4762 312.058 76.2984 315.764 78.0133C319.398 79.9192 323.035 81.8119 326.524 83.9509C328.426 85.1333 330.291 86.3773 332.123 87.6565C333.957 88.9226 335.664 90.3976 337.383 91.7936C339.384 93.4508 341.298 94.7295 343.916 95.3119C345.704 95.6933 347.476 96.8414 348.949 98.0089C358.39 105.772 367.035 114.299 374.938 123.327C375.028 123.436 375.384 123.317 376.148 123.265C374.571 120.987 373.139 118.976 371.507 117.122C364.932 109.913 357.829 103.051 350.177 96.7486C346.686 94.0292 343.174 91.2792 339.466 88.8217C337.627 87.582 335.814 86.2654 333.945 85.0477C332.074 83.8432 330.205 82.6255 328.355 81.3705C322.69 77.6542 317.087 73.7186 311.274 70.0865C310.405 69.5287 309.608 68.861 308.78 68.1343C307.946 67.4471 307.096 66.6899 306.123 65.94C305.243 68.6462 303.878 68.2381 302.099 67.3857L298.373 65.6272C297.126 65.0761 295.844 64.5733 294.579 64.0464L286.95 60.9597C283.243 59.5953 279.398 58.4113 275.871 56.6713C273.525 55.566 271.126 54.6275 268.678 53.7353C267.453 53.2957 266.23 52.8431 264.999 52.443L261.281 51.3065C260.588 51.0872 259.52 50.9293 259.073 51.2759C257.159 52.7769 255.637 51.8309 254.13 50.7119C253.323 50.1099 252.487 49.598 251.633 49.2044C250.761 48.835 249.872 48.5709 248.955 48.3968C247.135 48.0506 245.214 48.0797 243.197 48.4576C241.678 48.7536 239.923 48.2559 238.333 47.9062C237.142 47.6746 236.044 46.8641 234.852 46.7267C230.192 46.2485 225.553 45.5578 220.816 45.3912L213.732 45.0503C211.374 44.9418 208.978 45.07 206.611 45.1083C204.086 45.2023 201.556 45.2415 199.027 45.4428L191.441 46.2089L187.661 46.6412L183.882 47.2355L176.347 48.4416C175.566 48.5996 174.771 48.6745 173.97 48.7888L165.203 50.1074C162.293 50.6659 159.401 51.2812 156.509 51.9776C154.396 52.448 152.31 53.0848 150.228 53.6953L143.981 55.5399L137.836 57.6708C135.792 58.3818 133.735 59.0907 131.738 59.9307L125.707 62.3632C123.699 63.1879 121.753 64.1305 119.778 65.001C115.803 66.7246 111.982 68.7562 108.11 70.6851C105.429 72.09 102.76 73.4969 100.02 74.9328C97.3144 76.4013 94.5833 77.9466 91.7607 79.5582C92.4942 76.5857 93.9433 74.956 96.2222 73.6215C101.422 70.6507 106.575 67.5509 111.961 64.8528L114.503 63.5606L117.098 62.3578L122.311 59.9827C125.808 58.4525 129.386 57.0971 132.937 55.6564L132.871 55.6458C141.047 52.4644 149.308 49.3373 157.883 47.2861C176.577 42.6354 195.846 40.5464 214.764 40.8033C217.01 40.8534 219.251 40.8487 221.493 41.0062C230.747 41.6955 239.829 43.2074 248.812 44.5818C249.974 44.7413 251.133 44.833 252.312 44.8872C253.471 44.9789 254.635 45.0442 255.801 45.0963C258.13 45.2138 260.49 45.3092 262.794 45.6656C264.149 45.8831 265.491 46.0985 266.835 46.3818C268.173 46.7046 269.496 47.0384 270.83 47.3874C273.483 48.0966 276.116 48.8432 278.745 49.616C289.374 53.009 299.8 56.9902 309.974 61.6192C322.284 67.2386 334.208 73.7409 345.436 81.2244C347.555 82.5632 349.588 84.0231 351.603 85.5071C353.619 86.9912 355.656 88.4247 357.552 90.065C360.671 92.6574 363.743 95.2961 366.655 98.0847C369.635 100.79 372.45 103.684 375.303 106.504C377.474 108.701 379.597 110.944 381.739 113.151C383.819 115.414 385.894 117.704 387.881 120.034C389.541 122.054 391.095 124.139 392.652 126.211C394.161 128.329 395.717 130.4 397.37 132.379C404.656 141.214 410.432 151.048 415.504 161.146C417.763 165.57 419.915 170.072 421.977 174.627C422.503 175.805 423.252 176.856 423.877 178.009C424.393 176.891 424.366 175.969 424.018 175.198C421.211 168.89 417.994 162.868 414.764 156.844C413.586 154.604 412.879 152.115 411.881 149.755C412.034 149.645 412.186 149.534 412.326 149.422C412.434 148.157 413.045 146.622 412.544 145.624C410.345 141.25 407.682 137.071 405.077 132.874C404.248 131.567 403.012 130.1 403.022 128.779C403.054 125.465 400.998 123.394 399.107 121.053C397.81 119.468 396.263 117.924 396.255 115.197C398.62 117.277 400.53 119.001 402.376 120.781C398.966 115.457 395.038 110.589 390.896 105.876C384.582 98.8032 378.407 91.456 370.67 85.5178C367.611 83.2186 364.705 80.7279 361.776 78.2066C358.791 75.7842 355.889 73.1862 352.745 70.9137C344.036 64.3878 334.725 58.6693 325.203 53.2545C323.9 52.546 322.025 51.8672 321.559 50.8207C320.504 48.4788 318.593 48.1989 316.491 47.6726C314.396 47.1879 312.374 46.337 310.367 45.556C308.615 44.87 307.733 43.6354 307.846 41.9261C306.017 41.2142 304.147 40.6712 302.292 40.0361L302.3 39.8214ZM304.47 48.9143L304.877 48.062L309.722 50.9179C311.833 50.879 313.87 51.1384 315.257 53.0073C320.287 55.2992 325.403 57.3889 330.214 60.118C335.24 62.7735 339.958 66.0003 344.699 69.0824C352.455 74.4027 359.993 79.985 367.061 86.0586C369.866 88.4251 372.442 91.0383 375.107 93.5173L380.17 97.6226L379.539 98.277L375.147 93.5236C365.092 86.2149 356.034 77.6627 345.514 70.819C344.031 69.7983 342.471 68.9271 340.947 67.9943L335.239 64.4602C333.32 63.3019 331.357 62.2447 329.419 61.1238C325.543 58.8689 321.551 56.8381 317.559 54.8073C316.724 54.3764 316.051 53.6072 315.298 53.0005C313.458 52.2733 311.61 51.5988 309.764 50.9111L304.468 48.9275L304.47 48.9143ZM270.035 59.4049C270.798 59.5274 271.578 59.5447 272.315 59.744C275.073 60.47 277.79 61.365 280.492 62.271C283.19 63.2034 285.922 64.0063 288.566 65.1054C289.797 65.5865 290.893 66.4102 292.041 67.0802C294.749 68.0278 297.471 68.9775 300.124 70.105L299.696 71.0079C296.526 70.9984 294.348 69.0159 292.084 67.0602C290.26 66.403 288.399 65.8074 286.549 65.227C284.677 64.6972 282.799 64.2068 280.947 63.6396C279.093 63.0855 277.249 62.4657 275.435 61.7427C273.609 61.0987 271.802 60.3363 270.035 59.4049ZM235.942 126.777C234.212 126.539 232.474 126.355 230.734 126.183L225.552 125.932C223.838 125.846 222.113 125.582 220.427 125.406C218.731 125.215 217.051 124.918 215.364 124.418C217.089 124.344 218.815 124.27 220.527 124.194C222.249 124.147 224.002 124.32 225.72 124.461C227.448 124.63 229.159 124.811 230.866 125.193C232.577 125.629 234.276 126.145 235.927 126.788L235.942 126.777ZM213.774 94.8928C214.232 94.8989 214.687 95.1743 215.466 95.4479C214.508 97.804 212.926 97.4827 211.718 96.9379C209.662 95.9601 207.682 96.3575 205.593 96.427C204.642 96.4633 203.698 96.4602 202.743 96.4419C201.793 96.4782 200.848 96.4751 199.889 96.483C197.974 96.4726 196.062 96.449 194.161 96.4407L194.1 95.8912C197.378 95.6482 200.635 95.2804 203.911 95.1315C207.201 95.0658 210.486 94.8643 213.772 94.906L213.774 94.8928ZM212.773 74.1394C213.85 73.9073 215.974 73.7895 218.648 73.7735C219.987 73.7589 221.454 73.7786 222.999 73.8241C224.544 73.8696 226.146 74.0593 227.768 74.2117C229.388 74.3773 231.016 74.5712 232.59 74.7699C234.164 74.9686 235.681 75.1851 237.059 75.5142C239.836 76.1219 242.135 76.7609 243.46 77.3378L235.842 76.1151C233.295 75.7602 230.729 75.5236 228.173 75.2213L224.326 74.8062C223.039 74.6672 221.762 74.6376 220.467 74.5512L212.749 74.122L212.773 74.1394ZM292.97 43.4653C286.317 43.6388 281.329 39.235 275.094 38.4772L275.441 37.4128C281.357 39.1451 287.179 41.3752 292.968 43.4785L292.97 43.4653ZM65.9461 97.2083L65.3234 96.3796C70.3875 92.6583 75.4894 89.0375 80.8232 85.7374L81.1682 86.2785C75.9269 89.6745 70.9044 93.3891 65.9461 97.2083ZM204.782 80.6295L204.757 80.1938L211.715 79.9747C214.041 79.9432 216.357 80.0586 218.675 80.0798L218.671 80.5245C216.356 80.4901 214.037 80.3879 211.727 80.4083L204.782 80.6295ZM248.039 78.3158C251.849 77.6994 256.74 78.6734 259.762 80.4405C255.578 79.688 251.802 79.0008 248.039 78.3158ZM258.568 85.4442L258.477 86.0099L246.333 83.8177L246.45 83.2562L258.568 85.4442ZM169.067 117.756L169.279 118.451C166.843 119.166 164.398 119.854 162.016 120.74L161.847 120.024C164.216 119.136 166.646 118.46 169.069 117.742L169.067 117.756ZM239.898 81.7862L239.816 82.2992L234.739 81.6462L229.617 81.2694L229.66 80.75L234.795 81.1289L239.913 81.7751L239.898 81.7862ZM395.492 112.889C392.484 112.041 392.475 112.094 389.506 108.23C391.282 109.608 393.104 110.953 395.492 112.889ZM264.239 58.0158L264.18 58.3842L258.7 57.3831L258.68 57.002L264.239 58.0158ZM294.275 38.1959L293.14 38.2027L293.064 35.6534L294.036 35.6476L294.26 38.2069L294.275 38.1959ZM254.929 33.459L254.976 33.1696L259.41 33.9623L259.363 34.2517L254.929 33.459ZM241.278 120.521L241.343 120.114L244.411 120.673L244.346 121.081L241.278 120.521ZM187.322 97.2592L187.286 96.9835L189.341 96.7061L189.378 96.9819L187.335 97.2614L187.322 97.2592ZM198.763 108.879L198.814 109.319L197.4 109.551L197.313 108.997L198.763 108.879ZM157.204 121.964L157.295 122.236L155.938 122.787L155.847 122.516L157.204 121.964ZM150.203 149.355C148.279 150.665 146.339 151.906 144.381 153.089C142.465 154.347 140.459 155.415 138.536 156.631C134.607 158.916 130.735 161.344 126.95 163.908C126.494 164.226 125.623 164.018 124.765 164.07C124.742 163.459 124.677 163.192 124.734 162.999C124.795 162.792 124.929 162.625 125.084 162.502C132.683 157.028 140.804 152.421 149.09 148.636C149.206 148.588 149.473 148.86 150.207 149.329L150.203 149.355ZM120.931 174.506C122.031 172.78 122.959 171.202 124.019 169.726C124.353 169.24 124.688 168.753 125.137 168.394C126.432 167.387 127.785 166.444 129.089 165.465C130.439 164.535 131.822 163.651 133.182 162.749C134.016 162.262 134.883 160.728 136.183 162.38C137.715 164.354 135.871 164.489 135.125 165.017C133.721 166.115 132.171 167.026 130.677 168.014C127.784 169.979 124.876 171.955 122.115 174.103C121.854 174.304 121.457 174.334 120.928 174.519L120.931 174.506ZM311.26 156.005C304.907 150.437 298.062 145.331 290.762 140.704C299.279 143.299 305.592 149.616 312.054 155.093L311.273 156.007L311.26 156.005ZM380.4 128.387C381.606 130.038 382.825 131.691 384.053 133.373C385.222 135.085 386.413 136.828 387.651 138.619C384.599 138.129 383.338 136.483 382.444 134.572C381.532 132.684 381.035 130.486 379.69 128.948L380.398 128.4L380.4 128.387ZM301.821 118.297C301.625 117.672 301.428 117.046 301.062 115.881C304.262 116.961 306.336 119.089 308.252 121.448C306.146 120.273 303.954 119.301 301.788 118.251L301.821 118.297ZM279.747 143.416L283.32 144.948C284.521 145.451 285.711 145.939 286.858 146.528L286.69 146.906C285.543 146.317 284.352 145.829 283.151 145.326L279.589 143.809L279.745 143.429L279.747 143.416ZM293.509 111.065L297.596 113.179L297.213 113.968L293.044 112.192L293.509 111.065ZM269.078 137.412L272.436 139.193L272.064 140.078L268.557 138.638L269.091 137.415L269.078 137.412ZM312.487 123.477C314.244 124.555 315.927 125.757 317.649 126.883L317.368 127.284C315.588 126.269 313.849 125.167 312.045 124.216L312.487 123.477ZM340.405 111.724C339.132 110.913 338.215 110.32 336.882 109.459C339.306 109.321 339.332 109.326 340.405 111.724ZM426.736 185.161C427.031 186.018 427.323 186.888 427.633 187.815C427.985 188.897 428.365 190.065 428.8 191.39C428.389 190.757 428.173 190.587 427.937 190.293C427.721 190.042 427.527 189.822 427.357 189.62C427.041 189.232 426.838 188.902 426.708 188.53C426.47 187.831 426.563 186.915 426.736 185.161ZM258.511 63.1825C260.886 63.6042 263.276 64.0148 265.626 64.5944L265.56 65.0022C263.198 64.4205 260.821 64.012 258.435 63.575L258.498 63.1804L258.511 63.1825ZM411.902 149.543C412.054 149.432 412.207 149.322 412.346 149.209C414.334 150.109 415.648 151.507 415.694 154.753C414.125 152.504 412.999 151.028 411.902 149.543ZM258.515 134.03C257.036 133.577 255.49 133.288 253.97 132.923L254.033 132.528C255.527 132.889 257.049 133.16 258.501 133.609L258.517 134.017L258.515 134.03ZM248.286 130.08C249.218 130.325 250.136 130.661 251.058 130.971C249.64 132.322 248.869 131.577 248.286 130.08ZM160.004 144.788L157.339 146.007L157.091 145.535L159.758 144.303L159.991 144.786L160.004 144.788ZM152.162 147.321L153.427 146.674L153.754 147.239L152.632 148.179L152.149 147.319L152.162 147.321ZM372.34 189.695C371.939 188.578 371.468 187.477 371.013 186.364L371.764 185.972C372.191 187.093 372.647 188.206 373.046 189.336L372.34 189.695ZM408.329 129.01L405.93 125.792L406.259 125.507L408.943 128.542L408.329 129.01ZM316.094 181.462L315.811 179.946C316.034 179.82 316.439 179.561 316.437 179.574C316.578 180.042 316.686 180.545 316.797 181.035L316.094 181.462ZM261.93 134.362L263.554 135.257L263.288 135.903L261.652 135.168L261.93 134.362ZM422.611 151.761C423.084 152.768 423.554 153.788 423.994 154.83L423.479 155.099C422.93 154.147 422.364 153.219 421.782 152.303L422.611 151.761ZM321.823 131.561L319.883 129.779L320.128 129.427L322.27 130.796L321.839 131.55L321.823 131.561ZM398.374 105.524C399.846 106.867 401.234 108.304 402.656 109.707L401.808 110.367C400.705 108.746 399.606 107.099 398.429 105.52L398.377 105.511L398.374 105.524ZM257.729 117.319L256.058 116.551L256.197 116.02L258.033 116.437L257.731 117.306L257.729 117.319ZM250.476 115.008L247.904 114.554L247.967 114.16L250.447 114.598L250.487 115.023L250.476 115.008ZM369.946 183.508L369.861 182.023C370.182 182.21 370.551 182.35 370.808 182.594C370.89 182.674 370.671 183.03 370.593 183.261L369.949 183.495L369.946 183.508ZM319.827 163.668C319.021 163.229 318.623 163.016 318.236 162.819L318.461 162.262C318.813 162.251 319.226 162.115 319.475 162.249C319.659 162.36 319.629 162.8 319.827 163.668ZM362.111 122.361L359.962 120.613L360.205 120.193L362.462 121.851L362.111 122.361ZM132.881 55.4179L136.08 55.5806L136.236 55.9564C135.175 56.2585 134.105 56.5322 133.054 56.8626L132.964 55.4043L132.898 55.3937L132.881 55.4179ZM291.049 73.4254L294.126 74.4321L294.014 74.7921L290.937 73.7853L291.049 73.4254ZM233.532 59.3212L230.251 59.078L230.257 58.6201L233.405 58.6801L233.532 59.3212ZM354.54 104.453C355.163 104.944 355.767 105.473 356.37 106.001L356.035 106.407C355.43 105.891 354.809 105.386 354.171 104.906L354.543 104.44L354.54 104.453ZM292.142 60.9023L294.797 61.7604L294.674 62.1051L292.019 61.247L292.128 60.9002L292.142 60.9023ZM289.467 148.688L291.022 149.423L290.881 149.711L289.326 148.975L289.467 148.688ZM415.666 139.877L414.399 138.271L414.685 138.006L416.041 139.56L415.666 139.877ZM418.022 143.697L419.221 145.306L418.959 145.507L417.749 143.882L418.011 143.681L418.022 143.697ZM319.875 88.5513L318.207 87.7574L318.359 87.4038L320.065 88.123L319.875 88.5513ZM344.465 106.02C344.097 105.624 343.696 105.262 343.31 104.89C343.874 105.075 344.442 105.234 344.991 105.43L344.452 106.018L344.465 106.02ZM369.124 129.114L369.349 129.811C369.06 129.765 368.729 129.806 368.481 129.672C368.393 129.631 368.471 129.225 368.483 128.984L369.128 129.087L369.124 129.114ZM288.596 109.049L290.074 109.597L289.971 109.904L288.506 109.358L288.61 109.051L288.596 109.049ZM143.73 157.398L142.802 157.964L142.555 157.654L143.365 156.894L143.73 157.398ZM315.026 159.362L313.884 158.572L314.113 158.244L315.267 159.037L315.026 159.362ZM321.823 135.178L321.069 134.072L321.448 133.647L322.422 134.559L321.836 135.18L321.823 135.178ZM348.015 159.395L347.031 158.467L347.257 158.153L348.402 158.917L348.031 159.384L348.015 159.395ZM225.014 109.949L223.681 109.843L223.672 109.396L225.058 109.335L225.003 109.934L225.014 109.949Z" fill="#A90013"/>
</g>
</svg>
