<svg width="93" height="90" viewBox="0 0 93 90" fill="none" xmlns="http://www.w3.org/2000/svg">
<path d="M29.0754 10.7869C30.1009 7.15401 27.5002 7.71034 25.9083 5.35766L28.5392 2.23751C28.7972 -1.43898 24.608 0.655645 22.5268 0.112718C21.4711 4.04726 18.3509 7.37855 18.8871 12.3554C23.5657 15.8073 24.6046 7.95164 29.072 10.7869H29.0754Z" fill="#A00707"/>
<path d="M36.1234 3.75923V2.23769C36.6127 -1.18409 32.209 1.182 33.2479 3.23306L36.1234 3.75923Z" fill="#A00707"/>
<path d="M40.2825 36.9276L40.7886 34.3504C42.6251 34.833 44.9946 35.3457 45.7754 37.6984V40.3058C43.406 41.6329 39.505 40.3058 40.2858 36.9276H40.2825ZM61.1718 29.1021C61.4332 32.4937 57.2573 33.0232 55.957 35.3424C54.1204 36.0964 52.009 34.5883 52.009 32.7651C53.3396 29.3735 58.8157 27.2487 61.1684 29.1021M54.3785 15.5792C57.7567 14.7648 60.3876 16.5142 61.9795 19.4232C62.4855 21.0218 61.1684 22.5735 59.5933 23.0561C56.9792 23.3276 53.8423 22.5735 53.3396 19.9527L54.3785 15.5792ZM69.7782 19.4232H70.8473V22.0608C70.2976 21.7591 70.0061 22.3021 69.7782 22.5735V19.4232ZM4.25494 75.2978C7.92472 73.2031 11.8392 71.6179 13.9204 67.7437C15.4821 63.7924 16.0016 57.8068 13.3842 54.1437C15.7402 49.9679 21.4744 51.2649 25.9083 51.0068C31.904 49.4384 26.6892 44.495 28.5392 41.328H30.6036C34.2902 43.4695 32.6983 47.3605 34.0288 50.4806C36.6127 50.4806 40.0378 49.9679 42.3771 51.0068C50.2093 53.8723 45.2526 63.7924 48.9224 69.3256C49.4251 72.191 54.3818 72.191 52.8067 75.2978C37.9265 73.7293 50.206 48.1447 30.6003 54.6867C28.0298 55.4709 25.905 57.2806 23.5657 54.1437C21.7291 53.088 18.8872 54.1437 17.8147 55.1994C19.9261 56.7679 19.3899 59.3317 19.3899 61.7279C19.6345 69.5535 11.0382 75.0565 6.0848 77.9219L10.7634 83.1367C20.1841 89.1055 24.8795 75.8407 31.6526 71.8894L18.8838 79.4736C19.1285 74.5269 26.9573 72.9451 29.0687 68.2565C25.6737 67.4421 23.3177 71.1186 20.4288 69.8082C23.3211 66.1585 23.5657 64.6068 21.4677 60.6555C26.4379 59.1038 33.7473 58.6044 38.1812 61.1984C38.7006 65.6457 31.1298 61.5 29.0654 64.8783C32.4302 64.3353 34.0221 68.5581 36.6027 70.3343L39.7697 67.1974L43.1479 69.8048C43.3926 72.9417 39.4916 72.382 37.6583 74.0108L43.1479 82.6038C45.2426 86.0122 50.9634 82.6038 51.4829 87.5639C58.5476 88.5727 60.1228 81.5481 64.0372 77.9152C65.0762 77.9152 66.6379 77.6438 67.1708 78.924C65.3342 82.3759 62.4755 87.5639 59.5832 88.5727L70.8406 87.5639C70.5356 82.8887 71.8661 77.6438 69.7715 73.4679C66.1319 72.382 61.4231 73.7226 58.5476 70.331C60.9171 66.4099 67.9517 69.5468 68.7158 65.3877C65.857 65.1296 62.7201 64.332 61.1617 61.1951C62.9514 58.8424 65.0762 60.4108 67.1708 60.6521C69.252 59.6266 70.8406 57.5454 70.8406 55.1927C69.7715 55.1927 68.2097 55.6921 67.1708 54.68C62.2007 54.137 54.6298 60.6521 52.7966 54.137C58.8057 49.1602 68.7158 49.9612 76.3034 51.5296C81.0288 54.68 86.7463 49.7065 90.9087 53.641C87.5305 63.7891 73.4279 48.9222 71.608 62.234C74.4668 63.7857 77.3423 59.325 80.7373 61.7212C81.5181 63.7857 78.9309 64.6001 77.8752 66.1551C81.2567 71.1152 87.5272 70.8438 91.9913 71.3264L93 48.9222C87.0211 49.1635 82.8285 44.4917 77.8752 41.881C73.4245 39.5149 67.9517 41.6262 64.0372 43.9923C61.9728 44.7766 58.8057 45.8021 58.5476 42.4071C59.0671 39.2568 62.4788 38.9987 65.0762 39.2568C68.7158 37.9598 70.2909 32.487 69.252 29.5914C67.6768 31.1732 65.6124 34.0554 62.9514 32.2289L63.501 30.6169C66.896 26.7259 72.3856 24.9329 74.2221 20.4856C73.1832 19.1886 74.2221 15.2373 70.8439 16.5041C70.1703 15.7367 68.6722 14.996 68.565 13.7593C66.7284 18.4949 69.071 25.7306 63.5044 29.092L62.4788 27.795C64.7879 24.9296 66.1352 21.5245 65.6124 17.0739C66.6379 10.3208 58.2862 15.234 55.9469 10.7733C54.6298 7.93797 55.9469 4.83457 56.4664 2.22383C51.4795 2.70643 42.9033 -1.98218 41.3248 4.27489C42.6084 3.74536 43.1446 5.04236 44.2003 5.34398C47.3037 8.20943 42.1057 8.70544 41.3248 10.7733C43.6507 11.0749 46.801 9.76113 48.3761 11.8591C48.3761 17.8615 39.4916 13.4276 36.5993 15.5691C36.5993 19.9427 41.5862 16.2763 44.2003 16.5041C47.5785 19.4132 46.2647 24.9329 47.3037 29.092C44.4449 32.4836 38.9687 31.7162 34.5181 33.2679C30.359 34.0521 30.0842 40.0678 25.8916 39.7964C23.8104 38.7575 21.7157 36.6293 22.51 33.7806C23.549 31.7162 25.6603 32.2289 27.4801 32.2289C25.3855 30.1343 23.549 27.5101 20.4154 27.795L20.9349 34.3403C18.3342 36.3746 19.9093 43.6874 14.403 41.3179V24.6279L1.66766 33.2779C1.92571 47.0589 -1.48266 63.2796 4.25159 75.2978" fill="#A00707"/>
<path d="M72.1375 11.3266C75.2744 15.5795 81.0388 9.48999 83.8674 14.4936C83.0866 15.0064 83.0866 16.8162 81.803 16.0319C79.9664 17.0876 75.7604 16.0319 77.3523 19.9531L79.4335 17.0876L82.3224 19.4235C83.6228 23.3279 77.6405 22.5739 76.3134 24.6383C79.1889 25.1678 80.7473 23.8708 82.8419 25.7409C81.803 30.1413 84.6617 34.0625 82.3224 37.6954C84.4003 41.3283 88.3315 43.4698 92.4906 43.996C90.9154 30.9088 96.6798 12.8917 85.4392 3.75574C83.8641 3.22957 79.9664 1.93258 79.9664 4.8416L87.0312 6.90606C91.4517 12.8917 87.7953 21.0188 88.0701 27.802C88.3315 30.4094 90.1513 33.5296 88.5896 35.3393C83.358 30.9088 85.4392 21.7561 84.9198 14.4903C84.9198 7.94835 77.8852 10.0128 73.6926 9.77151C71.5075 10.2374 70.1736 11.2026 69.3358 12.3789C70.13 11.6718 70.8807 10.9177 72.1342 11.3232L72.1375 11.3266Z" fill="#A00707"/>
<path d="M68.7292 12.8951C68.5918 13.2436 68.5751 13.4983 68.5751 13.7698C68.8063 13.3174 69.0644 12.8649 69.3392 12.3823C69.1415 12.5767 68.927 12.7443 68.7259 12.8951H68.7292Z" fill="#A00707"/>
<path d="M15.7369 12.3554C14.956 8.72245 17.312 2.99155 13.3808 1.68115C10.5087 4.04724 3.45732 4.84487 5.55195 10.3345C8.16604 12.657 12.0972 13.4412 15.7369 12.3554Z" fill="#A00707"/>
<path d="M66.1453 7.95172C67.9651 5.05611 76.5748 7.71042 74.2355 1.68125C68.7292 1.18189 63.2698 2.23759 58.561 2.72019C60.9305 5.05611 63.5144 7.95172 66.1453 7.95172Z" fill="#A00707"/>
<path d="M33.248 7.95159L34.0289 11.3265H35.5739C36.6128 11.3265 36.6128 10.0161 36.6128 9.00393C36.6128 7.15061 34.5316 8.4476 33.248 7.94824V7.95159Z" fill="#A00707"/>
<path d="M33.2479 17.0874V15.5793C31.9006 14.4934 29.072 15.0062 29.072 17.0874H33.2479Z" fill="#A00707"/>
<path d="M13.3841 18.096C9.48309 19.1953 6.33613 16.5141 2.67975 18.096V29.102C6.33613 25.4523 12.6032 23.8705 13.3841 18.096Z" fill="#A00707"/>
<path d="M20.4321 19.4233L24.8828 23.6461V22.0642C26.1999 18.4447 22.2687 19.4267 20.4321 19.4267V19.4233Z" fill="#A00707"/>
<path d="M37.1623 22.0642H41.8409V19.9529C40.7852 19.9529 40.0378 19.7116 39.2402 19.4233C37.9231 19.9529 36.6093 19.9529 37.159 22.0609L37.1623 22.0642Z" fill="#A00707"/>
<path d="M33.2479 21.0224C32.4369 19.9533 31.1365 20.4962 30.0976 20.4962C27.7717 21.2671 27.7717 24.1292 28.0331 26.2406C29.0721 28.3352 31.1365 27.809 32.6983 27.809C34.2902 24.9436 30.6036 24.9436 29.5781 23.6466C28.5392 20.4962 32.209 22.0647 33.2479 21.0224Z" fill="#A00707"/>
<path d="M37.6684 27.2494H39.2436C40.5439 27.2494 43.6641 27.8091 42.3771 25.1682L38.1879 24.6387L37.6684 27.2461V27.2494Z" fill="#A00707"/>
<path d="M78.3946 27.8088C76.8329 26.9944 74.755 26.7363 72.6604 26.7363V29.1024C73.944 26.7363 77.1111 29.5984 78.3946 27.8054V27.8088Z" fill="#A00707"/>
<path d="M72.6604 31.7264C74.2356 31.4248 76.5748 31.9677 77.8886 31.1835C77.8886 29.1022 73.944 33.0234 72.6604 30.1445V31.7264Z" fill="#A00707"/>
<path d="M73.6993 35.346C75.5191 35.346 78.6561 35.8756 79.4336 34.3507C77.3524 32.7655 75.2745 35.0578 72.6604 34.3507L73.6993 35.346Z" fill="#A00707"/>
<path d="M69.2654 69.8119C71.36 71.1223 74.4802 72.1948 76.3167 70.8508C74.4802 67.7441 71.1019 67.2012 69.2654 69.8119Z" fill="#A00707"/>
<path d="M77.8886 79.4738C80.7506 77.1077 83.0899 81.3137 85.4426 83.1369C89.0822 83.1369 89.0822 75.5828 90.4127 74.5271C84.4037 77.3456 79.9698 71.3299 74.2322 74.0144C74.7516 78.207 75.2711 82.3828 75.7604 86.5285C77.6406 86.5285 80.2278 86.5285 81.2668 85.4895L77.3523 83.1369C76.8329 82.3828 76.3134 80.2714 77.8852 79.4738H77.8886Z" fill="#A00707"/>
<path d="M33.2479 76.3535C28.2778 78.4481 22.8016 81.0421 19.3932 86.5317L22.5268 88.07C25.4023 83.3814 34.0288 83.3814 33.2479 76.3569V76.3535Z" fill="#A00707"/>
<path d="M46.8143 88.5805C41.8441 88.3559 39.5049 82.8965 37.1622 79.9707C35.5703 85.4905 29.578 84.9609 26.4445 88.5805C32.6982 89.3781 42.3804 89.3781 46.8143 88.5805Z" fill="#A00707"/>
</svg>
