<svg width="434" height="205" viewBox="0 0 434 205" fill="none" xmlns="http://www.w3.org/2000/svg">
<mask id="mask0_5693_23692" style="mask-type:alpha" maskUnits="userSpaceOnUse" x="0" y="0" width="434" height="205">
<path d="M0 0H434V205H0V0Z" fill="#D9D9D9"/>
</mask>
<g mask="url(#mask0_5693_23692)">
<path d="M310.3 44.8214C312.515 44.5562 314.4 45.0882 315.809 46.7314C317.549 47.1591 320.156 47.1457 320.86 48.1359C322.053 49.7848 323.438 49.8181 324.961 50.3326C327.005 51.052 328.982 52.0171 330.931 52.9911C332.704 53.883 334.442 54.8233 336.183 55.7504C337.899 56.7412 339.616 57.732 341.354 58.6722L345.89 61.1006C347.391 61.9219 348.884 62.7957 350.367 63.6411C353.346 65.3472 356.324 67.0533 359.138 69.0298C361.011 70.3022 362.855 71.5967 364.698 72.8912L370.07 77.0057C373.657 79.7136 377.035 82.7119 380.48 85.5455C382.279 87.1163 384.091 88.6892 385.89 90.2599C387.707 91.8065 389.473 93.4125 391.192 95.0648L395.152 98.8044L398.974 102.657C401.548 105.202 403.964 107.884 406.414 110.531L406.361 110.522C404.849 108.512 403.318 106.444 401.81 104.407C400.228 102.412 398.601 100.438 396.833 98.5884C388.13 89.6748 378.469 81.5927 368.389 74.0235C366.671 72.7086 365.226 71.0327 363.596 69.5836C362.737 68.798 362.015 67.8319 361.071 67.1541C359.633 66.1135 358.198 65.0465 356.727 64.0411L352.275 61.0865L347.778 58.165L343.151 55.4655C337.752 52.2778 331.733 50.5154 326.236 47.4335C323.285 45.8937 320.104 44.7758 316.967 43.557C313.827 42.3513 310.703 41.2156 307.844 39.3533C307.343 39.0299 306.461 38.7263 306.017 38.8845C303.545 39.7426 302.045 38.4899 300.258 37.0965C299.01 36.127 297.29 35.5809 295.703 35.0428C294.5 34.6338 293.273 34.2884 292.047 33.9431C290.816 33.6241 289.581 33.3314 288.37 32.975C285.666 32.1632 282.952 31.3361 280.248 30.5243C277.531 29.7103 274.787 29.0674 272.056 28.3456C269.32 27.65 266.569 26.9656 263.796 26.3316C260.981 25.7986 258.158 25.3051 255.328 24.8643C239.202 22.4242 222.501 21.8889 205.66 22.6404C202.021 22.8659 198.385 22.984 194.721 23.1111C191.073 23.2271 187.402 23.65 183.757 24.077L179.634 24.6296L175.52 25.3727L167.317 26.9574C164.598 27.587 161.897 28.2735 159.183 28.9578L155.13 29.9941L151.106 31.1836C149.206 31.7557 147.422 32.6974 145.526 33.2432C141.726 34.3064 137.992 35.6234 134.223 36.8266C130.463 38.0583 126.798 39.5347 123.093 40.9238C121.572 41.4893 120.26 42.5201 118.812 43.2188L112.255 46.4036L105.795 49.739C102.748 51.2337 99.6747 52.643 96.7099 54.2993C95.5071 54.9833 94.3042 55.6674 93.1234 56.382L89.6363 58.6022L82.6841 63.073C74.2321 68.3961 66.0673 74.1162 58.2669 80.3402C56.2958 81.859 54.4131 83.5001 52.5192 85.1258C50.6144 86.7363 48.7647 88.4231 46.904 90.0946C41.0456 95.4022 35.3217 100.88 29.889 107.066C27.9744 109.241 26.5685 111.863 24.4375 115.218C26.6462 114.237 27.9095 113.765 30.0118 112.942C29.2756 113.998 28.6979 114.823 28.1896 115.551C27.6793 116.292 27.2648 116.941 26.8877 117.609C26.6622 118.005 26.3919 118.595 26.2154 119.107C26.0235 119.629 25.9102 120.083 26.0112 120.127C27.2244 120.807 27.1438 121.982 26.858 123.258C26.7192 123.87 26.4631 124.625 26.327 125.305C26.1603 126.007 26.12 126.595 26.2007 127.269C27.317 126.031 28.3227 124.978 29.27 124.037L30.7006 122.607L32.0859 121.291C33.0115 120.4 33.9155 119.56 34.8111 118.773C35.7088 117.972 36.6128 117.132 37.5021 116.384C37.6828 118.033 37.3006 119.321 36.7206 120.496C35.5432 122.871 34.1579 125.28 33.0345 127.907C32.6478 128.803 32.3247 129.723 32.1933 130.457C32.1363 130.813 32.0729 131.207 32.0117 131.589C31.9789 131.961 31.9787 132.299 32.0222 132.616C32.1656 133.152 32.1794 133.991 32.5065 134.475C32.8162 134.984 33.346 135.298 34.0611 135.467C36.8501 135.914 38.5151 135.21 41.01 132.277C43.4181 129.466 45.7445 126.911 48.1108 124.443C50.4792 121.963 52.857 119.591 55.3011 117.312C59.7881 113.066 64.4434 109.117 70.0488 104.713C64.3178 110.824 57.741 115.058 54.8592 122.166C53.4713 125.601 51.5256 128.81 49.6988 132.12C48.7844 133.782 47.9247 135.439 47.1554 137.204C46.7729 138.074 46.4278 138.963 46.0984 139.923C45.9392 140.41 45.78 140.897 45.6208 141.384C45.4379 141.935 45.3746 142.33 44.9857 143.239C47.8306 144.6 50.1461 145.727 52.3952 147.1C53.981 144.872 55.3481 143.081 56.8136 141.265C58.2528 139.444 59.7167 137.723 61.1917 136.016C64.1437 132.59 67.2129 129.358 70.3285 126.174C67.4798 133.328 63.9494 140.022 60.9955 147.158C66.9799 148.969 66.8946 148.996 70.3537 145.017C71.1109 144.167 71.7997 143.238 72.6474 142.497C74.6001 140.841 76.6323 139.277 78.6692 137.769L79.0927 138.242C77.0542 142.786 75.1715 147.369 73.262 152.96C77.5051 150.402 77.3 154.202 79.0688 156.213C83.3601 151.841 87.6933 147.881 92.5628 143.859C91.7418 150.151 88.3997 153.905 85.5305 157.992C86.7514 157.028 87.935 156.044 89.1911 155.112C88.7997 157.046 89.2251 158.599 90.5496 161.025C92.7064 156.499 95.8467 153.414 99.2256 150.691C97.9732 153.701 94.4229 154.886 93.5998 159.004C96.0236 158.449 97.5416 156.979 99.0659 155.469C100.65 154.009 102.222 152.454 104.811 152.046C102.649 156.854 101.061 160.944 99.7764 164.746C100.917 165.037 102.549 165.461 104.118 165.861C104.639 166.903 105.096 167.84 105.761 169.161C107.974 167.735 109.955 166.488 112.317 165.14C112.203 167.361 112.174 168.976 112.176 170.812C113.21 170.762 113.755 170.728 114.569 170.697C113.588 172.523 112.693 174.147 111.678 176.265C113.36 175.711 114.234 174.974 115.321 175.176C117.087 175.527 117.99 174.943 118.896 174.09C119.72 173.332 120.545 172.56 121.402 171.847C126.135 168.086 131.316 164.897 136.18 161.413C147.437 153.328 159.533 146.741 172.221 142.017C180.275 139.086 188.544 136.838 197.052 135.369C205.439 133.895 214.07 133.176 222.833 133.314C231.584 133.355 240.514 134.721 249.324 136.837C250.772 137.232 252.189 137.23 253.56 134.994C252.249 134.419 251.204 133.954 249.602 133.252C251.421 133.018 257.742 133.992 264.191 135.85C265.83 136.235 267.409 136.825 268.973 137.333C270.521 137.865 272.044 138.379 273.451 138.861C276.2 139.977 278.535 140.986 279.965 141.661C289.215 146.331 298.088 151.25 306.379 156.845C314.576 162.358 320.773 170.073 328.129 176.206C327.896 174.968 327.51 173.84 326.843 172.95C325.493 171.101 323.868 169.544 322.346 167.843C320.926 166.346 319.43 164.905 317.971 163.402C316.479 161.935 314.901 160.588 313.326 159.216C311.618 157.754 309.768 156.499 307.962 155.143C306.138 153.811 304.205 152.651 302.349 151.354C300.884 150.309 299.323 149.438 297.808 148.452C296.291 147.48 294.76 146.506 293.171 145.643C291.273 144.61 289.423 143.436 287.47 142.488L281.606 139.509C284.979 138.674 287.832 140.657 291.364 139.078C290.607 138.498 289.656 138.453 288.818 138.13C287.825 137.755 286.752 137.38 286.015 136.587C285.118 135.62 284.382 137.094 283.974 137.028C282.492 136.764 281.109 135.961 279.65 135.471C278.175 134.991 276.924 133.873 275.585 132.969C274.221 132.13 272.737 131.541 270.902 132.042C270.45 132.172 269.948 131.511 269.467 131.232L267.416 130.052L265.324 128.961C264.43 128.48 263.557 127.948 262.667 127.441C261.127 127.45 259.615 127.37 258.067 127.431C260.625 126.209 260.627 126.277 262.634 127.476L265.044 127.593L265.266 126.549C262.522 125.569 259.835 124.234 256.96 123.651C254.04 123.007 251.101 122.319 248.154 121.846C245.214 121.414 242.274 120.983 239.353 120.433C237.343 120.178 235.338 119.802 233.323 119.411L230.297 118.844C229.286 118.669 228.284 118.602 227.272 118.521C225.137 118.367 223.003 118.294 220.867 118.235C218.741 118.285 216.619 118.39 214.5 118.387L211.887 118.359L209.294 118.455C207.557 118.514 205.821 118.573 204.091 118.673C202.304 118.791 200.564 119.119 198.798 119.362C197.041 119.633 195.27 119.821 193.537 120.19L187.29 121.279L181.107 122.635C180.827 122.698 180.494 122.59 179.832 122.511C180.966 120.575 182.629 120.72 184.077 120.359C185.145 120.098 186.19 119.726 187.214 119.31C188.677 118.776 190.051 117.863 191.572 117.554C201.267 115.669 211.198 114.834 221.223 114.757C222.338 114.787 223.456 114.804 225.257 114.851C224.17 114.055 223.76 113.747 222.783 113.023C225.351 113.085 227.78 113.002 230.126 113.014C232.479 113.149 234.752 113.366 236.965 113.869C237.852 114.066 238.715 114.15 239.567 114.139C240.43 114.142 241.269 114.128 242.121 114.036C243.822 113.863 245.515 113.487 247.25 113.186C233.532 110.376 219.607 109.018 205.708 109.351C206.216 108.542 206.793 108.392 207.365 108.362L210.709 108.211C211.824 108.16 212.948 108.219 214.069 108.21L220.781 108.262L227.5 108.693C228.62 108.778 229.737 108.796 230.848 108.933L234.196 109.349C243.36 110.267 252.485 112.353 261.471 114.632C268.98 116.863 276.372 119.318 283.427 122.447C291.599 125.932 299.441 129.957 306.859 134.521L308.989 135.794L311.065 137.153L315.223 139.831L319.245 142.69L321.242 144.117L323.186 145.63C324.455 146.63 325.619 147.789 326.808 148.87C327.961 150.013 329.154 151.069 330.552 151.779C332.364 152.677 333.785 153.998 335.101 155.383C335.758 156.083 336.385 156.804 337.009 157.538L338.819 159.799C339.664 160.839 340.561 161.806 341.469 162.789C342.358 163.808 343.258 164.843 344.204 165.926C343.328 163.397 342.568 161.157 341.67 159.015C341.499 158.569 341.347 158.086 341.082 157.72L339.23 155.048L337.285 152.455C335.971 150.719 334.631 148.979 333.161 147.38C331.593 145.63 329.691 144.192 327.864 142.711C322.252 137.829 316.308 133.245 309.927 129.198C302.237 124.306 294.148 119.634 285.174 117.114C284.825 117.017 284.504 116.831 284.166 116.669L281.198 115.234C280.207 114.765 279.179 114.357 278.169 113.925C276.149 113.061 274.1 112.206 272.047 111.377C269.964 110.651 267.848 109.961 265.722 109.336C264.651 109.029 263.582 108.709 262.503 108.455C261.406 108.225 260.318 108.023 259.213 107.846C256.951 107.483 254.735 106.911 252.51 106.311C250.281 105.737 248.046 105.284 245.796 104.842L241.68 104.087C240.305 103.826 238.931 103.726 237.559 103.533C234.801 103.225 232.04 102.769 229.281 102.555C228.295 102.478 227.319 102.173 226.336 101.988L226.386 100.755C228.282 100.627 230.205 100.167 232.11 100.405C234.981 100.677 237.802 101.346 240.638 101.666C243.12 102.01 245.598 102.462 248.073 102.846L251.783 103.441C253.016 103.666 254.253 103.946 255.479 104.21L262.853 105.772C265.292 106.379 267.708 107.05 270.128 107.695C272.438 108.268 274.688 109.048 276.922 109.838C279.153 110.655 281.418 111.343 283.568 112.322L289.82 114.985C291.883 115.924 293.891 116.948 295.921 117.921C297.955 118.869 299.926 119.954 301.898 121.04C303.856 122.124 305.853 123.132 307.738 124.339C309.923 125.688 312.139 126.935 314.252 128.394C316.355 129.838 318.497 131.208 320.567 132.687C320.871 132.898 321.354 132.827 321.749 132.89C321.27 131.585 320.443 130.94 319.607 130.347L314.757 126.761C313.144 125.544 311.438 124.488 309.762 123.328L309.795 123.374C303.955 119.656 297.796 116.414 291.529 113.249C290.306 112.634 288.436 112.429 287.963 111.341C286.135 107.174 282.639 107.099 279.116 107.1C278.512 107.084 277.667 107.218 277.378 106.835C275.828 104.805 273.617 104.787 271.476 104.592C270.759 104.517 269.887 104.404 269.411 103.923C268.263 102.753 267.521 101.906 265.678 103.472C265.24 103.847 264.483 103.685 263.636 103.414C262.771 103.168 261.82 102.785 261.022 102.63C260.806 99.7752 258.489 100.335 256.966 99.8201C255.816 99.4196 254.622 99.1201 253.438 98.849C252.242 98.5626 251.035 98.4362 249.833 98.1893C245.991 97.4916 242.16 96.4719 238.282 95.9978C234.406 95.4296 230.517 94.8593 226.607 94.9199C224.489 94.9173 222.372 94.8204 220.267 94.7388C218.159 94.7515 216.059 94.7246 213.947 94.6825C212.667 94.6661 211.379 94.6212 210.095 94.6311L206.243 94.7549C203.674 94.8688 201.089 94.8318 198.541 95.1515C195.628 95.48 192.721 95.8501 189.839 96.3996C190.585 95.4532 191.449 95.2816 192.327 95.1931C202.366 93.6872 212.547 93.2298 222.705 93.3355L230.329 93.5877C232.869 93.739 235.403 94.0108 237.934 94.2147L241.739 94.5555L245.527 95.0827L253.1 96.1632C256.607 96.8476 260.101 97.6109 263.577 98.3983C267.045 99.2384 270.449 100.311 273.885 101.268C283.261 104.23 292.393 107.787 301.173 111.936L307.854 115.289C310.078 116.402 312.182 117.752 314.267 119.058C323.945 125.429 332.857 132.541 341.901 139.418C344.807 141.746 347.34 144.541 349.791 147.35C350.629 148.268 351.166 149.46 352.008 150.351C357.227 156.088 362.206 161.974 366.625 168.243C367.652 169.663 368.568 171.187 369.412 172.739C370.271 174.281 371.117 175.82 371.948 177.37L373.806 180.759L375.581 184.161L376.31 183.738C375.709 182.44 375.048 181.174 374.523 179.821C373.523 177.474 371.994 175.151 371.823 172.6C371.721 170.883 371.319 169.348 370.739 167.919C370.128 166.512 369.338 165.211 368.494 163.915C366.288 160.592 363.831 157.404 361.324 154.276C356.693 148.485 351.774 142.811 346.416 137.524C341.074 132.214 335.451 127.06 329.42 122.341C328.716 121.769 327.996 121.208 327.257 120.684C324.585 118.839 321.821 117.14 319.085 115.351C316.276 113.686 313.464 112.033 310.655 110.368C308.536 109.191 306.474 107.916 304.37 106.647C302.275 105.406 300.091 104.3 297.881 103.271L295.039 101.978L292.132 100.836L286.283 98.6019C284.316 97.9084 282.324 97.2916 280.337 96.6354C278.347 96.0055 276.371 95.2835 274.352 94.7436C273.424 94.4731 272.62 93.7639 271.372 93.0507C272.255 92.6796 272.66 92.3398 272.972 92.4168L276.496 93.158L279.995 94.057C282.312 94.6718 284.642 95.2888 286.944 95.9957C288.314 96.4584 289.462 97.5468 290.812 98.0469C292.959 98.8774 295.156 99.5674 297.26 100.499L303.624 103.14C305.75 104.021 307.797 105.051 309.884 106.007L312.997 107.465L316.049 109.048C316.759 109.418 317.34 109.997 318.05 110.368C318.312 110.504 318.749 110.304 319.134 110.258C319.033 109.878 319.055 109.49 318.892 109.41C310.646 104.456 301.929 100.25 293.013 96.4434C291.155 95.6594 289.142 94.9179 287.642 93.5841C284.872 91.2503 281.643 90.5161 278.202 90.1796C276.473 90.0235 274.718 89.6069 273.052 89.0561C272.552 88.8948 272.318 87.9126 271.497 86.5529C274.048 87.1378 275.779 87.456 277.455 87.941C286.203 90.7757 294.885 93.7751 303.145 97.719C309.725 100.692 316.024 104.24 322.13 107.986C324.703 109.614 327.173 111.373 329.663 113.095C332.086 114.901 334.508 116.707 336.933 118.5C338.982 120.11 341.048 121.697 343.117 123.271C345.153 124.879 347.136 126.561 349.124 128.216C352.313 131.049 355.41 133.948 358.425 136.942C358.987 137.477 359.84 137.709 360.563 138.081C355.7 132.227 350.265 127.077 344.669 122.008C343.958 121.395 342.993 120.849 342.681 120.016C341.47 116.799 339.213 114.804 335.897 114.109C335.427 114.007 334.908 113.546 334.684 113.091C333.883 111.438 332.725 110.159 331.344 109.182C329.978 108.193 328.446 107.394 326.984 106.498C324.622 104.986 322.17 103.62 319.754 102.193L316.116 100.057L312.386 98.0689C308.024 95.6548 303.488 93.5637 298.939 91.4705C296.624 90.5052 294.189 89.8714 291.855 88.9435L288.847 87.7589L285.793 86.6885L279.673 84.5456C277.626 83.8525 275.545 83.2757 273.474 82.6463C271.398 82.0432 269.337 81.348 267.231 80.848C264.517 80.183 261.723 79.8559 258.992 79.2151C250.797 77.3869 242.488 75.8507 234.045 74.9812C233.275 74.8982 232.508 74.802 231.735 74.7453L229.403 74.641L224.743 74.5002C223.183 74.4658 221.641 74.4071 220.077 74.3989L215.407 74.486C212.391 74.5282 209.362 74.2309 206.347 74.3541C207.743 73.4717 209.233 73.1036 210.74 73.1296C213.964 73.1344 217.18 73.1918 220.385 73.2339C223.591 73.4382 226.784 73.6403 229.978 73.7482C232.255 73.7762 234.517 74.0584 236.787 74.2069L243.587 74.7182C248.088 75.2651 252.592 75.7858 257.069 76.4775L266.82 78.3665C268.445 78.6678 270.053 79.0744 271.657 79.5072L276.44 80.8148C288.616 84.4022 300.44 89.0936 311.798 94.5873C314.558 95.9749 317.583 96.7979 320.209 98.4339C323.1 100.18 325.966 101.909 328.686 103.883L332.814 106.746C334.189 107.682 335.521 108.719 336.88 109.666C338.607 110.928 340.862 111.425 342.806 112.425L343.327 111.618C341.654 110.189 339.853 108.969 338.134 107.573C337.123 106.803 336.098 106.045 335.088 105.276C334.078 104.506 333.081 103.739 332.259 102.811C331.185 101.599 330.126 100.795 328.679 100.144C325.492 98.7286 321.947 97.9437 320.399 93.9707C320.065 93.1074 318.521 92.8056 317.508 92.3057C317.346 92.2256 317.064 92.3828 316.756 92.4547C317.335 92.966 317.762 93.3315 318.2 93.7122L317.672 94.4777C315.719 92.7742 313.465 91.6026 311.184 90.5079C308.891 89.411 306.509 88.5294 304.328 87.1536L307.531 87.7084C295.226 81.3069 282.106 76.7044 268.747 73.17C265.669 72.4196 262.594 71.656 259.492 70.9692C256.754 70.2868 253.933 69.9554 251.139 69.453L246.943 68.7793C245.552 68.5292 244.145 68.3032 242.722 68.1694C233.912 67.0655 224.987 66.1727 215.98 66.2113C214.468 66.2115 212.96 66.2797 211.449 66.3611C209.94 66.4292 208.425 66.5369 206.91 66.7256C203.889 67.0503 200.878 67.3093 197.87 67.2178C193.919 67.2853 189.998 67.668 186.122 68.2739C182.263 69.0308 178.406 69.7746 174.586 70.6999C171.776 71.3958 168.912 71.9211 166.058 72.4618C163.228 73.1139 160.384 73.764 157.583 74.5694C143.517 78.8024 130.037 84.8435 117.261 91.969C115.929 92.6999 114.489 93.2649 113.148 93.9673L112.727 93.144C113.425 92.6623 114.079 92.1195 114.819 91.712C123.107 86.8214 131.803 82.5898 140.687 78.861C142.636 78.0673 144.538 77.1447 146.481 76.3094C149.919 74.9855 153.363 73.6221 156.853 72.3876L162.135 70.6715C163.9 70.1045 165.655 69.5092 167.455 69.0559L174.248 67.2585C176.518 66.6512 178.831 66.2803 181.122 65.7979C182.973 65.4472 184.835 65.1119 186.713 64.8466C188.585 64.6207 190.456 64.3948 192.323 64.1142C194.827 63.7334 197.283 62.7242 199.806 62.6434C202.514 62.4979 205.235 62.4488 207.938 62.4238C210.645 62.4536 213.345 62.6171 216.035 62.6711C217.352 62.707 218.684 62.3945 219.999 62.1873C222.204 61.9069 224.41 61.357 226.63 61.4029C242.08 61.8317 257.48 63.4941 271.972 68.2089C283.105 71.9121 294.438 75.2023 305.3 79.7527C316.416 84.3979 327.139 89.9786 337.323 96.3096C338.581 97.0512 339.73 97.9643 340.933 98.7917C343.889 100.805 346.871 102.741 349.708 104.91L354.004 108.069L358.169 111.382C359.65 112.578 361.132 113.774 362.545 115.054L363.146 114.341C356.152 106.794 348.024 100.267 339.434 94.3408C330.819 88.4101 321.686 83.2601 312.531 77.9986C316.356 79.4762 320.058 81.2984 323.764 83.0133C327.398 84.9192 331.035 86.8119 334.524 88.9509C336.426 90.1333 338.291 91.3773 340.123 92.6565C341.957 93.9226 343.664 95.3976 345.383 96.7936C347.384 98.4508 349.298 99.7295 351.916 100.312C353.704 100.693 355.476 101.841 356.949 103.009C366.39 110.772 375.035 119.299 382.938 128.327C383.028 128.436 383.384 128.317 384.148 128.265C382.571 125.987 381.139 123.976 379.507 122.122C372.932 114.913 365.829 108.051 358.177 101.749C354.686 99.0292 351.174 96.2792 347.466 93.8217C345.627 92.582 343.814 91.2654 341.945 90.0477C340.074 88.8432 338.205 87.6255 336.355 86.3705C330.69 82.6542 325.087 78.7186 319.274 75.0865C318.405 74.5287 317.608 73.861 316.78 73.1343C315.946 72.4471 315.096 71.6899 314.123 70.94C313.243 73.6462 311.878 73.2381 310.099 72.3857L306.373 70.6272C305.126 70.0761 303.844 69.5733 302.579 69.0464L294.95 65.9597C291.243 64.5953 287.398 63.4113 283.871 61.6713C281.525 60.566 279.126 59.6275 276.678 58.7353C275.453 58.2957 274.23 57.8431 272.999 57.443L269.281 56.3065C268.588 56.0872 267.52 55.9293 267.073 56.2759C265.159 57.7769 263.637 56.8309 262.13 55.7119C261.323 55.1099 260.487 54.598 259.633 54.2044C258.761 53.835 257.872 53.5709 256.955 53.3968C255.135 53.0506 253.214 53.0797 251.197 53.4576C249.678 53.7536 247.923 53.2559 246.333 52.9062C245.142 52.6746 244.044 51.8641 242.852 51.7267C238.192 51.2485 233.553 50.5578 228.816 50.3912L221.732 50.0503C219.374 49.9418 216.978 50.07 214.611 50.1083C212.086 50.2023 209.556 50.2415 207.027 50.4428L199.441 51.2089L195.661 51.6412L191.882 52.2355L184.347 53.4416C183.566 53.5996 182.771 53.6745 181.97 53.7888L173.203 55.1074C170.293 55.6659 167.401 56.2812 164.509 56.9776C162.396 57.448 160.31 58.0848 158.228 58.6953L151.981 60.5399L145.836 62.6708C143.792 63.3818 141.735 64.0907 139.738 64.9307L133.707 67.3632C131.699 68.1879 129.753 69.1305 127.778 70.001C123.803 71.7246 119.982 73.7562 116.11 75.6851C113.429 77.09 110.76 78.4969 108.02 79.9328C105.314 81.4013 102.583 82.9466 99.7607 84.5582C100.494 81.5857 101.943 79.956 104.222 78.6215C109.422 75.6507 114.575 72.5509 119.961 69.8528L122.503 68.5606L125.098 67.3578L130.311 64.9827C133.808 63.4525 137.386 62.0971 140.937 60.6564L140.871 60.6458C149.047 57.4644 157.308 54.3373 165.883 52.2861C184.577 47.6354 203.846 45.5464 222.764 45.8033C225.01 45.8534 227.251 45.8487 229.493 46.0062C238.747 46.6955 247.829 48.2074 256.812 49.5818C257.974 49.7413 259.133 49.833 260.312 49.8872C261.471 49.9789 262.635 50.0442 263.801 50.0963C266.13 50.2138 268.49 50.3092 270.794 50.6656C272.149 50.8831 273.491 51.0985 274.835 51.3818C276.173 51.7046 277.496 52.0384 278.83 52.3874C281.483 53.0966 284.116 53.8432 286.745 54.616C297.374 58.009 307.8 61.9902 317.974 66.6192C330.284 72.2386 342.208 78.7409 353.436 86.2244C355.555 87.5632 357.588 89.0231 359.603 90.5071C361.619 91.9912 363.656 93.4247 365.552 95.065C368.671 97.6574 371.743 100.296 374.655 103.085C377.635 105.79 380.45 108.684 383.303 111.504C385.474 113.701 387.597 115.944 389.739 118.151C391.819 120.414 393.894 122.704 395.881 125.034C397.541 127.054 399.095 129.139 400.652 131.211C402.161 133.329 403.717 135.4 405.37 137.379C412.656 146.214 418.432 156.048 423.504 166.146C425.763 170.57 427.915 175.072 429.977 179.627C430.503 180.805 431.252 181.856 431.877 183.009C432.393 181.891 432.366 180.969 432.018 180.198C429.211 173.89 425.994 167.868 422.764 161.844C421.586 159.604 420.879 157.115 419.881 154.755C420.034 154.645 420.186 154.534 420.326 154.422C420.434 153.157 421.045 151.622 420.544 150.624C418.345 146.25 415.682 142.071 413.077 137.874C412.248 136.567 411.012 135.1 411.022 133.779C411.054 130.465 408.998 128.394 407.107 126.053C405.81 124.468 404.263 122.924 404.255 120.197C406.62 122.277 408.53 124.001 410.376 125.781C406.966 120.457 403.038 115.589 398.896 110.876C392.582 103.803 386.407 96.456 378.67 90.5178C375.611 88.2186 372.705 85.7279 369.776 83.2066C366.791 80.7842 363.889 78.1862 360.745 75.9137C352.036 69.3878 342.725 63.6693 333.203 58.2545C331.9 57.546 330.025 56.8672 329.559 55.8207C328.504 53.4788 326.593 53.1989 324.491 52.6726C322.396 52.1879 320.374 51.337 318.367 50.556C316.615 49.87 315.733 48.6354 315.846 46.9261C314.017 46.2142 312.147 45.6712 310.292 45.0361L310.3 44.8214ZM312.47 53.9143L312.877 53.062L317.722 55.9179C319.833 55.879 321.87 56.1384 323.257 58.0073C328.287 60.2992 333.403 62.3889 338.214 65.118C343.24 67.7735 347.958 71.0003 352.699 74.0824C360.455 79.4027 367.993 84.985 375.061 91.0586C377.866 93.4251 380.442 96.0383 383.107 98.5173L388.17 102.623L387.539 103.277L383.147 98.5236C373.092 91.2149 364.034 82.6627 353.514 75.819C352.031 74.7983 350.471 73.9271 348.947 72.9943L343.239 69.4602C341.32 68.3019 339.357 67.2447 337.419 66.1238C333.543 63.8689 329.551 61.8381 325.559 59.8073C324.724 59.3764 324.051 58.6072 323.298 58.0005C321.458 57.2733 319.61 56.5988 317.764 55.9111L312.468 53.9275L312.47 53.9143ZM278.035 64.4049C278.798 64.5274 279.578 64.5447 280.315 64.744C283.073 65.47 285.79 66.365 288.492 67.271C291.19 68.2034 293.922 69.0063 296.566 70.1054C297.797 70.5865 298.893 71.4102 300.041 72.0802C302.749 73.0278 305.471 73.9775 308.124 75.105L307.696 76.0079C304.526 75.9984 302.348 74.0159 300.084 72.0602C298.26 71.403 296.399 70.8074 294.549 70.227C292.677 69.6972 290.799 69.2068 288.947 68.6396C287.093 68.0855 285.249 67.4657 283.435 66.7427C281.609 66.0987 279.802 65.3363 278.035 64.4049ZM243.942 131.777C242.212 131.539 240.474 131.355 238.734 131.183L233.552 130.932C231.838 130.846 230.113 130.582 228.427 130.406C226.731 130.215 225.051 129.918 223.364 129.418C225.089 129.344 226.815 129.27 228.527 129.194C230.249 129.147 232.002 129.32 233.72 129.461C235.448 129.63 237.159 129.811 238.866 130.193C240.577 130.629 242.276 131.145 243.927 131.788L243.942 131.777ZM221.774 99.8928C222.232 99.8989 222.687 100.174 223.466 100.448C222.508 102.804 220.926 102.483 219.718 101.938C217.662 100.96 215.682 101.358 213.593 101.427C212.642 101.463 211.698 101.46 210.743 101.442C209.793 101.478 208.848 101.475 207.889 101.483C205.974 101.473 204.062 101.449 202.161 101.441L202.1 100.891C205.378 100.648 208.635 100.28 211.911 100.132C215.201 100.066 218.486 99.8643 221.772 99.906L221.774 99.8928ZM220.773 79.1394C221.85 78.9073 223.974 78.7895 226.648 78.7735C227.987 78.7589 229.454 78.7786 230.999 78.8241C232.544 78.8696 234.146 79.0593 235.768 79.2117C237.388 79.3773 239.016 79.5712 240.59 79.7699C242.164 79.9686 243.681 80.1851 245.059 80.5142C247.836 81.1219 250.135 81.7609 251.46 82.3378L243.842 81.1151C241.295 80.7602 238.729 80.5236 236.173 80.2213L232.326 79.8062C231.039 79.6672 229.762 79.6376 228.467 79.5512L220.749 79.122L220.773 79.1394ZM300.97 48.4653C294.317 48.6388 289.329 44.235 283.094 43.4772L283.441 42.4128C289.357 44.1451 295.179 46.3752 300.968 48.4785L300.97 48.4653ZM73.9461 102.208L73.3234 101.38C78.3875 97.6583 83.4894 94.0375 88.8232 90.7374L89.1682 91.2785C83.9269 94.6745 78.9044 98.3891 73.9461 102.208ZM212.782 85.6295L212.757 85.1938L219.715 84.9747C222.041 84.9432 224.357 85.0586 226.675 85.0798L226.671 85.5245C224.356 85.4901 222.037 85.3879 219.727 85.4083L212.782 85.6295ZM256.039 83.3158C259.849 82.6994 264.74 83.6734 267.762 85.4405C263.578 84.688 259.802 84.0008 256.039 83.3158ZM266.568 90.4442L266.477 91.0099L254.333 88.8177L254.45 88.2562L266.568 90.4442ZM177.067 122.756L177.279 123.451C174.843 124.166 172.398 124.854 170.016 125.74L169.847 125.024C172.216 124.136 174.646 123.46 177.069 122.742L177.067 122.756ZM247.898 86.7862L247.816 87.2992L242.739 86.6462L237.617 86.2694L237.66 85.75L242.795 86.1289L247.913 86.7751L247.898 86.7862ZM403.492 117.889C400.484 117.041 400.475 117.094 397.506 113.23C399.282 114.608 401.104 115.953 403.492 117.889ZM272.239 63.0158L272.18 63.3842L266.7 62.3831L266.68 62.002L272.239 63.0158ZM302.275 43.1959L301.14 43.2027L301.064 40.6534L302.036 40.6476L302.26 43.2069L302.275 43.1959ZM262.929 38.459L262.976 38.1696L267.41 38.9623L267.363 39.2517L262.929 38.459ZM249.278 125.521L249.343 125.114L252.411 125.673L252.346 126.081L249.278 125.521ZM195.322 102.259L195.286 101.983L197.341 101.706L197.378 101.982L195.335 102.261L195.322 102.259ZM206.763 113.879L206.814 114.319L205.4 114.551L205.313 113.997L206.763 113.879ZM165.204 126.964L165.295 127.236L163.938 127.787L163.847 127.516L165.204 126.964ZM158.203 154.355C156.279 155.665 154.339 156.906 152.381 158.089C150.465 159.347 148.459 160.415 146.536 161.631C142.607 163.916 138.735 166.344 134.95 168.908C134.494 169.226 133.623 169.018 132.765 169.07C132.742 168.459 132.677 168.192 132.734 167.999C132.795 167.792 132.929 167.625 133.084 167.502C140.683 162.028 148.804 157.421 157.09 153.636C157.206 153.588 157.473 153.86 158.207 154.329L158.203 154.355ZM128.931 179.506C130.031 177.78 130.959 176.202 132.019 174.726C132.353 174.24 132.688 173.753 133.137 173.394C134.432 172.387 135.785 171.444 137.089 170.465C138.439 169.535 139.822 168.651 141.182 167.749C142.016 167.262 142.883 165.728 144.183 167.38C145.715 169.354 143.871 169.489 143.125 170.017C141.721 171.115 140.171 172.026 138.677 173.014C135.784 174.979 132.876 176.955 130.115 179.103C129.854 179.304 129.457 179.334 128.928 179.519L128.931 179.506ZM319.26 161.005C312.907 155.437 306.062 150.331 298.762 145.704C307.279 148.299 313.592 154.616 320.054 160.093L319.273 161.007L319.26 161.005ZM388.4 133.387C389.606 135.038 390.825 136.691 392.053 138.373C393.222 140.085 394.413 141.828 395.651 143.619C392.599 143.129 391.338 141.483 390.444 139.572C389.532 137.684 389.035 135.486 387.69 133.948L388.398 133.4L388.4 133.387ZM309.821 123.297C309.625 122.672 309.428 122.046 309.062 120.881C312.262 121.961 314.336 124.089 316.252 126.448C314.146 125.273 311.954 124.301 309.788 123.251L309.821 123.297ZM287.747 148.416L291.32 149.948C292.521 150.451 293.711 150.939 294.858 151.528L294.69 151.906C293.543 151.317 292.352 150.829 291.151 150.326L287.589 148.809L287.745 148.429L287.747 148.416ZM301.509 116.065L305.596 118.179L305.213 118.968L301.044 117.192L301.509 116.065ZM277.078 142.412L280.436 144.193L280.064 145.078L276.557 143.638L277.091 142.415L277.078 142.412ZM320.487 128.477C322.244 129.555 323.927 130.757 325.649 131.883L325.368 132.284C323.588 131.269 321.849 130.167 320.045 129.216L320.487 128.477ZM348.405 116.724C347.132 115.913 346.215 115.32 344.882 114.459C347.306 114.321 347.332 114.326 348.405 116.724ZM434.736 190.161C435.031 191.018 435.323 191.888 435.633 192.815C435.985 193.897 436.365 195.065 436.8 196.39C436.389 195.757 436.173 195.587 435.937 195.293C435.721 195.042 435.527 194.822 435.357 194.62C435.041 194.232 434.838 193.902 434.708 193.53C434.47 192.831 434.563 191.915 434.736 190.161ZM266.511 68.1825C268.886 68.6042 271.276 69.0148 273.626 69.5944L273.56 70.0022C271.198 69.4205 268.821 69.012 266.435 68.575L266.498 68.1804L266.511 68.1825ZM419.902 154.543C420.054 154.432 420.207 154.322 420.346 154.209C422.334 155.109 423.648 156.507 423.694 159.753C422.125 157.504 420.999 156.028 419.902 154.543ZM266.515 139.03C265.036 138.577 263.49 138.288 261.97 137.923L262.033 137.528C263.527 137.889 265.049 138.16 266.501 138.609L266.517 139.017L266.515 139.03ZM256.286 135.08C257.218 135.325 258.136 135.661 259.058 135.971C257.64 137.322 256.869 136.577 256.286 135.08ZM168.004 149.788L165.339 151.007L165.091 150.535L167.758 149.303L167.991 149.786L168.004 149.788ZM160.162 152.321L161.427 151.674L161.754 152.239L160.632 153.179L160.149 152.319L160.162 152.321ZM380.34 194.695C379.939 193.578 379.468 192.477 379.013 191.364L379.764 190.972C380.191 192.093 380.647 193.206 381.046 194.336L380.34 194.695ZM416.329 134.01L413.93 130.792L414.259 130.507L416.943 133.542L416.329 134.01ZM324.094 186.462L323.811 184.946C324.034 184.82 324.439 184.561 324.437 184.574C324.578 185.042 324.686 185.545 324.797 186.035L324.094 186.462ZM269.93 139.362L271.554 140.257L271.288 140.903L269.652 140.168L269.93 139.362ZM430.611 156.761C431.084 157.768 431.554 158.788 431.994 159.83L431.479 160.099C430.93 159.147 430.364 158.219 429.782 157.303L430.611 156.761ZM329.823 136.561L327.883 134.779L328.128 134.427L330.27 135.796L329.839 136.55L329.823 136.561ZM406.374 110.524C407.846 111.867 409.234 113.304 410.656 114.707L409.808 115.367C408.705 113.746 407.606 112.099 406.429 110.52L406.377 110.511L406.374 110.524ZM265.729 122.319L264.058 121.551L264.197 121.02L266.033 121.437L265.731 122.306L265.729 122.319ZM258.476 120.008L255.904 119.554L255.967 119.16L258.447 119.598L258.487 120.023L258.476 120.008ZM377.946 188.508L377.861 187.023C378.182 187.21 378.551 187.35 378.808 187.594C378.89 187.674 378.671 188.03 378.593 188.261L377.949 188.495L377.946 188.508ZM327.827 168.668C327.021 168.229 326.623 168.016 326.236 167.819L326.461 167.262C326.813 167.251 327.226 167.115 327.475 167.249C327.659 167.36 327.629 167.8 327.827 168.668ZM370.111 127.361L367.962 125.613L368.205 125.193L370.462 126.851L370.111 127.361ZM140.881 60.4179L144.08 60.5806L144.236 60.9564C143.175 61.2585 142.105 61.5322 141.054 61.8626L140.964 60.4043L140.898 60.3937L140.881 60.4179ZM299.049 78.4254L302.126 79.4321L302.014 79.7921L298.937 78.7853L299.049 78.4254ZM241.532 64.3212L238.251 64.078L238.257 63.6201L241.405 63.6801L241.532 64.3212ZM362.54 109.453C363.163 109.944 363.767 110.473 364.37 111.001L364.035 111.407C363.43 110.891 362.809 110.386 362.171 109.906L362.543 109.44L362.54 109.453ZM300.142 65.9023L302.797 66.7604L302.674 67.1051L300.019 66.247L300.128 65.9002L300.142 65.9023ZM297.467 153.688L299.022 154.423L298.881 154.711L297.326 153.975L297.467 153.688ZM423.666 144.877L422.399 143.271L422.685 143.006L424.041 144.56L423.666 144.877ZM426.022 148.697L427.221 150.306L426.959 150.507L425.749 148.882L426.011 148.681L426.022 148.697ZM327.875 93.5513L326.207 92.7574L326.359 92.4038L328.065 93.123L327.875 93.5513ZM352.465 111.02C352.097 110.624 351.696 110.262 351.31 109.89C351.874 110.075 352.442 110.234 352.991 110.43L352.452 111.018L352.465 111.02ZM377.124 134.114L377.349 134.811C377.06 134.765 376.729 134.806 376.481 134.672C376.393 134.631 376.471 134.225 376.483 133.984L377.128 134.087L377.124 134.114ZM296.596 114.049L298.074 114.597L297.971 114.904L296.506 114.358L296.61 114.051L296.596 114.049ZM151.73 162.398L150.802 162.964L150.555 162.654L151.365 161.894L151.73 162.398ZM323.026 164.362L321.884 163.572L322.113 163.244L323.267 164.037L323.026 164.362ZM329.823 140.178L329.069 139.072L329.448 138.647L330.422 139.559L329.836 140.18L329.823 140.178ZM356.015 164.395L355.031 163.467L355.257 163.153L356.402 163.917L356.031 164.384L356.015 164.395ZM233.014 114.949L231.681 114.843L231.672 114.396L233.058 114.335L233.003 114.934L233.014 114.949Z" fill="#E1E1E1"/>
</g>
</svg>
