<svg width="19" height="19" viewBox="0 0 19 19" fill="none" xmlns="http://www.w3.org/2000/svg">
<path d="M9.5 4.61429C8.82378 4.61429 8.18881 4.73766 7.59505 4.98442C7.0013 5.24762 6.4859 5.6013 6.04883 6.04545C5.61176 6.48961 5.26129 6.99956 4.9974 7.57532C4.75 8.16754 4.6263 8.80086 4.6263 9.47532C4.6263 10.1498 4.75 10.7831 4.9974 11.3753C5.26129 11.9675 5.61176 12.4857 6.04883 12.9299C6.4859 13.374 7.0013 13.7195 7.59505 13.9662C8.18881 14.2294 8.82378 14.361 9.5 14.361C10.1762 14.361 10.8112 14.2294 11.4049 13.9662C11.9987 13.7195 12.5141 13.374 12.9512 12.9299C13.3882 12.4857 13.7387 11.9675 14.0026 11.3753C14.25 10.7831 14.3737 10.1498 14.3737 9.47532C14.3737 8.80086 14.25 8.16754 14.0026 7.57532C13.7387 6.99956 13.3882 6.48961 12.9512 6.04545C12.5141 5.6013 11.9987 5.24762 11.4049 4.98442C10.8112 4.73766 10.1762 4.61429 9.5 4.61429ZM9.5 12.6338C8.62586 12.6338 7.87956 12.3253 7.26107 11.7084C6.64258 11.0916 6.33333 10.3472 6.33333 9.47532C6.33333 8.60346 6.64258 7.85909 7.26107 7.24221C7.87956 6.62532 8.62586 6.31688 9.5 6.31688C10.3741 6.31688 11.1204 6.62532 11.7389 7.24221C12.3574 7.85909 12.6667 8.60346 12.6667 9.47532C12.6667 10.3472 12.3574 11.0916 11.7389 11.7084C11.1204 12.3253 10.3741 12.6338 9.5 12.6338ZM15.7096 4.44156C15.7096 4.75411 15.5983 5.02143 15.3757 5.24351C15.153 5.46559 14.885 5.57662 14.5716 5.57662C14.2582 5.57662 13.9902 5.46559 13.7676 5.24351C13.5449 5.02143 13.4336 4.75411 13.4336 4.44156C13.4336 4.129 13.5449 3.86169 13.7676 3.63961C13.9902 3.41753 14.2582 3.30649 14.5716 3.30649C14.885 3.30649 15.153 3.41753 15.3757 3.63961C15.5983 3.86169 15.7096 4.129 15.7096 4.44156ZM18.5052 3.28182C18.2578 2.64026 17.895 2.08095 17.4167 1.6039C16.9384 1.12684 16.3859 0.764936 15.7591 0.518182H15.7344C15.388 0.38658 15.0211 0.279654 14.6335 0.197402C14.2459 0.115151 13.8459 0.0740257 13.4336 0.0740257H13.4089C12.9141 0.0411253 12.4605 0.020563 12.0482 0.0123374C11.6358 0.00411246 10.7865 0 9.5 0C8.21354 0 7.36415 0.00411246 6.95182 0.0123374C6.53949 0.020563 6.08594 0.0411253 5.59115 0.0740257C5.17882 0.0740257 4.77474 0.115151 4.37891 0.197402C3.98307 0.279654 3.60373 0.38658 3.24089 0.518182H3.29036C2.64713 0.764936 2.08637 1.12684 1.60807 1.6039C1.12977 2.08095 0.766928 2.63203 0.519531 3.25714L0.494792 3.28182C0.362847 3.62727 0.259766 3.99329 0.185547 4.37987C0.111328 4.76645 0.0659721 5.16537 0.0494794 5.57662C0.0329861 6.08658 0.0206165 6.54307 0.0123695 6.9461C0.00412317 7.34914 0 8.1922 0 9.47532C0 10.7749 0.00412317 11.6262 0.0123695 12.0292C0.0206165 12.4323 0.0329861 12.8887 0.0494794 13.3987C0.0659721 13.7935 0.111328 14.1842 0.185547 14.5708C0.259766 14.9574 0.362847 15.3316 0.494792 15.6935C0.758682 16.3351 1.12977 16.8944 1.60807 17.3714C2.08637 17.8485 2.63064 18.2104 3.24089 18.4571H3.29036C3.62023 18.6052 3.97895 18.7203 4.36654 18.8026C4.75413 18.8848 5.15408 18.9342 5.56641 18.9506H5.59115C6.10243 18.9671 6.56011 18.9794 6.96419 18.9877C7.36827 18.9959 8.21354 19 9.5 19C10.7865 19 11.6358 18.9959 12.0482 18.9877C12.4605 18.9794 12.9223 18.9671 13.4336 18.9506C13.8459 18.9342 14.25 18.889 14.6458 18.8149C15.0417 18.7409 15.421 18.6299 15.7839 18.4818L15.7344 18.5065C16.3776 18.2433 16.9384 17.8773 17.4167 17.4084C17.895 16.9396 18.2578 16.3926 18.5052 15.7675V15.7182C18.6536 15.3563 18.765 14.982 18.8392 14.5955C18.9134 14.2089 18.9505 13.8182 18.9505 13.4234C18.967 12.9134 18.9794 12.4569 18.9876 12.0539C18.9959 11.6509 19 10.8078 19 9.52468C19 8.24155 19 7.39437 19 6.98312C19 6.57186 18.9835 6.11948 18.9505 5.62597C18.9505 5.19827 18.9093 4.7829 18.8268 4.37987C18.7444 3.97684 18.6289 3.59437 18.4805 3.23247L18.5052 3.28182ZM17.2188 13.3247C17.2188 13.6372 17.1899 13.9457 17.1322 14.25C17.0744 14.5543 16.9878 14.8463 16.8724 15.126L16.8971 15.1013C16.7322 15.5126 16.4931 15.8745 16.1797 16.187C15.8663 16.4996 15.5117 16.7299 15.1159 16.8779L15.0911 16.9026C14.8273 17.0013 14.5469 17.0794 14.25 17.137C13.9531 17.1946 13.648 17.2234 13.3346 17.2234C12.8233 17.2398 12.3739 17.2522 11.9863 17.2604C11.5987 17.2686 10.7617 17.2727 9.47526 17.2727C8.1888 17.2727 7.35178 17.2727 6.96419 17.2727C6.5766 17.2727 6.12717 17.2563 5.61589 17.2234C5.28602 17.2234 4.97266 17.1946 4.67578 17.137C4.37891 17.0794 4.09028 16.9931 3.8099 16.8779L3.83464 16.9026C3.42231 16.7381 3.05946 16.4996 2.74609 16.187C2.43272 15.8745 2.19358 15.5208 2.02865 15.126V15.1013C1.92969 14.8381 1.85135 14.5584 1.79362 14.2623C1.73589 13.9662 1.70703 13.6619 1.70703 13.3493V13.3247C1.67405 12.8312 1.65755 12.387 1.65755 11.9922C1.65755 11.5974 1.65755 10.7667 1.65755 9.5C1.65755 8.21688 1.65755 7.38204 1.65755 6.99545C1.65755 6.60887 1.67405 6.16061 1.70703 5.65065C1.70703 5.32164 1.73589 5.00498 1.79362 4.70065C1.85135 4.39632 1.93793 4.10433 2.05339 3.82468L2.02865 3.87403C2.19358 3.44632 2.43272 3.07619 2.74609 2.76364C3.05946 2.45108 3.42231 2.22078 3.83464 2.07273C4.09853 1.97403 4.37891 1.89589 4.67578 1.83831C4.97266 1.78074 5.28602 1.74372 5.61589 1.72727C6.11068 1.71082 6.55599 1.69848 6.95182 1.69026C7.34766 1.68203 8.1888 1.67792 9.47526 1.67792C10.7617 1.67792 11.5987 1.68203 11.9863 1.69026C12.3739 1.69848 12.8233 1.71082 13.3346 1.72727C13.648 1.74372 13.9531 1.78074 14.25 1.83831C14.5469 1.89589 14.8355 1.97403 15.1159 2.07273H15.0911C15.5035 2.23723 15.8663 2.47164 16.1797 2.77597C16.4931 3.0803 16.7322 3.43809 16.8971 3.84935V3.87403C16.9961 4.12078 17.0744 4.39632 17.1322 4.70065C17.1899 5.00498 17.2188 5.31342 17.2188 5.62597C17.2352 6.11948 17.2476 6.56363 17.2559 6.95844C17.2641 7.35325 17.2682 8.1922 17.2682 9.47532C17.2682 10.7584 17.2682 11.5933 17.2682 11.9799C17.2682 12.3665 17.26 12.8147 17.2435 13.3247H17.2188Z" fill="white"/>
</svg>
