<svg width="72" height="147" viewBox="0 0 72 147" fill="none" xmlns="http://www.w3.org/2000/svg">
<path d="M3.45672 26.9666C3.45672 26.8171 3.45672 26.6675 3.53148 26.5928C4.35382 25.4714 4.80237 24.2005 4.80237 22.7801V22.2568C4.80237 21.9578 4.87713 21.8082 5.25093 21.7335C5.54996 21.7335 5.77424 21.883 5.92375 22.0325V22.1073C5.92375 21.9578 5.99851 21.883 6.14803 21.7335V21.6587C6.14803 21.4344 6.29755 21.2849 6.59658 21.2102C6.7461 21.1354 6.89561 21.0607 7.04513 21.0607C8.16651 21.1354 9.06361 21.584 9.96071 22.3315C11.9044 20.8364 14.0724 19.416 16.2404 17.9956C17.2123 17.4722 18.0346 16.7247 18.7075 15.7528C18.7075 15.6033 18.857 15.5285 19.156 15.5285H19.3803C19.3803 14.7809 19.3803 13.9586 19.3803 13.1362C18.9317 13.2858 18.4084 13.3605 17.8851 13.3605C16.8385 13.3605 15.8666 13.0615 15.0443 12.3887H14.8948C13.2501 11.1178 11.7549 9.84687 10.185 8.57598C10.185 8.57598 10.1102 8.57598 10.1102 8.50122C9.73644 7.97791 9.51216 7.4546 9.36265 6.85653C9.28789 6.70702 9.36265 6.5575 9.51216 6.40798C10.185 5.51088 11.1569 5.06233 12.4277 4.91281C12.7268 4.91281 13.0258 4.83805 13.2501 4.83805C15.9414 4.83805 18.1842 5.80991 19.9784 7.75363V7.52936C19.9784 7.15556 19.9036 6.78177 19.7541 6.33322C19.3803 5.43612 19.0065 4.53901 18.7822 3.56716C18.6327 3.49239 18.4832 3.34288 18.4832 3.1186V2.81957C18.4084 2.67005 18.4832 2.44578 18.7075 2.29626C18.7075 2.2215 18.857 2.2215 19.156 2.2215L19.2308 2.29626C19.2308 2.29626 19.3055 2.29626 19.3803 2.2215C19.455 2.14674 19.6793 2.07198 19.8288 1.99723C19.9784 1.77295 20.1279 1.54868 20.2774 1.39916C20.4269 1.3244 20.5764 1.3244 20.8007 1.39916C21.6978 1.84771 22.5949 2.07198 23.6415 2.07198H23.8658C25.7348 2.96909 27.3795 4.16522 28.7251 5.58564C28.7251 5.6604 28.7999 5.73515 28.7999 5.73515C28.9494 6.1837 28.9494 6.48274 28.9494 6.85653C28.9494 8.3517 28.4261 9.6226 27.4542 10.744H27.6785C27.7532 10.5945 27.828 10.5197 27.9775 10.3702C27.9775 10.2954 28.0523 10.2207 28.2018 10.1459C29.4727 9.77212 30.8931 9.47308 32.3883 9.2488C37.8456 7.4546 43.2283 5.21184 48.3866 2.59529C48.3866 2.44578 48.5361 2.29626 48.7604 2.2215C48.6856 2.14674 48.6856 1.99723 48.6109 1.84771C48.5361 1.69819 48.6109 1.47392 48.7604 1.3244C48.8352 1.17488 48.9847 1.10012 49.2089 1.17488C49.4332 1.3244 49.7323 1.3244 50.106 1.3244C50.5546 1.3244 51.0032 1.10012 51.3022 0.726329C51.5265 0.651571 51.7507 0.576814 51.975 0.651571C52.9469 1.02536 53.9187 1.47392 54.8906 2.07198V2.2215C56.2363 3.1186 57.2829 4.23998 58.18 5.43612C58.2547 5.6604 58.18 5.80991 58.0305 5.95943C57.3576 6.78177 56.5353 7.30508 55.5634 7.52936C56.9838 8.42646 58.3295 9.39832 59.6004 10.4449C59.6004 10.5197 59.6751 10.5197 59.7499 10.5197C59.8994 10.8187 59.9742 11.1178 59.9742 11.4916C59.9742 11.8654 59.8247 12.2391 59.5256 12.4634C59.3761 12.6129 59.2266 12.6129 59.1518 12.5382C58.0305 12.7625 56.9091 12.9867 55.9372 13.211C56.61 13.8838 57.0586 14.7062 57.2081 15.678H57.9557C57.8809 15.678 57.9557 15.6033 58.0305 15.5285C58.1052 15.379 58.2547 15.2295 58.479 15.2295C58.5538 15.2295 58.7033 15.3042 58.8528 15.3042V15.2295C59.0023 15.1547 59.1518 15.1547 59.3761 15.1547C61.9179 15.678 64.2354 16.7247 66.2539 18.3693C67.2258 18.9674 67.8986 19.7898 68.2724 20.7616C68.2724 20.9859 68.2724 21.1354 68.1229 21.2102C67.5248 21.7335 67.0015 22.2568 66.4782 22.7801C66.3286 22.8549 66.1791 22.9296 66.1044 22.8549C62.9645 22.5558 59.9742 22.182 56.9838 21.8082C56.9838 22.0325 56.9838 22.2568 56.8343 22.4063C56.9838 23.6024 57.0586 24.7238 57.0586 25.8452C57.0586 28.1627 56.8343 30.4802 56.4605 32.723V32.8725C56.012 34.2929 55.1149 35.19 53.6197 35.4891C53.3207 35.7881 52.9469 36.0124 52.6478 36.1619C52.5731 36.2366 52.4236 36.2366 52.3488 36.2366C51.3022 36.0124 50.4051 35.4891 49.7323 34.7415C46.3681 32.7977 43.5273 30.3307 41.0603 27.4151C40.6117 27.9384 40.0884 28.2375 39.5651 28.4618C40.9107 29.1346 42.1069 29.8822 43.2283 30.7045C43.7516 30.7045 44.2001 30.9288 44.4244 31.3773C45.471 31.8259 46.1438 32.5735 46.5176 33.6201C46.5176 33.9191 46.4429 34.1434 46.2934 34.2182C45.0972 34.8162 43.9011 35.2648 42.6302 35.6386C43.6768 35.9376 44.6487 36.4609 45.5458 36.9842C46.1438 37.1337 46.7419 37.2085 47.4147 37.1337C48.0876 37.2085 48.7604 37.1337 49.4332 36.9842H49.508C53.0216 37.8066 56.1615 39.4513 58.9276 41.8435C61.0208 43.4135 62.6655 45.2824 63.7869 47.5999C64.1607 48.0485 64.5344 48.497 64.8335 49.0203C64.9082 49.2446 64.8335 49.4689 64.684 49.6184C64.1607 49.9922 63.7121 50.2912 63.1888 50.5155C62.8898 51.0388 62.7402 51.5621 62.7402 52.0854C62.6655 52.3097 62.7402 52.4592 62.8898 52.534C62.815 52.6088 62.7402 52.6835 62.7402 52.6835C61.8431 55.2253 61.0208 57.6176 60.1985 60.0846C59.8247 61.1312 59.3014 62.1779 58.8528 63.075C58.0305 65.0187 57.0586 66.8876 56.012 68.6071C55.9372 68.6818 55.9372 68.6818 55.9372 68.7566C54.8906 69.7285 53.6945 70.2518 52.4236 70.5508H52.1993C51.1527 70.4013 50.4798 69.878 50.106 68.9809C48.8352 68.009 47.4147 67.5605 45.8448 67.5605C45.2467 67.5605 44.5739 67.6352 44.0506 67.71H43.9011C40.836 68.009 37.7709 68.2333 34.7058 68.3828C32.6873 68.5323 30.7436 68.6819 28.7251 68.8314C28.3513 70.2518 27.529 71.2236 26.1833 71.6722C25.8843 71.8965 25.5852 72.046 25.2862 72.046C25.0619 72.046 24.9124 71.9712 24.7629 71.8965C24.6134 71.8965 24.5386 71.8217 24.5386 71.6722C24.0901 71.1489 23.5668 70.7751 22.8939 70.5508H22.7444C19.8288 68.6071 17.3618 66.1401 15.4181 63.1497C15.3433 63.075 15.3433 62.9254 15.4181 62.7012C15.4928 62.4769 15.7171 62.4021 16.0162 62.3274V62.4769C16.0162 62.4769 16.0909 62.4021 16.2404 62.3274C16.3152 62.3274 16.3899 62.3274 16.4647 62.2526C14.4462 58.0661 12.7268 53.7301 11.2316 49.3194C9.4374 48.3475 8.16651 46.8523 7.49368 44.9086C7.41892 44.6844 7.49368 44.4601 7.71796 44.3106H7.94223C8.01699 44.3106 8.16651 44.2358 8.31603 44.0863C8.24127 44.0115 8.31603 43.862 8.39078 43.7125C8.46554 43.7125 8.61506 43.7125 8.68982 43.563V43.4882C8.68982 43.3387 8.76458 43.1892 8.91409 43.0397C9.06361 43.0397 9.21313 43.0397 9.36265 43.0397C9.96071 43.3387 10.484 43.4135 11.0821 43.3387H11.4559C11.5306 43.3387 11.6802 43.4135 11.7549 43.4882C12.8015 44.0115 13.9229 44.3853 15.1191 44.4601H15.2686C16.2404 44.9086 17.2871 45.5067 18.2589 46.03C18.7822 45.9552 19.156 45.8057 19.3803 45.5067C19.5298 45.2824 19.6793 45.0581 19.7541 45.0581C21.1745 44.3106 22.5202 43.563 23.8658 42.8154C22.8192 41.7688 21.8473 40.5726 21.025 39.3017C20.8755 39.0027 20.9502 38.8532 21.1745 38.7037C21.324 38.4794 21.4735 38.4046 21.623 38.4794C21.7726 38.5542 21.8473 38.5542 21.9221 38.4794C21.9221 38.4046 21.9968 38.3299 22.1464 38.2551C22.5949 38.0308 23.193 37.9561 23.791 37.8813C24.2396 37.9561 24.6881 37.9561 25.2115 38.0308C26.7066 38.5542 28.2018 39.3017 29.4727 40.2736C29.5475 40.4231 29.6222 40.4231 29.697 40.4231C32.3135 39.3017 34.9301 38.4046 37.7709 37.8813C37.6214 37.8813 37.6214 37.8066 37.6214 37.657C37.0233 37.8066 36.5 37.8813 35.9767 37.8813C33.5097 38.4046 31.0426 38.7037 28.5756 38.7037H28.4261C26.4824 38.2551 24.9124 37.2833 23.791 35.7133C23.5668 36.3114 23.193 36.7599 22.6697 37.1337C22.5949 37.2833 22.5201 37.358 22.5201 37.358C22.4454 37.5823 22.2211 37.657 22.0716 37.5075C20.3522 36.9842 19.3803 35.8628 19.2308 34.1434C19.0065 32.723 18.9317 31.3026 19.0065 29.8822V25.3219C19.0065 23.6024 19.0813 21.8082 19.3803 20.014V18.9674C19.2308 19.1917 19.0813 19.3412 19.0065 19.4907C15.7919 23.6772 12.8015 27.9384 9.96071 32.1997V32.3492C9.36265 32.7977 8.68982 33.0968 7.94223 33.0968H7.71796C5.17617 31.8259 3.75575 29.7326 3.45672 26.9666ZM32.8368 46.4038V46.5533C32.8368 47.1514 32.8368 47.6747 32.9116 48.198H33.0611C33.2854 48.198 33.5097 48.1232 33.7339 47.9737C34.631 47.3009 35.4534 46.4786 36.0514 45.5067C34.9301 45.8057 33.8834 46.1048 32.8368 46.4038ZM49.2089 50.2912C47.0409 51.7864 44.6487 52.534 42.0321 52.534C43.0787 53.0573 44.0506 53.5806 44.9477 54.2534C45.9943 54.8515 46.6672 55.7486 46.9662 56.9448V57.3185C46.8914 57.3185 46.8167 57.3933 46.8167 57.3933C47.041 57.3185 47.34 57.2438 47.5643 57.169C49.0594 54.9263 50.3303 52.534 51.3022 49.9174C51.6012 48.497 52.0498 47.0019 52.5731 45.5067C51.5265 44.5348 50.2556 44.0115 48.8352 44.0115C48.4614 44.0115 48.0876 44.0115 47.7885 44.0863H47.5643C47.0409 44.0115 46.5176 44.0115 46.0691 43.9368C45.6953 43.9368 45.3963 43.9368 45.172 44.0115C44.6487 44.5348 44.4244 45.2077 44.4244 45.9552C45.0225 46.2543 45.6205 46.4038 46.2934 46.329C46.3681 46.329 46.4429 46.4038 46.5924 46.4038C47.7138 47.3009 48.6856 48.3475 49.3585 49.4689C49.4332 49.8427 49.3585 50.067 49.2089 50.2912ZM40.4622 60.1594C39.8641 60.1594 39.2661 60.1594 38.668 60.0846C38.0699 60.1594 37.4719 60.1594 36.9485 60.1594C34.5563 60.5332 32.164 60.907 29.7717 61.206C29.3232 61.3555 28.7999 61.4303 28.3513 61.4303C27.3047 61.4303 26.4076 61.1312 25.66 60.5332C25.5852 60.5332 25.5105 60.4584 25.5105 60.3836C24.9124 59.4118 24.2396 58.5147 23.5668 57.6923C23.4173 57.6176 23.4173 57.5428 23.4173 57.3933V56.9448C23.4173 56.7205 23.5668 56.4962 23.791 56.4214C23.9406 56.3467 24.0901 56.4214 24.3144 56.4962C24.2396 56.571 24.3144 56.6457 24.3891 56.6457C24.6134 56.2719 24.9872 56.0477 25.5105 55.9729C25.7348 56.0477 25.959 56.1224 26.1833 56.1972C29.0989 55.8234 31.865 55.1505 34.7058 54.1787C35.4534 53.8049 36.2757 53.5059 37.1728 53.1321H36.6495C34.1825 53.8049 31.7155 54.403 29.2484 54.9263C28.6503 55.0758 28.0523 55.1505 27.4542 55.1505C26.2581 55.1505 25.2862 54.8515 24.3891 54.1039C24.3144 54.0292 24.2396 53.9544 24.1648 53.8797C23.6415 53.0573 23.4173 52.1602 23.3425 51.2631C23.3425 51.1136 23.3425 50.9641 23.4173 50.8893C23.492 50.8146 23.6415 50.8146 23.8658 50.8146H24.6134C25.0619 50.8893 25.5105 50.8146 25.8843 50.7398C25.959 50.665 26.0338 50.5903 26.1833 50.5155C25.959 49.9922 25.8095 49.3941 25.66 48.8708C25.1367 49.0951 24.5386 49.2446 23.9406 49.3941H23.8658C23.2677 49.5437 22.7444 49.7679 22.3706 50.067C21.7726 51.0388 21.5483 52.0107 21.623 52.9826C21.5483 53.5059 21.5483 53.8797 21.6978 54.2534V54.4777C21.623 55.0758 21.623 55.5991 21.623 56.0476C21.5483 58.4399 22.2959 60.5332 23.791 62.3274C31.1174 61.8788 38.4437 61.0565 45.7701 59.8603C46.1438 59.337 46.5176 58.8885 46.8167 58.2904C46.6672 58.2156 46.5924 57.9914 46.5924 57.7671C46.5924 57.6923 46.6672 57.6176 46.7419 57.5428C46.2934 58.3652 45.6205 58.739 44.7982 58.739C43.3778 59.337 42.0321 59.7856 40.6865 60.1594C40.537 60.2341 40.4622 60.2341 40.4622 60.1594ZM49.8818 25.92C50.2556 25.2471 50.4798 24.4248 50.5546 23.6024C50.4798 23.0044 50.3303 22.4811 50.1808 21.883C47.1905 21.9578 44.2749 22.182 41.4341 22.5558C41.7331 23.6772 41.8078 24.7986 41.8078 25.8452C41.9574 25.8452 42.0321 25.8452 42.0321 25.92C43.004 26.8918 44.2001 27.4151 45.6205 27.4151C47.1905 27.3404 48.6109 26.8171 49.8818 25.92ZM50.1808 16.4256C50.106 16.2013 50.106 15.9771 50.106 15.678C50.106 15.5285 50.106 15.3042 50.1808 15.08C48.8352 15.678 47.5643 16.3509 46.2934 17.0237C47.5643 16.8742 48.9099 16.6499 50.1808 16.4256ZM52.1993 7.52936C49.4332 7.97791 46.7419 8.50122 44.1254 9.2488C45.3215 10.2207 46.5176 11.2673 47.639 12.3887C48.6856 11.9401 49.6575 11.2673 50.5546 10.4449C50.1808 9.92163 49.6575 9.47308 49.2089 9.02453C48.9847 8.87501 48.9847 8.7255 49.0594 8.50122C49.1342 8.3517 49.2837 8.20218 49.508 8.20218C49.8818 8.3517 50.3303 8.3517 50.7041 8.3517C51.7507 8.3517 52.7226 8.12743 53.6945 7.75363C53.1712 7.75363 52.6478 7.67888 52.1993 7.52936ZM27.529 21.7335C27.4542 21.883 27.3795 21.9578 27.4542 22.0325C29.5475 21.584 31.5659 20.8364 33.5097 19.7898C33.2854 19.2664 33.1359 18.8179 33.1359 18.2198V17.9208C33.2106 17.6965 33.3601 17.547 33.5844 17.3975C33.7339 17.3975 33.8834 17.3975 33.9582 17.547C34.033 17.3975 34.1825 17.3975 34.4068 17.3975C35.1543 17.7713 35.9767 17.9956 36.9485 17.9956C39.1165 17.1732 41.2098 16.1266 43.2283 14.8557C42.1069 14.0334 40.9107 13.211 39.5651 12.3887C39.4903 12.3887 39.4156 12.3139 39.3408 12.1644C39.0418 11.342 38.369 10.8935 37.5466 10.8187H36.8738C36.201 11.043 35.5281 11.2673 34.8553 11.4168C34.9301 11.5663 35.0048 11.6411 35.0796 11.6411C35.2291 11.6411 35.3039 11.6411 35.3039 11.5663C35.6029 11.4916 35.8272 11.4916 35.9767 11.6411C36.4252 12.2391 36.8738 12.7625 37.3971 13.3605C37.7709 13.8091 38.1447 14.4071 38.5932 14.9305C38.668 15.1547 38.5932 15.3042 38.4437 15.4538C38.1447 16.0518 37.7709 16.5004 37.3971 16.8742C37.2476 17.0237 37.0233 17.0985 36.8738 17.0985C36.6495 17.0237 36.4252 17.0237 36.201 17.0237C35.9019 17.0237 35.5281 17.0985 35.2291 17.248C35.0796 17.3227 34.9301 17.3227 34.8553 17.248C32.0145 15.9023 29.5475 14.1081 27.4542 11.8654C27.3795 15.2295 27.4542 18.4441 27.529 21.6587V21.7335ZM25.4357 31.6764C25.2862 32.0502 25.1367 32.424 25.0619 32.723C28.5008 32.4987 31.7154 31.4521 34.7058 29.6579C35.3786 29.2841 36.201 29.0598 37.0981 28.8355C37.0981 28.686 37.1728 28.686 37.3223 28.8355H37.6961C37.7709 28.9103 37.9204 28.8355 38.0699 28.686C36.0514 27.9384 34.9301 26.5928 34.4815 24.4995C31.865 25.3219 29.3979 26.2938 26.9309 27.3404C26.6319 28.9103 26.1086 30.3307 25.4357 31.6764Z" fill="white"/>
<path d="M1.66252 104.91C1.73727 104.91 1.81203 104.91 1.88679 104.836C4.35382 103.565 6.14803 102.593 7.41892 101.995C8.61506 101.322 9.28789 101.023 9.4374 100.948C9.96071 100.873 10.5588 100.799 11.2316 100.724C13.3996 100.873 15.0443 101.845 16.1657 103.639C16.5395 103.938 16.988 104.312 17.4366 104.836C17.5113 105.06 17.5113 105.209 17.4366 105.359C16.0162 107.676 14.0724 109.246 11.6054 110.069C10.2597 110.891 8.83934 111.265 7.26941 111.265C5.84899 111.265 4.5781 110.891 3.45672 110.143C2.18583 109.321 1.43824 108.05 1.28872 106.48C1.28872 106.181 1.21396 105.882 1.13921 105.583C1.13921 105.284 1.28872 105.135 1.43824 104.985C1.513 104.985 1.58776 104.985 1.66252 104.91ZM25.8843 139.524V139.15C24.5386 137.43 23.6415 135.487 23.2677 133.319C23.2677 133.169 23.3425 133.02 23.492 132.945C23.5668 132.87 23.791 132.795 24.0153 132.87H24.0901C24.0153 132.496 23.9406 132.197 24.0153 131.749V131.599C24.1648 131.375 24.2396 131.076 24.2396 130.702V130.104C23.492 124.721 22.9687 119.339 22.6697 113.956C21.6978 113.134 20.8755 112.237 20.0531 111.265C18.6327 116.124 17.2123 120.983 15.7919 125.768C14.1472 130.328 12.5025 134.888 10.7083 139.299C10.0355 141.019 9.21313 142.663 8.24127 144.159C8.01699 144.981 7.6432 145.579 6.97037 145.953H6.7461C3.90527 145.13 1.88679 143.486 0.690655 140.794C0.541138 140.794 0.541138 140.794 0.541138 140.72V139.897C0.541138 139 0.690655 138.103 1.13921 137.281C1.58776 136.085 1.81203 134.814 1.88679 133.543C1.81203 133.319 1.81203 133.094 1.81203 132.87C1.81203 132.646 1.96155 132.421 2.18583 132.347C2.70914 132.197 3.15769 132.122 3.75575 132.122C4.27906 132.122 4.87713 132.197 5.4752 132.347C8.61506 128.085 11.4559 123.6 14.0724 118.815V118.741C16.2404 115.975 17.9599 112.984 19.3055 109.695C19.3055 109.695 19.3055 109.62 19.3803 109.545C19.455 109.396 19.6793 109.246 19.8288 109.246C19.7541 109.097 19.7541 109.022 19.8288 108.873C19.8288 108.648 19.9036 108.573 20.1279 108.573C20.4269 108.424 20.6512 108.349 20.8755 108.125C20.9502 108.05 21.025 108.05 21.0997 108.05C21.3988 107.975 21.6978 107.901 22.1464 107.901C23.8658 107.975 25.5105 108.349 27.0804 109.246H27.2299C30.3698 105.957 33.8087 102.892 37.4719 100.051C37.3971 94.9674 37.5466 89.9586 37.8456 84.875C36.8738 83.7536 36.0514 82.5575 35.3786 81.2866C35.3039 81.0623 35.3786 80.8381 35.5281 80.6885C36.4252 80.0157 37.2476 79.3429 38.0699 78.6701C38.8175 78.072 39.7146 77.7729 40.836 77.7729C41.135 77.7729 41.5088 77.8477 41.9574 77.9972H42.0321C45.5458 79.4924 48.5361 81.8099 51.0032 84.875V85.174C51.3022 85.8469 51.4517 86.4449 51.4517 87.1178C51.4517 88.2392 51.0779 89.2858 50.3303 90.1829C50.1808 91.7528 49.9565 93.248 49.807 94.7431C51.6012 94.7431 53.5449 94.6684 55.4887 94.5189C55.4887 94.5189 55.5634 94.5936 55.6382 94.5936C61.3946 97.2849 66.4782 100.948 70.8889 105.658C70.8889 105.733 70.9637 105.807 71.0384 105.807C71.487 107.602 71.786 109.471 71.8608 111.34C71.8608 112.087 71.786 112.835 71.7113 113.508C71.4122 115.227 71.2627 116.946 71.0384 118.666C70.6646 123.45 70.2909 128.235 69.9171 132.945C69.4685 136.458 68.0481 139.449 65.6558 141.916C64.8335 143.785 63.7121 145.28 62.1422 146.401C62.0674 146.476 61.9927 146.551 61.9179 146.551H61.8431C59.0771 146.327 57.0586 145.056 55.7877 142.663H44.873C42.3312 142.663 39.7894 142.888 37.3971 143.486H37.2476C37.0233 143.336 36.8738 143.336 36.7243 143.336C35.6029 143.486 34.8553 144.009 34.4068 144.906C34.332 145.056 34.2572 145.13 34.1825 145.13C33.7339 145.355 33.2854 145.504 32.9116 145.429C32.6125 145.429 32.3883 145.429 32.164 145.355C32.164 145.355 32.0892 145.28 32.0892 145.205C29.6222 143.785 27.529 141.916 25.8843 139.524ZM48.9847 104.237V111.041C49.807 111.489 50.7041 111.863 51.7507 112.012C55.0401 113.283 57.2829 115.676 58.4042 119.04C58.4042 119.189 58.4042 119.339 58.4042 119.413C57.7314 120.61 56.8343 121.656 55.8625 122.479C55.7129 122.553 55.7129 122.553 55.6382 122.553C53.4702 123.301 51.4517 124.198 49.4332 125.319C49.3585 127.712 49.3585 130.029 49.2837 132.272H53.0216C53.4702 132.272 53.9187 132.272 54.442 132.122C54.8158 132.272 55.1896 132.272 55.5634 132.272C57.8062 128.684 58.8528 124.721 58.8528 120.385V119.264C58.9276 117.171 59.0023 115.077 59.0023 112.984C59.0023 111.041 58.9276 109.022 58.8528 106.929C57.5819 106.181 56.4605 105.209 55.4887 104.088C54.442 103.938 53.4702 103.789 52.5731 103.714C51.3769 103.714 50.1808 103.938 48.9847 104.237ZM37.7709 132.87V127.114C37.3971 127.263 37.0233 127.263 36.7243 127.263C36.0514 127.263 35.5281 127.114 34.9301 126.964C33.2106 126.441 31.7902 125.469 30.5941 124.048C30.6688 125.17 30.6688 126.366 30.6688 127.487C31.0426 129.88 31.5659 132.197 32.164 134.365H32.3883C32.9863 134.365 33.5844 134.29 34.1825 133.991H34.9301C36.0514 133.991 36.9485 133.618 37.7709 132.87ZM30.6688 116.797C30.5193 118.143 30.4446 119.413 30.4446 120.759C30.5193 120.684 30.5941 120.61 30.6688 120.46C30.6688 120.385 30.7436 120.385 30.8183 120.385C33.1359 119.264 35.3786 117.993 37.6214 116.573C37.6961 115.75 37.7709 114.928 37.7709 114.106C37.6961 112.536 37.6214 110.891 37.6214 109.246C36.3505 109.77 35.2291 110.517 34.2572 111.489C32.9863 113.283 31.865 115.077 30.6688 116.797ZM8.83934 92.2013C8.83934 92.0518 8.91409 91.9023 9.06361 91.678C9.8112 90.9305 10.1102 89.9586 10.1102 88.8372C8.61506 87.6411 7.41892 86.2954 6.44706 84.6507C6.29755 84.6507 6.29755 84.576 6.3723 84.5012V83.7536C6.22279 83.7536 6.22279 83.6789 6.22279 83.6041C5.99851 83.3798 6.07327 83.1556 6.3723 82.9313C7.11989 82.3332 8.01699 81.8099 8.98885 81.2866H9.28789C13.7734 82.2585 17.2871 84.6507 19.8288 88.4634C20.4269 89.3605 20.7259 90.3324 20.8007 91.379V91.5285C20.7259 91.8276 20.6512 92.0518 20.4269 92.1266C19.0065 92.2761 17.6608 92.4256 16.3152 92.6499C16.2404 92.6499 16.1657 92.5751 16.1657 92.5004C15.1938 92.2761 14.2967 92.2014 13.3248 92.1266C12.353 92.2014 11.3811 92.3509 10.484 92.7247H10.1102C9.73644 92.7994 9.43741 92.7247 9.21313 92.5004C9.06361 92.4256 8.9141 92.2761 8.83934 92.2013Z" fill="white"/>
</svg>
