<svg width="73" height="147" viewBox="0 0 73 147" fill="none" xmlns="http://www.w3.org/2000/svg">
<path d="M69.5713 50.7394C71.1412 51.6365 72.1131 52.9821 72.4869 54.7016C72.5616 55.0006 72.4869 55.1501 72.2626 55.2249C71.2907 55.823 70.3189 56.122 69.347 56.122C68.0014 56.6453 66.6557 56.8696 65.3101 56.7948C62.6935 56.7201 60.376 55.8977 58.2828 54.253C55.2924 52.0103 52.6759 49.319 50.5826 46.2539C50.5826 51.6365 50.6574 56.9443 50.9564 62.1027V62.2522C50.6574 63.2241 50.2836 64.1212 49.9098 65.0183C49.0127 66.8872 47.7418 68.3076 45.9476 69.3543C45.499 70.1018 44.8262 70.4756 44.0039 70.5504H43.9291C43.5553 70.5504 43.1815 70.4009 42.8825 70.1766C42.733 70.1766 42.6582 70.1018 42.6582 70.1018C40.1164 67.6348 37.7242 65.1678 35.4814 62.7008C33.4629 60.5328 31.8182 58.2152 30.4726 55.5987C30.3231 55.5239 30.3231 55.4492 30.4726 55.2997C30.4726 55.2249 30.5473 55.1501 30.6221 55.0754C30.7716 54.9259 30.8464 54.7763 31.0707 54.7016C31.2202 54.7763 31.3697 54.8511 31.5192 54.9259C32.1173 55.7482 32.8649 56.3463 33.8367 56.7201C34.36 56.7948 34.8833 57.0191 35.4066 57.2434C35.8552 57.1686 36.3037 57.1686 36.8271 57.1686C37.4251 57.2434 38.0232 57.3181 38.696 57.3929C39.4436 57.0191 40.1164 56.5706 40.7893 55.8977C40.7145 55.3744 40.9388 54.8511 41.4621 54.4026C41.3126 51.1879 41.1631 48.0481 41.0135 44.8335C39.1446 46.8519 37.2756 48.8704 35.4066 50.8141C35.3319 50.8889 35.2571 50.8889 35.2571 50.9637C33.1639 52.5336 31.0707 53.8045 28.8279 54.9259L28.6784 55.0754C27.4075 55.2997 26.2113 55.7482 25.1647 56.3463C24.9404 56.421 24.7162 56.3463 24.5667 56.122C24.4171 55.9725 24.1929 55.8977 23.8938 55.823C23.0715 55.9725 22.2491 55.9725 21.352 55.8977C19.9316 55.9725 18.4365 55.823 17.0908 55.4492C15.9694 55.4492 14.848 55.2997 13.8762 55.1501C13.0538 54.9259 12.4558 54.4026 12.1567 53.5802H12.082V53.2064C12.0072 52.9821 12.082 52.7579 12.381 52.6083C13.2034 52.4588 13.9509 52.0103 14.6238 51.4122H14.7733C16.8665 50.2908 18.8102 48.9452 20.6792 47.5248C21.053 47.3005 21.4268 47.0015 21.7258 46.6277C21.8006 46.5529 21.8753 46.4781 22.0996 46.4034C22.1744 46.5529 22.2491 46.5529 22.3239 46.4781C22.7725 46.4781 23.221 46.3286 23.5948 46.0296C27.557 43.7121 31.0707 40.7965 34.2105 37.3576C32.4163 37.9557 30.6969 38.7033 29.1269 39.6004C29.0522 39.6751 29.0522 39.7499 29.0522 39.7499C28.5289 39.8994 27.9308 39.9742 27.4075 39.9742C26.2861 39.9742 25.2395 39.6004 24.3424 38.8528H24.1929C24.7162 39.4508 25.09 40.1237 25.1647 40.8713V41.0208C24.9404 42.2917 24.3424 43.2635 23.3705 44.0111H23.221C19.7074 45.282 16.2685 46.7024 12.9043 48.1976C12.5305 49.7675 11.6334 51.0384 10.2878 52.0103C10.1383 52.085 9.98874 52.085 9.83922 52.085C8.04502 51.487 6.9984 50.2908 6.54985 48.4966C6.17606 47.6743 6.02654 46.8519 6.02654 45.8801C5.42847 42.6655 4.53137 39.4508 3.33523 36.3857C2.51289 35.6382 1.69054 34.8906 1.01772 34.143C0.868199 34.143 0.79344 34.0682 0.79344 33.844C0.643923 33.3954 0.643923 32.9469 0.643923 32.4983C0.643923 32.1245 0.643923 31.676 0.79344 31.1526V30.8536C0.718682 30.4051 0.942958 30.0313 1.46627 29.807H1.69054C1.61578 29.6575 1.69054 29.508 1.7653 29.3584C2.6624 28.5361 3.70902 28.0875 4.90516 28.0128C5.35371 28.0875 5.80226 28.1623 6.32557 28.1623C9.76447 26.2186 13.3529 24.8729 17.2403 24.1253C17.4646 24.1253 17.7636 23.9758 18.0627 23.7515C18.2122 23.602 18.2869 23.602 18.4365 23.602C19.8569 24.0506 21.2773 24.2749 22.7724 24.3496C22.7724 24.4244 22.7725 24.4991 22.922 24.4991C25.0152 25.8448 26.8842 27.34 28.6784 29.1342C32.6406 28.1623 36.528 26.9662 40.3407 25.6205C40.1912 24.7234 40.1164 23.8263 40.1164 22.9292C38.9951 23.5273 37.8737 23.8263 36.6775 23.8263H35.93C35.7804 23.8263 35.7057 23.7515 35.7057 23.7515C34.2853 23.004 32.9396 22.2564 31.594 21.5088C29.725 20.6117 28.4541 19.1165 27.9308 17.1728C27.856 16.8738 27.856 16.6495 27.856 16.3505C27.7813 15.7524 28.0055 15.2291 28.4541 14.7058C28.4541 14.631 28.6036 14.5563 28.8279 14.5563C29.2764 14.4067 29.725 14.332 30.2483 14.332C30.5473 14.1825 30.7716 14.1077 31.1454 14.1077C31.4444 14.1077 31.8182 14.1825 32.192 14.332H32.4163C32.9396 14.7058 33.6124 15.0048 34.36 15.0796H34.8833C36.528 15.0796 38.1727 14.93 39.8922 14.631C40.0417 12.3883 40.1164 10.1455 40.1164 7.90274V7.22991C39.3688 6.25805 38.696 5.13667 38.2475 3.94054C38.2475 3.79102 38.2475 3.6415 38.3222 3.41723C38.4717 3.34247 38.6213 3.26771 38.9203 3.34247C38.9203 3.26771 38.9951 3.26771 39.0698 3.11819C39.2193 2.96868 39.2941 2.66964 39.2941 2.29585C39.3688 2.14633 39.5184 1.99681 39.7426 1.92206C40.1912 1.8473 40.4902 1.62302 40.7145 1.17447C40.9388 0.950195 41.1631 0.875438 41.4621 1.09971C41.5368 1.24923 41.6864 1.32399 41.9854 1.32399C42.2097 1.24923 42.3592 1.24923 42.5087 1.17447C42.6582 1.09971 42.733 1.02495 42.733 0.950195H43.1815C43.7048 1.02495 44.2282 1.32399 44.6767 1.77254C46.6952 3.04343 48.5641 4.5386 50.3584 6.25805C50.4331 6.40757 50.4331 6.55708 50.5079 6.63185C50.5079 7.22991 50.5079 7.75322 50.5826 8.27653C50.5826 8.57557 50.5079 8.8746 50.5079 9.02412V9.7717C50.5079 9.99598 50.4331 10.1455 50.3584 10.295C50.2836 10.3698 50.2088 10.3698 50.1341 10.3698H50.4331C50.5079 10.295 50.5826 10.1455 50.7321 10.0707C50.8817 9.84646 51.1059 9.7717 51.4797 9.7717C51.5545 9.7717 51.7788 9.84646 51.9283 9.92122C51.9283 9.84646 52.003 9.84646 52.003 9.7717C52.2273 9.54743 52.4516 9.47267 52.7506 9.47267C52.8254 9.47267 52.9749 9.54743 53.0497 9.54743H53.1992C53.7225 9.62219 54.2458 9.77171 54.6943 10.1455C57.2361 11.0426 59.2546 12.5378 60.8993 14.631C60.8993 14.7058 60.8993 14.8553 60.9741 14.93V15.3786C60.9741 16.3505 60.675 17.098 59.9274 17.6961C57.9837 18.668 55.9652 19.1913 53.872 19.266C52.5264 19.4903 51.3302 19.8641 50.1341 20.2379C50.1341 21.5088 50.0593 22.7797 49.9846 24.0506C51.2555 24.0506 52.5264 23.9758 53.7972 23.9758C55.5167 23.8263 57.1614 23.6768 58.8808 23.5273V23.004C58.8808 22.8545 58.9556 22.7049 59.1051 22.5554C59.1799 22.5554 59.3294 22.5554 59.4789 22.4807C59.5537 22.2564 59.7032 22.1816 59.9274 22.1069H60.0022C60.077 22.1069 60.1517 22.0321 60.1517 21.9573C60.1517 21.8078 60.2265 21.7331 60.4508 21.6583C60.5255 21.5836 60.675 21.5836 60.8245 21.6583C62.1702 22.6302 63.6654 23.303 65.2353 23.8263V23.9758C67.7023 25.172 69.5713 26.9662 70.7674 29.4332V29.6575C70.7674 30.7789 70.3936 31.676 69.5713 32.4235C69.4218 33.0216 69.1227 33.3954 68.5994 33.4702C68.1509 33.6197 67.6276 33.6944 67.1043 33.6944H66.581C64.8615 33.4702 63.1421 33.2459 61.4974 33.0964C59.7032 32.7973 57.909 32.6478 56.04 32.6478C54.5448 32.6478 53.0497 32.7226 51.5545 32.9469C53.0497 34.5168 54.5448 36.1615 56.04 37.7314C60.8993 41.6936 65.3848 46.0296 69.5713 50.7394ZM17.3151 37.5071C17.6141 35.7877 17.8384 33.9935 18.0627 32.1245C17.6889 31.7507 17.3898 31.3769 17.2403 31.0031C15.0723 31.4517 13.1286 32.1993 11.2596 33.3206V33.3954C11.5587 35.6382 11.8577 37.8809 12.3063 39.9742C12.2315 39.9742 12.3063 39.8994 12.381 39.8246C12.381 39.6751 12.5305 39.6004 12.7548 39.6004C14.3995 39.3013 15.9694 38.6285 17.3151 37.5071Z" fill="white"/>
<path d="M0.494406 107.9V107.825C0.569165 107.452 0.718682 107.153 1.01772 106.779V106.256C1.01772 105.957 1.09247 105.807 1.31675 105.807V105.657C1.16723 105.433 1.24199 105.284 1.54103 105.134C1.69054 105.059 1.84006 105.059 1.98958 105.209C2.13909 105.284 2.21385 105.358 2.28861 105.358C2.36337 105.358 2.43813 105.284 2.51289 105.209C2.73716 105.134 2.96144 105.134 3.18571 105.209C4.08282 105.957 5.05468 106.405 6.25081 106.405C9.61495 104.835 13.1286 103.489 16.717 102.368C16.8665 102.069 17.1656 101.845 17.4646 101.77H17.9131C18.885 101.845 19.8569 101.994 20.8287 102.219C23.221 102.891 25.389 103.863 27.4822 105.209C28.5289 106.031 29.3512 107.078 29.8745 108.274C29.8745 107.9 29.7998 107.601 29.725 107.227C28.9774 105.134 27.6318 103.489 25.6133 102.443C25.5385 102.443 25.5385 102.368 25.5385 102.368C24.7162 101.471 24.2676 100.499 23.9686 99.3778C23.8191 99.2282 23.8938 99.004 24.0433 98.8545C24.1181 98.7797 24.1929 98.7049 24.2676 98.6302V98.4807C24.1929 98.2564 24.2676 98.0321 24.4171 97.8826C24.4919 97.8826 24.4919 97.8826 24.4171 97.8078V97.5836C24.4171 97.434 24.4171 97.2098 24.5667 96.9855C24.6414 96.9107 24.8657 96.836 25.09 96.836C26.6599 97.3593 28.3793 97.6583 30.0988 97.6583C31.8182 95.7146 33.762 93.9951 36.0047 92.7243C35.4814 91.9019 34.9581 91.0796 34.6591 90.1077C33.4629 88.3135 31.8182 87.0426 29.8745 86.295H29.7998C28.9027 85.6969 28.2298 84.9494 27.7065 83.9775C27.557 83.828 27.557 83.6037 27.7065 83.3794C27.7813 83.3047 27.9308 83.2299 28.0803 83.1552C28.1551 83.1552 28.3046 83.1552 28.4541 83.0804C28.5289 83.0056 28.5289 82.9309 28.6036 82.8561C28.4541 82.7814 28.3046 82.6318 28.2298 82.5571C28.1551 82.4076 28.0803 82.258 28.1551 82.0338C28.2298 81.8843 28.4541 81.7347 28.6784 81.7347H28.9027C29.5755 80.7629 30.5473 80.2396 31.7435 80.1648H32.3415C35.93 80.9124 38.9951 82.7814 41.3126 85.6222C41.3873 85.7717 41.4621 85.9212 41.4621 86.0707V86.5193C41.4621 87.1921 41.6864 87.7902 42.1349 88.2387C42.1349 88.3135 42.2097 88.3883 42.2097 88.463C42.2097 88.762 42.2844 88.9863 42.2844 89.2106C42.2844 89.4349 42.2844 89.5844 42.2097 89.6591C43.8544 89.2854 45.4243 88.762 46.9195 87.9397C49.7603 85.996 52.2273 83.6785 54.4701 80.9872C54.171 80.0901 54.0963 79.193 54.171 78.2211C54.0963 78.1463 54.171 77.9968 54.3953 77.8473C54.4701 77.6978 54.6196 77.6978 54.6943 77.6978C54.8439 77.324 55.0681 77.0997 55.3672 76.8754C55.4419 76.8007 55.5167 76.8007 55.6662 76.8007C56.339 76.7259 56.9371 76.4269 57.5352 75.9036C57.6099 75.7541 57.7594 75.6793 57.9837 75.6793C59.5537 76.3521 61.1236 77.1745 62.6188 78.1463C64.413 79.2677 65.6839 80.7629 66.5062 82.7066C66.5062 82.9309 66.4314 83.0804 66.2819 83.1552C65.6091 83.7532 64.8615 84.127 63.9644 84.127C62.6188 84.7998 61.1983 85.4727 59.8527 86.0707H60.0022C63.4411 87.6407 66.4314 89.8087 68.9732 92.7243C70.1694 93.9951 71.1412 95.4903 71.8888 96.9855C71.9636 97.135 71.9636 97.2845 71.8888 97.3593C71.5898 98.4807 70.9917 99.2282 70.0199 99.7515C69.4965 101.994 68.9732 104.162 68.4499 106.256C68.1509 107.302 67.9266 108.199 67.9266 109.171C67.9266 109.395 67.9266 109.62 68.0761 109.769C68.0761 109.919 68.0014 110.068 67.9266 110.143C67.1043 111.489 66.581 112.984 66.4314 114.629C66.3567 114.703 66.2819 114.778 66.2819 114.778C65.7586 115.825 65.011 116.796 64.1887 117.619C64.1887 117.694 64.1139 117.694 64.1139 117.768C63.2916 118.366 62.3945 118.74 61.4226 118.89C61.3479 118.964 61.2731 118.965 61.1983 118.965C63.5906 120.385 65.5343 122.254 67.1043 124.497C67.1043 124.646 67.1043 124.796 67.1043 124.945C66.7305 125.992 66.2819 127.113 65.8334 128.085V131.972C65.9081 134.514 66.0577 137.056 66.1324 139.523V139.598C66.0577 140.719 65.6091 141.766 64.7868 142.588C64.0392 144.083 62.9925 145.279 61.6469 146.251H61.5721C60.9741 146.55 60.4508 146.7 59.8527 146.7C59.0303 146.7 58.3575 146.55 57.7594 146.102C57.6099 146.027 57.4604 145.952 57.3857 145.952C56.7876 144.98 56.1148 144.009 55.4419 143.112C50.4331 143.261 45.3495 143.485 40.4155 143.71C40.3407 143.859 40.1912 144.083 40.0417 144.233V144.457C40.0417 144.607 39.9669 144.681 39.9669 144.756C39.8174 144.98 39.6679 145.055 39.5184 144.98C39.4436 144.98 39.3688 144.98 39.2193 144.906C38.6213 145.13 38.0232 145.28 37.3504 145.28C36.9018 145.28 36.4533 145.205 36.0047 144.98H35.93C33.1639 142.663 31.8182 139.822 31.7435 136.383V135.785C31.7435 135.71 31.8182 135.561 31.9678 135.411C32.1173 135.337 32.2668 135.187 32.3415 134.888C32.192 134.888 32.1173 134.739 32.192 134.514V134.29C32.2668 134.29 32.3415 134.14 32.3415 133.991C32.3415 133.767 32.2668 133.542 32.192 133.318C32.1173 133.243 32.1173 133.094 32.192 132.87C32.2668 132.795 32.3415 132.795 32.4911 132.72C32.5658 131.599 32.6406 130.477 32.7901 129.281C32.5658 128.683 32.2668 128.16 31.893 127.636C31.8182 127.562 31.7435 127.487 31.7435 127.487C30.5473 125.842 30.024 124.048 30.024 121.955C29.9493 121.88 30.024 121.731 30.1735 121.656C30.3231 121.581 30.5473 121.581 30.6969 121.656C30.7716 121.656 30.7716 121.731 30.8464 121.731C31.0706 121.731 31.2202 121.581 31.2949 121.432C31.3697 121.207 31.594 121.132 31.893 121.207C32.4911 121.581 33.2386 121.805 33.9862 121.805C35.0329 121.731 35.93 121.357 36.7523 120.759C36.8271 120.759 36.9018 120.759 36.9766 120.684C37.9484 120.46 38.9951 120.161 39.9669 119.862C39.9669 119.787 40.0417 119.712 40.1912 119.712C44.0786 118.74 48.1156 117.993 52.1526 117.544C52.7506 117.32 53.3487 117.17 54.0215 116.946V116.871C54.171 116.647 54.3206 116.647 54.6196 116.647C55.5915 116.946 56.7128 117.17 57.7594 117.395H57.9837C58.208 117.469 58.4323 117.544 58.7313 117.619C58.1332 117.395 57.6099 117.021 57.1614 116.497C56.2643 116.348 55.3672 116.273 54.5448 116.273C53.7972 116.273 53.1992 116.348 52.5264 116.423H51.9283C50.1341 116.423 48.3399 116.647 46.6204 117.096H46.4709C44.0039 117.544 41.4621 117.768 38.9951 117.843C38.0232 117.993 37.2008 118.366 36.528 118.965C35.93 119.936 35.0329 120.385 33.9862 120.46C33.9115 120.46 33.8367 120.385 33.6872 120.31C32.6406 119.563 31.6687 118.665 30.8464 117.544C30.4726 116.946 30.1735 116.348 30.024 115.6C29.8745 115.301 29.8745 114.928 29.8745 114.629C29.8745 114.105 29.9493 113.582 30.2483 113.133C30.3978 112.834 30.5473 112.61 30.8464 112.386C30.6969 111.788 30.3231 111.489 29.7998 111.563C29.2764 111.563 28.8279 112.087 28.3793 112.984C27.258 114.554 25.9871 115.899 24.5667 117.17C24.8657 117.694 25.2395 118.067 25.688 118.516C25.7628 118.665 25.8376 118.74 25.9123 118.89C25.8376 119.039 25.7628 119.189 25.688 119.264C24.5667 120.385 23.4453 121.282 22.0996 121.955C19.6326 123.375 17.0908 124.571 14.3995 125.543C13.4276 126.216 12.7548 127.038 12.3063 128.085C11.6334 129.206 10.6616 129.804 9.39067 129.73H8.7926C8.64309 129.804 8.56833 129.73 8.56833 129.58C7.52171 128.907 6.84888 127.936 6.47509 126.665C6.1013 125.618 5.80226 124.571 5.7275 123.45V123.375C5.50323 120.759 4.75564 118.292 3.40999 116.049C1.91482 113.657 0.868199 111.19 0.120614 108.498C0.045855 108.199 0.195372 107.975 0.494406 107.9ZM40.6397 126.44V127.711C42.8077 127.263 45.0505 126.814 47.2933 126.366C47.7418 125.992 48.2651 125.768 48.8632 125.768H49.6855C50.3584 125.842 51.0312 125.992 51.6292 126.366C52.9001 126.964 54.0963 127.711 55.1429 128.683C55.1429 128.833 55.2177 128.907 55.2177 128.907C55.3672 129.431 55.5167 129.879 55.8157 130.178C55.8157 130.104 55.8157 129.954 55.741 129.73V129.58C55.8157 128.982 55.8905 128.384 55.9652 127.861C55.8905 126.44 55.5915 125.169 54.9934 123.899C54.6196 123.824 54.2458 123.749 53.7972 123.674C53.3487 123.749 52.9001 123.824 52.4516 123.899H51.6292C47.7418 123.899 44.0786 124.721 40.6397 126.44ZM55.4419 135.636C55.5915 134.739 55.741 133.767 55.9652 132.87C55.741 132.87 55.6662 132.944 55.6662 133.019H55.4419C51.704 133.767 47.9661 134.14 44.1534 134.14H43.4058C42.4339 134.664 41.4621 134.888 40.4155 134.888H40.1912C40.1164 135.038 39.9669 135.112 39.8174 135.112C39.8174 135.561 39.7426 136.009 39.5931 136.383H39.7426C39.8922 136.383 40.0417 136.458 40.1912 136.608C40.7145 136.608 41.1631 136.533 41.7611 136.383H41.8359C46.3214 136.159 50.8817 135.86 55.4419 135.636ZM53.1992 95.4156C52.4516 95.6398 52.0778 96.0136 52.0778 96.7612C52.0778 96.9855 52.0778 97.2845 52.1526 97.434H52.9749C53.1992 97.135 53.573 96.9107 53.9468 96.7612H54.3953C55.6662 97.2845 56.8623 97.8826 58.0585 98.6302C58.8808 99.0787 59.4789 99.7516 59.8527 100.499C60.1517 99.004 60.376 97.5088 60.376 95.9389C59.5537 95.7146 58.8061 95.4903 58.0585 95.1165C57.4604 94.967 56.7876 94.8922 56.1895 94.8175C55.1429 94.8175 54.2458 95.0418 53.3487 95.4156H53.1992ZM54.9186 105.358C53.872 105.807 52.9001 106.256 51.9283 106.629C51.9283 107.078 52.003 107.377 52.0778 107.676C53.872 107.601 55.741 107.302 57.6099 106.779C57.7594 106.48 57.9837 106.181 58.2828 106.031C58.5818 105.284 58.8061 104.611 59.0303 103.938C57.6847 104.611 56.339 105.134 54.9186 105.358ZM42.2097 109.395C42.2097 108.872 42.0602 108.349 41.9106 107.825C41.5368 107.751 41.1631 107.751 40.864 107.751H38.2475C38.098 107.751 38.0232 107.751 38.0232 107.676C37.9484 107.676 37.8737 107.601 37.9484 107.526C38.0232 108.349 38.098 109.096 38.3222 109.769C38.3222 109.769 38.397 109.769 38.5465 109.694C38.696 109.545 38.9951 109.395 39.3688 109.395C39.5184 109.395 39.6679 109.395 39.8174 109.47H41.0135C41.1631 109.545 41.4621 109.545 41.7611 109.545C41.8359 109.545 41.9854 109.545 42.2097 109.47V109.395ZM40.864 97.8078C38.9951 99.004 36.9766 100.125 34.9581 101.172C35.4814 101.92 36.0795 102.518 36.6775 103.116C36.9018 103.041 37.0513 103.041 37.2756 103.116L37.4999 103.19C38.397 102.592 39.1446 102.144 39.6679 101.92C40.1912 101.695 40.4155 101.621 40.4902 101.546C40.565 101.546 40.565 101.471 40.6397 101.396C40.6397 101.396 40.7145 101.396 40.7893 101.321C41.1631 101.321 41.4621 101.172 41.7611 100.873C41.9106 100.723 41.9854 100.499 42.0602 100.125V99.9011C41.9106 99.602 41.8359 99.2282 41.9106 98.9292C41.9106 98.3311 41.9854 97.8078 42.1349 97.2098C41.9854 97.3593 41.8359 97.434 41.7611 97.3593H41.6864C41.5368 97.5088 41.3873 97.5088 41.2378 97.434C41.1631 97.5088 41.1631 97.5836 41.0883 97.5836C41.0135 97.7331 40.9388 97.8078 40.864 97.8078ZM17.5394 109.47C15.0723 109.919 12.6053 110.741 10.3625 111.937C10.3625 112.61 10.5868 113.208 10.9606 113.806V113.956C11.1101 115.451 11.4839 116.946 11.9325 118.441C12.4558 118.217 12.9043 117.993 13.4276 117.768C13.2781 117.694 13.7267 117.395 14.549 116.797C15.4461 116.198 16.1937 115.376 16.9413 114.255C17.2403 112.76 17.4646 111.19 17.5394 109.47Z" fill="white"/>
</svg>
