<svg width="381" height="157" viewBox="0 0 381 157" fill="none" xmlns="http://www.w3.org/2000/svg">
<path d="M361.39 39.2222H273.073C283.914 39.2222 292.683 30.4157 292.683 19.6111C292.683 8.8065 283.877 0 273.073 0H-1.68288C-12.5236 0 -21.2925 8.8065 -21.2925 19.6111C-21.2925 30.4157 -12.4866 39.2222 -1.68288 39.2222H-70.3904C-81.2312 39.2222 -90 48.0288 -90 58.8334C-90 69.638 -81.1942 78.4445 -70.3904 78.4445H171.029C181.87 78.4445 190.639 87.251 190.639 98.0556C190.639 108.86 181.833 117.667 171.029 117.667H80.7514C69.9106 117.667 61.1418 126.473 61.1418 137.278C61.1418 148.082 69.9476 156.889 80.7514 156.889H276.995C287.836 156.889 296.605 148.082 296.605 137.278C296.605 126.473 287.799 117.667 276.995 117.667H257.386C246.545 117.667 237.776 108.86 237.776 98.0556C237.776 87.251 246.582 78.4445 257.386 78.4445H361.39C372.268 78.4445 381 69.638 381 58.8334C381 48.0288 372.231 39.2222 361.39 39.2222Z" fill="#E7E7E7"/>
</svg>
