<svg width="393" height="413" viewBox="0 0 393 413" fill="none" xmlns="http://www.w3.org/2000/svg">
<path fill-rule="evenodd" clip-rule="evenodd" d="M391.793 197.784C392.303 199.355 390.711 203.029 392.691 203.151V200.478C392.548 199.416 392.854 197.947 391.793 197.804V197.784Z" fill="#A90013"/>
<path fill-rule="evenodd" clip-rule="evenodd" d="M391.793 160.251C391.834 158.721 391.099 157.965 389.997 157.578C389.956 159.108 390.691 159.863 391.793 160.251Z" fill="#A90013"/>
<path fill-rule="evenodd" clip-rule="evenodd" d="M382.854 129.863C382.548 127.781 381.935 126.005 380.18 125.393C380.486 127.475 381.099 129.25 382.854 129.863Z" fill="#A90013"/>
<path fill-rule="evenodd" clip-rule="evenodd" d="M378.405 120.046C378.731 118.76 377.201 117.331 376.609 116.474C376.078 115.678 376.67 114.148 374.813 114.678C374.425 118.046 376.69 118.74 378.384 120.046H378.405Z" fill="#A90013"/>
<path fill-rule="evenodd" clip-rule="evenodd" d="M352.485 288.053C353.485 284.93 352.689 279.522 355.159 277.338C352.158 277.011 352.281 280.644 351.587 282.706C350.791 285.093 350.26 288.543 349.791 290.747C350.158 290.522 351.281 291.053 351.587 290.747C351.934 290.4 350.934 289.42 350.689 289.849C351.016 289.236 352.363 288.4 352.485 288.053Z" fill="#A90013"/>
<path fill-rule="evenodd" clip-rule="evenodd" d="M348.893 76.2487C346.709 75.7589 346.995 72.7996 343.525 73.5751C342.893 76.3712 348.179 77.759 348.893 76.2487Z" fill="#A90013"/>
<path fill-rule="evenodd" clip-rule="evenodd" d="M348.893 295.217C346.485 294.604 347.158 297.074 346.219 297.89C348.179 298.053 349.056 297.155 348.893 295.217Z" fill="#A90013"/>
<path fill-rule="evenodd" clip-rule="evenodd" d="M343.546 305.931C343.036 306.482 341.464 310.176 343.546 310.401C342.383 308.176 346.158 306.686 343.546 305.931Z" fill="#A90013"/>
<path fill-rule="evenodd" clip-rule="evenodd" d="M339.076 314.871C338.811 315.422 336.852 318.32 339.076 318.442C338.219 316.769 341.75 315.462 339.076 314.871Z" fill="#A90013"/>
<path fill-rule="evenodd" clip-rule="evenodd" d="M322.096 245.153C321.831 245.704 319.871 248.602 322.096 248.724C322.361 248.173 324.321 245.275 322.096 245.153Z" fill="#A90013"/>
<path fill-rule="evenodd" clip-rule="evenodd" d="M245.235 28.8776C244.011 28.6327 241.745 29.4286 243.439 29.7756C244.664 30.0205 246.929 29.2245 245.235 28.8776Z" fill="#A90013"/>
<path fill-rule="evenodd" clip-rule="evenodd" d="M226.459 4.73418C229.439 5.63218 229.398 3.48923 229.133 1.1626C227.806 1.30546 225.826 0.836053 225.561 2.0606C228.541 1.44832 227.01 3.89741 226.459 4.73418Z" fill="#A90013"/>
<path fill-rule="evenodd" clip-rule="evenodd" d="M213.948 2.0611C214.581 2.20396 219.153 1.75496 216.622 1.1631C213.213 0.367147 212.152 1.63251 213.948 2.0611Z" fill="#A90013"/>
<path fill-rule="evenodd" clip-rule="evenodd" d="M98.6574 37.8175C97.9635 37.6134 97.6166 37.0624 97.7594 36.0215C92.4735 36.0011 96.8614 42.1443 98.6574 37.8175Z" fill="#A90013"/>
<path fill-rule="evenodd" clip-rule="evenodd" d="M67.3704 62.8396C71.8604 62.8396 70.7379 57.2679 75.4115 57.472C77.0851 55.9005 74.3503 54.8596 76.3096 53.0024C81.2077 53.431 82.5343 50.288 83.4527 46.7368C78.8403 47.941 76.4932 52.982 71.84 55.676C70.2889 56.574 68.1255 56.7168 66.4724 57.472C66.3091 57.5332 65.7376 59.0843 65.5744 59.268C65.3295 59.5741 64.0437 58.9823 63.7784 59.268C63.6559 59.4108 62.8804 62.0436 62.8804 61.9416C62.8192 62.9008 62.1661 62.4314 61.9824 62.8396C61.1864 64.6764 60.717 66.452 61.0844 68.2072C64.6356 67.8806 66.2479 65.6152 67.35 62.8396H67.3704Z" fill="#A90013"/>
<path fill-rule="evenodd" clip-rule="evenodd" d="M3.02055 168.293C3.83692 166.721 3.32669 163.823 4.81655 162.925C4.95942 163.986 4.65328 165.456 5.71455 165.599C5.87782 161.639 7.32687 159.945 3.04096 159.333C3.71446 162.456 0.326557 166.088 3.04096 168.272L3.02055 168.293Z" fill="#A90013"/>
<path fill-rule="evenodd" clip-rule="evenodd" d="M3.02057 187.069C2.95935 188.314 3.22466 190.478 3.91857 188.865C3.16344 182.477 9.69434 172.436 2.12257 170.089C2.95935 173.171 1.12253 175.089 1.22458 177.232C1.30621 178.824 2.77566 180.436 3.02057 182.6C3.18385 184.069 2.89812 185.6 3.02057 187.069Z" fill="#A90013"/>
<path fill-rule="evenodd" clip-rule="evenodd" d="M363.2 106.636C363.2 106.636 363.22 106.656 363.241 106.677C363.2 106.493 363.159 106.371 363.057 106.289C363.098 106.412 363.139 106.514 363.2 106.636Z" fill="#A90013"/>
<path fill-rule="evenodd" clip-rule="evenodd" d="M390.915 179.905C390.568 177.232 390.262 176.436 390.017 175.436C389.874 174.864 390.14 174.211 390.017 173.64C388.956 168.946 387.242 160.762 386.446 157.557C386.16 156.414 385.752 155.659 385.548 154.884C385.262 153.741 384.854 152.986 384.65 152.21C384.507 151.659 384.813 150.986 384.65 150.414C382.221 141.618 378.996 133.964 375.711 127.168C375.282 126.27 375.364 125.474 374.813 124.495C374.547 123.984 373.323 123.291 373.017 122.699C372.547 121.78 372.466 120.739 372.119 120.025C371.894 119.535 371.241 118.658 371.221 118.229C371.159 117.209 370.608 117.821 370.323 117.331C368.567 114.29 366.975 111.392 364.955 108.392C364.588 107.861 363.567 107.269 363.2 106.637C363.241 106.841 363.241 107.106 363.159 107.494C360.771 109.8 365.22 108.433 364.057 111.963C366.18 112.902 367.547 114.882 367.629 116.433C367.69 117.719 368.976 119.25 369.425 120.005C369.792 120.658 370.772 120.903 371.221 121.801C371.731 122.801 371.67 123.699 372.119 124.474C372.404 124.984 373.588 125.678 373.915 126.27C375.057 128.393 374.853 130.27 375.711 131.638C375.853 131.883 376.323 132.128 376.609 132.536C376.711 132.699 377.547 133.515 377.507 133.434C378.262 135.169 377.67 136.72 378.405 138.801C378.568 139.25 379.894 139.822 380.201 140.597C380.405 141.108 380.058 141.842 380.201 142.393C380.364 143.067 381.017 143.087 381.099 143.291C381.874 145.516 382.446 148.639 382.895 150.435C383.078 151.149 383.691 151.067 383.793 151.333C384.833 153.986 384.691 157.986 385.589 159.374C386.874 161.394 387.262 165.415 387.385 167.415C387.425 168.19 388.242 168.15 388.283 168.313C389.568 174.17 390.017 179.436 390.956 185.293C391.099 186.15 390.181 190.906 391.854 188.865C392.466 184.905 391.201 181.824 390.956 179.926L390.915 179.905Z" fill="#A90013"/>
<path fill-rule="evenodd" clip-rule="evenodd" d="M360.526 102.167C357.628 98.2888 355.261 95.0234 352.485 91.4518C350.852 89.3293 349.199 86.6557 348.015 85.1862C345.526 82.1249 343.423 80.5534 340.872 78.0431C337.954 75.1654 335.892 71.8999 332.831 69.1039C332.647 68.9406 331.219 68.2263 331.035 68.2059C329.953 68.1447 328.076 66.0425 327.464 65.5323C325.831 64.1649 324.545 62.3485 322.994 61.0627C321.545 59.879 320.626 59.8177 319.422 59.2667C319.157 59.1443 318.81 57.6952 318.524 57.4707C315.198 54.8992 311.483 52.6542 309.585 50.3275C309.34 50.0418 308.116 50.552 307.789 50.3275C307.463 50.0826 307.177 48.8785 306.891 48.5315C306.646 48.2254 305.422 48.7764 305.095 48.5315C304.36 47.9397 304.095 46.409 303.299 45.8579C302.054 44.9804 300.197 44.5314 299.728 44.0619C298.911 43.2864 298.054 42.919 297.054 42.266C296.115 41.6741 295.156 41.2251 294.38 40.47C293.564 39.6944 292.707 39.327 291.707 38.674C290.503 37.8984 288.911 36.9188 288.135 36.878C286.849 36.8167 286.645 35.1432 285.462 35.082C284.033 35.0003 280.543 32.6941 280.094 32.4084C278.89 31.6328 277.298 30.6532 276.522 30.6124C275.094 30.5307 271.604 28.2245 271.155 27.9388C268.134 26.0203 261.257 24.306 259.542 22.5712C258.746 21.7752 256.011 22.2855 255.073 21.6732C252.93 20.3058 249.766 19.9588 248.807 18.9996C247.909 18.1016 246.072 19.1425 245.235 18.1016C244.664 17.3873 242.419 17.7751 241.664 17.2036C241.48 18.2037 240.664 18.5914 239.868 18.9996C238.949 19.8772 238.051 20.7752 237.194 21.6732C237.888 21.4691 238.949 21.6528 238.99 20.7752C240.521 22.8161 243.154 23.7549 247.031 23.4488C247.787 26.551 253.44 24.7754 255.073 27.0204C257.971 28.1225 255.746 24.1223 258.644 25.2244C259.971 25.8366 258.44 27.5918 258.644 27.898C259.093 28.5715 261.746 28.0408 261.318 29.694C264.359 30.5307 266.563 32.2043 271.155 31.49C271.318 35.3881 272.706 33.1227 275.624 33.286C274.951 36.633 279.033 35.2452 279.196 37.7555C281.931 38.4086 282.462 36.8371 284.564 36.8575C284.645 39.2862 283.074 38.6535 284.564 40.4291C288.482 40.0414 287.503 43.1639 290.829 41.3271C291.299 42.6537 292.156 43.5721 292.625 44.8987C296.544 44.5109 295.564 47.6335 298.891 45.7967C299.319 48.1438 299.585 48.7969 301.564 51.1643C304.891 52.3072 306.095 55.5727 311.402 54.7359C312.647 55.2869 311.544 58.185 313.198 58.3075C313.218 57.3891 314.789 57.6952 315.871 58.3075C316.136 58.4503 315.667 59.8586 315.871 60.1035C316.259 60.5525 318.055 59.7565 318.545 60.1035C318.463 62.5526 320.035 61.8995 318.545 63.6751C320.647 63.6751 321.178 65.2057 323.912 64.5731C324.749 65.7772 325.545 67.2262 326.586 68.1446C326.729 68.2671 326.463 68.8794 326.586 69.0427C327.484 70.1243 331.096 68.3691 330.158 70.8386C325.79 71.1244 331.015 72.2469 332.831 71.7366C332.688 73.9612 334.239 74.5123 334.627 76.2062C336.403 76.8797 337.688 77.8594 339.097 78.8798C340.362 79.7778 341.076 82.1045 343.566 81.5534C342.832 84.0841 344.832 83.8596 344.464 86.023C348.158 86.7985 349.464 89.9619 350.73 93.1662C353.73 93.9417 355.342 97.3704 356.975 99.4318C359.751 102.881 359.914 102.289 357.873 103.901C360.628 102.942 360.016 106.228 360.547 106.575C360.914 106.82 362.506 105.677 363.077 106.228C362.73 105.371 362.812 104.616 362.322 103.901C361.955 103.35 361.016 102.758 360.526 102.105V102.167Z" fill="#A90013"/>
<path fill-rule="evenodd" clip-rule="evenodd" d="M363.2 95.0034C363.363 93.8401 362.016 94.5544 361.404 94.1054C361.22 93.9626 359.955 91.0849 359.608 91.4318C358.24 92.7992 362.139 95.5136 363.179 95.0034H363.2Z" fill="#A90013"/>
<path fill-rule="evenodd" clip-rule="evenodd" d="M249.705 15.4686C251.052 17.5504 251.889 16.836 254.175 16.3666C254.236 18.0198 255.726 17.5095 256.848 18.1626C257.603 18.5912 258.726 19.9178 259.522 19.9586C259.46 19.9586 260.297 18.2034 260.42 18.1626C261.256 17.9177 261.542 19.081 262.216 19.0606C264.236 19.7137 264.175 22.4689 266.685 22.6322C266.808 20.6321 268.93 23.7955 271.155 22.6322C272.277 24.469 276.237 26.3467 277.42 27.1018C277.992 27.4692 278.645 27.7549 279.216 27.9998C281.666 29.0611 284.421 30.1836 288.156 29.7958C289.421 32.102 291.176 33.9184 292.625 36.0614C296.952 36.2042 297.421 40.2044 302.462 39.633C302.544 41.9392 306.299 40.5718 305.136 44.1026C309.973 43.7352 310.422 47.7558 314.973 47.6741C314.198 51.1437 317.157 50.858 317.647 53.0417C321.708 53.0417 323.565 56.001 324.79 57.5113C324.994 57.7766 326.259 57.348 326.586 57.5113C326.688 57.5725 326.504 58.3073 326.586 58.4093C326.831 58.7154 328.055 58.1644 328.382 58.4093C331.525 60.8992 333.198 65.9811 338.219 66.4505C338.219 69.1241 339.831 70.2057 341.791 70.9201C343.158 69.1037 340.913 67.4301 339.995 66.4505C338.648 65.0014 335.974 64.083 334.627 62.8789C331.77 60.2869 327.463 53.2254 323.912 53.0417C322.892 52.9805 323.484 52.409 323.014 52.1437C319.831 50.3885 318.198 49.6334 315.871 47.6741C315.177 47.1027 313.912 45.5516 313.198 45.0006C312.218 44.2454 310.748 44.0209 309.626 43.2046C308.646 42.4902 307.952 41.2249 306.952 40.531C306.034 39.9187 304.442 39.3472 303.381 38.735C302.34 38.1431 302.32 37.8166 301.585 36.939C301.36 36.6532 300.115 37.1431 299.789 36.939C299.462 36.7145 299.197 35.4695 298.891 35.143C297.442 33.6939 295.054 33.3878 293.523 32.4694C292.503 31.8367 292.462 31.551 291.727 30.6734C291.503 30.3877 290.258 30.8775 289.931 30.6734C289.054 30.1019 288.094 28.4896 287.258 27.9998C287.094 27.8978 286.564 27.9998 286.36 27.9998C284.727 27.9182 284.074 26.2854 282.788 26.2038C281.155 26.1222 280.502 24.4894 279.216 24.4078C277.584 24.3262 276.931 22.6934 275.645 22.6118C273.665 22.5098 274.4 20.9383 272.073 20.8158C271.032 20.7546 271.665 20.2444 271.175 19.9178C269.645 18.9178 268.134 19.7137 266.706 19.0198C266.359 18.8565 266.257 17.3871 265.808 17.2238C264.706 16.8156 262.889 16.734 261.338 16.3258C259.991 15.9789 258.297 15.2645 256.869 15.4278C255.277 13.5706 252.828 12.3664 249.725 11.8562C248.093 11.5909 246.297 12.7338 244.358 12.7542C242.603 12.7542 241.847 12.1011 240.786 11.8562C239.582 11.5705 237.97 10.9582 237.215 11.8562C240.378 14.0808 245.317 17.183 249.725 15.4278L249.705 15.4686Z" fill="#A90013"/>
<path fill-rule="evenodd" clip-rule="evenodd" d="M240.766 34.2456C241.725 34.8783 244.888 37.7355 246.133 35.1436C244.154 35.5313 241.276 32.3883 240.766 34.2456Z" fill="#A90013"/>
<path fill-rule="evenodd" clip-rule="evenodd" d="M238.072 27.9806C238.419 29.348 239.153 28.1031 238.072 27.0826C233.908 26.4499 233.908 28.6133 238.072 27.9806Z" fill="#A90013"/>
<path fill-rule="evenodd" clip-rule="evenodd" d="M127.251 22.6122C129.679 21.0612 132.332 20.3468 135.292 19.0407C136.414 18.5508 136.373 18.1018 137.088 17.2447C137.292 16.9997 138.557 17.3875 138.884 17.2447C142.823 15.5915 146.639 15.5915 151.395 14.5711C151.476 14.5711 151.333 13.7343 151.395 13.6731C152.293 12.7751 154.129 13.8159 154.966 12.7751C155.109 12.5914 156.497 12.8159 156.762 12.7751C158.517 12.571 159.211 12.3261 160.334 11.8771C160.558 11.7954 160.987 11.8771 161.232 11.8771C162.13 11.8363 161.783 11.1015 162.13 10.9791C165.436 9.79534 166.15 11.0811 168.395 10.9791C169.538 10.9178 169.661 10.1627 171.069 10.0811C173.273 9.97903 175.906 10.5505 178.212 10.0811C179.702 9.77494 181.151 8.36671 182.682 8.28507C183.559 8.24426 183.763 9.0198 184.478 9.18307C190.151 10.5097 196.458 8.20344 199.662 8.28507C203.172 8.36671 206.764 9.95862 210.397 10.0811C212.03 10.1423 213.316 8.18303 214.867 10.0811C214.601 7.71362 216.744 7.77485 218.438 7.40748C219.438 7.59117 219.826 8.40753 220.234 9.20348C218.642 9.63207 220.622 10.1627 221.132 10.9995C223.561 11.6526 222.928 9.22389 224.704 9.20348C225.949 10.6321 227.786 11.4893 230.071 11.8771C229.439 9.44839 234.276 12.5098 233.643 10.0811C229.276 9.6933 225.949 8.24426 221.132 8.28507C221.5 6.63194 222.296 7.16257 220.234 6.48908C219.275 6.18294 216.704 5.83598 214.867 5.59108C211.765 5.16249 210.969 4.89717 210.397 5.59108C209.764 6.36662 205.785 4.7339 205.03 4.69308C200.642 4.42776 197.886 3.93794 195.192 3.79508C190.743 3.57058 186.253 3.95835 181.784 3.79508C179.804 5.08085 182.906 5.97885 180.886 6.46867C176.436 7.42789 172.865 7.46871 168.375 8.26466C165.681 8.73407 162.803 9.73412 160.334 10.0607C158.905 10.2443 157.272 9.75453 155.864 10.0607C154.721 10.3056 153.742 11.3668 152.293 11.8567C150.578 12.4281 148.435 12.2853 146.925 12.7547C145.251 13.2649 143.864 14.1221 142.455 14.5507C139.863 15.3466 137.129 15.7548 136.19 16.3467C134.333 17.5304 131.802 17.4487 129.945 18.1427C129.638 19.306 128.822 20.0203 128.149 20.8162C127.557 21.5306 126.046 22.2449 127.251 22.6122Z" fill="#A90013"/>
<path fill-rule="evenodd" clip-rule="evenodd" d="M149.598 7.42727C149.598 5.65169 152.048 6.28437 151.394 3.85569C149.211 2.99851 148.435 7.87627 149.598 7.42727Z" fill="#A90013"/>
<path fill-rule="evenodd" clip-rule="evenodd" d="M123.679 21.7349C124.74 21.3064 125.699 20.7757 126.353 19.939C125.148 19.7961 121.434 21.3472 123.679 21.7349Z" fill="#A90013"/>
<path fill-rule="evenodd" clip-rule="evenodd" d="M101.331 34.2461C102.086 31.6337 104.209 34.7767 105.801 34.2461C107.107 32.2868 108.168 30.0623 112.046 30.6745C113.74 29.0826 113.576 25.6539 116.515 25.3069C117.148 30.348 122.638 21.817 120.985 21.7354C120.597 23.7354 117.801 22.9599 116.515 23.5313C116.189 23.6742 116.026 25.1233 115.617 25.3273C114.903 25.6743 113.638 24.96 112.944 25.3273C112.27 25.6947 112.311 27.0621 111.148 27.1233C110.107 27.1846 110.76 27.6744 110.25 28.0213C107.903 29.5928 104.903 30.3276 103.107 31.5929C102.964 31.695 103.229 32.3481 103.107 32.4909C102.596 33.1236 98.3105 33.491 101.311 34.2869L101.331 34.2461Z" fill="#A90013"/>
<path fill-rule="evenodd" clip-rule="evenodd" d="M86.1467 47.6335C87.3508 44.9803 90.1877 43.9191 92.4123 42.2659C91.1877 40.225 94.7185 38.8984 92.4123 38.6943C91.351 40.0413 89.7387 41.3679 87.9427 43.1639C86.4732 44.6334 82.3098 45.0416 86.1467 47.6335Z" fill="#A90013"/>
<path fill-rule="evenodd" clip-rule="evenodd" d="M24.4706 103.044C24.0216 100.432 28.9197 98.6561 26.2666 96.7988C26.0625 98.7581 22.246 101.615 24.4706 103.044Z" fill="#A90013"/>
<path fill-rule="evenodd" clip-rule="evenodd" d="M4.81661 155.782C3.42879 152.598 7.85756 155.231 7.4902 153.108C6.3677 152.741 5.67379 151.965 5.6942 150.435C7.24529 150.373 8.46983 150.639 9.26578 151.333C9.16374 149.088 7.57183 148.537 10.1638 147.761C8.6331 144.516 11.2046 141.455 11.9598 137.924C12.4292 135.842 10.9393 135.107 11.0618 133.454C11.2863 130.617 15.1436 127.76 12.8578 125.413C12.368 128.127 10.6332 132.291 10.1842 133.454C10.1026 133.679 10.1842 134.107 10.1842 134.352C10.1434 135.169 9.34742 135.026 9.28619 135.25C9.00047 136.352 9.63315 137.74 9.28619 138.822C9.20456 139.087 8.57188 138.965 8.38819 139.72C8.10247 140.863 7.69429 141.618 7.4902 142.393C7.20447 143.536 6.79629 144.291 6.5922 145.067C6.28606 146.312 6.06156 146.863 5.6942 147.741C5.61256 147.965 5.6942 148.394 5.6942 148.639C5.65338 149.455 4.85743 149.312 4.7962 149.537C4.3472 151.333 4.93906 152.088 3.8982 153.108C3.4492 153.557 4.20434 156.108 4.7962 155.782H4.81661Z" fill="#A90013"/>
<path fill-rule="evenodd" clip-rule="evenodd" d="M45.8184 353.566C46.451 354.199 47.0837 354.831 47.7164 355.464C48.5532 356.117 49.4104 357.362 50.2471 356.729C48.7777 355.974 47.3082 352.26 45.8184 353.566Z" fill="#A90013"/>
<path fill-rule="evenodd" clip-rule="evenodd" d="M76.7789 383.261C77.8402 384.383 78.8811 384.404 79.9423 383.894C78.8811 382.771 77.8402 382.751 76.7789 383.261Z" fill="#A90013"/>
<path fill-rule="evenodd" clip-rule="evenodd" d="M104.597 398.425C106.291 399.69 107.964 400.507 109.658 399.69C107.964 398.425 106.291 397.609 104.597 398.425Z" fill="#A90013"/>
<path fill-rule="evenodd" clip-rule="evenodd" d="M114.699 402.221C115.372 403.364 117.475 403.283 118.495 403.487C119.434 403.67 120.107 405.181 121.026 403.487C118.924 400.833 116.822 401.936 114.699 402.221Z" fill="#A90013"/>
<path fill-rule="evenodd" clip-rule="evenodd" d="M166.518 412.324C168.416 411.14 170.314 413.426 172.212 410.426C170.681 408.018 165.967 410.753 166.518 412.324Z" fill="#A90013"/>
<path fill-rule="evenodd" clip-rule="evenodd" d="M273.318 372.526C274.359 371.832 275.4 369.668 273.951 370.628C272.91 371.321 271.869 373.485 273.318 372.526Z" fill="#A90013"/>
<path fill-rule="evenodd" clip-rule="evenodd" d="M303.667 376.322C300.932 377.791 302.462 379.281 304.299 380.751C305.136 379.689 306.85 378.648 306.197 377.587C304.524 380.118 303.871 377.301 303.667 376.322Z" fill="#A90013"/>
<path fill-rule="evenodd" clip-rule="evenodd" d="M314.402 369.363C313.851 369.71 310.953 373.261 313.136 371.893C316.096 370.036 315.973 368.383 314.402 369.363Z" fill="#A90013"/>
<path fill-rule="evenodd" clip-rule="evenodd" d="M370.649 262.561C371.282 262.214 371.914 262.357 372.547 263.194C376.302 259.48 368.853 258.235 370.649 262.561Z" fill="#A90013"/>
<path fill-rule="evenodd" clip-rule="evenodd" d="M378.854 218.948C378.323 217.601 377.69 216.417 376.813 215.478C376.813 214.805 376.813 214.131 376.792 213.478C377.058 213.335 377.323 213.09 377.588 212.641C376.302 210.254 377.833 210.988 379.486 209.478C378.854 206.315 377.915 203.151 378.854 199.988C377.792 198.478 376.711 199.355 375.649 198.253C375.323 195.804 374.915 193.559 374.506 191.477C374.139 188.844 373.731 186.212 373.792 183.558C374.629 182.66 375.486 182.477 376.323 182.293C374.282 181.416 375.915 179.232 375.69 177.864C375.527 176.905 374.894 176.497 374.527 175.579C374.057 176.864 373.547 178.13 373.037 179.395C373.037 179.273 373.037 179.13 373.017 179.007C372.098 174.15 370.078 168.823 368.547 163.823C368.098 162.394 367.976 161.211 367.649 160.251C367.384 159.476 366.771 157.986 366.751 157.578C366.71 156.639 365.996 157.068 365.853 156.68C365.281 155.231 365.506 153.476 364.955 152.21C364.914 152.108 364.159 152.292 364.057 152.21C363.792 151.986 364.22 150.741 364.057 150.414C363.996 150.292 363.261 150.496 363.159 150.414C362.894 150.21 363.302 148.945 363.159 148.618C362.934 148.128 362.281 147.251 362.261 146.822C362.179 145.189 360.547 144.536 360.465 143.251C360.404 142.271 359.791 142.802 359.567 142.353C358.465 140.108 357.995 137.516 356.893 135.209C356.506 134.413 356.077 134.924 355.995 133.413C355.914 131.781 354.281 131.128 354.199 129.842C354.138 128.862 353.526 129.393 353.301 128.944C352.771 127.842 352.016 126.678 351.505 125.372C350.914 123.842 351.22 122.086 350.607 120.903C350.444 120.576 349.077 120.352 348.811 120.005C348.628 119.76 347.913 117.311 347.913 117.331C347.852 116.311 347.281 116.902 347.015 116.433C346.566 115.617 346.689 114.596 346.117 113.759C345.505 112.841 344.117 111.984 343.444 111.086C341.689 108.759 340.668 107.106 338.974 105.718C338.689 105.473 339.199 104.249 338.974 103.922C338.689 103.535 337.546 103.412 337.178 103.024C336.525 102.33 336.893 101.126 336.28 100.351C335.219 99.0037 332.443 97.6159 331.811 96.7791C331.198 95.9628 331.525 94.7994 330.913 94.1055C329.586 92.5544 327.3 91.4524 326.443 90.5339C325.831 89.8809 326.157 88.5339 325.545 87.8604C323.627 85.7378 321.116 84.3704 319.279 82.4928C317.361 80.5335 315.606 77.9416 313.912 76.2272C312.361 74.6557 307.748 70.0228 306.769 69.9616C305.83 69.9208 304.789 68.6758 304.095 68.1656C301.217 66.1655 298.156 63.2062 296.054 61.9C294.462 60.9204 293.013 59.2877 291.584 59.2264C290.584 59.1652 289.686 57.9202 288.911 57.4304C288.217 57.0018 286.992 55.6753 286.237 55.6344C285.013 55.5732 283.36 54.3078 282.666 53.8384C282.278 53.5731 282.176 52.369 281.768 52.0424C281.115 51.5526 279.686 51.4914 279.094 51.1444C278.012 50.5118 276.788 50.0424 275.522 49.3484C272.624 47.7769 271.339 46.5116 268.379 45.7769C266.706 45.3483 265.971 43.8788 264.808 43.1033C263.706 42.3685 262.134 41.3685 261.236 41.3073C260.297 41.246 260.726 40.5725 260.338 40.4093C259.583 40.1031 258.44 40.6542 257.664 40.4093C257.338 40.3072 256.338 38.797 255.868 38.6133C255.093 38.3071 253.991 38.8582 253.195 38.6133C252.848 38.5112 251.868 36.9805 251.399 36.8173C250.378 36.4907 247.929 35.7152 246.929 36.8173C247.909 36.4907 248.338 37.4908 248.725 37.7153C250.97 38.9602 252.705 38.9398 254.991 39.5113C255.746 39.695 255.583 40.2664 255.889 40.4093C258.93 41.7155 262.297 42.1645 263.93 44.8789C260.869 45.5115 256.052 43.7564 254.991 43.0829C253.093 41.8787 249.827 40.8379 248.725 40.4093C247.011 39.7358 244.623 38.9398 243.358 38.6133C240.113 37.8173 235.786 37.3683 234.419 36.8173C232.623 36.103 232.01 36.0417 229.949 35.9193C229.153 35.8785 229.255 35.0621 229.051 35.0213C226.377 34.3682 223.887 34.6335 221.01 34.1233C221.01 34.1233 220.602 33.3681 220.112 33.2253C219.316 32.9804 218.255 33.3477 217.438 33.2253C214.112 32.7355 212.458 32.7151 209.397 32.3273C207.785 32.1232 207.377 31.4701 205.825 31.4293C204.193 31.3885 202.927 32.1844 201.356 32.3273C194.376 32.9191 186.621 31.8375 179.906 32.3273C178.253 32.4497 177.906 33.0212 176.334 33.2253C174.865 33.409 173.314 32.9804 171.865 33.2253C169.783 33.5722 167.722 34.6131 165.599 35.0213C161.742 35.7356 156.415 36.1846 154.884 36.8173C154.66 36.8989 154.231 36.8173 153.986 36.8173C153.211 36.8581 153.252 37.6745 153.088 37.7153C150.15 38.3684 149.598 37.4091 148.619 38.6133C148.415 38.8582 147.149 38.4908 146.823 38.6133C145.68 39.0623 145.721 39.5521 145.027 40.4093C144.884 40.593 143.496 40.3685 143.231 40.4093C141.761 40.593 141.272 40.4297 140.557 41.3073C140.312 41.593 139.088 41.0828 138.761 41.3073C138.006 41.8175 138.027 42.6543 136.965 43.1033C134.72 44.0217 132.21 44.1441 131.598 44.8993C131.536 44.9809 128.883 45.7973 128.924 45.7973C127.781 46.083 127.026 46.4912 126.25 46.6953C123.618 47.3484 123.74 47.0218 121.781 47.5933C122.067 49.675 121.638 51.022 120.883 52.0628C116.883 53.1241 114.556 55.8793 110.168 56.5324C108.617 58.1243 107.576 59.7979 106.597 61.002C106.352 61.3082 105.107 60.7367 104.801 61.002C103.862 61.8184 103.147 62.8184 102.127 63.6756C100.106 65.3696 98.4125 66.9002 96.7594 68.1452C93.3511 70.7167 91.4734 73.5944 88.7182 76.1864C88.4121 76.4721 87.31 76.0027 86.9222 76.1864C86.6977 76.2884 86.2487 77.7579 86.0242 77.9824C85.2487 78.7171 84.2282 79.7375 83.3506 80.656C81.6363 82.452 79.6362 84.1867 77.983 86.0235C76.4728 87.7175 74.9421 89.6972 73.5135 91.3911C72.7991 92.2279 71.6767 93.1463 70.8399 94.0647C70.1256 94.8403 70.1664 97.5343 68.1663 96.7383C68.3092 90.9217 73.391 90.0441 74.4319 85.1255C76.2483 83.6765 78.0851 82.2274 80.6975 81.5539C79.8607 77.4517 84.1466 78.4314 84.269 75.3088C85.963 74.921 86.514 73.3903 88.7386 73.5128C91.2081 68.8391 93.698 64.1654 100.351 63.6756C100.474 63.1042 100.209 62.4511 100.351 61.8796C100.698 60.5734 101.453 61.7572 102.147 60.9816C104.025 58.8795 105.331 57.0223 107.515 59.1856C107.229 57.1039 107.658 55.7569 108.413 54.716C109.658 54.7773 110.372 54.267 111.087 53.818C111.617 53.4915 112.27 52.3894 112.883 52.022C113.781 51.4914 114.821 51.5934 115.556 51.124C116.087 50.7975 116.76 49.7158 117.352 49.328C119.067 48.2259 119.271 47.9606 120.924 47.532C121.842 47.3075 121.332 46.9402 121.822 46.634C122.352 46.3075 122.985 45.1646 123.618 44.838C124.883 44.1849 125.965 44.5727 127.189 43.94C127.679 43.6951 128.393 42.4094 128.985 42.144C129.475 41.94 130.251 42.2665 130.781 42.144C132.353 41.7563 133.271 40.9195 134.353 40.348C135.149 39.9399 134.639 39.5317 136.149 39.45C137.108 39.4092 136.639 38.7357 137.047 38.552C138.047 38.1235 139.578 38.8786 140.618 38.552C140.945 38.45 141.965 36.9601 142.414 36.756C142.904 36.5315 143.68 36.8785 144.21 36.756C145.108 36.5315 144.619 36.1642 145.108 35.858C145.843 35.409 146.7 34.2253 147.782 34.062C148.986 34.3478 149.496 35.3274 151.354 34.96C151.027 31.2048 154.272 34.3274 155.823 34.062C156.027 32.5926 158.17 31.7966 159.395 31.3885C160.272 31.0823 160.109 32.2456 160.293 32.2865C161.211 32.4701 160.946 31.4497 161.191 31.3885C164.987 30.5517 168.089 30.8578 172.804 30.4905C176.518 30.2251 181.498 28.9598 184.416 28.6945C187.539 28.4087 189.519 28.0822 190.682 27.7965C191.723 27.5516 193.172 27.7965 194.254 27.7965C202.376 27.7965 210.52 31.2048 217.499 28.6945C217.112 31.4701 220.887 29.7761 220.173 29.5925C221.989 30.0619 223.316 31.1436 224.643 31.3885C225.5 31.5313 226.459 31.2864 227.316 31.3885C229.153 31.613 233.296 33.7151 234.459 31.3885C231.255 30.817 228.929 30.2251 226.418 29.5925C225.949 29.47 225.459 28.6945 225.52 28.6945C221.622 27.8985 217.377 28.5516 213.907 27.7965C213.785 27.7761 213.642 27.0617 213.009 26.8985C210.724 26.327 209.071 26.8985 208.54 25.1025C212.887 22.8983 218.52 24.9596 221.949 25.1025C224.99 25.2249 227.806 27.4291 229.99 25.1025C223.316 24.8167 216.969 22.8371 210.336 22.4289C207.05 22.2248 203.805 22.6942 200.499 22.4289C198.213 22.2452 196.539 21.5309 194.233 21.5309C192.172 21.5309 189.866 22.286 187.968 22.4289C182.661 22.8167 176.6 22.6126 173.661 23.3269C170.844 24.0004 170.538 23.7759 170.089 23.3269C169.477 22.7146 167.64 24.1637 167.416 24.2249C163.558 25.0617 160.681 25.8576 157.578 26.0209C156.803 26.0617 156.844 26.8781 156.68 26.9189C153.884 27.5311 151.068 27.0821 148.639 27.8169C148.313 27.9189 147.292 29.4088 146.843 29.6129C145.619 30.1435 144.129 30.1843 143.272 30.5109C141.067 31.3681 139.823 31.8987 138.802 32.3069C137.006 33.0212 134.781 33.6335 133.434 34.1029C131.536 34.756 129.7 35.409 128.965 35.8989C128.026 36.4907 127.291 37.2867 126.291 37.6949C124.393 38.45 123.189 38.7357 121.822 39.4909C120.148 40.4093 118.699 42.1032 117.352 42.1644C116.332 42.2257 116.944 42.7359 116.454 43.0624C114.76 44.1441 113.74 44.0625 111.985 44.8584C111.658 45.0013 111.474 46.4299 111.087 46.6544C109.903 47.3075 108.617 46.8381 107.515 47.5524C107.229 47.7361 106.862 49.0423 106.617 49.3484C106.372 49.6546 105.148 49.1035 104.821 49.3484C104.066 49.9403 103.821 51.4506 103.025 52.022C102.27 52.5731 101.025 52.4506 100.351 52.92C100.045 53.1241 99.7187 54.3895 99.4534 54.716C99.2085 55.0222 97.9839 54.4711 97.6574 54.716C95.9838 56.0018 94.8818 57.8386 93.1878 59.1856C91.5755 60.4714 89.3305 61.4306 87.8202 62.7572C85.4528 64.8593 83.4935 67.5737 81.575 69.0024C79.4933 70.5535 79.7382 70.7167 78.9015 72.574C78.7994 72.8189 77.33 73.2066 77.1055 73.472C74.7992 76.2272 72.942 78.2477 70.8399 80.6151C69.4725 82.1458 67.6561 83.5745 66.3703 85.0847C65.1662 86.5134 65.1253 87.4726 64.5743 88.6563C64.4518 88.9216 63.0028 89.2686 62.7783 89.5543C60.4108 92.6157 57.8189 96.6975 55.6351 98.4935C55.329 98.7384 55.88 99.9629 55.6351 100.289C55.0637 101.045 53.5534 101.33 52.9615 102.085C52.6758 102.432 53.1452 103.453 52.9615 103.881C52.8391 104.167 51.39 104.453 51.1655 104.779C50.6349 105.555 50.6757 106.78 50.2675 107.453C50.1247 107.678 49.6349 107.922 49.3695 108.351C48.9614 108.984 48.8185 109.555 48.4715 110.147C47.5123 111.759 45.8592 113.331 45.798 114.617C45.7367 115.617 45.1449 115.045 44.9 115.515C44.2469 116.78 44.6142 117.862 44.002 119.086C43.9611 119.168 43.308 119.678 43.104 119.984C41.5325 122.454 40.5324 125.597 39.5324 128.025C38.9201 129.495 37.7772 131.719 37.7364 132.495C37.6955 133.434 36.9812 133.005 36.8384 133.393C36.0424 135.373 36.471 137.577 35.9404 138.761C35.7771 139.108 34.3076 139.23 34.1444 139.659C33.675 140.924 33.5117 142.393 33.2464 143.23C30.6544 151.598 29.6136 160.006 27.8788 168.252C27.0828 172.027 25.6746 175.742 25.2052 178.966C25.0215 180.293 25.5522 182.273 24.3072 182.538C23.001 182.436 23.6745 181.048 23.4092 179.864C22.6132 176.15 22.6745 174.925 23.4092 170.925C25.2868 160.578 27.5931 149.679 29.6748 141.434C29.8176 140.822 30.532 140.659 30.5728 140.536C31.5116 137.516 31.4504 135.026 32.3688 134.271C32.6341 134.046 32.1851 132.822 32.3688 132.475C32.6545 131.964 33.8586 131.291 34.1648 130.679C34.9811 129.066 35.2261 126.842 35.9608 125.311C37.4711 122.127 39.4915 119.311 40.4304 116.372C39.3691 116.229 37.8996 116.535 37.7568 115.474C39.0017 115.168 39.3079 114.127 40.4304 113.678C41.3488 113.331 42.41 115.494 42.2264 112.78C43.4713 112.025 43.4917 110.351 44.0224 109.208C45.9408 104.984 48.7981 102.616 49.3899 97.5955C50.4104 97.7383 50.7369 97.1465 51.1859 96.6975C53.1044 94.8198 55.0433 92.9014 55.6555 90.4319C53.3901 86.4521 56.1862 83.5949 58.3291 81.4927C61.2272 84.6561 55.5331 84.6357 56.5331 88.6359C58.6148 88.942 59.0843 86.1256 60.1047 85.0643C61.3905 83.7377 63.3498 82.8805 64.5743 81.4927C64.86 81.1662 64.2682 80.0029 64.5743 79.6967C64.86 79.411 66.105 80.0029 66.3703 79.6967C66.9826 79.0028 66.656 77.7783 67.2683 77.0231C68.6357 75.3292 70.6562 74.7985 70.8399 72.5536C73.6563 72.5944 74.5543 69.6759 76.2075 68.084C81.4118 63.0837 86.0038 57.9407 91.4122 53.7772C93.3307 52.3078 96.29 51.0016 98.5554 49.3076C101.433 47.1443 103.413 43.2257 107.495 43.94C108.78 42.3277 110.454 39.5521 111.964 39.4705C113.597 39.3888 114.25 37.7561 115.536 37.6745C116.515 37.6132 115.985 37.001 116.434 36.7765C117.148 36.4295 118.413 37.1438 119.107 36.7765C119.373 36.6336 118.883 35.205 119.107 34.9805C119.393 34.6947 120.516 35.1641 120.903 34.9805C123.291 33.7967 125.699 32.6538 128.046 31.4089C130.598 30.0415 133.455 29.2659 135.19 26.9393C136.598 26.6331 138.292 27.3475 139.659 26.9393C139.965 26.8576 141.047 25.3678 141.455 25.1433C142.414 24.6331 143.353 24.6943 144.129 24.2453C145.945 23.2044 147.415 21.5717 148.598 21.5717C148.68 21.5717 148.884 24.531 150.394 23.3677C149.252 19.8369 152.844 21.0411 153.966 19.7961C154.313 21.3268 152.639 22.0819 153.966 22.4697C154.129 21.1431 156.129 21.6533 157.538 21.5717C161.232 18.5512 166.416 19.6328 172.722 18.8981C173.62 18.7961 173.763 18.1838 174.518 18.0001C175.64 17.7348 176.947 18.143 178.09 18.0001C181.967 17.5307 185.376 17.4082 188.804 17.1021C192.458 16.7756 192.192 16.6735 194.172 17.1021C194.988 17.2858 196.009 17.0409 196.845 17.1021C204.642 17.6123 214.989 19.0002 220.969 17.1021C222.03 16.9797 222.989 15.5102 223.643 17.1021C223.561 18.5103 221.357 17.796 221.847 19.7757H227.214C229.684 20.1635 228.051 16.449 229.888 16.2041C232.725 16.796 236.847 19.3267 238.827 18.0001C239.235 15.5714 235.684 15.6735 234.357 15.3265C232.48 14.8163 229.847 14.7347 228.092 14.4285C213.193 11.9386 191.213 10.5712 176.253 12.6325C172.395 13.1632 168.13 12.857 164.64 13.5305C164.762 13.5101 164.089 14.2857 163.742 14.4285C163.517 14.5102 163.089 14.4285 162.844 14.4285C161.987 14.4693 162.232 15.2449 161.946 15.3265C160.374 15.7959 158.64 15.9388 157.476 16.2245C152.537 17.4287 141.741 18.0817 139.598 20.6941C139.394 20.939 138.129 20.5717 137.802 20.6941C135.679 21.5309 134.312 22.6738 132.434 23.3677C130.904 23.9392 128.598 23.6738 127.067 24.2657C126.965 24.3065 127.148 25.0617 127.067 25.1637C126.842 25.429 125.618 24.98 125.271 25.1637C124.761 25.4494 124.067 26.6536 123.475 26.9597C122.128 27.6536 120.332 28.0618 119.005 28.7557C117.679 29.4496 115.679 29.919 114.536 30.5517C114.046 30.817 113.291 32.0007 112.74 32.3477C111.719 32.9804 110.801 33.2253 110.066 34.1437C109.842 34.409 108.617 33.96 108.27 34.1437C107.76 34.4294 107.046 35.5927 106.474 35.9397C101.943 38.797 96.4737 41.8175 93.9633 44.8789C93.7184 45.1646 92.4939 44.6544 92.1674 44.8789C91.5959 45.2666 91.0449 46.1646 90.3714 46.6749C88.7794 47.8586 86.8814 50.2056 85.9018 50.2464C84.1466 50.3281 83.9833 52.3078 83.2282 52.92C81.922 53.9813 79.8607 54.614 78.7586 55.5936C75.7993 58.2468 73.2686 62.0633 70.7174 63.6348C68.6765 64.9002 61.8599 71.1249 61.7783 72.574C61.717 73.6148 61.2068 72.9617 60.8803 73.472C59.3904 75.7374 57.8393 77.1048 56.4107 78.8395C55.329 80.1457 52.8799 82.5336 52.8391 83.3091C52.7779 84.35 52.2676 83.6969 51.9411 84.2071C50.3696 86.5746 48.9205 88.5543 47.4715 90.4727C46.5327 91.6768 45.8388 92.6565 44.7979 94.0443C43.7162 95.4525 41.2671 97.6771 41.2263 98.5139C41.1651 99.5343 40.5936 98.9425 40.3283 99.4119C39.2262 101.392 38.4303 102.514 37.6547 103.881C37.0425 104.922 36.7567 105.841 35.8587 106.555C35.5934 106.78 36.0424 108.025 35.8587 108.351C35.573 108.861 34.4097 109.576 34.0627 110.147C33.5321 111.045 33.7158 111.8 33.1647 112.821C32.8994 113.331 31.6545 114.004 31.3687 114.617C31.0218 115.331 31.5932 116.535 31.3687 117.29C31.2667 117.617 29.7564 118.617 29.5727 119.086C29.3687 119.596 29.7156 120.331 29.5727 120.882C29.0625 122.923 27.4502 125.168 26.8992 126.25C26.4297 127.148 26.5522 127.944 26.0012 128.923C25.7358 129.413 24.5725 130.189 24.2052 130.719C23.6541 131.495 24.2868 133.087 22.4092 132.515C21.3683 131.189 21.3683 130.27 22.4092 128.944C24.2256 128.678 24.797 127.148 25.9807 126.27V120.005C28.9605 120.005 28.3482 116.413 30.4503 115.535C30.0217 112.719 32.0626 112.372 31.3483 109.29C35.3689 107.943 35.1648 102.371 38.4915 100.351C38.9609 97.8404 39.7977 95.6974 40.2875 93.2075C43.104 93.6361 42.655 90.7993 44.7571 90.5339C44.6346 87.8808 47.0837 87.2481 47.4307 86.9624C47.9817 86.5134 46.5327 85.8195 46.5327 86.0644C46.5531 84.8398 46.9 84.1051 47.4307 83.3908C48.7573 84.4316 49.6757 84.4316 51.0023 83.3908C52.5942 81.3907 52.288 77.513 55.4719 77.1252C55.7372 75.37 54.2677 75.3496 53.6758 74.4516C55.2473 74.7169 56.4515 70.2473 57.2474 72.6556C59.5333 72.5536 60.37 71.0229 61.717 69.982C59.9414 69.982 60.5741 67.5533 58.1454 68.186C57.3699 70.778 56.7984 69.1861 54.5738 69.084C52.7779 71.7576 51.2268 74.6761 48.3083 76.2272C47.9409 78.3701 49.941 78.166 49.2063 80.6968C45.9408 83.9826 43.6346 88.2277 40.2671 91.4115C39.0425 91.4524 38.3078 90.9829 37.5935 90.5135C38.4099 92.5749 35.7363 92.9626 34.9199 94.0851C34.3076 94.9423 34.573 95.7383 34.0219 96.7587C33.7566 97.2485 32.5729 98.0037 32.2259 98.5547C31.6953 99.3915 31.7769 100.534 31.3279 101.228C31.0014 101.759 29.9197 102.432 29.5319 103.024C27.6951 105.78 24.6746 110.821 24.1643 112.861C23.5317 115.372 23.0827 114.78 22.3683 116.433C20.9193 119.821 19.8376 123.372 18.7968 127.148C18.7968 127.638 19.5111 128.168 19.6948 127.148C20.3887 127.352 20.7356 127.903 20.5928 128.944C19.3274 133.026 16.9599 136.026 16.1232 140.557C14.8986 140.597 14.1639 140.128 13.4496 139.659C13.8373 143.965 12.3679 144.842 11.6536 147.7C11.225 149.373 10.5515 151.006 9.85758 153.067C9.40858 154.435 8.36772 156.108 8.06158 157.537C7.8779 158.374 8.14322 159.353 8.06158 160.211C7.93913 161.415 7.24522 162.129 7.16358 162.884C7.16358 163.007 8.16363 163.639 8.06158 164.68C8.06158 164.578 7.28604 165.109 7.16358 165.578C7.02072 166.109 7.18399 166.823 7.16358 167.374C6.89827 172.885 6.59213 179.13 6.26558 182.558C5.57168 190.069 5.4084 198.09 4.46959 205.784C1.00004 205.743 3.18381 209.56 0.897999 207.58C0.591863 207.315 0.959226 206.294 0 206.682V214.723C0.918408 214.886 0.755136 215.499 0.897999 216.519C1.46945 220.866 1.347 223.621 1.796 226.356C2.73482 232.132 3.3675 238.969 4.46959 243.337C5.57168 247.602 7.14317 254.5 8.04117 256.745C8.12281 256.97 8.04117 257.398 8.04117 257.643C8.08199 258.501 8.85754 258.256 8.93917 258.541C9.34735 259.888 9.36776 261.644 9.83717 263.011C11.8169 268.889 14.3068 275.95 16.0823 280.889C16.4701 281.951 16.8987 282.196 16.9803 283.563C17.0212 284.502 17.7151 284.073 17.8783 284.461C18.5518 286.114 19.0825 287.767 19.6539 289.359C17.4906 287.951 15.368 286.522 13.2659 285.032C13.2659 285.318 13.2659 285.624 13.2659 285.93C13.8169 287.094 15.3272 286.686 15.7966 287.196C16.266 287.706 15.7558 288.4 15.7966 288.461C17.0416 290.175 18.858 292.706 19.5927 293.523C20.3683 294.38 19.2253 295.502 19.5927 296.053C19.8172 296.38 21.0622 296.502 20.8581 296.053C21.8173 298.033 21.8785 298.992 22.7561 300.482C24.2868 303.074 25.4501 302.666 25.2868 304.278C25.2256 304.809 26.7971 306.972 27.1849 307.442C28.1645 308.584 29.2462 309.197 30.2462 309.319C30.2871 309.36 30.3483 309.401 30.3891 309.442C31.5728 311.523 29.3074 313.585 31.6136 315.646C32.6341 315.687 33.0831 316.666 34.1444 316.911C34.7158 317.054 35.1648 316.993 35.6138 316.952C36.022 317.564 36.4506 318.177 36.8996 318.789C36.4506 319.646 35.8179 320.483 37.3078 321.34C38.3078 323.361 40.2263 323.728 41.2059 324.157C41.3692 324.34 41.512 324.524 41.6753 324.708C41.512 325.157 41.0426 326.218 41.1039 326.402C41.3284 327.014 42.5529 327.789 43.0019 328.3C48.7573 334.892 55.7984 340.953 60.6966 344.729C65.5335 348.464 69.8194 350.954 73.3298 353.586C74.4931 354.464 75.2891 355.913 76.4932 356.75C80.575 359.546 85.7589 361.873 90.3918 364.342C91.7184 365.036 92.6572 365.791 93.5552 366.24C94.2899 366.607 95.7798 367.24 96.0859 367.505C96.7798 368.138 96.9839 367.342 97.3512 367.505C98.7799 368.118 99.8616 369.526 101.147 370.036C101.249 370.077 101.658 369.424 101.78 369.403C102.107 369.363 102.698 370.546 103.045 370.669C103.168 370.71 103.535 370.057 103.678 370.036C104.005 369.995 104.617 371.179 104.943 371.302C105.454 371.485 106.535 371.648 106.841 371.934C108.066 373.036 109.678 372.342 110.638 373.2C111.372 373.853 111.434 373.036 111.903 373.2C114.27 374.016 116.434 375.526 118.862 376.363C119.699 376.649 119.638 375.996 120.76 376.996C121.985 378.098 123.597 377.404 124.557 378.261C125.291 378.914 125.353 378.098 125.822 378.261C126.985 378.649 128.332 378.955 129.618 379.526C131.108 380.179 132.128 381.649 133.414 382.057C133.761 382.159 134.884 381.363 135.312 381.424C135.598 381.465 137.843 382.69 137.843 382.69C138.598 383.363 138.598 382.547 139.108 382.69C140.006 382.935 140.639 383.751 141.639 383.955C142.721 384.159 144.313 383.792 145.435 383.955C148.333 384.363 150.211 384.812 152.395 384.588C152.782 384.547 153.272 385.792 153.66 385.853C154.129 385.935 155.048 385.2 155.558 385.221C156.497 385.261 157.089 386.363 158.089 386.486C159.783 386.69 162.742 385.71 163.783 385.853C164.803 385.996 165.375 387.037 166.313 387.119C168.354 387.282 170.742 386.445 172.008 386.486C172.885 386.527 173.62 387.71 174.538 387.751C177.375 387.894 180.13 387.098 182.763 387.119C185.498 387.139 188.58 387.751 190.988 387.751C193.192 387.751 199.744 387.772 200.458 387.119C201.152 386.486 202.764 386.649 203.621 386.486C207.07 385.874 211.316 385.792 213.724 385.221C215.54 384.792 217.724 384.914 218.785 383.955C219.52 383.282 221.051 383.527 221.949 383.322C222.745 383.139 224.541 383.2 225.112 382.69C226.03 381.853 228.092 381.588 228.908 381.424C229.378 381.322 230.296 382.139 230.806 382.057C231.623 381.935 232.663 380.975 233.337 380.792C234.541 380.465 235.745 379.935 237.133 379.526C240.296 378.588 242.113 378.567 244.725 376.996C246.215 376.098 247.787 376.628 249.154 376.363C250.44 376.098 252.276 375.689 252.95 375.098C253.664 374.465 253.828 375.261 254.215 375.098C254.97 374.771 255.379 373.587 256.113 373.2C256.42 373.036 258.195 373.404 258.644 373.2C259.399 372.853 259.807 371.689 260.542 371.302C260.848 371.138 262.624 371.526 263.073 371.302C264.032 370.812 266.318 369.628 266.236 368.138C265.767 369.057 264.767 368.648 264.338 368.771C261.869 369.485 260.665 370.73 258.644 371.934C257.971 372.342 257.685 371.812 257.379 371.934C254.297 373.159 251.603 375.22 248.521 374.465C250.236 371.853 254.889 369.689 256.113 369.403C258.318 368.914 261.359 367.342 262.44 366.873C264.134 366.138 266.379 365.016 267.502 364.342C270.359 362.607 273.726 359.872 275.094 359.281C276.89 358.505 277.359 358.138 278.89 356.75C279.482 356.219 279.992 356.852 280.155 356.75C282.502 355.321 284.074 353.362 286.482 351.688C286.482 351.688 287.298 351.933 287.747 351.688C288.482 351.301 288.972 350.301 289.646 349.79C292.34 347.79 293.523 346.647 295.972 344.729C297.258 343.729 298.013 343.892 299.136 342.831C300.319 341.708 300.646 340.239 301.666 339.035C306.197 333.688 312.442 328.953 316.83 323.871C317.912 322.605 317.749 321.952 318.728 320.707C319.626 319.544 321.035 318.748 321.892 317.544C323.137 315.83 323.831 313.626 325.055 311.85C327.28 308.605 330.729 304.523 331.382 302.992C331.464 302.768 331.851 302.543 332.015 302.36C332.525 301.788 331.933 301.237 332.015 301.094C332.954 299.625 333.688 299.115 334.117 298.625C333.3 302.727 331.688 306.625 330.627 310.034C330.423 310.217 330.402 310.401 330.464 310.585C330.3 311.115 330.158 311.646 330.035 312.176C330.035 312.197 330.035 312.238 330.035 312.258C328.117 314.932 325.912 316.871 323.157 320.054C320.729 322.871 318.096 327.279 316.198 329.524C314.198 331.932 313.034 333.565 312.402 334.586C311.83 335.504 310.646 336.361 309.871 337.116C304.116 342.851 295.952 346.219 292.809 352.913C291.115 350.688 289.646 354.546 290.278 354.178C288.666 355.138 286.952 355.301 285.849 356.076C285.135 356.587 284.645 357.423 283.951 357.974C282.502 359.117 278.074 360.546 278.89 363.036C281.564 361.158 283.604 359.954 285.849 358.607C286.258 358.362 287.156 358.566 287.115 358.607C290.441 356.423 292.972 352.933 295.952 351.015C296.054 350.954 296.646 351.362 297.217 351.015C299.238 349.811 300.013 348.219 301.646 349.117C300.136 353.75 294.687 356.28 292.176 358.587C289.931 360.648 286.4 361.077 286.482 364.281C291.421 359.77 297.299 356.668 302.279 352.28C304.748 350.117 306.707 347.484 309.238 345.321C310.973 343.831 312.667 343.157 314.3 341.525C315.749 340.076 316.851 337.892 318.096 336.463C319.933 334.341 322.035 332.177 323.831 330.238C322.688 332.994 321.688 335.606 320.198 338.076C322.627 338.953 322.198 335.545 322.871 334.504C323.137 334.116 324.341 334.035 324.667 333.606C325.198 332.892 325.137 331.565 325.565 330.932C325.647 330.79 326.321 331.034 326.463 330.932C326.729 330.708 326.28 329.483 326.463 329.136C326.749 328.647 327.892 327.891 328.259 327.34C329.341 325.687 330.607 323.932 330.872 322.381C331.015 322.054 331.117 321.687 331.178 321.361C331.362 321.279 331.627 321.361 331.811 321.075C333.076 319.156 333.709 317.564 334.566 315.646C335.341 314.503 336.137 313.421 337.035 312.421C337.546 311.85 336.954 311.299 337.035 311.156C338.566 308.748 340.893 307.074 342.097 304.829C342.26 304.523 341.934 302.747 342.097 302.298C342.587 301.053 343.628 299.972 343.995 299.135C344.954 296.972 345.464 295.727 345.893 294.706C346.648 292.931 347.791 290.931 348.424 289.645C349.301 287.849 350.138 286.073 350.322 285.216C350.567 284.134 350.526 283.053 350.954 282.053C351.771 280.175 352.403 279.114 352.852 277.624C353.403 275.807 353.22 273.603 354.097 272.583C354.097 272.93 354.097 273.256 354.159 273.644C357.832 273.562 355.506 267.501 356.832 267.379C356.71 266.011 357.016 265.256 357.73 264.705C358.138 264.378 357.036 263.378 356.832 263.807C357.546 262.215 358.118 262.705 359.506 261.133C358.506 260.807 357.853 260.113 357.751 258.868C357.812 258.786 357.873 258.725 357.873 258.664C357.873 258.603 357.873 258.541 357.873 258.48C360.2 258.786 358.383 257.276 358.608 256.684C359.077 255.5 359.894 255.113 360.404 254.011C358.547 253.786 360.404 252.051 360.404 251.337C360.404 250.806 359.506 250.276 359.506 250.439C359.506 249.521 360.302 249.398 360.404 248.643C360.669 246.684 359.424 246.949 360.404 245.969C361.016 245.357 361.118 244.316 361.302 243.296C361.771 240.745 361.996 238.561 362.2 237.928C362.628 236.52 362.812 235.275 363.098 234.357C363.343 233.54 362.812 232.479 363.098 231.683C363.486 230.561 364.302 230.683 364.812 229.969C364.812 232.622 364.812 235.234 364.771 237.806C362.853 238.112 362.2 241.786 363.975 242.398C364.302 241.99 364.486 241.439 364.669 240.867C364.588 242.602 364.445 244.337 364.22 246.051C363.975 247.888 363.241 250.072 362.73 252.255C361.832 252.704 362.036 254.276 361.322 254.909C361.73 255.011 362.016 255.011 362.281 254.949C361.996 258.358 362.996 262.133 359.812 264.378C360.036 266.419 360.832 269.583 359.812 270.705C358.71 271.93 359.404 273.542 358.547 274.501C357.893 275.236 358.71 275.297 358.547 275.767C358.302 276.522 356.893 276.91 356.648 277.665C356.567 277.95 357.914 278.624 357.914 278.93C357.914 279.338 356.771 279.808 356.648 280.195C355.791 282.726 354.893 285.236 354.118 287.788C353.261 290.563 351.812 293.135 352.22 296.012C351.444 297.217 349.75 297.911 349.056 299.176C348.913 299.441 349.179 301.278 349.056 301.707C348.75 302.747 348.015 303.38 347.791 304.237C347.24 306.258 347.362 308.442 346.526 309.299C346.464 309.36 344.24 307.401 343.995 309.299C347.301 310.993 343.913 312.666 343.995 314.36C342.668 313.523 343.321 311.809 342.097 312.462C342.913 313.523 341.158 314.564 340.199 315.626C339.729 320.381 335.301 323.279 331.341 328.259C330.77 328.973 331.117 329.504 330.709 330.157C330.096 331.136 328.892 331.769 328.178 332.688C325.79 335.769 323.443 338.239 321.218 340.892C318.871 343.708 319.137 343.586 317.422 344.688C316.708 345.137 316.157 346.035 315.524 346.586C309.667 351.75 301.36 358.076 298.462 363.648C297.809 364.485 298.156 366.199 296.564 365.546C295.625 364.485 297.687 363.444 295.931 362.383C294.666 363.648 293.401 364.913 292.135 366.179C290.115 367.648 293.891 369.118 292.768 370.608C290.339 372.2 285.645 373.322 285.176 375.669C286.605 377.669 289.033 375.098 290.237 374.404C291.931 373.424 293.85 371.648 295.299 370.608C307.585 361.832 324.096 347.26 333.219 335.218C335.566 332.116 338.811 329.32 340.811 326.361C340.75 326.463 340.668 325.422 340.811 325.095C340.893 324.871 341.28 324.646 341.444 324.463C342.015 323.83 341.301 323.463 341.444 323.197C342.219 321.748 343.362 320.422 343.974 319.401C346.607 315.054 353.791 306.972 353.465 303.605C353.424 303.298 354.587 302.666 354.73 302.339C355.036 301.625 355.24 300.972 355.444 300.319C357.649 299.564 357.22 296.87 357.73 295.176C357.832 294.87 359.302 293.808 359.526 293.38C360.2 292.012 360.628 290.318 361.322 288.91C362.036 287.42 362.649 286.032 363.118 285.339C365.241 282.155 364.22 276.44 367.588 273.726C368.016 272.522 366.649 271.746 366.69 271.052C366.731 270.358 367.567 270.215 367.588 270.154C367.914 268.052 368.425 264.991 368.486 263.889C368.547 262.725 370.139 262.746 370.282 262.093C370.363 261.705 369.547 260.725 369.384 261.195C370.098 259.133 370.731 258.399 371.18 256.725C371.935 253.806 370.833 253.276 372.078 252.255C372.363 252.01 372.67 250.602 372.853 249.582C372.731 251.357 372.119 253.133 371.853 254.909C374.159 255.48 372.608 258.909 374.384 257.439C374.18 255.745 374.384 253.664 374.384 251.112C374.384 249.092 376.874 245.99 372.833 246.643C372.67 246.031 372.425 245.5 372.078 245.092C372.323 244.051 373.037 243.5 373.751 242.969C374.078 243.786 374.527 244.622 374.996 245.439C377.405 241.337 375.506 236.112 376.894 230.908C377.364 229.193 378.772 227.54 379.425 225.846C379.486 225.683 378.813 224.193 378.792 223.948C378.751 223.56 380.078 223.07 380.058 222.683C380.058 222.499 378.731 220.091 378.792 220.152C378.16 219.438 378.956 219.295 378.792 218.887L378.854 218.948ZM8.38813 175.456C9.6739 172.782 7.6534 172.415 9.28613 170.088C10.6535 170.088 11.2454 176.721 8.38813 175.456ZM354.22 271.419C354.22 271.419 354.261 271.256 354.281 271.154C354.261 271.317 354.261 271.522 354.24 271.685C354.199 271.603 354.199 271.522 354.22 271.419ZM331.79 245.296C330.341 247.174 328.892 249.051 327.443 250.908C327.892 248.337 328.362 245.786 330.137 244.255C330.137 245.133 331.035 245.153 331.79 245.276V245.296ZM151.394 110.208C152.068 109.392 153.007 108.82 154.068 108.412C154.374 108.29 155.66 108.657 155.864 108.412C156.231 107.984 158.374 106.412 160.334 105.739C162.864 104.861 164.538 104.943 167.477 103.943C167.783 103.841 167.477 103.106 168.375 103.045C169.64 102.983 171.661 101.8 173.742 101.249C185.865 98.1057 205.05 99.3302 217.54 102.147C219.663 102.616 221.214 103.514 222.908 103.943C227.541 105.106 233.174 107.8 238.113 110.208C239.664 110.963 241.929 112.8 243.48 112.882C244.868 112.964 247.786 115.392 249.746 116.453C250.827 117.045 252.338 117.637 253.317 118.249C254.562 119.005 255.542 120.066 256.889 120.923C257.909 121.576 259.522 122.066 260.461 122.719C261.399 123.352 262.073 124.638 263.134 125.393C264.195 126.148 265.91 126.495 266.706 127.189C267.889 128.189 268.808 129.291 270.277 130.76C271.318 131.801 272.788 133.168 273.849 134.332C274.42 134.964 274.237 136.352 274.747 137.005C275.808 138.393 278.359 140.352 280.114 142.373C281.278 143.72 282.727 144.761 283.686 145.945C284.788 147.292 285.319 148.965 286.36 150.414C286.89 151.149 287.605 151.271 288.156 152.21C288.952 153.598 289.788 154.863 290.829 156.68C291.278 157.476 291.197 158.374 291.727 159.353C292.033 159.945 293.237 160.639 293.523 161.149C294.584 163.129 295.095 166.354 296.197 169.19C296.299 169.456 296.911 169.374 297.095 170.088C297.564 171.946 297.156 172.15 297.993 174.558C298.156 175.027 299.687 176.007 299.789 176.354C300.462 178.538 299.891 179.987 300.687 182.62C300.728 182.742 301.422 182.905 301.585 183.518C301.993 185.171 301.789 187.048 302.483 189.783C303.054 192.049 304.83 198.539 305.156 202.294C305.585 206.927 304.911 211.886 305.156 217.478C305.361 221.968 306.442 229.663 306.054 237.132C305.912 239.99 305.463 242.826 305.156 246.969C305.116 247.52 305.299 248.214 305.156 248.765C305.034 249.255 304.258 249.725 304.258 249.663C303.687 254.623 304.279 259.46 302.462 262.174C301.891 263.031 301.891 263.582 301.564 264.848C301.34 265.725 300.87 265.297 300.666 265.746C299.87 267.583 299.687 269.889 298.87 271.113C298.421 271.787 297.605 272.052 297.074 272.909C296.462 273.889 294.646 277.175 291.707 276.481C290.707 277.583 290.931 278.318 292.605 278.277C292.135 278.991 291.666 279.726 291.707 280.951C289.768 281.053 288.931 284.359 287.237 285.42C286.911 285.624 285.686 285.134 285.441 285.42C284.645 286.4 283.298 288.379 280.972 286.318C281.482 285.298 282.788 285.216 283.645 284.522C284.339 283.971 284.727 283.318 285.441 282.726C286.686 281.685 288.401 280.849 289.013 279.155C286.768 277.971 286.217 282.685 285.441 280.053C286.094 278.644 285.829 276.828 286.339 275.583C286.829 274.399 288.931 273.624 289.013 272.011C289.054 271.236 290.033 269.644 290.809 268.44C290.993 268.174 291.686 267.583 291.707 267.542C291.931 267.032 290.605 266.501 290.809 265.746C290.931 265.297 292.442 265.195 292.605 264.848C293.482 262.95 293.278 260.399 294.401 257.705C294.564 257.317 295.238 257.745 295.299 256.807C295.299 256.562 295.217 256.133 295.299 255.909C295.483 255.48 296.197 255.031 296.197 255.011C296.993 251.99 296.483 248.745 297.095 245.173C297.095 245.092 297.952 244.99 297.993 244.275C297.993 243.928 297.768 241.786 297.993 241.602C298.523 241.173 299.421 239.03 298.891 236.234C300.891 235.255 300.462 231.846 302.462 230.867C302.299 230.112 302.809 230.03 303.36 229.969C302.973 228.642 302.217 230.316 300.687 229.969C300.952 219.683 300.503 210.437 299.789 200.478C299.748 199.927 299.932 199.233 299.789 198.682C299.177 196.212 298.197 189.722 297.115 185.273C295.319 178.028 292.299 170.558 289.074 163.823C288.87 163.394 288.237 163.905 288.176 162.925C288.156 162.517 287.503 161.639 287.278 161.129C286.931 160.374 286.849 159.415 286.38 158.455C284.972 155.578 283.053 152.68 281.012 149.516C280.033 147.985 279.257 146.312 278.339 145.047C277.972 144.536 277.502 145.189 277.441 144.149C277.359 142.74 272.584 138.638 271.175 137.005C270.094 135.74 268.828 134.883 267.604 133.434C266.502 132.128 265.971 129.964 264.93 128.964C263.991 128.066 261.746 127.27 260.461 126.291C258.971 125.148 258.236 123.74 256.889 122.719C256.093 122.107 254.95 122.393 254.215 121.821C253.603 121.352 253.113 120.576 252.419 120.025C250.97 118.882 249.929 117.147 248.848 116.453C247.582 115.637 245.439 115.637 243.48 114.657C242.888 114.372 242.194 113.147 241.684 112.861C239.97 111.943 238.582 112.29 236.317 111.065C235.827 110.8 234.949 109.453 234.521 109.269C234.01 109.065 233.255 109.392 232.725 109.269C231.929 109.065 231.194 108.657 230.051 108.371C229.275 108.188 229.459 107.576 229.153 107.473C227.275 106.861 225.01 107.127 222.887 106.575C222.847 106.575 222.52 105.82 221.989 105.677C219.602 105.086 214.907 104.433 211.275 103.881C205.458 103.024 195.458 102.351 187.151 102.983C180.437 103.494 173.559 105.208 167.497 106.555C165.803 106.943 163.783 107.024 162.13 107.453C161.905 107.514 162.048 108.31 161.232 108.351C160.905 108.351 158.742 108.127 158.558 108.351C157.538 109.596 152.17 109.759 149.619 111.923C145.925 110.535 150.925 110.719 151.415 110.127L151.394 110.208ZM294.401 287.175C293.197 290.645 292.442 293.114 289.033 295.216C287.666 296.053 285.829 296.4 284.564 297.013C284.135 297.217 283.094 298.706 282.768 298.809C281.972 299.053 280.87 298.502 280.094 298.809C279.645 298.992 278.135 301.503 277.42 299.706C276.727 297.359 279.053 298.584 280.094 297.911C280.747 297.502 281.074 296.625 281.89 296.115C283.176 295.298 285.013 294.4 286.36 293.441C288.952 291.563 290.992 288.135 294.401 287.175ZM290.829 286.277C291.441 284.522 293.217 283.889 295.299 283.604C294.687 285.359 292.911 285.992 290.829 286.277ZM281.89 303.258H282.115C281.298 303.87 280.482 304.462 279.645 305.054C280.237 304.319 280.849 303.564 281.89 303.258ZM295.299 290.747C295.564 290.747 295.809 290.706 296.054 290.665C295.727 291.012 295.421 291.38 295.095 291.727C295.176 291.4 295.238 291.094 295.299 290.767V290.747ZM310.851 269.154C310.218 270.379 309.544 271.583 308.871 272.767C308.769 272.46 308.463 272.195 307.81 271.991C307.932 273.175 304.809 275.318 306.912 275.563C307.014 275.44 307.259 275.236 307.544 274.971C304.993 279.195 302.217 283.196 299.238 286.89C297.952 285.91 300.666 283.91 300.666 282.685C301.136 280.461 302.85 279.502 304.238 278.216C302.258 275.95 305.34 274.297 306.034 273.746C306.32 273.522 305.85 272.277 306.034 271.95C306.116 271.828 306.81 272.052 306.932 271.95C307.197 271.746 306.769 270.481 306.932 270.154C306.993 270.052 307.728 270.236 307.83 270.154C308.116 269.909 308.524 267.766 308.728 267.481C309.361 266.481 309.646 266.419 310.524 265.685C310.769 265.48 310.402 264.215 310.524 263.889C311.749 260.827 313.749 258.909 314.994 255.847C315.545 254.48 315.463 253.643 315.892 252.276C316.136 251.459 316.769 250.031 316.79 249.602C316.83 248.806 317.626 248.908 317.688 248.704C318.279 246.316 318.116 243.275 318.586 240.663C319.035 238.132 320.014 235.193 320.382 232.622C320.667 230.663 320.177 228.683 320.382 226.356C320.463 225.438 321.096 225.315 321.28 224.56C321.545 223.438 321.137 222.132 321.28 220.989C321.463 219.458 322.116 217.172 322.178 215.621C322.218 214.315 321.341 213.743 321.28 212.948C321.157 211.254 322.259 210.988 322.178 209.376C322.116 208.192 321.422 207.6 321.28 205.804C320.912 201.355 321.627 197.355 321.28 193.294C321.198 192.375 320.545 192.253 320.382 191.498C320.198 190.64 320.545 189.681 320.382 188.824C319.688 185.171 318.708 180.028 318.586 177.211C318.422 173.191 317.137 170.64 316.79 167.374C316.361 163.211 314.218 159.108 314.116 154.863C317.483 156.863 319.075 160.639 318.586 166.476C320.545 166.843 321.218 170.048 321.259 170.946C321.341 172.476 322.708 173.415 323.055 174.517C324.3 178.64 323.953 183.844 324.851 188.824C325.259 191.11 326.382 193.09 326.647 195.09C327.606 202.6 327.219 211.294 326.647 216.54C326.014 222.315 325.892 227.356 326.647 231.724C322.892 231.397 326.014 234.642 325.749 236.193C323.586 237.01 323.382 239.785 323.076 242.459C326.545 242.949 323.851 237.275 326.647 237.091C328.28 243.745 322.667 252.99 323.545 256.031C322.422 257.48 321.3 258.95 320.177 260.399C317.157 263.399 314.055 266.297 310.912 269.113L310.851 269.154ZM374.221 233.867C374.935 234.234 375.751 234.52 375.731 236.03C375.343 236.357 375.037 236.683 374.751 236.989C374.241 236.255 373.649 236.01 373.057 235.336C372.955 234.336 373.547 234.071 374.221 233.867Z" fill="#A90013"/>
<path fill-rule="evenodd" clip-rule="evenodd" d="M134.292 400.324C134.353 396.997 132.169 401.12 130.496 397.793C128.332 398.65 125.965 398.201 124.802 397.16C123.842 396.303 121.863 396.119 121.005 395.895C120.291 395.711 119.414 396.201 118.475 395.895C117.413 395.548 116.822 394.874 115.944 394.63C115.393 394.466 114.046 394.813 113.413 394.63C111.107 393.936 109.923 392.466 108.352 392.099C108.087 392.038 107.576 392.201 107.087 392.099C106.903 392.058 105.74 392.058 105.821 392.099C104.046 391.405 103.372 389.895 101.392 388.935C100.964 388.731 99.6168 389.262 98.8617 388.935C98.3514 388.711 98.0657 387.956 97.5963 387.67C97.0044 387.323 96.5146 387.752 96.3309 387.67C94.2084 386.65 91.6164 384.833 90.0041 383.874C89.3714 383.486 89.0041 383.996 88.7388 383.874C86.1264 382.731 83.412 379.813 81.7793 379.445C79.4526 378.935 76.3096 376.363 74.8198 375.016C74.2483 374.506 73.6973 375.098 73.5544 375.016C68.493 371.792 64.452 368.363 59.6558 364.914C58.9415 364.404 56.2271 360.383 56.4924 363.016C58.8599 366.241 61.9212 367.547 63.4519 368.71C65.5949 370.363 66.3704 370.71 67.248 371.241C67.7378 371.547 68.0236 372.2 68.5134 372.506C72.5748 375.078 79.5751 379.649 82.4119 381.364C83.4324 381.976 84.2488 382.221 84.9427 382.629C85.9631 383.241 86.7795 383.466 87.4734 383.894C87.9632 384.201 88.2285 384.874 88.7388 385.16C96.6779 389.65 104.372 392.793 111.495 395.262C112.454 395.589 112.944 396.201 114.026 396.528C114.577 396.691 115.924 396.323 116.556 396.528C117.536 396.854 118.332 397.507 119.087 397.793C119.597 397.977 120.679 398.14 120.985 398.426C121.74 399.099 121.72 398.283 122.25 398.426C125.638 399.324 128.822 400.262 132.353 400.956C132.986 401.079 134.108 400.773 134.822 400.956C134.659 400.834 134.475 400.63 134.251 400.324H134.292Z" fill="#A90013"/>
<path fill-rule="evenodd" clip-rule="evenodd" d="M134.863 400.956C135.026 401.078 135.149 401.119 135.292 401.119C135.169 401.058 135.067 401.017 134.945 400.976C134.945 400.976 134.904 400.976 134.884 400.976L134.863 400.956Z" fill="#A90013"/>
<path fill-rule="evenodd" clip-rule="evenodd" d="M182.947 406.017C183.192 406.017 184.722 405.507 184.845 405.384C185.641 404.67 188.457 404.833 189.274 404.751C191.396 404.568 193.58 404.935 195.601 404.751C197.458 404.568 198.152 403.956 199.397 403.486C199.662 403.384 200.927 404.16 201.295 404.119C205.458 403.588 209.683 402.547 212.662 402.853C213.05 402.894 213.54 401.649 213.928 401.588C214.336 401.527 215.397 402.18 215.826 402.221C216.214 402.262 216.703 400.996 217.091 400.955C218.03 400.853 219.295 401.751 220.255 401.588C221.745 401.323 223.377 400.343 224.051 400.323C225.194 400.302 226.03 399.955 227.214 399.69C228.316 399.445 229.275 399.078 230.378 399.057C231.52 399.037 232.357 398.69 233.541 398.425C234.929 398.119 236.745 397.69 237.337 397.159C238.296 396.302 239.623 397.323 240.5 396.527C241.562 395.567 245.664 394.751 246.195 394.629C247.582 394.322 249.399 393.894 249.991 393.363C251.052 392.404 255.154 391.588 255.685 391.465C259.175 390.69 265.257 387.036 267.685 387.036C268.808 387.036 270.379 384.751 271.481 384.506C273.971 383.955 276.441 381.975 277.808 381.975C279.074 381.975 279.645 379.954 280.972 380.077C281.89 380.159 283.176 378.322 284.135 378.179C283.564 377.342 283.849 376.485 284.135 375.648C284.176 374.383 284.155 373.117 284.135 371.852C283.788 372.485 282.911 373.117 283.502 373.75C280.972 373.403 278.441 374.587 275.91 377.546C273.175 375.893 270.441 381.138 267.685 380.71C264.869 381.975 269.257 383.24 266.42 384.506C265.053 384.995 264.889 382.689 264.522 382.608C263.726 382.444 262.236 384.71 261.359 383.24C258.624 384.812 255.889 385.179 253.134 388.934C250.256 386.302 250.889 388.894 248.705 390.832C246.807 387.996 244.909 391.873 243.011 390.2C240.623 391.669 241.358 393.139 239.847 394.629C238.072 392.955 239.623 392.302 237.317 392.098C234.827 395.139 233.296 392.241 232.255 395.894C230.99 395.282 229.724 395.241 228.459 394.629C225.969 397.67 224.439 394.771 223.398 398.425C221.438 397.057 220.765 396.792 217.704 396.527C214.54 398.078 211.377 396.608 208.234 400.955C206.968 401.445 205.703 398.629 204.438 399.69C205.07 400.364 203.744 401.262 202.54 401.588C202.254 401.67 201.601 400.343 201.274 400.323C200.682 400.282 199.968 402.119 199.376 402.221C197.703 400.445 197.05 401.996 196.845 399.69C195.376 401.2 193.907 400.466 192.417 402.853C190.988 402.588 189.376 402.139 187.988 402.221C187.784 402.221 187.559 401.608 187.355 401.588C185.967 401.445 184.641 405.241 183.559 402.853C186.437 399.568 181.947 402.466 181.028 404.119C179.559 402.445 178.09 403.16 176.6 402.221C174.865 402.996 173.273 403.2 171.538 403.486C170.008 403.731 167.865 402.609 166.477 404.751C165.211 402.445 163.946 403.996 162.681 402.221C159.517 404.282 156.354 402.976 153.19 401.588C150.517 403.16 146.966 401.874 144.353 401.588C139.965 401.119 140.251 401.649 140.557 399.057C139.292 401.69 137.414 398.935 136.761 399.057C136.333 399.139 136.006 401.078 135.21 401.098C136.047 401.466 136.537 402.057 137.373 402.2C138.027 402.323 139.108 402.078 139.904 402.2C144.68 402.894 148.68 403.527 153.17 404.098C155.823 404.445 158.885 405.18 160.762 405.364C164.701 405.772 167.273 405.364 170.865 405.364C174.967 405.343 178.743 406.18 182.865 405.996L182.947 406.017Z" fill="#A90013"/>
<path fill-rule="evenodd" clip-rule="evenodd" d="M143.149 409.18C143.864 410.119 144.313 408.649 145.047 408.547C145.272 408.507 148.211 409.67 148.211 409.18C148.211 407.262 143.537 408.078 143.149 409.18Z" fill="#A90013"/>
<path fill-rule="evenodd" clip-rule="evenodd" d="M279.645 385.159C277.237 384.649 277.135 385.751 275.849 387.69C274.645 386.568 273.951 387.976 272.686 388.323C271.849 388.547 270.114 388.425 269.522 388.955C269.563 388.915 270.216 390.751 270.155 390.853C269.726 391.609 268.726 390.996 268.257 391.486C266.359 392.445 264.461 390.466 262.563 392.119C263.889 393.629 260.154 392.894 259.399 395.282C257.297 394.772 253.175 396.241 251.807 396.548C251.154 396.69 250.481 396.956 249.909 397.18C247.44 398.16 244.684 399.323 242.317 402.242C239.786 401.487 237.255 401.466 234.725 400.976C231.561 403.915 228.398 401.446 225.255 405.405C223.561 403.834 221.887 407.446 220.194 404.14C217.03 407.813 213.867 405.283 210.724 408.569C208.826 405.568 206.928 407.854 205.03 406.67C202.152 409.548 198.764 408.752 196.805 408.569C196.478 408.528 195.886 409.711 195.539 409.834C195.417 409.875 195.05 409.222 194.907 409.201C194.519 409.16 194.029 410.426 193.641 410.467C189.662 410.936 184.886 408.507 181.008 411.732C179.11 409.854 177.212 410.222 175.314 411.099C175.62 413.344 178.396 412.956 179.743 412.997C181.722 413.059 184.253 411.814 186.07 411.732C189.927 411.548 197.948 413.487 200.601 411.099C201.356 410.426 201.356 411.242 201.866 411.099C205.356 410.099 207.05 409.467 210.091 409.201C210.989 409.12 212.989 409.324 213.887 409.201C215.132 409.038 216.316 408.16 217.683 407.936C218.887 407.732 220.275 408.16 221.479 407.936C222.561 407.732 224.092 406.997 225.275 406.67C226.439 406.344 226.663 406.548 227.806 406.67C228.173 406.711 228.684 405.487 229.071 405.405C229.459 405.323 230.541 406.038 230.969 406.038C233.01 406.038 234.929 404.568 236.664 404.14C237.827 403.854 238.072 404.038 239.194 404.14C239.562 404.181 240.072 402.956 240.46 402.874C241.48 402.65 243.297 403.14 244.256 402.874C244.439 402.834 244.746 402.385 244.888 402.242C246.113 401.14 247.725 401.834 248.685 400.976C249.909 399.874 251.521 400.568 252.481 399.711C253.705 398.609 255.318 399.303 256.277 398.446C257.746 397.119 258.338 398.731 260.073 397.18C260.848 396.486 260.767 397.303 261.338 397.18C263.114 396.793 263.624 395.18 265.134 394.65C265.502 394.527 266.604 395.486 267.032 395.282C268.094 394.772 269.441 393.568 270.828 392.752C272.033 392.058 273.727 391.364 274.624 390.221C277.074 390.425 279.645 389.527 282.217 387.69C283.564 386.731 284.033 384.649 285.38 383.261C286.605 381.996 287.605 381.955 288.544 381.363C289.605 380.71 291.176 380.016 291.074 378.833C287.278 379.486 281.584 380.792 279.706 385.159H279.645Z" fill="#A90013"/>
<path fill-rule="evenodd" clip-rule="evenodd" d="M268.277 368.729C269.4 367.035 273.665 367.26 272.706 365.566C271.583 365.79 267.318 366.015 268.277 368.729Z" fill="#A90013"/>
<path fill-rule="evenodd" clip-rule="evenodd" d="M279.012 368.097C277.788 367.383 278.155 368.771 279.645 368.73C283.033 366.22 281.523 364.709 279.012 368.097Z" fill="#A90013"/>
<path fill-rule="evenodd" clip-rule="evenodd" d="M361.179 293.523C360.567 296.339 359.2 298.727 358.016 301.748C357.567 302.891 357.914 303.176 358.016 304.278C358.057 304.605 356.873 305.217 356.751 305.544C355.138 309.483 352.444 312.197 349.791 316.279C349.75 316.34 350.424 316.81 350.424 316.912C350.424 318.177 348.403 318.748 348.526 320.075C348.546 320.32 347.424 321.136 347.26 321.34C346.179 322.728 345.832 323.381 345.362 324.504C345.281 324.728 344.893 324.953 344.73 325.136C344.117 325.81 344.893 326.075 344.73 326.402C343.24 329.565 341.811 329.177 340.301 330.831C339.525 331.667 339.995 332.3 339.035 333.361C337.566 334.994 335.28 336.443 333.974 338.423C333.137 339.688 333.117 341.709 332.076 342.852C331.484 343.505 330.79 343.096 330.178 343.484C325.219 346.546 322.402 352.648 320.075 354.852C317.524 357.26 313.871 358.689 311.218 361.179C310.034 362.281 310.504 364.567 308.055 364.342C309.912 365.812 308.361 367.302 307.422 368.771C306.585 369.343 305.728 369.057 304.891 368.771C305.707 367.342 303.952 368.363 302.993 368.138C300.809 369.404 302.993 370.669 301.728 371.934C299.83 371.812 297.932 372.506 296.034 373.832C298.197 375.098 292.605 376.363 294.768 377.629C298.136 374.812 301.503 373.486 304.871 370.036C305.789 371.465 304.85 371.649 306.769 370.669C307.667 370.22 309.728 368.628 311.198 367.506C313.687 365.608 314.443 365.24 314.361 364.342C314.259 363.342 318.218 361.689 318.79 361.179C322.076 358.26 324.382 356.668 326.382 354.852C329.688 351.852 332.586 348.403 335.872 345.362C336.362 343.056 333.545 344.607 334.607 342.831C337.076 339.015 339.566 336.443 342.199 332.729C343.77 330.504 345.097 327.749 346.628 325.769C347.526 324.626 349.016 323.83 349.791 322.606C350.424 321.626 350.363 320.177 351.056 318.81C351.852 317.197 353.485 315.789 354.22 314.381C355.036 312.83 355.424 311.258 356.118 309.952C357.404 307.564 359.036 305.34 359.281 304.258C359.751 302.115 361.608 300.38 362.445 298.564C361.832 297.523 361.914 296.441 361.812 295.4C361.73 294.482 362.281 292.911 361.179 293.502V293.523Z" fill="#A90013"/>
<path fill-rule="evenodd" clip-rule="evenodd" d="M356.118 320.075C357.363 321.34 355.2 322.605 357.383 323.871C359.526 322.932 356.628 318.932 356.118 320.075Z" fill="#A90013"/>
<path fill-rule="evenodd" clip-rule="evenodd" d="M364.322 291.624C363.873 292.685 363.567 293.726 363.69 294.787C364.628 294.032 366.18 290.318 364.322 291.624Z" fill="#A90013"/>
<path fill-rule="evenodd" clip-rule="evenodd" d="M371.282 266.991C372.588 269.379 368.874 268.644 368.118 270.154C368.588 272.46 369.404 274.787 366.22 277.114C366.139 279.44 368.67 281.747 366.853 284.073C362.853 280.971 364.996 290.869 366.22 289.767C365.078 288.094 367.608 286.645 368.118 285.339C368.241 285.012 367.343 283.869 367.486 283.44C367.751 282.685 369.159 282.298 369.384 281.542C369.608 280.808 368.608 279.869 369.384 279.012C370.078 278.236 369.261 278.338 369.384 277.746C369.935 274.971 371.527 272.318 371.915 270.154C371.935 269.991 371.302 269.705 371.282 269.522C371.2 268.705 373.976 265.419 371.282 266.991Z" fill="#A90013"/>
</svg>
