<svg width="72" height="213" viewBox="0 0 72 213" fill="none" xmlns="http://www.w3.org/2000/svg">
<path d="M1.66252 27.9103C1.73727 27.9103 1.81203 27.9103 1.88679 27.8355C4.35382 26.5646 6.14803 25.5928 7.41892 24.9947C8.61506 24.3219 9.28789 24.0229 9.4374 23.9481C9.96071 23.8733 10.5588 23.7986 11.2316 23.7238C13.3996 23.8733 15.0443 24.8452 16.1657 26.6394C16.5395 26.9384 16.988 27.3122 17.4366 27.8355C17.5113 28.0598 17.5113 28.2093 17.4366 28.3589C16.0162 30.6764 14.0724 32.2463 11.6054 33.0686C10.2597 33.891 8.83934 34.2648 7.26941 34.2648C5.84899 34.2648 4.5781 33.891 3.45672 33.1434C2.18583 32.3211 1.43824 31.0502 1.28872 29.4802C1.28872 29.1812 1.21396 28.8822 1.13921 28.5831C1.13921 28.2841 1.28872 28.1346 1.43824 27.9851C1.513 27.9851 1.58776 27.9851 1.66252 27.9103ZM25.8843 62.5235V62.1497C24.5386 60.4303 23.6415 58.4865 23.2677 56.3185C23.2677 56.169 23.3425 56.0195 23.492 55.9448C23.5668 55.87 23.791 55.7952 24.0153 55.87H24.0901C24.0153 55.4962 23.9406 55.1972 24.0153 54.7486V54.5991C24.1648 54.3748 24.2396 54.0758 24.2396 53.702V53.1039C23.492 47.7213 22.9687 42.3387 22.6697 36.9561C21.6978 36.1337 20.8755 35.2366 20.0531 34.2648C18.6327 39.1241 17.2123 43.9834 15.7919 48.7679C14.1472 53.3282 12.5025 57.8885 10.7083 62.2992C10.0355 64.0187 9.21313 65.6634 8.24127 67.1585C8.01699 67.9809 7.6432 68.579 6.97037 68.9527H6.7461C3.90527 68.1304 1.88679 66.4857 0.690655 63.7944C0.541138 63.7944 0.541138 63.7944 0.541138 63.7196V62.8973C0.541138 62.0002 0.690655 61.1031 1.13921 60.2807C1.58776 59.0846 1.81203 57.8137 1.88679 56.5428C1.81203 56.3185 1.81203 56.0943 1.81203 55.87C1.81203 55.6457 1.96155 55.4214 2.18583 55.3467C2.70914 55.1972 3.15769 55.1224 3.75575 55.1224C4.27906 55.1224 4.87713 55.1972 5.4752 55.3467C8.61506 51.0854 11.4559 46.5999 14.0724 41.8154V41.7406C16.2404 38.9746 17.9599 35.9842 19.3055 32.6948C19.3055 32.6948 19.3055 32.6201 19.3803 32.5453C19.455 32.3958 19.6793 32.2463 19.8288 32.2463C19.7541 32.0968 19.7541 32.022 19.8288 31.8725C19.8288 31.6482 19.9036 31.5735 20.1279 31.5735C20.4269 31.424 20.6512 31.3492 20.8755 31.1249C20.9502 31.0502 21.025 31.0502 21.0997 31.0502C21.3988 30.9754 21.6978 30.9006 22.1464 30.9006C23.8658 30.9754 25.5105 31.3492 27.0804 32.2463H27.2299C30.3698 28.9569 33.8087 25.8918 37.4719 23.051C37.3971 17.9674 37.5466 12.9586 37.8456 7.87501C36.8738 6.75364 36.0514 5.5575 35.3786 4.2866C35.3039 4.06233 35.3786 3.83805 35.5281 3.68853C36.4252 3.01571 37.2476 2.34288 38.0699 1.67005C38.8175 1.07198 39.7146 0.772949 40.836 0.772949C41.135 0.772949 41.5088 0.847711 41.9574 0.997226H42.0321C45.5458 2.4924 48.5361 4.80991 51.0032 7.87501V8.17405C51.3022 8.84687 51.4517 9.44494 51.4517 10.1178C51.4517 11.2391 51.0779 12.2858 50.3303 13.1829C50.1808 14.7528 49.9565 16.248 49.807 17.7431C51.6012 17.7431 53.5449 17.6684 55.4887 17.5189C55.4887 17.5189 55.5634 17.5936 55.6382 17.5936C61.3946 20.2849 66.4782 23.9481 70.8889 28.6579C70.8889 28.7326 70.9637 28.8074 71.0384 28.8074C71.487 30.6016 71.786 32.4706 71.8608 34.3395C71.8608 35.0871 71.786 35.8347 71.7113 36.5075C71.4122 38.227 71.2627 39.9464 71.0384 41.6659C70.6646 46.4504 70.2909 51.235 69.9171 55.9448C69.4685 59.4584 68.0481 62.4487 65.6558 64.9158C64.8335 66.7847 63.7121 68.2799 62.1422 69.4013C62.0674 69.476 61.9927 69.5508 61.9179 69.5508H61.8431C59.0771 69.3265 57.0586 68.0556 55.7877 65.6634H44.873C42.3312 65.6634 39.7894 65.8876 37.3971 66.4857H37.2476C37.0233 66.3362 36.8738 66.3362 36.7243 66.3362C35.6029 66.4857 34.8553 67.009 34.4068 67.9061C34.332 68.0556 34.2572 68.1304 34.1825 68.1304C33.7339 68.3547 33.2854 68.5042 32.9116 68.4294C32.6125 68.4294 32.3883 68.4294 32.164 68.3547C32.164 68.3547 32.0892 68.2799 32.0892 68.2052C29.6222 66.7847 27.529 64.9158 25.8843 62.5235ZM48.9847 27.2375V34.0405C49.807 34.4891 50.7041 34.8628 51.7507 35.0124C55.0401 36.2833 57.2829 38.6755 58.4042 42.0397C58.4042 42.1892 58.4042 42.3387 58.4042 42.4135C57.7314 43.6096 56.8343 44.6562 55.8625 45.4786C55.7129 45.5533 55.7129 45.5533 55.6382 45.5533C53.4702 46.3009 51.4517 47.198 49.4332 48.3194C49.3585 50.7117 49.3585 53.0292 49.2837 55.2719H53.0216C53.4702 55.2719 53.9187 55.2719 54.442 55.1224C54.8158 55.2719 55.1896 55.2719 55.5634 55.2719C57.8062 51.6835 58.8528 47.7213 58.8528 43.3853V42.2639C58.9276 40.1707 59.0023 38.0775 59.0023 35.9842C59.0023 34.0405 58.9276 32.022 58.8528 29.9288C57.5819 29.1812 56.4605 28.2093 55.4887 27.088C54.442 26.9384 53.4702 26.7889 52.5731 26.7142C51.3769 26.7142 50.1808 26.9384 48.9847 27.2375ZM37.7709 55.87V50.1136C37.3971 50.2631 37.0233 50.2631 36.7243 50.2631C36.0514 50.2631 35.5281 50.1136 34.9301 49.9641C33.2106 49.4408 31.7902 48.4689 30.5941 47.0485C30.6688 48.1699 30.6688 49.366 30.6688 50.4874C31.0426 52.8797 31.5659 55.1972 32.164 57.3652H32.3883C32.9863 57.3652 33.5844 57.2904 34.1825 56.9914H34.9301C36.0514 56.9914 36.9485 56.6176 37.7709 55.87ZM30.6688 39.7969C30.5193 41.1426 30.4446 42.4135 30.4446 43.7591C30.5193 43.6844 30.5941 43.6096 30.6688 43.4601C30.6688 43.3853 30.7436 43.3853 30.8183 43.3853C33.1359 42.2639 35.3786 40.993 37.6214 39.5726C37.6961 38.7503 37.7709 37.9279 37.7709 37.1056C37.6961 35.5357 37.6214 33.891 37.6214 32.2463C36.3505 32.7696 35.2291 33.5172 34.2572 34.4891C32.9863 36.2833 31.865 38.0775 30.6688 39.7969ZM8.83934 15.2013C8.83934 15.0518 8.91409 14.9023 9.06361 14.678C9.8112 13.9305 10.1102 12.9586 10.1102 11.8372C8.61506 10.6411 7.41892 9.29542 6.44706 7.65073C6.29755 7.65073 6.29755 7.57598 6.3723 7.50122V6.75364C6.22279 6.75364 6.22279 6.67888 6.22279 6.60412C5.99851 6.37984 6.07327 6.15557 6.3723 5.93129C7.11989 5.33322 8.01699 4.80991 8.98885 4.2866H9.28789C13.7734 5.25846 17.2871 7.65074 19.8288 11.4634C20.4269 12.3605 20.7259 13.3324 20.8007 14.379V14.5285C20.7259 14.8276 20.6512 15.0518 20.4269 15.1266C19.0065 15.2761 17.6608 15.4256 16.3152 15.6499C16.2404 15.6499 16.1657 15.5751 16.1657 15.5004C15.1938 15.2761 14.2967 15.2013 13.3248 15.1266C12.353 15.2013 11.3811 15.3509 10.484 15.7247H10.1102C9.73644 15.7994 9.43741 15.7247 9.21313 15.5004C9.06361 15.4256 8.9141 15.2761 8.83934 15.2013Z" fill="white"/>
<path d="M23.2677 121.18C25.5105 117.815 27.9775 114.676 30.7436 111.61C27.7532 112.881 24.9872 114.376 22.3706 116.021C21.2493 116.918 19.9784 117.591 18.7075 118.114C16.6142 118.937 14.521 119.46 12.4277 119.684C12.2782 119.759 12.2035 119.684 12.2035 119.61C10.4093 119.012 9.21313 117.89 8.5403 116.171V116.096C8.46554 116.021 8.39078 115.872 8.39078 115.647V115.124C8.39078 114.975 8.46554 114.825 8.5403 114.676C8.61506 114.601 8.76458 114.526 8.98885 114.526H9.13837C8.98885 114.451 8.98885 114.376 9.06361 114.227C8.98885 114.003 8.98885 113.853 9.13837 113.704C9.28789 113.629 9.43741 113.554 9.73644 113.554C9.73644 113.629 9.8112 113.704 9.96071 113.704C10.0355 113.479 10.1102 113.18 10.185 112.956H10.3345C10.5588 112.881 10.7831 112.732 10.9326 112.508C11.0073 112.508 11.0821 112.508 11.0821 112.433C11.8297 112.134 12.652 111.909 13.4744 111.76C14.1472 111.61 14.7453 111.386 15.4181 111.087C22.8192 107.723 29.0241 102.864 34.1077 96.584C35.2291 95.2383 36.1262 93.7431 36.799 92.0237C33.9582 92.4722 31.5659 93.6684 29.5475 95.6121C28.3513 96.9578 26.9309 98.0044 25.361 98.9015H24.6881C23.2677 98.9015 22.1464 98.3782 21.324 97.2568C20.5017 96.2849 19.7541 95.2383 19.2308 94.0422H19.0813C18.7822 93.3693 18.6327 92.6218 18.7075 91.7994C18.6327 91.2014 18.7075 90.6033 19.0065 90.0052C19.0065 90.0052 19.0813 90.0052 19.0813 89.8557C19.2308 89.7062 19.3055 89.5567 19.3803 89.4071C19.455 89.2576 19.5298 89.1829 19.6793 89.1829C19.6793 89.0334 19.7541 88.9586 19.9036 88.8091C20.0531 88.6596 20.2026 88.6596 20.3522 88.8091V88.7343C20.3522 88.5848 20.4269 88.4353 20.5764 88.2858C20.6512 88.211 20.8007 88.1363 21.025 88.1363C22.5202 88.7343 23.8658 89.5567 25.0619 90.678C27.6037 90.2295 29.8465 89.3324 31.9397 87.8372C34.1077 86.342 36.5 85.3702 39.1165 84.9216H39.7894C42.5554 84.9964 44.873 85.9683 46.8167 87.8372C47.1157 88.2858 47.4895 88.6596 47.8633 89.0334C47.8633 89.0334 47.9381 89.1081 47.9381 89.1829C48.3118 89.7809 48.4614 90.4538 48.4614 91.2013V91.5004C48.0876 92.3975 47.639 93.2946 47.2652 94.1169C47.1157 94.2665 46.9662 94.3412 46.8167 94.3412H46.7419C44.7982 96.2849 43.004 98.2287 41.2845 100.247C41.5836 100.172 41.9574 100.098 42.2564 99.9481H43.004C44.4992 100.023 45.7701 99.5743 46.8914 98.6024C46.8914 98.5277 46.9662 98.4529 47.1157 98.4529C47.9381 98.1539 48.7604 98.0791 49.7323 98.0791C50.0313 98.0791 50.4051 98.0791 50.6294 98.1539H50.7789C52.6478 98.9762 54.3673 100.098 55.8625 101.443V101.518C56.61 102.415 57.4324 103.237 58.2547 104.06C58.2547 104.209 58.2547 104.284 58.3295 104.434V104.807C58.2547 105.106 58.18 105.331 58.1052 105.555C57.9557 105.705 57.8062 105.779 57.6567 105.779H56.2363C54.2925 106.303 52.3488 106.602 50.4051 106.676C48.7604 106.975 47.2652 107.424 45.8448 108.172H45.6953C43.5273 109.069 41.6583 110.34 40.0136 111.909C36.5 114.825 33.7339 118.339 31.6407 122.301C31.1921 122.974 31.0426 123.647 31.0426 124.319C31.0426 125.067 31.1921 125.74 31.6407 126.338C32.9116 126.936 34.332 127.31 35.7524 127.384H35.9019C37.2476 127.609 38.668 127.684 40.1632 127.684C42.2564 127.758 44.2749 127.534 46.3681 127.085C47.2652 126.487 48.3118 126.114 49.3585 125.815C49.7323 125.59 50.1808 125.441 50.6294 125.441C51.0779 125.441 51.4517 125.516 51.8255 125.74C54.143 126.637 56.2362 127.684 58.2547 129.029C58.2547 129.104 58.2547 129.179 58.3295 129.179C59.0771 129.777 59.5256 130.524 59.6751 131.421C60.1237 132.094 60.4227 132.767 60.4227 133.515C60.4227 134.113 60.2732 134.561 59.9742 135.085C59.9742 135.159 59.8994 135.234 59.8247 135.309C58.7033 136.131 57.5071 136.729 56.2363 137.178H56.0867C53.3954 137.552 50.7041 137.701 47.9381 137.701C42.4807 137.701 37.0981 136.954 31.865 135.384C28.0523 134.262 25.2862 132.094 23.4173 128.805C22.6697 127.609 22.2959 126.338 22.2959 124.917C22.2959 123.647 22.5949 122.376 23.2677 121.18Z" fill="white"/>
<path d="M27.828 207.767V207.543C27.828 207.02 27.9028 206.496 27.9028 205.973C27.9028 205.3 27.828 204.627 27.828 203.954C27.6785 203.132 27.6037 202.235 27.6785 201.413C27.6037 199.917 27.6785 198.422 27.9775 196.927C27.9775 196.852 27.9775 196.778 28.127 196.703C28.2766 196.404 28.4261 196.105 28.6503 195.731V195.507C28.5756 195.208 28.7251 194.983 28.9494 194.759C28.9494 194.684 29.0241 194.684 29.1737 194.684C29.3232 194.61 29.3979 194.61 29.5475 194.535C29.5475 194.46 29.6222 194.385 29.6222 194.236C29.697 194.012 29.8465 193.937 30.0708 193.862C29.9212 193.712 29.9212 193.563 30.0708 193.339C30.1455 193.114 30.3698 193.04 30.5941 193.114H30.7436C30.8183 192.965 30.8931 192.89 31.0426 192.89C35.2291 193.04 39.3408 194.012 43.2283 195.731C43.004 190.423 42.8545 185.115 42.7797 179.807C39.8641 181.078 37.0233 182.499 34.2572 183.994C33.7339 184.368 33.1359 184.517 32.5378 184.517C32.0892 184.592 31.6407 184.442 31.2669 184.218C30.295 183.844 29.7717 183.097 29.697 182.05V181.826C29.697 181.676 29.7717 181.602 29.9212 181.527C33.5097 178.163 37.4719 175.098 41.6583 172.481H41.7331C42.705 171.958 43.1535 171.21 43.0787 170.164V169.715C43.3778 168.369 43.6021 166.949 43.6021 165.529V164.93C43.0787 164.407 42.8545 163.734 42.7797 162.912V162.613C42.8545 162.389 43.004 162.239 43.2283 162.164H43.6021C43.7516 162.09 43.9011 162.015 44.0506 161.94C44.1254 161.865 44.2749 161.791 44.3496 161.716C45.0972 161.492 45.8448 161.342 46.6672 161.342H47.1157C47.1157 161.342 47.1905 161.417 47.34 161.492C48.9099 162.389 50.4798 163.435 51.975 164.631C52.0498 164.631 52.1245 164.706 52.1993 164.706C52.3488 165.08 52.4983 165.529 52.5731 165.977C53.6197 166.874 54.6663 167.547 55.9372 167.996C55.9372 168.145 56.012 168.145 56.0867 168.145C57.0586 168.818 57.9557 169.565 58.778 170.463C58.8528 170.612 58.8528 170.762 58.8528 170.911C58.6285 173.004 57.5819 174.574 55.8625 175.621H55.7129C54.9654 176.069 54.442 176.668 53.9935 177.34V179.882C53.9935 182.499 54.2178 185.115 54.6663 187.657C54.6663 192.367 54.6663 197.077 54.5168 201.786C56.7596 203.655 58.6285 205.823 60.1985 208.29C60.1985 208.365 60.2732 208.44 60.2732 208.44C60.4227 209.188 60.647 209.711 61.0208 210.234C61.0956 210.384 61.0956 210.458 61.0208 210.608C60.946 210.757 60.7965 210.907 60.5722 210.907C60.4975 210.907 60.4227 210.982 60.348 211.056C60.1237 211.655 59.6751 211.954 59.0771 211.954C58.9276 212.028 58.778 211.954 58.6285 211.804C57.2829 212.253 56.012 212.626 54.7411 213H54.6663C54.5168 213 54.442 213 54.2925 212.925C52.0498 211.729 49.8818 210.384 47.8633 208.664C47.041 209.337 46.0691 209.86 45.0972 210.234C44.9477 210.309 44.7982 210.234 44.6487 210.085C43.8263 210.309 43.004 210.608 42.1816 211.056C42.0321 211.056 41.8826 211.131 41.7331 211.131H41.4341C41.3593 211.131 41.2845 211.056 41.2098 211.056C41.135 210.907 41.135 210.832 41.135 210.683H40.9107C40.4622 210.683 40.1632 210.832 39.8641 211.056C39.7894 211.056 39.7894 211.131 39.7894 211.131C38.2942 211.505 36.8738 211.729 35.3786 211.729C33.2106 211.804 31.1174 211.356 29.1737 210.384C29.0241 210.309 28.9494 210.085 28.9494 209.86C28.9494 209.786 28.9494 209.636 28.7999 209.561C28.127 209.188 27.828 208.589 27.828 207.767ZM32.2388 200.067C32.8368 201.637 33.4349 203.132 34.2572 204.702C34.332 204.702 34.4068 204.627 34.5563 204.627H34.631C34.7805 204.627 34.9301 204.702 35.0048 204.852C35.5281 205.674 36.2757 206.122 37.3223 206.122C38.2194 205.599 39.1165 205.001 40.0884 204.253C37.4719 202.758 34.9301 201.338 32.2388 200.067ZM60.5722 164.781V164.856C60.7965 165.229 60.8713 165.603 60.946 165.977C60.8713 166.5 60.7218 166.949 60.348 167.323C60.348 167.323 60.2732 167.397 60.1985 167.397C59.6004 167.771 58.9276 167.921 58.2547 167.921C57.8062 167.921 57.4324 167.846 57.0586 167.771C56.9091 167.697 56.8343 167.622 56.7596 167.622C56.012 166.426 55.1896 165.304 54.2925 164.258C54.2925 164.183 54.2925 164.108 54.2178 164.033C54.143 163.66 54.143 163.211 54.143 162.688V162.164C54.143 162.015 54.2178 161.865 54.2925 161.716C54.6663 161.566 55.1149 161.417 55.6382 161.342H55.8625C57.9557 161.791 59.5256 162.987 60.5722 164.781ZM64.684 163.136C64.6092 163.211 64.6092 163.211 64.5344 163.211C64.0111 163.435 63.4878 163.51 62.9645 163.435C61.7684 163.51 60.7965 163.061 59.9742 162.164C59.3014 162.09 58.7033 161.791 58.3295 161.267C58.2547 161.118 58.2547 161.043 58.2547 160.968C58.18 160.52 58.1052 160.071 58.1052 159.548C58.0305 159.398 58.1052 159.249 58.2547 159.099C58.5538 158.651 59.0023 158.501 59.6004 158.501H59.9742C61.8431 158.576 63.2636 159.398 64.4597 160.744C64.8335 161.118 65.0578 161.566 65.1325 162.015C65.0578 162.314 64.983 162.538 64.983 162.688C64.9082 162.912 64.7587 163.061 64.684 163.136ZM8.83934 196.852C8.76458 195.955 8.68982 195.058 8.68982 194.161C8.68982 190.423 9.06361 186.685 9.8112 183.097C10.5588 178.611 11.1569 174.201 11.6054 169.715C11.6802 169.64 11.6802 169.565 11.7549 169.491C12.1287 168.743 12.652 168.145 13.3248 167.771C13.4744 167.622 13.6239 167.622 13.7734 167.622C15.1938 168.145 16.0909 169.117 16.4647 170.537C16.4647 170.612 16.5395 170.687 16.6142 170.687V173.453C16.6142 176.967 16.3152 180.48 15.7919 183.994C15.1938 186.984 14.7453 189.975 14.521 192.965V193.339C14.521 197.002 15.4928 200.441 17.3618 203.581C17.3618 203.655 17.3618 203.655 17.4366 203.73C17.4366 203.88 17.5113 204.029 17.6608 204.179C17.7356 204.104 17.8104 204.029 17.8851 203.954C17.9599 203.88 18.1094 203.805 18.2589 203.805C18.4084 203.88 18.5579 203.954 18.6327 204.179C18.7822 204.403 18.857 204.702 18.857 205.001C18.857 205.225 18.7822 205.45 18.7075 205.674C18.857 207.169 19.3803 208.515 20.2774 209.711C20.3522 209.86 20.3522 210.01 20.2774 210.085C19.9784 210.982 19.455 211.655 18.9317 212.253C18.7822 212.402 18.7075 212.402 18.6327 212.402C18.4084 212.402 18.3337 212.402 18.2589 212.253C18.1094 212.103 17.9599 212.028 17.8104 212.028C17.7356 212.028 17.6608 212.103 17.5861 212.178C17.3618 212.327 17.1375 212.327 16.9133 212.253C16.5395 212.253 16.2404 212.103 16.0162 211.804C15.2686 211.356 14.5957 210.832 13.9229 210.309H13.7734C13.3248 209.711 13.0258 209.038 12.8763 208.29C10.7831 204.777 9.4374 200.964 8.83934 196.852Z" fill="white"/>
</svg>
