<svg width="10" height="19" viewBox="0 0 10 19" fill="none" xmlns="http://www.w3.org/2000/svg">
<path d="M6.50754 19V10.3411H9.47236L9.8995 6.95182H6.50754V4.79948C6.50754 4.32118 6.61223 3.92947 6.82161 3.62435C7.03099 3.31923 7.48743 3.16667 8.19095 3.16667H10V0.148438C9.61474 0.0989582 9.20436 0.0618489 8.76884 0.0371092C8.33333 0.0123695 7.89782 0 7.46231 0C7.44556 0 7.42881 0 7.41206 0C7.39531 0 7.37856 0 7.36181 0C6.05527 0 4.99163 0.38346 4.17085 1.15039C3.35008 1.91732 2.9397 3.02647 2.9397 4.47786V6.95182H0V10.3411H2.9397V19H6.50754Z" fill="white"/>
</svg>
