<svg width="74" height="71" viewBox="0 0 74 71" fill="none" xmlns="http://www.w3.org/2000/svg">
<path d="M5.12952 32.6481C7.07324 30.6296 8.9422 28.5364 10.7364 26.4431C12.1568 24.0508 12.9044 21.5838 12.9044 18.8177V17.3973C12.8296 16.276 12.9792 15.0798 13.2034 13.9584C13.2034 13.7342 13.2034 13.5099 13.2782 13.2856C13.2034 12.3138 12.7549 11.5662 11.8578 10.9681V10.8186C11.7083 10.5943 11.5588 10.2953 11.484 9.92148C11.484 9.6972 11.484 9.54769 11.5588 9.32341C11.5588 9.32341 11.484 9.24865 11.484 9.17389C11.484 9.17389 11.5588 9.09914 11.5588 8.94962C11.9325 8.27679 12.3811 7.60396 12.9792 7.0059C13.0539 6.93113 13.1287 6.93113 13.2034 6.85638C14.1005 6.40783 15.0724 5.88451 16.0443 5.36121C16.0443 5.28645 16.119 5.28645 16.2685 5.28645C16.7171 5.13693 17.2404 5.06217 17.689 5.06217C17.689 4.98741 17.7637 4.98741 17.9132 5.06217C20.0812 5.88451 21.9502 7.15541 23.5201 8.8001C23.5201 8.94962 23.5949 9.09914 23.5949 9.17389C23.5949 9.6972 23.4454 10.071 23.1463 10.37C22.8473 13.2109 22.7725 16.0517 22.7725 18.8925C23.0716 19.042 23.4454 19.1168 23.8192 19.1168H24.1182C24.2677 19.1168 24.3425 19.1168 24.3425 19.1915C25.0153 19.7148 25.6881 20.2382 26.2862 20.8362C26.2862 20.911 26.2862 20.9857 26.4357 21.0605V21.8828C28.5289 18.6682 30.3979 15.2293 32.0426 11.6409C32.7902 9.99624 33.3882 8.27679 33.8368 6.40783C32.7154 5.66024 32.0426 4.53886 32.0426 3.11845C31.9678 3.04369 31.9678 2.96893 32.1174 2.81941C33.3882 1.399 35.0329 0.651418 37.0514 0.57666C37.6495 0.651418 38.2476 0.726175 38.9204 0.800937V0.950452C40.6398 1.54852 42.135 2.52038 43.4059 3.86604C43.5554 4.09031 43.6302 4.23983 43.5554 4.4641C43.1069 6.03403 42.434 7.5292 41.6864 8.94962C45.5739 8.8001 49.3118 7.97775 52.975 6.55734C53.4235 6.40783 53.8721 6.10879 54.3954 5.66024C54.3954 5.66024 54.4702 5.66024 54.5449 5.58548C54.8439 5.51072 55.2177 5.36121 55.5915 5.28645C55.6663 5.13693 55.741 5.13693 55.8906 5.13693C56.9372 5.36121 57.909 5.735 58.8061 6.25831C59.778 7.0059 60.7499 7.67872 61.7965 8.35155C62.9179 8.94962 63.4412 9.92148 63.4412 11.1924C63.4412 11.4914 63.3664 11.7157 63.3664 11.94C63.2917 12.0895 63.2169 12.239 63.1421 12.239C62.4693 12.7623 61.7965 12.9866 61.0489 12.9118H60.8994C59.1799 13.6594 57.3857 14.108 55.442 14.108H55.143C50.2837 15.0798 45.3496 15.9022 40.4155 16.4255C39.3689 16.575 38.2475 16.6497 37.2009 16.6497C34.2106 19.1915 31.1455 21.4343 27.8561 23.4528C27.5571 23.6023 27.1833 23.7518 26.8095 23.8266C26.4357 23.8266 26.1367 23.677 25.9124 23.5275C25.7629 23.4528 25.6881 23.378 25.6881 23.2285C24.6415 24.8732 23.5201 26.2936 22.1745 27.5645C21.8754 31.6015 21.6512 35.5637 21.5016 39.6006C25.2396 37.5074 28.5289 34.8908 31.4445 31.8257C31.0707 30.6296 30.5474 29.5082 29.7251 28.5364C28.0056 27.7888 27.0338 26.5926 26.5852 24.7984C26.5105 24.7984 26.5105 24.6489 26.5852 24.4246C26.7347 24.3499 26.8843 24.2751 27.0338 24.2004V24.0508C27.1085 24.0508 27.1833 23.9761 27.3328 23.9013C28.2299 23.6023 29.127 23.4528 30.0241 23.3033H30.1736C31.594 23.4528 33.0145 23.677 34.4349 23.8266C38.3971 20.911 42.8078 18.743 47.6671 17.2478H47.8166C49.1623 17.0983 50.5079 16.874 51.9284 16.6497C52.0779 16.4255 52.3022 16.276 52.5264 16.0517C52.6759 16.0517 52.8255 16.0517 52.975 16.0517C53.0497 16.0517 53.1245 16.1264 53.1245 16.2012H53.5731C53.7226 16.276 53.8721 16.2012 54.0216 16.0517C54.1711 15.9022 54.3206 15.8274 54.6197 15.9022C55.9653 16.4255 57.311 17.0235 58.5819 17.8459H58.8061C59.5537 17.8459 60.2266 18.0702 60.8994 18.3692C62.8431 19.9391 64.7121 21.5838 66.581 23.2285C66.581 23.2285 66.581 23.3033 66.7306 23.3033C66.8801 23.677 67.0296 24.0508 67.1043 24.4994C67.0296 25.1722 66.7306 25.6208 66.1325 25.9946H66.0577C64.7868 26.4431 63.7402 27.1907 62.9926 28.1626C63.2169 29.1344 63.5907 29.9568 63.9645 30.6296C64.114 30.8539 64.0392 31.0034 63.9645 31.1529C63.2169 31.9752 62.5441 32.7228 61.946 33.3957C61.7965 33.5452 61.647 33.6199 61.4975 33.6199C58.8061 33.9937 56.1896 34.517 53.6478 35.3394H53.5731C51.9284 35.6384 50.2837 35.9374 48.5642 36.2365C46.9195 36.8346 45.2749 37.1336 43.5554 37.1336H43.0321C41.2379 37.2083 39.8922 37.8812 38.9951 39.3016L38.9204 39.3763C38.3971 39.7501 38.0233 40.1239 37.6495 40.423C37.4252 40.5725 37.2009 40.5725 36.9767 40.423C34.8087 39.0773 33.463 37.1336 32.8649 34.6666C32.7154 34.4423 32.5659 34.2928 32.4911 33.9937C30.3979 36.386 28.7532 38.9278 27.4076 41.6939V41.8434C26.2862 43.4881 25.1648 45.058 23.8939 46.6279C24.0434 46.7027 24.1182 46.7027 24.2677 46.5532C25.8376 46.3289 27.4823 46.1794 29.127 46.1046C31.6688 45.1327 33.463 44.2356 34.6591 43.4133C35.8553 42.6657 36.5281 42.2172 36.6029 42.2172C40.1913 41.021 43.7797 39.7501 47.3681 38.3297V38.255C48.938 37.7317 50.5827 37.3579 52.3022 36.9841C52.4517 36.9093 52.5264 36.8346 52.7507 36.7598C53.0497 36.685 53.3488 36.5355 53.6478 36.3112C53.7973 36.3112 53.9468 36.3112 54.1711 36.3112C57.7595 36.9841 61.1984 38.4045 64.2635 40.6472C66.581 42.2919 68.5248 44.2356 70.0947 46.5532V46.8522C69.9452 48.1231 69.5714 49.2445 68.9733 50.2911C68.8986 50.4406 68.8238 50.5154 68.749 50.5154C68.3005 50.7396 68.0762 51.0387 68.0762 51.562C68.0762 51.6367 68.0014 51.7115 67.9267 51.7863C67.1791 53.5805 66.581 55.2999 65.983 57.0941C67.4034 57.4679 68.749 58.066 70.0947 58.7388C71.5899 59.4864 72.8608 60.6078 73.6831 62.1029C73.7579 62.2525 73.7579 62.3272 73.7579 62.3272C73.5336 64.2709 72.6365 65.8409 70.9918 67.037H70.7675C70.319 67.1118 69.9452 67.1118 69.5714 67.1118C68.3005 67.1118 67.1043 66.8127 66.0577 66.2147C60.6751 65.7661 55.2177 65.4671 49.7604 65.3176C47.2186 65.168 44.6768 65.0933 42.2098 65.0185C37.3504 65.7661 32.6407 66.738 27.9309 67.9341C26.8843 68.1584 26.0619 68.6817 25.5386 69.504L25.4638 69.5788C25.0153 69.8778 24.5667 70.0273 24.0434 70.0273C23.7444 70.0273 23.4454 69.9526 23.2958 69.9526C23.2211 69.8778 23.1463 69.8031 23.1463 69.8031C21.5764 68.4574 20.0812 66.9622 18.6608 65.3923C18.5861 65.3923 18.5113 65.3176 18.5113 65.168C18.287 64.7195 18.287 64.2709 18.287 63.8224V63.4486C18.3618 63.3738 18.3618 63.2243 18.3618 63.1496C18.4365 63.0748 18.4365 62.9253 18.5113 62.7758C18.4365 62.701 18.4365 62.5515 18.4365 62.4767C18.3618 62.4767 18.287 62.3272 18.3618 62.1777C18.287 62.0282 18.287 61.8787 18.4365 61.7291C18.5861 61.5049 18.7356 61.2806 18.8851 61.0563C18.8103 60.7573 18.9598 60.4582 19.1841 60.234C19.4084 60.0097 19.7074 59.8602 20.0812 59.7854C20.156 59.7854 20.2307 59.7854 20.3803 59.8602C20.9783 60.3087 21.6512 60.6078 22.4735 60.832C24.3425 60.3087 26.2114 59.8602 28.0804 59.4116C27.8561 59.1126 27.7066 58.664 27.7066 58.2903C27.6318 56.1223 27.0338 54.1785 25.7629 52.4591C24.1182 51.9358 22.8473 50.8892 22.0997 49.3192C20.7541 50.9639 19.4832 52.6086 18.287 54.2533C14.6986 57.9165 11.7083 61.9534 9.316 66.3642C9.09172 66.5137 8.9422 66.5884 8.71793 66.5884C7.89558 66.5884 7.148 66.2894 6.54993 65.7661C4.90524 65.168 3.78386 64.1214 2.96152 62.701C2.51297 62.1777 1.98966 61.7291 1.39159 61.4301C1.16731 61.2806 1.09256 61.1311 1.16731 60.9816C1.09256 60.832 1.16731 60.6825 1.39159 60.533C1.39159 60.3835 1.46635 60.3087 1.61587 60.0845C1.39159 59.8602 1.31683 59.5611 1.39159 59.2621C1.39159 58.9631 1.46635 58.7388 1.61587 58.4398C1.61587 58.066 1.61587 57.6922 1.61587 57.3184C1.61587 56.7951 1.54111 56.3465 1.46635 55.8232V55.5242C1.61587 55.1504 1.84014 54.7766 2.13918 54.4028C1.98966 54.2533 1.98966 54.1785 1.98966 53.9543C2.13918 53.8795 2.21393 53.73 2.36345 53.6552C2.812 53.4309 3.33531 53.3562 3.93338 53.2814C4.45669 53.3562 4.98 53.5057 5.50331 53.73C7.29751 51.9358 9.16648 50.2163 11.1102 48.5716V45.8803C11.1102 43.189 11.1102 40.4977 11.0354 37.8064C9.16648 39.5259 7.22276 41.0958 5.12952 42.5162C4.98 42.6657 4.83048 42.6657 4.75572 42.6657C2.66249 41.9929 1.24207 40.6472 0.569246 38.554C0.419729 38.0307 0.344971 37.5821 0.344971 36.9841C0.344971 35.8627 0.644005 34.8161 1.24207 33.8442C1.61587 33.1714 2.21393 32.6481 2.96152 32.349C3.03628 32.2743 3.1858 32.2743 3.33531 32.349C3.85862 32.4238 4.45669 32.4986 5.12952 32.6481ZM55.143 47.3755C54.7692 50.2163 54.0964 52.9824 53.0497 55.5242H54.9187C55.741 54.1785 56.4886 52.7581 57.1615 51.263C57.5352 49.5435 57.909 47.7493 58.2081 45.8803C57.2362 45.2075 56.0401 44.8337 54.7692 44.8337H54.1711C54.4702 45.5813 54.8439 46.4036 55.143 47.1512V47.3755ZM45.5739 45.9551C44.7515 46.1794 44.004 46.4036 43.2564 46.5532C43.6302 49.7678 43.8544 52.9824 44.004 56.1223C44.3777 56.1223 44.8263 56.0475 45.3496 56.0475V55.0756C45.3496 52.0853 45.4244 49.0202 45.5739 45.9551ZM35.631 50.5154C34.9582 51.0387 34.5844 51.7115 34.5096 52.4591C34.5096 52.9076 34.6591 53.2814 34.8834 53.6552C35.4815 54.8514 35.7805 56.0475 35.8553 57.3184C36.1543 57.3184 36.4533 57.3184 36.7524 57.2436C36.6029 56.7951 36.4533 56.2718 36.4533 55.6737C36.4533 53.8795 36.3786 52.0105 36.3038 50.0668C36.0048 50.2163 35.8553 50.3658 35.7058 50.5154H35.631ZM39.2194 27.1907C38.7709 27.415 38.3971 27.714 38.2476 28.1626C38.3223 28.8354 38.5466 29.5082 38.9204 30.1063C42.3593 29.1344 45.7982 28.2373 49.3118 27.415C51.0313 26.4431 52.4517 25.0975 53.6478 23.4528C53.1993 23.3033 52.7507 23.2285 52.3022 23.2285C51.1808 23.2285 50.2089 23.6023 49.3866 24.2004C49.3118 24.2751 49.2371 24.2751 49.2371 24.2751C45.7982 24.8732 42.434 25.7703 39.2194 27.1907Z" fill="white"/>
</svg>
