<svg width="1308" height="444" viewBox="0 0 1308 444" fill="none" xmlns="http://www.w3.org/2000/svg">
<path d="M12.5035 47.7716C12.4361 47.7348 12.3538 47.6981 12.234 47.6889C12.3388 47.7624 12.4286 47.79 12.5035 47.7716Z" fill="#231916"/>
<path d="M10.7817 85.3909L10.6538 84.9535C10.6764 85.242 10.7215 85.3443 10.7817 85.3909Z" fill="#231916"/>
<path d="M13.2374 25.2342C13.2374 25.2342 13.2748 25.2621 13.3048 25.29C13.3123 24.9458 13.3272 24.4712 13.3497 23.7082L13.2374 25.2435L13.2374 25.2342Z" fill="#231916"/>
<path d="M8.84334 165.645L8.84334 165.142C8.82776 165.366 8.80439 165.515 8.84334 165.645Z" fill="#231916"/>
<path d="M10.1375 118.087C10.25 118.236 10.2875 118.487 10.325 118.729C10.34 118.422 10.325 118.18 10.1375 118.087Z" fill="#231916"/>
<path d="M19.0179 13.324L18.6278 13.9661C18.7928 13.9568 18.9728 13.7241 19.0179 13.324Z" fill="#231916"/>
<path d="M8.61724 238.307L8.46021 238.17C8.51255 238.298 8.5649 238.326 8.61724 238.307Z" fill="#231916"/>
<path d="M20.0647 25.4298C20.4467 26.0904 19.9898 27.449 20.3643 27.4396C20.3044 26.7418 20.589 25.7462 20.0647 25.4298Z" fill="#231916"/>
<path d="M23.0447 253.661L23.0662 254.098C23.0662 253.893 23.0662 253.754 23.0447 253.661Z" fill="#231916"/>
<path d="M8.45156 313.964L8.45156 313.936C8.4295 313.88 8.40744 313.843 8.38538 313.778L8.45156 313.955L8.45156 313.964Z" fill="#231916"/>
<path d="M7.83101 317.974C7.7864 317.695 7.74922 317.416 7.70461 317.118C7.66743 317.574 7.72691 317.807 7.83101 317.974Z" fill="#231916"/>
<path d="M8.39363 361.234C8.37847 361.095 8.37089 360.965 8.34814 360.844C8.34814 361.011 8.35573 361.141 8.39363 361.234Z" fill="#231916"/>
<path d="M10.362 115.036C10.3996 114.934 10.4147 114.803 10.4448 114.682C10.3545 114.645 10.2944 114.664 10.362 115.036Z" fill="#231916"/>
<path d="M20.5369 144.923L20.5369 144.942L20.545 144.942L20.5369 144.923Z" fill="#231916"/>
<path d="M20.0652 143.332C19.9827 143.834 20.2528 144.541 20.5378 144.923C20.5378 144.42 20.4553 143.955 20.0652 143.332Z" fill="#231916"/>
<path d="M20.3419 148.357C20.3571 148.292 20.3722 148.245 20.3874 148.17C20.3571 148.236 20.3419 148.292 20.3419 148.357Z" fill="#231916"/>
<path d="M21.1055 116.246C21.1055 116.246 21.0756 116.246 21.0607 116.246L21.098 116.264L21.098 116.246L21.1055 116.246Z" fill="#231916"/>
<path d="M21.165 122.602C21.0903 122.713 21.0304 122.872 20.993 123.039C21.0678 122.927 21.1276 122.788 21.165 122.602Z" fill="#231916"/>
<path d="M21.4196 164.193L21.4047 164.193L21.4047 164.221L21.4196 164.193Z" fill="#231916"/>
<path d="M17.7245 6.77559C15.7897 6.42186 13.9373 5.81681 12.2083 4.98833L12.2392 5.45377C12.7949 7.19449 13.0934 8.99106 13.0934 10.7969C13.0934 12.426 12.8773 13.9898 12.4862 15.4792C12.5068 15.5723 12.5171 15.6561 12.5274 15.7585C12.4965 15.6933 12.4759 15.6561 12.445 15.6095C12.2083 16.4752 11.9099 17.3223 11.56 18.1322C11.632 18.2718 11.6937 18.4207 11.7143 18.5976C11.56 18.9513 11.3335 19.1096 11.0865 19.1375C10.9219 19.454 10.7572 19.7705 10.572 20.087L10.7366 20.3942C10.4279 21.0365 10.1397 21.0365 9.92362 21.1203C9.8207 21.2785 9.71779 21.4275 9.60458 21.5764C9.584 21.6509 9.57371 21.716 9.55312 21.8184L10.4588 22.079L9.92362 22.8796C10.3456 22.5724 10.5205 23.2799 10.5926 24.1363L10.3867 24.1177L10.5617 25.1602C10.0059 24.127 10.3661 26.119 9.71779 25.635C9.67662 26.5286 9.68691 26.5472 9.85157 28.1669L10.4691 27.8877C11.0042 29.9914 9.54283 27.9808 9.49137 29.6842L10.2015 29.5818C8.99738 32.0393 10.8807 33.7521 10.0986 35.5673C9.9339 34.5248 9.1003 34.7854 9.30613 34.8133C9.56341 36.3772 9.36788 38.9277 10.2324 40.5475C9.19292 41.1339 8.88418 41.2735 8.41077 42.9398C8.47252 44.1499 8.57543 44.3268 9.17234 44.7178C8.77097 45.8906 9.36787 48.0875 8.6166 48.1433C9.2135 48.4133 8.4931 49.1952 8.99738 49.8468L8.68864 49.9865L9.40904 49.8841C7.80357 51.9599 10.3044 53.3934 8.91505 55.4879L8.71951 55.1248L8.99738 56.0092C8.67835 56.1488 8.4931 55.7951 8.08144 55.7485L7.94765 59.8443L8.48281 59.0438C8.55485 59.9095 9.24437 60.4866 8.81213 61.4734C7.74182 59.835 8.77097 62.8324 7.93736 63.1024L7.65949 62.218C7.70066 63.0186 7.96137 63.3878 8.44164 63.3258C8.68864 64.8803 7.07288 64.3963 7.84474 65.8298L7.87561 64.8059C8.29756 64.508 8.88417 65.2434 8.86359 65.9229C8.75038 66.0812 8.43135 66.5652 8.34902 66.0439C8.61659 67.2727 8.2461 69.1158 8.53426 69.6557C8.30785 70.3259 7.80357 70.1025 7.61832 69.7395C8.2461 72.3645 7.47424 70.931 8.10202 73.556L7.69036 73.5095L8.17406 74.4124L7.30958 75.697L7.83444 75.2409C7.90648 76.0973 8.19464 76.6372 7.95794 77.6425L7.36104 77.2329C7.69036 79.6625 6.34218 80.0442 7.18608 82.362C7.07288 82.5203 6.88763 82.1572 6.79501 81.9804C7.74182 84.1214 5.7247 83.6001 6.86705 85.7597C6.67151 85.6294 6.41422 85.8621 6.23927 85.7783L6.63034 86.7557L5.81732 86.6812L7.01113 87.4818L6.17752 88.0869L6.56859 88.4685C5.0043 89.5111 6.17752 91.0005 5.01459 92.4247L6.04373 92.1827C8.16377 95.8038 4.84992 100.458 5.82761 104.824L5.01458 104.74L5.97169 106.546C5.33362 107.514 5.28216 105.969 4.86021 106.267C5.30274 108.203 6.06431 107.077 6.29072 109.311C5.74528 110.456 5.69382 108.91 5.40566 108.37C5.80702 110.474 6.24956 113.574 5.79673 115.063C5.90994 115.101 6.05402 115.194 6.09518 115.11C6.46568 116.516 6.09518 118.359 6.14664 119.913C5.77615 119.876 5.7144 119.494 5.63207 119.103C5.58061 119.662 5.32332 120.416 5.70411 120.891L5.00429 120.313C4.86021 121.496 5.49828 123.786 4.67496 124.046C4.994 123.897 5.60119 123.963 5.56003 124.986C4.31476 125.554 6.0746 127.779 5.41595 129.417C5.11749 129.222 5.05575 128.012 5.04545 128.356C4.71613 129.185 5.30274 129.92 5.68352 130.646L5.17924 130.423L5.86877 134.258C4.6235 134.826 6.05401 137.87 5.13808 137.609C5.08662 138.977 5.68352 136.455 5.8276 138.186C5.31303 138.642 6.08489 139.75 5.27186 139.676L5.17924 139.489L5.24099 140.69L4.44855 139.927C4.6235 140.969 5.41594 141.733 6.02314 141.789C5.58061 142.775 5.94081 144.181 5.21011 144.628L5.01458 144.255C5.32332 147.029 2.81221 148.845 4.17068 151.023C4.05747 151.181 3.86193 151.162 3.86193 150.827L3.81048 152.54L3.21357 152.131L4.1398 154.96L3.72815 154.923C3.56348 156.794 3.76931 159.717 3.89281 162.128L3.69727 161.765C4.32505 164.39 3.30619 164.297 3.75902 166.224C3.6561 166.159 3.61494 166.094 3.58406 166.019L3.60465 167.751L3.21357 167.369C4.08834 168.653 2.07122 171.027 2.8122 170.236C3.19299 170.962 3.66639 172.209 4.16038 172.423C4.20155 174.304 3.63552 172.889 3.2959 174.052C3.25474 175.412 3.95455 175.654 3.58406 177.506L3.1724 177.469C3.24444 178.334 3.5326 178.874 3.59435 180.075L3.39881 179.721C4.253 181.686 2.19472 182.17 3.97513 183.715C3.64581 184.534 3.8928 186.107 3.07978 186.023C3.60464 188.472 3.85164 190.371 4.18096 192.8C2.84307 193.191 4.26329 193.321 3.50173 194.792L4.21184 194.681C4.30446 198.115 2.53433 202.062 2.82249 205.851L2.10209 205.953L2.88424 206.717C2.54462 210.794 2.26675 216.072 2.25646 219.321C2.63724 220.382 3.50172 222.001 3.23414 223.696L3.13123 223.519C3.54289 226.46 3.84134 229.579 3.42968 232.79C3.17239 232.623 2.97686 232.827 2.81219 232.669C3.42968 233.423 2.76074 234.475 2.74015 235.127L3.27531 234.317C3.95454 235.229 3.29589 236.542 2.77103 237.007L3.54288 238.45C3.47084 238.543 3.35764 238.692 3.24443 238.711L3.62522 238.962L2.6784 239.725C2.87394 240.079 3.11064 241.997 4.01629 242.592C3.70755 242.732 3.46055 244.082 3.2856 243.039L3.00773 248.317L3.34734 247.498C4.06775 247.396 4.52057 248.978 4.19124 249.797C3.61492 248.717 3.17239 249.704 2.64753 250.17C3.02831 250.886 3.2753 249.546 3.67667 249.928C4.16037 250.83 4.40736 252.739 4.07804 253.213L3.78988 252.674C4.05745 253.893 2.81219 254.461 2.86365 255.671C3.43997 256.751 2.90481 257.551 4.13978 257.328C4.39707 258.892 3.30618 257.933 3.18268 258.436C3.76929 259.171 3.38851 261.359 2.76073 261.638C4.57202 262.494 2.11237 265.855 3.62521 266.18L2.76073 267.465C3.17239 267.512 4.08832 267.763 4.25299 268.805C3.81046 269.783 3.10035 269.55 2.68869 269.848L4.20153 270.509C2.57548 276.169 3.65608 283.634 2.31819 289.843C2.63723 292.608 3.33704 296.099 3.12092 299.329L2.92539 298.975L2.51373 302.186L3.21355 299.85C3.3885 300.548 3.67666 301.097 3.65608 301.777C3.0283 305.305 2.25644 310.006 3.0283 314.353C4.76755 317.164 1.48458 316.224 2.75043 318.914C2.58576 318.681 2.33877 318.598 2.17411 318.393C2.75043 321.297 3.04888 322.87 4.06773 325.775C2.34906 325.439 4.1089 327.664 3.20325 327.404L3.90307 327.646C3.47083 328.288 3.31645 329.815 2.81217 329.591L3.68695 330.876L2.96655 330.987C2.91509 332.682 3.5017 336.34 2.04032 337.234C3.12092 341.441 2.80188 348.087 2.51372 353.365C3.10033 354.11 3.15179 355.646 3.21354 356.856L2.35935 358.141C2.61663 359.37 3.69723 360.663 3.15179 361.808C3.04887 361.808 2.97683 361.753 2.93567 361.678C3.11062 362.926 2.6578 364.108 3.45024 365.271C3.40907 366.481 3.04887 367.654 2.4108 367.617C3.34732 368.064 1.94769 370.438 1.94769 370.438C1.94769 370.438 0.620086 397.265 1.4331 421.766C2.92536 424.502 3.76926 427.518 3.76926 430.572C3.76926 432.703 3.39877 434.714 2.74011 436.613C4.078 436.362 5.43647 436.194 6.83611 436.138C9.58392 436.027 12.2288 436.464 14.6988 437.32L14.5444 435.831C14.8428 436.036 15.553 436.269 15.4192 437.116C16.2425 431.037 19.5152 427.751 18.6816 422.194C19.4225 421.412 19.1755 422.752 19.6695 423.311C18.6816 419.29 21.2956 417.651 21.203 414.216L20.5958 414.16C22.4894 409.376 21.3573 403.623 22.1498 398.215L21.7175 398.857C21.1309 398.112 21.0692 396.911 20.7913 396.027C21.1 395.888 22.0983 396.669 21.841 395.106C21.6249 395.431 21.3985 396.092 21.1 395.897C22.6849 391.261 22.2939 381.459 23.0657 373.826C22.5923 363.512 23.7964 352.323 23.4156 342.186C23.4671 343.731 21.9542 343.07 22.3042 341.907C24.8564 338.723 21.8822 336.386 23.6215 333.138C22.7981 327.236 25.0211 321.967 23.0657 316.475L23.7861 316.373C24.1155 315.554 23.6112 315.33 23.5391 314.474L23.745 314.492C24.0125 312.454 23.2819 309.996 23.6318 308.823L22.8187 308.749C22.7467 307.539 23.4465 308.125 22.9834 306.887L23.3951 306.925L22.6232 305.482C24.0434 305.621 22.7364 302.065 23.3848 301.107C23.1275 299.543 22.5203 296.573 22.7982 294.2C23.5288 293.762 23.5288 290.848 23.889 288.996C23.7038 285.384 23.4671 280.227 23.7244 275.629L22.7982 275.713L22.7364 274.512C22.9422 274.53 23.0452 274.363 23.1481 274.549C24.1978 273.618 22.829 271.784 23.4774 270.816C22.6438 271.421 23.3436 271.654 23.323 272.343C22.8805 273.33 21.9954 272.389 22.4483 271.058L22.6541 271.086L22.1704 270.174C22.8908 270.071 23.2304 269.252 23.9405 269.141C23.7656 265.184 22.5306 262.504 22.8702 258.426C23.6729 258.845 22.6644 255.494 24.064 256.313C23.5391 253.865 22.9422 256.723 21.944 255.596C21.9646 254.917 21.5838 254.2 22.0983 254.07C22.438 254.386 22.9525 253.511 23.076 254.07L22.9628 252.432C23.076 252.273 23.2613 252.636 23.3539 252.813C22.5512 249.481 24.2698 246.912 23.4568 243.914C22.9525 243.691 23.3127 245.096 22.8085 244.882C21.7896 241.876 23.7141 242.22 22.9937 239.418L23.6935 240.004C23.2098 239.102 22.6129 238.701 23.1687 237.212C23.992 236.951 23.8376 238.478 24.2287 239.195C24.2698 238.171 24.0537 235.583 23.3024 236.374C23.0349 235.145 23.7656 234.699 23.992 234.038C23.7861 234.019 23.4465 235.183 23.0657 234.466C23.5289 232.8 23.5186 230.221 23.5803 228.182C23.7861 228.201 24.0949 228.061 24.1875 228.238C23.1172 226.6 24.9491 226.768 24.7227 224.524C24.4139 218.501 23.3436 210.701 23.6524 204.743C22.5615 203.449 22.5306 201.55 22.2836 199.651L23.7244 199.447L23.2613 197.864C23.6935 197.222 23.5289 199.084 24.0743 197.939L23.179 197.343C23.6935 197.222 23.5186 193.266 24.5477 195.928L24.5477 189.766C24.5992 188.406 23.3539 188.974 23.7141 187.466C24.1361 187.159 24.0023 188.006 24.5168 187.885C25.5872 183.361 21.7279 182.654 22.3865 178.437L22.5718 178.791C22.191 178.074 22.2424 176.705 22.0366 176.687C20.5855 177.227 22.8188 177.441 21.9646 178.735C20.7399 178.623 21.3059 177.124 20.3797 177.217C20.8222 176.231 20.1327 175.644 20.0504 174.788C20.8222 173.326 20.2768 171.213 21.2339 170.115C20.8531 169.398 19.649 168.598 19.5975 167.043C20.5546 165.935 20.5135 167.304 20.8634 165.796L20.1533 165.554C20.2665 164.316 20.462 164.511 20.7913 164.558C20.8222 163.236 19.824 163.459 20.2768 161.802L20.9663 162.724C20.6987 161.495 20.8222 161.002 20.884 159.289C21.2956 159.326 21.2648 160.006 21.1413 160.508C22.191 159.578 20.6884 158.926 20.8016 158.423C20.4929 158.572 20.3488 159.745 19.6593 159.168C19.7931 158.321 18.7022 157.362 19.5358 156.757L20.215 157.679C19.6696 155.91 19.33 156.738 19.6078 154.709C19.6593 154.821 19.8342 154.765 19.9886 154.811C19.083 153.527 19.9063 151.851 19.9783 149.952L20.1636 150.315C19.9269 149.552 19.2888 149.133 19.3403 148.714C18.9286 149.794 18.7228 149.496 18.0435 149.599C19.2168 148.165 16.6954 147.411 17.3849 145.084C17.7863 145.121 18.2802 145.689 17.848 146.331C19.0418 147.132 20.071 147.225 20.6267 148.649C20.3488 147.765 20.1842 146.722 20.6884 146.946L19.5667 146.666C19.5358 146.126 19.6078 145.708 19.6078 145.307C18.908 145.075 18.4552 146.387 17.9921 145.149C17.6319 143.753 19.1344 144.404 18.6302 144.19C18.1876 142.263 17.4363 143.39 17.8068 141.537C17.8995 141.723 18.095 142.086 17.9818 142.245C18.4346 140.914 17.7863 138.977 19.1241 138.586C19.4226 138.782 19.824 138.819 19.7108 139.322L19.5049 139.303C20.4003 140.653 19.4226 138.475 20.215 138.493C19.7622 138.195 19.9063 136.669 20.0195 135.933L19.1962 136.203C16.7365 133.392 20.8222 136.352 20.5032 133.578C19.9475 131.819 20.2768 134.239 19.7005 133.159C19.8445 131.968 20.5752 131.53 20.2253 129.79C20.5444 129.306 20.9869 128.319 21.9131 128.235C21.5426 127.174 22.3248 125.024 21.4294 124.428C20.6576 126.234 22.3968 126.234 21.1927 128.338L20.2974 127.742C20.3488 126.28 19.896 124.409 20.215 123.395C20.0401 123.599 19.8137 123.693 19.6181 123.562C19.2785 121.477 18.3832 120.881 18.6507 118.852C19.4741 118.582 19.33 119.774 19.402 120.639C20.0607 119.327 19.4535 119.271 19.721 117.242C20.4414 117.13 19.6696 118.61 20.3797 118.843L20.1533 116.599C20.1533 116.599 20.2459 116.599 20.2974 116.599C19.0933 116.274 20.4003 114.887 20.0504 113.509C20.0607 110.26 18.4449 109.757 17.4775 107.952C17.8068 107.468 18.1053 107.328 18.414 107.533C17.8789 108.333 18.3008 108.194 18.6096 108.473C18.4861 107.374 19.7931 106.071 20.2768 106.686C19.9269 104.936 19.6387 107.309 19.2682 106.248L19.3506 103.856C18.7331 104.135 18.5993 104.982 18.1259 103.744C17.9612 102.701 18.0847 102.199 18.1259 100.83C18.4243 101.026 19.0624 100.402 19.0212 101.426C19.2476 100.765 19.2785 99.7413 18.6816 99.3411C18.1259 100.83 18.1568 96.8929 17.1996 98.0099L17.7554 96.5205C17.7451 96.8556 18.1465 96.9022 18.0333 97.3955C18.9698 96.9673 17.7657 96.1761 17.6833 95.6548C17.8686 95.1335 17.9509 93.7652 18.3111 93.6535C18.0538 93.1787 18.2597 92.0244 18.7331 91.8197C18.5478 91.1122 18.1259 91.7638 17.8274 91.559L17.9098 89.176C18.4243 89.055 19.8651 88.8502 20.0607 89.2132C19.5873 88.3103 18.5375 88.8967 18.589 87.5283C19.5873 88.3103 19.3609 85.7225 20.5547 86.8581C21.2956 86.0762 21.2648 83.8514 20.9972 82.6227C20.2048 81.8594 20.5444 83.9538 19.7313 83.87C19.4432 80.4258 17.1997 80.2117 17.5907 77.6798L17.3643 78.3407C16.9012 76.7582 17.0041 76.9444 16.3146 76.0228C17.3231 76.4603 19.0315 74.2263 18.8154 71.6385C18.3111 71.4244 17.848 73.0906 17.0453 72.6624L16.9012 70.9403C16.9835 70.8193 17.1482 71.0055 17.282 71.2289C16.9218 69.6836 18.5993 68.3525 17.4158 67.9057L18.8977 66.3418L18.27 66.9655C17.776 66.7514 17.6216 65.02 17.4261 64.6662C16.8703 62.8976 17.3026 62.2553 17.9509 61.2872C17.5393 61.5944 16.5822 62.3577 16.4278 60.9707C18.0641 60.9893 17.035 58.0571 17.8892 58.0943C17.8686 57.5358 18.3832 56.5398 17.7039 56.4746L18.7228 56.5677C17.3026 56.4374 17.3643 54.3895 17.1173 52.8256C19.0521 53.1793 16.9732 51.1035 18.7331 50.4054C17.4261 50.1075 18.2185 47.6221 17.107 47.3428C17.0453 46.1327 18.2597 46.2537 18.6816 45.9465L18.1876 45.388C18.8051 44.7829 18.8977 42.5116 19.3197 41.1618L18.1671 39.9052L18.6919 39.4397C18.3935 39.2442 18.2288 38.2017 17.7966 38.844L17.8686 38.1644C16.6028 38.1086 17.5187 37.215 16.9835 35.8559C17.1894 35.5394 17.4878 35.6232 17.6525 35.921C17.6628 35.2415 18.3111 35.5301 18.7434 35.167C18.4243 35.6418 16.4793 32.7282 15.9029 34.5527C15.3884 34.6737 15.0076 33.6125 15.234 32.9423L16.3661 32.542L15.1722 31.7415C15.0076 30.6989 15.728 30.2521 15.8618 29.4143C15.9338 30.2707 18.0436 31.3319 18.023 29.1071C18.1671 30.2707 18.8051 30.8478 19.0418 31.4622C19.083 31.0061 19.1962 30.7734 19.6799 31.4901C19.33 29.7494 18.9801 30.913 18.8463 29.1816C19.8651 29.2747 20.1842 28.7906 20.5444 27.2919L19.7931 28.4183C19.6696 28.3624 19.577 28.288 19.5255 28.2042C19.4123 28.6324 19.2579 28.7534 18.8669 28.8465C18.8772 28.5021 17.6113 26.8451 18.2288 26.5565C16.6439 28.2879 17.0041 23.5312 16.047 24.6389C15.7486 24.4435 15.6971 23.2333 16.2014 23.1123C16.9733 24.5552 17.3643 22.0325 18.0744 22.2652C17.7863 21.7346 17.3232 23.4009 16.9321 22.6748C16.8703 21.8184 17.4878 21.1854 17.8172 20.7107L18.0024 21.0644L18.4655 19.7426C17.9612 19.5192 17.601 21.0272 17.3335 19.8077C17.5496 19.4819 17.282 18.2625 17.6937 18.2997C18.3935 18.8862 19.3197 18.458 19.4947 19.5006C19.4226 18.6348 19.3094 15.8888 18.3523 16.9965L18.3935 15.9633C17.9612 16.6056 17.1894 18.4207 17.0556 16.3542L17.2614 16.3728L16.4896 14.9393L17.0144 14.3156C16.7571 14.3342 16.5204 14.1108 16.541 13.5709C16.8498 13.4313 16.963 12.9286 17.3746 12.9659C17.3232 11.4206 16.8086 11.5416 16.5101 11.3461C16.4381 10.4804 16.6542 10.1546 17.2511 10.5642C17.3746 9.49373 17.282 7.70645 17.6628 6.77559L17.7245 6.77559Z" fill="#231916"/>
<path d="M21.1958 115.418L21.1058 116.246C21.2409 116.246 21.3909 116.283 21.5334 116.665L21.1958 115.418Z" fill="#231916"/>
<path d="M20.8132 154.451C20.8581 154.553 20.903 154.655 20.9778 154.749C20.9478 154.553 20.8805 154.488 20.8132 154.451Z" fill="#231916"/>
<path d="M21.8626 163.932C21.7351 163.253 21.5776 163.858 21.42 164.193C21.5401 164.211 21.6826 164.193 21.8626 163.932Z" fill="#231916"/>
<path d="M19.6158 93.3081C19.6757 93.4486 19.7506 93.5421 19.8778 93.5141C19.773 93.3175 19.6907 93.2801 19.6158 93.3081Z" fill="#231916"/>
<path d="M20.0498 32.1956C20.0199 32.27 20.0049 32.3444 19.96 32.4375C20.0049 32.391 20.0349 32.3072 20.0498 32.1956Z" fill="#231916"/>
<path d="M19.1145 35.5815C19.1145 35.749 19.1294 35.963 19.2039 36.27C19.2337 35.9723 19.189 35.749 19.1145 35.5815Z" fill="#231916"/>
<path d="M19.8326 108.123C19.8551 108.346 19.9001 108.569 20.0202 108.765C20.0052 108.411 19.9227 108.244 19.8326 108.123Z" fill="#231916"/>
<path d="M19.3311 36.9769L19.2638 37.8329C19.3012 37.8329 19.3311 37.8423 19.376 37.8516L19.3237 36.9862L19.3311 36.9769Z" fill="#231916"/>
<path d="M20.1245 31.1253C20.1022 31.4602 20.1022 31.9069 20.0502 32.1953C20.2137 31.7673 20.2137 31.4323 20.1245 31.1253Z" fill="#231916"/>
<path d="M18.8519 70.8751C18.8519 70.8751 18.8594 70.9309 18.8668 70.9681C19.1198 71.6381 19.0156 71.2194 18.8519 70.8751Z" fill="#231916"/>
<path d="M20.3573 40.7086L20.3274 40.8203L20.4919 41.0715L20.3573 40.7086Z" fill="#231916"/>
<path d="M20.3572 27.4406C20.3721 27.5988 20.3944 27.7477 20.4688 27.8687C20.4837 27.7384 20.506 27.5802 20.5358 27.3848C20.4613 27.4313 20.4093 27.4406 20.3572 27.4406Z" fill="#231916"/>
<path d="M19.7822 58.0819C19.557 57.8405 19.4069 57.7477 19.2943 57.7384C19.2943 58.0169 19.3994 58.2026 19.7822 58.0819Z" fill="#231916"/>
<path d="M1297.07 395.816C1297.21 395.852 1297.37 395.889 1297.61 395.898C1297.4 395.825 1297.22 395.797 1297.07 395.816Z" fill="#231916"/>
<path d="M1300.51 358.195L1300.76 358.632C1300.72 358.344 1300.63 358.232 1300.51 358.195Z" fill="#231916"/>
<path d="M1295.62 418.35C1295.62 418.35 1295.55 418.323 1295.49 418.295C1295.47 418.639 1295.44 419.113 1295.4 419.876L1295.62 418.341L1295.62 418.35Z" fill="#231916"/>
<path d="M1304.39 277.948L1304.39 278.451C1304.42 278.227 1304.47 278.078 1304.39 277.948Z" fill="#231916"/>
<path d="M1301.81 325.496C1301.58 325.348 1301.51 325.096 1301.43 324.854C1301.4 325.161 1301.43 325.403 1301.81 325.496Z" fill="#231916"/>
<path d="M1284.07 430.26L1284.85 429.618C1284.52 429.627 1284.16 429.85 1284.07 430.26Z" fill="#231916"/>
<path d="M1304.84 205.286L1305.16 205.436C1305.05 205.296 1304.93 205.277 1304.84 205.286Z" fill="#231916"/>
<path d="M1282 418.156C1281.24 417.495 1282.15 416.137 1281.4 416.146C1281.52 416.844 1280.95 417.84 1282 418.156Z" fill="#231916"/>
<path d="M1276.04 189.925L1275.99 189.489C1275.99 189.693 1275.99 189.832 1276.04 189.925Z" fill="#231916"/>
<path d="M1305.17 129.628L1305.17 129.656C1305.21 129.703 1305.26 129.75 1305.3 129.806L1305.17 129.628Z" fill="#231916"/>
<path d="M1306.41 125.619C1306.5 125.898 1306.57 126.168 1306.66 126.475C1306.74 126.019 1306.62 125.786 1306.41 125.619Z" fill="#231916"/>
<path d="M1305.29 82.3519C1305.32 82.4915 1305.35 82.6217 1305.38 82.7427C1305.38 82.5752 1305.36 82.4449 1305.29 82.3519Z" fill="#231916"/>
<path d="M1301.35 328.549C1301.27 328.642 1301.24 328.782 1301.18 328.903C1301.36 328.94 1301.48 328.921 1301.35 328.549Z" fill="#231916"/>
<path d="M1281.04 298.661L1281.04 298.649L1281.03 298.649L1281.04 298.661Z" fill="#231916"/>
<path d="M1282 300.253C1282.16 299.75 1281.61 299.043 1281.06 298.662C1281.06 299.164 1281.22 299.63 1282 300.253Z" fill="#231916"/>
<path d="M1281.43 295.236C1281.4 295.302 1281.37 295.349 1281.34 295.424C1281.4 295.358 1281.43 295.302 1281.43 295.236Z" fill="#231916"/>
<path d="M1279.92 327.348C1279.92 327.348 1279.98 327.348 1280.01 327.348L1279.94 327.329L1279.94 327.348L1279.92 327.348Z" fill="#231916"/>
<path d="M1279.8 320.984C1279.95 320.873 1280.07 320.715 1280.15 320.548C1280 320.65 1279.88 320.798 1279.8 320.984Z" fill="#231916"/>
<path d="M1279.28 279.4L1279.31 279.4L1279.31 279.373L1279.28 279.4Z" fill="#231916"/>
<path d="M1289.54 22.1364C1288.76 22.9195 1289.02 21.5677 1288.51 21.0083C1289.54 25.0453 1286.81 26.6861 1286.9 30.1171L1287.54 30.173C1285.56 34.9652 1286.74 40.7269 1285.91 46.1438L1286.37 45.5004C1286.98 46.2463 1287.04 47.449 1287.33 48.3347C1287.01 48.4746 1285.97 47.6914 1286.24 49.2577C1286.46 48.9314 1286.7 48.2694 1287.01 48.4652C1285.35 53.1175 1285.75 62.9256 1284.96 70.5707C1285.45 80.9008 1284.2 92.1074 1284.59 102.26C1284.54 100.713 1286.12 101.375 1285.75 102.54C1283.09 105.729 1286.19 108.069 1284.38 111.323C1285.24 117.234 1282.91 122.51 1284.96 128.011L1284.2 128.114C1283.86 128.934 1284.39 129.158 1284.45 130.016L1284.24 129.997C1283.96 132.03 1284.72 134.5 1284.35 135.675L1285.2 135.749C1285.28 136.962 1284.55 136.374 1285.03 137.614L1284.61 137.577L1285.42 139.022C1283.94 138.882 1285.3 142.434 1284.62 143.413C1284.89 144.98 1285.54 147.954 1285.24 150.331C1284.47 150.769 1284.47 153.687 1284.1 155.543C1284.29 159.16 1284.54 164.325 1284.26 168.931L1285.23 168.847L1285.29 170.05C1285.08 170.031 1284.97 170.19 1284.87 170.012C1283.77 170.945 1285.2 172.781 1284.53 173.751C1285.4 173.145 1284.67 172.912 1284.69 172.222C1285.15 171.234 1286.08 172.175 1285.6 173.509L1285.39 173.481L1285.89 174.394C1285.14 174.497 1284.78 175.317 1284.04 175.429C1284.23 179.392 1285.52 182.077 1285.16 186.16C1284.32 185.741 1285.38 189.097 1283.91 188.277C1284.46 190.729 1285.1 187.876 1286.13 188.995C1286.11 189.675 1286.51 190.402 1285.97 190.524C1285.61 190.207 1285.08 191.083 1284.95 190.524L1285.06 192.164C1284.95 192.323 1284.75 191.959 1284.66 191.773C1285.49 195.111 1283.7 197.684 1284.55 200.686C1285.08 200.91 1284.7 199.502 1285.23 199.716C1286.29 202.728 1284.28 202.373 1285.03 205.189L1284.3 204.611C1284.81 205.515 1285.43 205.916 1284.84 207.408C1283.98 207.669 1284.14 206.14 1283.73 205.422C1283.69 206.448 1283.91 209.04 1284.7 208.247C1284.98 209.478 1284.21 209.916 1283.98 210.587C1284.19 210.606 1284.55 209.44 1284.95 210.158C1284.46 211.827 1284.47 214.41 1284.41 216.451C1284.19 216.433 1283.87 216.573 1283.77 216.396C1284.89 218.036 1282.98 217.869 1283.21 220.116C1283.54 226.148 1284.66 233.951 1284.33 239.937C1285.46 241.233 1285.51 243.135 1285.75 245.037L1284.25 245.242L1284.73 246.827C1284.28 247.47 1284.45 245.605 1283.88 246.752L1284.82 247.349C1284.28 247.47 1284.46 251.432 1283.39 248.766L1283.39 254.938C1283.33 256.299 1284.63 255.74 1284.26 257.241C1283.82 257.548 1283.96 256.7 1283.42 256.821C1282.3 261.352 1286.33 262.051 1285.65 266.284L1285.44 265.93C1285.84 266.648 1285.79 268.018 1286 268.037C1287.52 267.496 1285.18 267.282 1286.08 265.986C1287.36 266.098 1286.76 267.599 1287.73 267.515C1287.27 268.503 1287.99 269.091 1288.07 269.948C1287.26 271.412 1287.83 273.528 1286.83 274.638C1287.24 275.356 1288.48 276.158 1288.54 277.705C1287.54 278.815 1287.58 277.444 1287.22 278.955L1287.96 279.197C1287.84 280.437 1287.63 280.241 1287.29 280.195C1287.26 281.518 1288.3 281.295 1287.83 282.954L1287.11 282.031C1287.39 283.262 1287.26 283.756 1287.2 285.471C1286.77 285.434 1286.81 284.754 1286.94 284.25C1285.84 285.182 1287.41 285.835 1287.29 286.339C1287.61 286.189 1287.76 285.015 1288.5 285.593C1288.36 286.441 1289.5 287.401 1288.62 288.007L1287.91 287.084C1288.48 288.856 1288.84 288.035 1288.55 290.059C1288.5 289.947 1288.3 290.003 1288.15 289.956C1289.1 291.243 1288.24 292.921 1288.16 294.823L1287.96 294.459C1288.2 295.224 1288.87 295.643 1288.82 296.063C1289.25 294.981 1289.46 295.28 1290.17 295.177C1288.95 296.613 1291.58 297.368 1290.86 299.699C1290.44 299.661 1289.93 299.093 1290.38 298.449C1289.13 297.648 1288.05 297.554 1287.47 296.128C1287.76 297.014 1287.94 298.058 1287.41 297.834L1288.57 298.114C1288.6 298.645 1288.53 299.074 1288.53 299.475C1289.26 299.708 1289.73 298.394 1290.22 299.634C1290.59 301.032 1289.02 300.379 1289.55 300.594C1290.01 302.524 1290.8 301.396 1290.41 303.251C1290.31 303.064 1290.11 302.701 1290.23 302.542C1289.75 303.876 1290.43 305.815 1289.02 306.206C1288.71 306.011 1288.29 305.973 1288.41 305.47L1288.62 305.489C1287.69 304.137 1288.71 306.318 1287.87 306.3C1288.34 306.598 1288.19 308.127 1288.08 308.864L1288.94 308.593C1291.51 311.399 1287.24 308.444 1287.57 311.222C1288.15 312.984 1287.81 310.56 1288.41 311.642C1288.26 312.835 1287.5 313.273 1287.86 315.017C1287.52 315.502 1287.06 316.49 1286.1 316.574C1286.48 317.637 1285.67 319.79 1286.6 320.396C1287.41 318.588 1285.59 318.588 1286.85 316.471L1287.79 317.068C1287.73 318.532 1288.2 320.415 1287.86 321.422C1288.04 321.217 1288.29 321.124 1288.48 321.254C1288.84 323.343 1289.77 323.939 1289.48 325.972C1288.62 326.242 1288.77 325.049 1288.7 324.182C1288.01 325.496 1288.65 325.552 1288.37 327.585C1287.61 327.687 1288.42 326.214 1287.68 325.981L1287.91 328.228C1287.91 328.228 1287.82 328.228 1287.76 328.228C1289.02 328.554 1287.65 329.943 1288.02 331.323C1288.01 334.577 1289.7 335.08 1290.7 336.889C1290.37 337.374 1290.04 337.514 1289.72 337.309C1290.28 336.507 1289.84 336.647 1289.52 336.367C1289.65 337.467 1288.28 338.772 1287.77 338.157C1288.14 339.91 1288.44 337.523 1288.83 338.595L1288.74 340.991C1289.39 340.712 1289.53 339.863 1290.02 341.103C1290.19 342.148 1290.07 342.651 1290.02 344.021C1289.71 343.826 1289.04 344.45 1289.09 343.425C1288.85 344.087 1288.82 345.112 1289.43 345.513C1290.02 344.021 1289.98 347.965 1290.98 346.846L1290.4 348.338C1290.41 348.003 1289.99 347.956 1290.11 347.462C1289.13 347.881 1290.39 348.683 1290.47 349.205C1290.28 349.727 1290.19 351.098 1289.82 351.21C1290.09 351.676 1289.87 352.832 1289.38 353.046C1289.57 353.755 1290.01 353.102 1290.32 353.307L1290.24 355.694C1289.7 355.825 1288.19 356.021 1287.99 355.666C1288.48 356.571 1289.58 355.983 1289.53 357.354C1288.48 356.571 1288.72 359.162 1287.47 358.025C1286.71 358.808 1286.73 361.036 1287.01 362.267C1287.84 363.032 1287.48 360.934 1288.33 361.018C1288.64 364.467 1290.98 364.682 1290.57 367.218L1290.81 366.556C1291.29 368.141 1291.18 367.954 1291.9 368.887C1290.85 368.448 1289.07 370.677 1289.29 373.278C1289.82 373.492 1290.3 371.823 1291.14 372.252L1291.29 373.977C1291.21 374.108 1291.03 373.912 1290.89 373.688C1291.27 375.236 1289.52 376.569 1290.75 377.016L1289.2 378.583L1289.87 377.958C1290.39 378.173 1290.55 379.907 1290.75 380.261C1291.33 382.032 1290.88 382.676 1290.21 383.645C1290.64 383.338 1291.62 382.573 1291.8 383.962C1290.09 383.944 1291.16 386.88 1290.27 386.843C1290.29 387.403 1289.76 388.4 1290.46 388.465L1289.4 388.372C1290.88 388.503 1290.82 390.554 1291.08 392.12C1289.05 391.766 1291.23 393.845 1289.4 394.544C1290.76 394.843 1289.94 397.332 1291.1 397.612C1291.16 398.824 1289.89 398.702 1289.45 399.01L1289.96 399.569C1289.31 400.175 1289.22 402.45 1288.77 403.802L1289.98 405.061L1289.43 405.527C1289.74 405.723 1289.91 406.767 1290.37 406.124L1290.29 406.804C1291.61 406.86 1290.66 407.755 1291.22 409.116C1291 409.433 1290.69 409.349 1290.52 409.051C1290.51 409.685 1289.9 409.48 1289.46 409.76C1289.97 409.676 1291.79 412.137 1292.35 410.422C1292.88 410.3 1293.28 411.363 1293.04 412.035L1291.86 412.435L1293.11 413.237C1293.28 414.281 1292.53 414.729 1292.39 415.568C1292.31 414.701 1290.11 413.647 1290.13 415.876C1289.98 414.701 1289.31 414.123 1289.07 413.517C1289.02 413.974 1288.9 414.207 1288.4 413.489C1288.76 415.232 1289.13 414.076 1289.27 415.801C1288.22 415.708 1287.87 416.183 1287.51 417.694L1288.29 416.566C1288.42 416.622 1288.52 416.696 1288.57 416.78C1288.69 416.351 1288.85 416.23 1289.26 416.137C1289.25 416.482 1290.57 418.141 1289.93 418.43C1291.58 416.696 1291.21 421.46 1292.21 420.351C1292.52 420.547 1292.58 421.759 1292.04 421.88C1291.24 420.435 1290.83 422.961 1290.09 422.728C1290.39 423.26 1290.88 421.591 1291.28 422.318C1291.35 423.176 1290.7 423.81 1290.36 424.285L1290.16 423.931L1289.68 425.255C1290.21 425.479 1290.58 423.968 1290.86 425.19C1290.64 425.516 1290.91 426.737 1290.48 426.7C1289.75 426.122 1288.79 426.542 1288.6 425.497C1288.68 426.364 1288.8 429.115 1289.8 428.005L1289.76 429.04C1290.22 428.397 1291.02 426.579 1291.16 428.649L1290.95 428.63L1291.75 430.066L1291.21 430.7C1291.47 430.681 1291.72 430.905 1291.7 431.446C1291.38 431.585 1291.26 432.089 1290.83 432.042C1290.88 433.59 1291.42 433.469 1291.73 433.665C1291.81 434.532 1291.58 434.858 1290.96 434.448C1290.82 435.632 1290.96 437.701 1290.39 438.513C1290.44 438.68 1290.47 438.802 1290.52 438.904C1292.24 438.522 1294.03 438.28 1295.86 438.214C1296.13 438.205 1296.41 438.205 1296.68 438.205C1296.32 436.825 1295.35 434.765 1297.01 435.184C1296.13 432.881 1296.49 432.052 1295.95 429.264C1296.94 431.408 1297.21 426.803 1297.66 429.077C1298.13 427.744 1296.97 427.465 1296.79 426.42C1297.25 425.432 1298.29 425.87 1298.69 426.942L1298.21 425.693L1298.42 425.712L1297.82 424.63C1298.39 423.484 1298.89 424.388 1299.05 423.204L1298.1 422.943L1298.66 422.141C1298.23 422.449 1298.03 421.74 1297.96 420.882L1298.17 420.901L1297.99 419.857C1298.57 420.892 1298.2 418.896 1298.87 419.372C1298.93 418.477 1298.92 418.458 1298.74 416.836L1298.1 417.116C1297.54 414.999 1299.07 417.023 1299.12 415.316L1298.37 415.419C1299.63 412.958 1297.66 411.242 1298.48 409.424C1298.65 410.468 1299.52 410.207 1299.3 410.179C1299.03 408.613 1299.24 406.058 1298.34 404.436C1299.42 403.849 1299.74 403.709 1300.24 402.04C1300.17 400.828 1300.07 400.651 1299.44 400.259C1299.86 399.085 1299.24 396.884 1300.02 396.828C1299.4 396.558 1300.15 395.775 1299.63 395.132L1299.95 394.992L1299.2 395.094C1300.87 393.015 1298.26 391.579 1299.71 389.482L1299.92 389.845L1299.63 388.96C1299.95 388.82 1300.15 389.174 1300.58 389.221L1300.72 385.118L1300.16 385.929C1300.09 385.062 1299.37 384.484 1299.83 383.496C1300.95 385.137 1299.87 382.135 1300.74 381.865L1301.03 382.75C1300.99 381.948 1300.72 381.579 1300.22 381.641C1299.96 380.084 1301.65 380.569 1300.84 379.133L1300.8 380.158C1300.36 380.457 1299.76 379.72 1299.77 379.04C1299.88 378.881 1300.22 378.396 1300.3 378.918C1300.02 377.688 1300.41 375.842 1300.11 375.301C1300.35 374.63 1300.87 374.853 1301.07 375.217C1300.41 372.588 1301.22 374.033 1300.56 371.395L1300.99 371.441L1300.49 370.537L1301.39 369.25L1300.84 369.716C1300.77 368.849 1300.46 368.309 1300.71 367.302L1301.34 367.703C1300.99 365.269 1302.4 364.887 1301.52 362.565C1301.64 362.407 1301.83 362.771 1301.93 362.948C1300.94 360.803 1303.05 361.325 1301.85 359.162C1302.07 359.293 1302.33 359.06 1302.51 359.144L1302.1 358.156L1302.95 358.23L1301.69 357.428L1302.57 356.822L1302.16 356.44C1303.8 355.396 1302.57 353.904 1303.79 352.468L1302.71 352.711C1300.5 349.084 1303.97 344.422 1302.94 340.05L1303.79 340.134L1302.79 338.325C1303.45 337.355 1303.51 338.912 1303.95 338.605C1303.48 336.675 1302.69 337.803 1302.45 335.556C1303.02 334.409 1303.08 335.957 1303.38 336.498C1302.96 334.391 1302.5 331.286 1302.97 329.794C1302.85 329.766 1302.7 329.664 1302.66 329.748C1302.27 328.34 1302.66 326.494 1302.61 324.946C1302.99 324.983 1303.06 325.366 1303.14 325.757C1303.2 325.198 1303.47 324.443 1303.07 323.967L1303.8 324.545C1303.95 323.361 1303.28 321.068 1304.14 320.807C1303.81 320.956 1303.18 320.891 1303.22 319.865C1304.52 319.296 1302.67 317.068 1303.37 315.427C1303.68 315.623 1303.75 316.835 1303.76 316.49C1304.1 315.66 1303.5 314.924 1303.09 314.196L1303.62 314.42L1302.9 310.579C1304.2 310.01 1302.7 306.962 1303.66 307.223C1303.7 305.852 1303.08 308.369 1302.94 306.635C1303.48 306.178 1302.67 305.069 1303.52 305.144L1303.62 305.33L1303.55 304.118L1304.38 304.883C1304.2 303.838 1303.37 303.074 1302.73 303.018C1303.2 302.03 1302.82 300.631 1303.58 300.174L1303.79 300.538C1303.47 297.76 1306.09 295.941 1304.67 293.76C1304.79 293.601 1304.99 293.62 1304.99 293.956L1305.05 292.24L1305.67 292.65L1304.7 289.816L1305.12 289.853C1305.29 287.979 1305.08 285.052 1304.95 282.637L1305.15 283.001C1304.5 280.372 1305.56 280.465 1305.1 278.535C1305.21 278.61 1305.25 278.666 1305.28 278.74L1305.26 277.006L1305.67 277.388C1304.76 276.102 1306.86 273.724 1306.09 274.517C1305.69 273.789 1305.2 272.54 1304.68 272.326C1304.64 270.442 1305.23 271.86 1305.58 270.694C1305.63 269.333 1304.9 269.091 1305.28 267.235L1305.7 267.273C1305.63 266.405 1305.33 265.874 1305.26 264.662L1305.47 265.016C1304.57 263.049 1306.72 262.564 1304.86 261.017C1305.21 260.196 1304.94 258.63 1305.8 258.704C1305.25 256.252 1304.99 254.351 1304.65 251.917C1306.05 251.526 1304.56 251.395 1305.36 249.922L1304.62 250.034C1304.52 246.594 1306.37 242.641 1306.07 238.846L1306.82 238.743L1305.99 237.988C1306.35 233.905 1306.64 228.618 1306.66 225.365C1306.26 224.302 1305.36 222.679 1305.64 220.983L1305.75 221.16C1305.32 218.214 1304.99 215.09 1305.43 211.874C1305.7 212.042 1305.91 211.846 1306.08 211.995C1305.43 211.24 1306.13 210.186 1306.15 209.534L1305.59 210.345C1304.89 209.431 1305.57 208.117 1306.12 207.65L1305.32 206.196C1305.39 206.103 1305.51 205.954 1305.63 205.935L1305.23 205.683L1306.22 204.919C1306.01 204.564 1305.77 202.644 1304.82 202.047C1305.14 201.907 1305.4 200.555 1305.58 201.6L1305.89 196.313L1305.53 197.134C1304.78 197.236 1304.3 195.651 1304.65 194.831C1305.25 195.912 1305.71 194.924 1306.26 194.458C1305.86 193.74 1305.61 195.083 1305.19 194.7C1304.68 193.796 1304.43 191.885 1304.77 191.409L1305.07 191.95C1304.79 190.729 1306.09 190.16 1306.03 188.948C1305.42 187.866 1305.98 187.065 1304.69 187.288C1304.42 185.722 1305.56 186.682 1305.69 186.179C1305.08 185.442 1305.48 183.251 1306.13 182.972C1304.24 182.114 1306.81 178.748 1305.23 178.422L1306.13 177.135C1305.7 177.089 1304.76 176.837 1304.57 175.793C1305.04 174.805 1305.78 175.047 1306.21 174.749L1304.63 174.087C1306.33 168.418 1305.2 160.941 1306.59 154.722C1306.26 151.944 1305.53 148.457 1305.76 145.213L1305.96 145.567L1306.39 142.35L1305.66 144.681C1305.48 143.982 1305.16 143.432 1305.2 142.751C1305.86 139.218 1306.66 134.51 1305.86 130.156C1304.05 127.34 1307.48 128.282 1306.15 125.587C1306.32 125.82 1306.57 125.904 1306.76 126.109C1306.15 123.2 1305.84 121.625 1304.78 118.716C1306.58 119.052 1304.73 116.823 1305.69 117.084L1304.95 116.842C1305.4 116.199 1305.56 114.67 1306.09 114.893L1305.18 113.607L1305.93 113.495C1305.98 111.789 1305.37 108.134 1306.9 107.248C1305.77 103.034 1306.1 96.3774 1306.4 91.0911C1305.79 90.3453 1305.73 88.7976 1305.67 87.5949L1306.56 86.3083C1306.28 85.0777 1305.16 83.7817 1305.73 82.635C1305.84 82.635 1305.91 82.6909 1305.96 82.7748C1305.78 81.5255 1306.25 80.3414 1305.42 79.176C1305.47 77.964 1305.84 76.7893 1306.51 76.8266C1305.53 76.3791 1306.99 74.0016 1306.99 74.0016C1306.99 74.0016 1308.28 48.9035 1307.61 25.0639C1302.72 21.3533 1299.46 15.9458 1299.14 10.3332C1296.86 10.2026 1294.66 9.7458 1292.58 8.99994C1291.41 14.0065 1288.73 17.1764 1289.52 22.183L1289.54 22.1364Z" fill="#231916"/>
<path d="M1279.74 328.167L1279.92 327.339C1279.65 327.339 1279.35 327.302 1279.05 326.92L1279.73 328.167L1279.74 328.167Z" fill="#231916"/>
<path d="M1280.51 289.142C1280.41 289.04 1280.32 288.938 1280.17 288.845C1280.23 289.04 1280.35 289.105 1280.51 289.142Z" fill="#231916"/>
<path d="M1278.41 279.662C1278.67 280.341 1278.98 279.736 1279.29 279.401C1279.05 279.383 1278.77 279.401 1278.41 279.662Z" fill="#231916"/>
<path d="M1282.89 350.284C1282.77 350.144 1282.63 350.051 1282.37 350.079C1282.58 350.275 1282.75 350.312 1282.89 350.284Z" fill="#231916"/>
<path d="M1282.01 411.39C1282.07 411.316 1282.1 411.241 1282.19 411.148C1282.1 411.195 1282.04 411.279 1282.01 411.39Z" fill="#231916"/>
<path d="M1283.88 408.003C1283.88 407.836 1283.85 407.622 1283.7 407.315C1283.64 407.612 1283.73 407.836 1283.88 408.003Z" fill="#231916"/>
<path d="M1282.45 335.462C1282.4 335.239 1282.31 335.016 1282.07 334.82C1282.1 335.174 1282.27 335.341 1282.45 335.462Z" fill="#231916"/>
<path d="M1283.45 406.617L1283.58 405.761C1283.51 405.761 1283.45 405.752 1283.34 405.743L1283.45 406.608L1283.45 406.617Z" fill="#231916"/>
<path d="M1281.86 412.461C1281.91 412.126 1281.91 411.679 1282.01 411.391C1281.68 411.819 1281.68 412.154 1281.86 412.461Z" fill="#231916"/>
<path d="M1284.4 372.71C1284.4 372.71 1284.39 372.654 1284.37 372.617C1283.86 371.956 1284.07 372.366 1284.4 372.71Z" fill="#231916"/>
<path d="M1281.42 402.885L1281.46 402.773L1281.13 402.522L1281.42 402.885Z" fill="#231916"/>
<path d="M1281.4 416.145C1281.37 415.987 1281.33 415.838 1281.18 415.717C1281.15 415.848 1281.1 416.006 1281.04 416.201C1281.19 416.155 1281.3 416.145 1281.39 416.145L1281.4 416.145Z" fill="#231916"/>
<path d="M1282.57 385.504C1283.01 385.745 1283.31 385.838 1283.54 385.847C1283.54 385.569 1283.33 385.383 1282.57 385.504Z" fill="#231916"/>
<path d="M1169.94 433.32C1170.05 433.259 1170.15 433.184 1170.21 433.075C1169.98 433.171 1169.92 433.252 1169.94 433.32Z" fill="#231916"/>
<path d="M1059.15 431.758L1060.44 431.642C1059.59 431.656 1059.27 431.703 1059.15 431.758Z" fill="#231916"/>
<path d="M1236.31 433.98C1236.31 433.98 1236.22 434.013 1236.16 434.033C1237.18 434.046 1238.58 434.053 1240.83 434.073L1236.31 433.973L1236.31 433.98Z" fill="#231916"/>
<path d="M822.84 429.999L824.316 429.999C823.654 429.985 823.219 429.964 822.84 429.999Z" fill="#231916"/>
<path d="M962.873 431.174C962.438 431.276 961.7 431.31 961 431.344C961.889 431.364 962.627 431.344 962.873 431.174Z" fill="#231916"/>
<path d="M1271.38 439.227L1269.49 438.874C1269.53 439.023 1270.19 439.186 1271.38 439.227Z" fill="#231916"/>
<path d="M608.869 429.789L609.288 429.646C608.888 429.694 608.812 429.741 608.869 429.789Z" fill="#231916"/>
<path d="M1235.73 440.171C1233.78 440.517 1229.79 440.103 1229.83 440.435C1231.89 440.381 1234.8 440.645 1235.73 440.171Z" fill="#231916"/>
<path d="M563.646 442.88L562.356 442.901C562.963 442.901 563.361 442.901 563.646 442.88Z" fill="#231916"/>
<path d="M386.063 429.639L386.139 429.639C386.291 429.619 386.425 429.599 386.577 429.579L386.063 429.639Z" fill="#231916"/>
<path d="M374.26 429.076C375.093 429.035 375.887 429.001 376.776 428.96C375.433 428.926 374.752 428.981 374.26 429.076Z" fill="#231916"/>
<path d="M246.865 429.585C247.263 429.572 247.661 429.559 248.04 429.546C247.528 429.546 247.149 429.559 246.865 429.585Z" fill="#231916"/>
<path d="M971.857 431.379C972.141 431.412 972.558 431.426 972.881 431.452C972.994 431.372 972.937 431.319 971.857 431.379Z" fill="#231916"/>
<path d="M883.844 440.605L883.805 440.605L883.805 440.612C883.805 440.612 883.844 440.612 883.844 440.605Z" fill="#231916"/>
<path d="M888.534 440.171C887.059 440.09 884.978 440.341 883.843 440.599C885.319 440.599 886.719 440.524 888.534 440.171Z" fill="#231916"/>
<path d="M873.743 440.43C873.932 440.443 874.083 440.457 874.292 440.47C874.083 440.443 873.932 440.43 873.743 440.43Z" fill="#231916"/>
<path d="M968.321 441.115C968.321 441.115 968.321 441.087 968.321 441.08C968.301 441.094 968.282 441.101 968.263 441.115L968.321 441.115Z" fill="#231916"/>
<path d="M949.597 441.176C949.256 441.108 948.801 441.053 948.308 441.019C948.63 441.087 949.047 441.142 949.597 441.176Z" fill="#231916"/>
<path d="M827.113 441.407L827.131 441.393C827.077 441.393 827.077 441.393 827.041 441.393L827.113 441.407Z" fill="#231916"/>
<path d="M4.19652e-06 422.175C1.09623 424.192 1.68214 426.283 1.68214 428.384C1.68214 429.889 1.41754 431.342 0.926124 432.743L5.34883 432.701C6.29385 432.921 2.68387 433.182 4.2337 433.109C6.12375 433.537 7.35228 432.722 8.3729 432.733C9.24232 433.161 15.9142 432.712 15.6307 433.757C22.4726 434.457 18.5224 432.44 24.8919 433.036C25.7235 433.663 19.8266 433.182 22.6616 433.841L29.2768 433.611C28.672 433.914 27.9916 434.635 25.5156 434.499C43.3954 435.335 53.0535 438.659 69.4213 437.813C71.7272 438.565 67.7581 438.314 66.1327 438.816C77.9832 437.813 82.8029 440.468 92.8957 440.374L93.0847 439.757C107.147 441.68 124.081 440.53 139.977 441.335L138.087 440.896C140.279 440.301 143.795 440.238 146.422 439.956C146.819 440.269 144.532 441.283 149.143 441.022C148.198 440.802 146.252 440.572 146.819 440.269C160.465 441.879 189.288 441.482 211.723 442.266C242.058 441.795 274.964 443.008 304.77 442.621C300.234 442.673 302.161 441.137 305.582 441.492C314.938 444.085 321.818 441.053 331.381 442.83C348.732 441.994 364.23 444.252 380.39 442.266L380.712 442.997C383.112 443.332 383.774 442.82 386.306 442.747L386.249 442.956C392.241 443.227 399.48 442.485 402.901 442.841L403.128 442.015C406.681 441.952 404.98 442.652 408.609 442.182L408.495 442.6L412.748 441.816C412.332 443.259 422.784 441.931 425.619 442.59C430.231 442.328 438.944 441.712 445.918 441.994C447.222 442.736 455.765 442.726 461.228 443.102C471.85 442.914 487.027 442.673 500.54 442.945L500.295 442.004L503.829 441.942C503.772 442.151 504.245 442.255 503.716 442.36C506.456 443.426 511.862 442.036 514.697 442.694C512.92 441.848 512.221 442.558 510.217 442.538C507.326 442.088 510.085 441.189 513.998 441.649L513.922 441.858L516.587 441.367C516.889 442.098 519.309 442.443 519.611 443.165C531.235 442.987 539.135 441.733 551.118 442.078C549.89 442.893 559.737 441.869 557.317 443.29C564.518 442.757 556.127 442.14 559.415 441.147C561.438 441.168 563.536 440.781 563.895 441.304C562.95 441.649 565.52 442.172 563.895 442.297L568.695 442.182C569.149 442.297 568.091 442.485 567.561 442.579C577.352 441.754 584.931 443.51 593.72 442.684C594.381 442.172 590.223 442.538 590.866 442.025C599.711 440.99 598.69 442.945 606.931 442.213L605.23 442.924C607.895 442.443 609.048 441.827 613.433 442.402C614.208 443.238 609.709 443.081 607.593 443.478C610.598 443.51 618.215 443.29 615.89 442.538C619.5 442.266 620.804 443.008 622.751 443.238C622.807 443.029 619.386 442.684 621.503 442.297C626.417 442.767 633.996 442.747 639.988 442.82C639.931 443.029 640.347 443.342 639.837 443.436C644.656 442.349 644.146 444.21 650.761 443.98C668.471 443.666 691.397 442.579 708.956 442.893C712.774 441.795 718.349 441.754 723.944 441.503L724.53 442.966L729.198 442.496C731.088 442.935 725.607 442.767 728.971 443.322L730.729 442.412C731.107 442.935 742.712 442.757 734.887 443.802L753.013 443.802C757.019 443.855 755.356 442.59 759.798 442.956C760.686 443.384 758.21 443.248 758.569 443.771C771.875 444.858 773.935 440.938 786.353 441.607L785.295 441.806C787.411 441.419 791.418 441.471 791.475 441.262C789.887 439.788 789.245 442.057 785.465 441.189C785.805 439.945 790.19 440.52 789.944 439.579C792.855 440.029 794.556 439.318 797.088 439.255C801.398 440.029 807.597 439.475 810.848 440.447C812.965 440.06 815.327 438.837 819.863 438.785C823.114 439.757 819.089 439.715 823.53 440.071L824.248 439.349C827.877 439.464 827.31 439.663 827.178 439.997C831.071 440.029 830.41 439.004 835.286 439.475L832.565 440.175C836.175 439.903 837.649 440.029 842.657 440.081C842.544 440.499 840.541 440.468 839.066 440.353C841.788 441.419 843.735 439.893 845.209 440.008C844.793 439.694 841.315 439.558 843.017 438.848C845.511 438.984 848.328 437.875 850.104 438.722L847.383 439.412C852.58 438.858 850.161 438.513 856.133 438.795C855.812 438.848 855.963 439.025 855.831 439.182C859.611 438.262 864.544 439.098 870.12 439.161L869.061 439.349C871.31 439.109 872.558 438.461 873.768 438.513C870.592 438.095 871.462 437.886 871.159 437.196C875.355 438.388 877.585 435.827 884.446 436.527C884.333 436.935 882.67 437.436 880.78 436.997C878.436 438.21 878.152 439.245 873.957 439.82C876.546 439.538 879.608 439.37 878.965 439.882L879.778 438.754C881.347 438.722 882.594 438.795 883.785 438.795C884.465 438.085 880.591 437.625 884.257 437.154C888.378 436.788 886.431 438.315 887.092 437.813C892.762 437.363 889.436 436.59 894.898 436.966C894.35 437.06 893.292 437.259 892.819 437.154C896.732 437.614 902.421 436.945 903.574 438.315C902.988 438.618 902.874 439.025 901.4 438.91L901.476 438.701C897.506 439.611 903.933 438.618 903.857 439.433C904.745 438.973 909.225 439.119 911.398 439.234L910.604 438.398C918.864 435.9 910.17 440.05 918.316 439.736C923.495 439.172 916.369 439.506 919.544 438.91C923.041 439.057 924.345 439.799 929.467 439.443C930.885 439.778 933.795 440.217 934.041 441.158C937.141 440.781 943.491 441.576 945.249 440.666C939.938 439.882 939.957 441.649 933.739 440.426L935.477 439.517C939.787 439.569 945.287 439.109 948.254 439.433C947.649 439.255 947.385 439.015 947.763 438.827C953.887 438.482 955.663 437.572 961.617 437.855C962.411 438.691 958.914 438.544 956.381 438.618C960.218 439.287 960.388 438.67 966.361 438.942C966.682 439.673 962.354 438.9 961.655 439.611L968.27 439.381C968.27 439.381 968.27 439.475 968.27 439.527C969.215 438.304 973.297 439.632 977.342 439.266C986.906 439.276 988.38 437.635 993.672 436.652C995.089 436.987 995.524 437.29 994.919 437.604C992.576 437.06 992.992 437.489 992.16 437.802C995.392 437.677 999.229 439.004 997.433 439.496C1002.57 439.14 995.581 438.858 998.718 438.471L1005.75 438.555C1004.92 437.928 1002.44 437.792 1006.09 437.311C1009.15 437.144 1010.63 437.259 1014.65 437.311C1014.08 437.614 1015.92 438.262 1012.91 438.22C1014.84 438.45 1017.88 438.482 1019.04 437.876C1014.65 437.311 1026.24 437.342 1022.97 436.37L1027.35 436.935C1026.35 436.924 1026.24 437.332 1024.76 437.217C1026.01 438.168 1028.35 436.945 1029.89 436.862C1031.43 437.05 1035.44 437.133 1035.78 437.499C1037.16 437.238 1040.56 437.447 1041.19 437.928C1043.25 437.74 1041.36 437.311 1041.96 436.997L1048.97 437.081C1049.35 437.604 1049.94 439.067 1048.88 439.255C1051.55 438.774 1049.83 437.708 1053.83 437.761C1051.53 438.774 1059.12 438.545 1055.8 439.757C1058.1 440.51 1064.64 440.478 1068.25 440.207C1070.5 439.402 1064.34 439.747 1064.59 438.921C1074.74 438.628 1075.36 436.349 1082.79 436.747L1080.86 436.517C1085.51 436.057 1084.98 436.151 1087.7 435.45C1086.42 436.475 1092.97 438.21 1100.61 437.99C1101.25 437.478 1096.34 437.008 1097.59 436.193L1102.65 436.046C1103.03 436.13 1102.46 436.297 1101.8 436.433C1106.34 436.078 1110.25 437.771 1111.57 436.569L1116.18 438.074L1114.37 437.436C1114.99 436.935 1120.1 436.778 1121.16 436.579C1126.35 436.015 1128.24 436.454 1131.08 437.112C1130.17 436.694 1127.92 435.722 1132 435.576C1131.97 437.238 1140.59 436.193 1140.45 437.06C1142.12 437.039 1145.05 437.562 1145.23 436.872L1144.95 437.907C1145.35 436.464 1151.36 436.527 1155.97 436.276C1154.93 438.241 1161.04 436.13 1163.08 437.917C1163.95 436.579 1171.26 437.395 1172.07 436.255C1175.63 436.193 1175.27 437.436 1176.17 437.855L1177.84 437.353C1179.63 437.98 1186.29 438.074 1190.26 438.503L1193.94 437.332L1195.3 437.865C1195.89 437.562 1198.97 437.395 1197.06 436.956L1199.04 437.029C1199.21 435.743 1201.84 436.673 1205.85 436.13C1206.77 436.339 1206.53 436.642 1205.66 436.82C1207.64 436.83 1206.79 437.489 1207.87 437.917C1206.47 437.593 1215.03 435.618 1209.69 435.032C1209.31 434.51 1212.44 434.123 1214.39 434.353L1215.58 435.513L1217.93 434.301C1220.99 434.133 1222.31 434.865 1224.79 435.001C1222.25 435.074 1219.15 437.217 1225.69 437.186C1222.25 437.332 1220.55 437.98 1218.78 438.22C1220.14 438.262 1220.82 438.377 1218.7 438.869C1223.82 438.513 1220.42 438.158 1225.49 438.011C1225.2 439.046 1226.62 439.37 1231.04 439.736L1227.73 438.973C1227.89 438.848 1228.11 438.754 1228.38 438.691C1227.13 438.576 1226.77 438.419 1226.51 438.022C1227.51 438.032 1232.38 436.747 1233.22 437.374C1228.11 435.764 1242.12 436.13 1238.85 435.158C1239.43 434.855 1242.97 434.802 1243.35 435.315C1239.11 436.099 1246.54 436.496 1245.84 437.217C1247.41 436.924 1242.52 436.454 1244.65 436.057C1247.18 435.984 1249.04 436.621 1250.43 436.945L1249.38 437.144L1253.29 437.604C1253.93 437.092 1249.51 436.726 1253.1 436.454C1254.04 436.673 1257.64 436.402 1257.54 436.82C1255.84 437.531 1257.07 438.471 1254.01 438.649C1256.56 438.576 1264.63 438.461 1261.38 437.489L1264.42 437.52C1262.51 437.081 1257.2 436.297 1263.27 436.161L1263.21 436.37L1267.44 435.586L1269.28 436.119C1269.22 435.858 1269.9 435.618 1271.45 435.639C1271.87 435.952 1273.34 436.078 1273.23 436.485C1277.78 436.433 1277.41 435.91 1278.01 435.607C1280.54 435.534 1281.51 435.754 1280.32 436.36C1283.79 436.496 1289.88 436.36 1292.26 436.914C1296.93 436.454 1291.3 436.694 1294.02 435.994C1294.77 436.328 1295.78 436.569 1296.97 436.726C1299.33 436.684 1301.65 436.788 1303.94 436.997C1303.94 436.914 1303.94 436.841 1303.94 436.757C1303.94 435.126 1304.24 433.558 1304.83 432.053L1303.62 432.273C1304.26 431.761 1298.82 431.395 1302.96 431.018L1294.34 431.227L1293.62 430.182C1291.56 430.37 1291.51 430.569 1293.96 430.705C1291.01 430.464 1280.9 432.524 1282.45 430.475C1275.69 431.332 1273.25 430.987 1265.06 431.51C1271.38 430.548 1257.84 430.287 1264.52 429.848C1260.6 429.388 1259.79 430.517 1256.73 430.694C1253.84 430.245 1255.12 429.22 1258.24 428.844L1254.57 429.314L1254.63 429.105L1251.44 429.691C1248.05 429.137 1250.72 428.646 1247.24 428.499L1246.48 429.419L1244.12 428.875C1245.01 429.304 1242.95 429.482 1240.42 429.555L1240.47 429.346L1237.39 429.524C1240.44 428.959 1234.58 429.325 1235.98 428.656C1233.35 428.614 1233.29 428.625 1228.53 428.792L1229.36 429.419C1223.16 429.963 1229.1 428.478 1224.09 428.426L1224.41 429.147C1217.19 427.924 1212.14 429.837 1206.81 429.043C1209.87 428.875 1209.1 428.029 1209.04 428.238C1204.43 428.499 1196.95 428.301 1192.18 429.179C1190.44 428.123 1190.05 427.809 1185.13 427.339C1181.58 427.402 1181.05 427.496 1179.88 428.112C1176.44 427.705 1169.98 428.311 1169.81 427.548C1169.01 428.154 1166.71 427.422 1164.82 427.935L1164.42 427.621L1164.72 428.342C1158.62 426.712 1154.4 429.252 1148.24 427.841L1149.3 427.642L1146.69 427.924C1146.27 427.611 1147.33 427.412 1147.45 426.994L1135.39 426.858L1137.75 427.402C1135.22 427.475 1133.5 428.175 1130.61 427.736C1135.43 426.649 1126.6 427.694 1125.82 426.858L1128.41 426.576C1126.06 426.618 1124.97 426.882 1125.16 427.37C1120.59 427.621 1122.02 425.98 1117.79 426.764L1120.8 426.795C1121.68 427.224 1119.51 427.82 1117.51 427.799C1117.04 427.684 1115.6 427.36 1117.13 427.276C1113.52 427.548 1108.1 427.172 1106.51 427.464C1104.54 427.234 1105.18 426.722 1106.24 426.524C1098.53 427.161 1102.77 426.388 1095.02 427.015L1095.13 426.597L1092.48 427.088L1088.68 426.21L1090.05 426.743C1087.51 426.816 1085.93 427.109 1082.98 426.868L1084.17 426.262C1077 426.597 1075.89 425.238 1069.08 426.084C1068.63 425.97 1069.67 425.781 1070.22 425.677C1063.91 426.638 1065.46 424.579 1059.11 425.76C1059.5 425.551 1058.8 425.301 1059.05 425.123L1056.16 425.52L1056.38 424.694L1054.02 425.907L1052.24 425.05L1051.13 425.447C1048.05 423.858 1043.68 425.05 1039.47 423.868L1040.19 424.914C1029.53 427.067 1015.84 423.701 1002.99 424.694L1003.22 423.868L997.906 424.841C995.071 424.192 999.626 424.14 998.737 423.712C993.067 424.161 996.375 424.924 989.778 425.165C986.395 424.611 990.95 424.558 992.538 424.266C986.358 424.673 977.229 425.123 972.844 424.663C972.749 424.778 972.466 424.924 972.711 424.966C968.572 425.342 963.148 424.966 958.593 425.018C958.706 424.642 959.821 424.579 960.974 424.496C959.33 424.443 957.1 424.182 955.701 424.569L957.421 423.858C953.924 423.712 947.215 424.36 946.44 423.523C946.856 423.837 946.685 424.464 943.661 424.422C941.998 423.158 935.459 424.956 930.62 424.276C931.187 423.973 934.74 423.91 933.739 423.9C931.301 423.565 929.127 424.161 927.01 424.548L927.672 424.036L916.407 424.736C914.744 423.471 905.766 424.924 906.541 423.994C902.515 423.952 909.924 424.548 904.821 424.694C903.46 424.161 900.228 424.956 900.436 424.13L900.984 424.036L897.431 424.098L899.661 423.294C896.599 423.471 894.35 424.276 894.199 424.893C891.307 424.443 887.187 424.809 885.864 424.067L886.941 423.868C878.795 424.182 873.446 421.631 867.039 423.011C866.566 422.896 866.623 422.698 867.625 422.708L862.597 422.656L863.788 422.05L855.472 422.99L855.585 422.572C850.085 422.405 841.486 422.614 834.398 422.739L835.456 422.541C827.726 423.179 828.01 422.144 822.339 422.604C822.528 422.499 822.736 422.447 822.925 422.426L817.841 422.447L818.956 422.05C815.195 422.938 808.183 420.889 810.508 421.642C808.372 422.029 804.705 422.51 804.082 423.011C798.525 423.053 802.721 422.478 799.281 422.133C795.274 422.091 794.556 422.802 789.131 422.426L789.245 422.008C786.712 422.081 785.124 422.374 781.59 422.436L782.649 422.238C776.865 423.105 775.447 421.015 770.911 422.823C768.492 422.489 763.88 422.75 764.107 421.914C756.906 422.457 751.312 422.698 744.167 423.032C743.014 421.673 742.636 423.116 738.308 422.342L738.629 423.064C728.537 423.158 716.932 421.36 705.78 421.652L705.459 420.921L703.229 421.726C691.227 421.381 675.71 421.098 666.146 421.088C663.009 421.464 658.265 422.342 653.275 422.081L653.804 421.976C645.148 422.395 635.981 422.698 626.531 422.28C627.022 422.018 626.436 421.82 626.89 421.652C624.66 422.28 621.598 421.6 619.67 421.579L622.051 422.123C619.368 422.813 615.512 422.144 614.132 421.611L609.88 422.395C609.596 422.321 609.161 422.206 609.105 422.091L608.349 422.478L606.099 421.516C605.041 421.715 599.428 421.955 597.67 422.875C597.254 422.562 593.304 422.3 596.366 422.133L580.848 421.851L583.268 422.196C583.57 422.917 578.902 423.388 576.501 423.053C579.658 422.468 576.766 422.018 575.405 421.485C573.307 421.872 577.238 422.123 576.123 422.53C573.477 423.011 567.864 423.273 566.446 422.938L568.034 422.645C564.443 422.917 562.761 421.652 559.226 421.705C556.032 422.29 553.689 421.746 554.35 423.001C549.738 423.262 552.573 422.154 551.08 422.029C548.907 422.624 542.481 422.238 541.649 421.6C539.116 423.44 529.231 420.942 528.305 422.478L524.525 421.611C524.412 422.029 523.656 422.949 520.575 423.116C517.683 422.666 518.382 421.945 517.494 421.527L515.547 423.064C498.896 421.412 476.934 422.509 458.676 421.151C450.53 421.475 440.267 422.185 430.76 421.966L431.818 421.767L422.368 421.349L429.229 422.05C427.169 422.227 425.562 422.52 423.559 422.499C413.183 421.861 399.347 421.077 386.571 421.861C378.292 423.628 381.071 420.293 373.151 421.579C373.832 421.412 374.078 421.171 374.682 420.994C366.139 421.579 361.509 421.882 352.966 422.917C353.949 421.171 347.409 422.959 348.165 422.039L347.447 422.75C345.557 422.311 341.077 422.154 341.72 421.652L337.959 422.541L337.638 421.809C332.648 421.757 321.912 422.353 319.285 420.868C306.905 421.966 287.362 421.642 271.826 421.36C269.653 421.955 265.098 422.008 261.563 422.07L257.783 421.203C254.192 421.475 250.355 422.562 246.991 422.008C247.01 421.903 247.142 421.83 247.388 421.788C243.721 421.966 240.244 421.506 236.823 422.311C233.288 422.269 229.829 421.903 229.924 421.266C228.582 422.196 221.646 420.785 221.646 420.785C221.646 420.785 76.4145 418.307 0.0567055 422.154L4.19652e-06 422.175Z" fill="#231916"/>
<path d="M970.741 441.196L968.32 441.114C968.32 441.237 968.206 441.372 967.09 441.501L970.741 441.196Z" fill="#231916"/>
<path d="M855.813 440.857C855.509 440.898 855.206 440.939 854.94 441C855.528 440.979 855.718 440.918 855.813 440.857Z" fill="#231916"/>
<path d="M827.873 441.807C829.859 441.691 828.1 441.549 827.117 441.406C827.079 441.515 827.117 441.644 827.873 441.807Z" fill="#231916"/>
<path d="M1035.85 439.77C1035.43 439.825 1035.17 439.892 1035.24 440.008C1035.81 439.913 1035.93 439.838 1035.85 439.77Z" fill="#231916"/>
<path d="M1215.81 440.164C1215.58 440.138 1215.38 440.117 1215.09 440.084C1215.22 440.124 1215.47 440.151 1215.81 440.164Z" fill="#231916"/>
<path d="M1205.84 439.317C1205.35 439.317 1204.71 439.33 1203.82 439.39C1204.71 439.417 1205.33 439.377 1205.84 439.317Z" fill="#231916"/>
<path d="M992.229 439.968C991.567 439.988 990.905 440.029 990.338 440.137C991.378 440.123 991.87 440.049 992.229 439.968Z" fill="#231916"/>
<path d="M1201.74 439.512L1199.22 439.451C1199.22 439.485 1199.18 439.512 1199.18 439.56L1201.74 439.512Z" fill="#231916"/>
<path d="M1218.97 440.232C1217.99 440.212 1216.66 440.212 1215.81 440.164C1217.06 440.314 1218.04 440.314 1218.97 440.232Z" fill="#231916"/>
<path d="M1101.9 439.078C1101.9 439.078 1101.73 439.084 1101.64 439.091C1099.69 439.323 1100.9 439.228 1101.9 439.078Z" fill="#231916"/>
<path d="M1190.77 440.436C1190.67 440.429 1190.54 440.422 1190.43 440.415L1189.69 440.565L1190.77 440.436Z" fill="#231916"/>
<path d="M1229.83 440.443C1229.35 440.457 1228.92 440.477 1228.58 440.538C1228.98 440.558 1229.43 440.579 1230 440.599C1229.86 440.531 1229.83 440.484 1229.83 440.436L1229.83 440.443Z" fill="#231916"/>
<path d="M1139.58 439.912C1140.28 439.716 1140.57 439.573 1140.59 439.471C1139.75 439.471 1139.22 439.566 1139.58 439.912Z" fill="#231916"/>
<path d="M143.868 9.58909C143.754 9.64403 143.659 9.71117 143.602 9.80884C143.83 9.72338 143.887 9.65014 143.868 9.58909Z" fill="#231916"/>
<path d="M254.639 10.9935L253.349 11.0974C254.203 11.0852 254.525 11.0424 254.639 10.9935Z" fill="#231916"/>
<path d="M77.4911 8.99688C77.4911 8.99688 77.5857 8.96658 77.6425 8.94841C76.621 8.93629 75.2213 8.92418 72.9703 8.91206L77.4911 9.00293L77.4911 8.99688Z" fill="#231916"/>
<path d="M490.967 12.5804L489.491 12.5804C490.153 12.5927 490.588 12.611 490.967 12.5804Z" fill="#231916"/>
<path d="M350.916 11.5247C351.351 11.4333 352.088 11.4028 352.788 11.3724C351.88 11.3541 351.161 11.3724 350.916 11.5247Z" fill="#231916"/>
<path d="M42.422 4.27874L44.3135 4.59619C44.2757 4.46189 43.6137 4.31537 42.422 4.27874Z" fill="#231916"/>
<path d="M704.922 12.7636L704.503 12.8923C704.903 12.8494 704.979 12.8065 704.922 12.7636Z" fill="#231916"/>
<path d="M78.0786 3.43018C80.0269 3.11886 84.0181 3.4912 83.9802 3.18599C81.9185 3.23483 79.0055 3.00288 78.0786 3.43018Z" fill="#231916"/>
<path d="M750.146 0.994385L751.436 0.97602C750.829 0.97602 750.431 0.97602 750.146 0.994385Z" fill="#231916"/>
<path d="M927.727 12.8989L927.651 12.8989C927.499 12.9169 927.366 12.9349 927.194 12.9529L927.727 12.8989Z" fill="#231916"/>
<path d="M939.546 13.4049C938.714 13.4355 937.919 13.4722 937.03 13.5028C938.373 13.5333 939.054 13.4844 939.546 13.4049Z" fill="#231916"/>
<path d="M1066.95 12.9475C1066.55 12.9594 1066.15 12.9713 1065.77 12.9832C1066.28 12.9832 1066.66 12.9713 1066.95 12.9475Z" fill="#231916"/>
<path d="M341.933 11.3418C341.649 11.3116 341.232 11.2994 340.909 11.2752C340.795 11.3479 340.871 11.3964 341.933 11.3418Z" fill="#231916"/>
<path d="M429.964 3.03882L430.003 3.03882L430.003 3.03275C430.003 3.03275 429.964 3.03275 429.964 3.03882Z" fill="#231916"/>
<path d="M425.273 3.42956C426.748 3.50281 428.848 3.27694 429.964 3.04496C428.488 3.04496 427.089 3.11212 425.273 3.42956Z" fill="#231916"/>
<path d="M440.046 3.20459C439.856 3.19241 439.705 3.18023 439.497 3.16805C439.686 3.19241 439.856 3.20459 440.046 3.20459Z" fill="#231916"/>
<path d="M345.488 2.58023C345.488 2.58023 345.488 2.60531 345.488 2.61157C345.507 2.59904 345.526 2.59276 345.545 2.58023L345.488 2.58023Z" fill="#231916"/>
<path d="M364.213 2.52589C364.554 2.58702 365.009 2.63594 365.502 2.6665C365.18 2.60537 364.763 2.55646 364.213 2.52589Z" fill="#231916"/>
<path d="M486.671 2.31947L486.653 2.33081C486.689 2.33081 486.707 2.33081 486.744 2.33081L486.671 2.31947Z" fill="#231916"/>
<path d="M1302.33 6.84857C1299.28 6.78752 1296.33 6.60439 1293.49 6.30527C1292.89 6.43957 1291.96 6.52503 1289.56 6.39683C1289.05 6.17096 1291.05 6.18928 1292.04 6.14654C1291.52 6.0855 1291.03 6.01834 1290.52 5.95119L1285.17 6.06109C1285.66 5.91458 1286.25 5.60325 1287.84 5.54831C1287.74 5.52999 1287.65 5.51777 1287.55 5.49946C1270.53 4.95615 1260.94 3.13088 1244.99 3.61314C1242.68 3.17361 1246.66 3.32013 1248.28 3.02711C1236.42 3.61315 1231.6 2.06257 1221.5 2.11751L1221.31 2.4777C1207.24 1.35445 1190.29 2.02595 1174.38 1.5559L1176.27 1.81228C1174.08 2.16024 1170.56 2.19688 1167.95 2.3617C1167.55 2.17857 1169.84 1.58641 1165.23 1.73903C1166.17 1.86722 1168.14 2.00152 1167.55 2.17856C1153.9 1.23845 1125.05 1.47042 1102.6 1.01257C1072.24 1.28728 1039.31 0.579143 1009.48 0.805009C1014.02 0.774487 1012.09 1.67187 1008.66 1.46431C999.299 -0.0496222 992.414 1.72071 982.843 0.682926C965.459 1.17129 949.968 -0.147313 933.795 1.01255L933.492 0.585245C931.071 0.389899 930.428 0.689011 927.893 0.725638L927.95 0.603558C921.954 0.444838 914.709 0.878253 911.285 0.670697L911.058 1.15296C907.502 1.18959 909.224 0.780582 905.573 1.05529L905.687 0.811109L901.431 1.26895C901.847 0.42652 891.386 1.20181 888.549 0.817217C883.934 0.969831 875.214 1.32999 868.234 1.16516C866.929 0.731737 858.379 0.731737 852.912 0.518077C842.282 0.627958 827.093 0.768364 813.568 0.615748L813.814 1.16516L810.277 1.20178C810.334 1.07969 809.861 1.01865 810.371 0.957602C807.629 0.334935 802.238 1.14684 799.381 0.76225C801.16 1.25672 801.841 0.841625 803.864 0.853834C806.759 1.11633 803.997 1.64131 800.081 1.37271L800.157 1.25063L797.49 1.53754C797.187 1.11022 794.766 0.908771 794.463 0.487555C782.83 0.591332 774.924 1.32389 762.912 1.12243C764.142 0.646276 754.287 1.24452 756.708 0.414299C749.501 0.725632 757.9 1.0858 754.609 1.66573C752.603 1.65352 750.485 1.87939 750.107 1.57416C751.052 1.37271 748.48 1.06748 750.107 0.994222L745.302 1.06138C744.848 0.994231 745.888 0.884346 746.437 0.829405C736.639 1.31167 729.054 0.286092 720.258 0.768352C719.596 1.06748 723.757 0.85382 723.114 1.15294C714.262 1.7573 715.283 0.615745 707.036 1.04306L708.738 0.627958C706.071 0.908768 704.899 1.26894 700.529 0.933186C699.754 0.44482 704.256 0.536371 706.374 0.304397C703.348 0.286083 695.744 0.414293 698.07 0.853823C694.457 1.01254 693.152 0.579108 691.204 0.444808C691.147 0.566899 694.571 0.768347 692.452 0.994216C687.534 0.719509 679.949 0.731718 673.953 0.688985C674.01 0.566893 673.594 0.383758 674.104 0.328817C669.281 0.963693 669.792 -0.122915 663.171 0.0113848C645.447 0.19452 622.503 0.829399 604.93 0.64626C601.109 1.28724 595.529 1.31165 589.93 1.45816L589.344 0.603522L584.672 0.878216C582.78 0.621823 588.266 0.719511 584.899 0.395968L583.14 0.927063C582.761 0.621834 571.147 0.7256 578.978 0.115143L560.838 0.115141C556.828 0.084618 558.493 0.82327 554.048 0.60961C553.14 0.359322 555.637 0.438683 555.277 0.133454C541.961 -0.501424 539.899 1.7878 527.471 1.3971L528.531 1.28111C526.412 1.50698 522.402 1.47647 522.345 1.59856C523.934 2.45931 524.577 1.1346 528.36 1.64128C528.02 2.36773 523.632 2.03198 523.877 2.58139C520.964 2.31889 519.262 2.734 516.727 2.77063C512.415 2.31889 506.21 2.64244 502.957 2.07472C500.838 2.30059 498.474 3.01482 493.934 3.04534C490.681 2.47762 494.71 2.50203 490.265 2.29447L489.546 2.71569C485.914 2.64854 486.482 2.53255 486.614 2.33721C482.717 2.31889 483.379 2.91714 478.499 2.64244L481.223 2.23342C477.61 2.39214 476.135 2.31888 471.122 2.28836C471.236 2.04418 473.241 2.0625 474.716 2.12965C471.992 1.50699 470.044 2.39825 468.569 2.3311C468.985 2.51423 472.465 2.59971 470.763 3.00871C468.266 2.93546 465.448 3.57644 463.669 3.08196L466.393 2.67906C461.192 3.0026 463.613 3.20405 457.635 3.03923C457.957 3.0087 457.806 2.90493 457.938 2.81336C454.155 3.35056 449.218 2.86219 443.638 2.82556L444.697 2.71568C442.446 2.85609 441.198 3.23457 439.987 3.20404C443.165 3.44823 442.295 3.57032 442.598 3.97323C438.398 3.2773 436.166 4.77293 429.3 4.36393C429.414 4.12585 431.059 3.83282 432.951 4.08921C435.296 3.37498 435.599 2.77672 439.779 2.44097C437.188 2.60579 434.123 2.70347 434.767 2.40434L433.953 3.06976C432.383 3.08807 431.135 3.04534 429.943 3.04534C429.262 3.46045 433.14 3.72905 429.47 4.00376C425.347 4.21742 427.276 3.32613 426.633 3.62526C420.958 3.88775 424.287 4.33949 418.821 4.11973C419.369 4.06479 420.429 3.9488 420.902 4.00985C416.986 3.74125 411.292 4.13195 410.139 3.33225C410.725 3.15522 410.838 2.91713 412.314 2.98428L412.257 3.10638C416.229 2.57529 409.798 3.15521 409.874 2.67905C408.985 2.94766 404.502 2.86219 402.345 2.79504L403.14 3.2834C394.893 4.74239 403.594 2.31888 395.422 2.50202C390.24 2.83166 397.371 2.63632 394.193 2.98428C390.694 2.89882 389.388 2.46539 384.262 2.67294C382.844 2.47759 379.931 2.22121 379.685 1.6718C376.583 1.89156 370.227 1.42762 368.468 1.95871C373.783 2.41656 373.764 1.39098 379.987 2.09911L378.247 2.63022C373.934 2.5997 368.43 2.86829 365.46 2.67905C366.066 2.78283 366.33 2.92323 365.952 3.03311C359.823 3.23456 358.045 3.76566 352.087 3.60694C351.293 3.11857 354.792 3.20405 357.346 3.16132C353.506 2.77062 353.317 3.13079 347.358 2.97207C347.037 2.54475 351.368 2.99648 352.068 2.58137L345.448 2.71567C345.448 2.71567 345.448 2.66074 345.448 2.63022C344.502 3.34445 340.416 2.56917 336.368 2.78283C326.797 2.77673 325.322 3.73515 320.025 4.30898C318.607 4.11363 318.172 3.93659 318.777 3.75346C321.122 4.07089 320.706 3.82061 321.539 3.63747C318.304 3.71072 314.464 2.93544 316.28 2.64853C311.135 2.85608 318.134 3.0209 314.994 3.24677L307.957 3.19794C308.789 3.56421 311.267 3.64357 307.617 3.92438C304.552 4.02206 303.077 3.95491 299.048 3.92438C299.615 3.74735 297.781 3.36887 300.788 3.39329C298.859 3.25288 295.813 3.24066 294.66 3.59473C299.048 3.92438 287.453 3.90606 290.725 4.47379L286.337 4.14414C287.339 4.15024 287.453 3.91217 288.928 3.97932C287.68 3.4238 285.334 4.13804 283.802 4.18687C282.251 4.07699 278.241 4.02814 277.919 3.81448C276.539 3.9671 273.134 3.84502 272.51 3.56421C270.448 3.67409 272.339 3.92437 271.734 4.10751L264.716 4.05868C264.338 3.75345 263.752 2.8988 264.811 2.78892C262.144 3.06973 263.865 3.69239 259.836 3.66187C262.144 3.06972 254.54 3.20404 257.869 2.49591C255.58 2.05638 249.017 2.07468 245.404 2.2334C243.153 2.70345 249.3 2.502 249.073 2.98427C238.935 3.15519 238.291 4.48598 230.858 4.25401L232.787 4.38831C228.134 4.65691 228.663 4.60198 225.959 5.00488C227.245 4.40663 220.681 3.39327 213.039 3.52147C212.396 3.82059 217.314 4.0953 216.066 4.57146L210.996 4.65691C210.637 4.60807 211.186 4.5104 211.848 4.43104C207.308 4.6386 203.392 3.64965 202.068 4.35168L197.453 3.47262L199.269 3.84501C198.645 4.13803 193.537 4.2296 192.497 4.34559C187.295 4.67523 185.404 4.41884 182.566 4.03425C183.474 4.27843 185.725 4.84616 181.64 4.93162C181.677 3.96099 173.052 4.57144 173.184 4.06476C171.52 4.07697 168.588 3.77786 168.399 4.17466L168.682 3.57029C168.285 4.41272 162.27 4.37609 157.655 4.5226C158.695 3.37494 152.585 4.60808 150.543 3.5642C149.672 4.34558 142.352 3.86942 141.539 4.53482C137.983 4.57145 138.342 3.84501 137.434 3.60082L135.77 3.89383C133.973 3.52756 127.314 3.47263 123.342 3.22234L119.654 3.90605L118.292 3.59471C117.705 3.77174 114.641 3.86941 116.532 4.12581L114.546 4.08307C114.376 4.83393 111.747 4.29063 107.737 4.60807C106.81 4.48598 107.056 4.30894 107.926 4.20517C105.94 4.19906 106.791 3.81448 105.694 3.56419C107.113 3.75344 98.5249 4.90719 103.897 5.24904C104.275 5.55427 101.135 5.78014 99.1681 5.64584L97.9764 4.96824L95.6309 5.67637C92.5665 5.77404 91.2425 5.34671 88.7834 5.26736C91.3181 5.22462 94.4203 3.97319 87.8755 3.9915C91.3181 3.90604 93.0205 3.52756 94.7986 3.38715C93.4367 3.36274 92.7557 3.29559 94.8742 3.00867C89.7481 3.21623 93.1529 3.42377 88.1025 3.50923C88.3862 2.90488 86.9676 2.71564 82.5413 2.50198L85.8515 2.94762C85.7002 3.02088 85.4732 3.07581 85.2084 3.11244C86.4758 3.17959 86.8162 3.27117 87.0811 3.50314C86.0785 3.49704 81.1983 4.2479 80.3471 3.88162C85.4543 4.82173 71.4379 4.60806 74.7103 5.17579C74.1239 5.35282 70.5867 5.38335 70.2084 5.08422C74.4455 4.62638 67.0117 4.3944 67.6927 3.97319C66.1227 4.14411 71.0218 4.41882 68.9033 4.64469C66.3686 4.68742 64.5149 4.31504 63.1151 4.1258L64.1744 4.00981L60.2589 3.74121C59.6158 4.04033 64.042 4.25399 60.4481 4.4066C59.5023 4.27841 55.9083 4.43714 56.0029 4.19296C57.7242 3.77785 56.4758 3.22844 59.5401 3.12466C56.9865 3.16739 48.8907 3.23453 52.1631 3.80226L49.1177 3.78394C51.0281 4.04034 56.3623 4.49817 50.2715 4.57753L50.3283 4.45545L46.0912 4.91329L44.2564 4.60195C44.3131 4.75457 43.6322 4.89497 42.0811 4.88276C41.665 4.69962 40.1896 4.62637 40.322 4.38829C35.7633 4.41881 36.1417 4.72406 35.5364 4.90109C33.0017 4.94382 32.037 4.81562 33.2287 4.46156C29.7482 4.3822 23.6574 4.46156 21.2741 4.13802C16.602 4.40662 22.2388 4.2662 19.496 4.6752C18.8718 4.51038 18.0585 4.3944 17.1316 4.30283C17.6801 5.14526 17.9639 5.99991 17.9639 6.86065C17.9639 7.06821 17.945 7.26965 17.9071 7.4772L19.1745 7.45889L19.8933 8.06935C21.955 7.95946 22.0118 7.84348 19.5528 7.76412C22.5036 7.90452 32.6234 6.70192 31.0723 7.89842C37.844 7.39785 40.2841 7.5993 48.4746 7.29407C42.1757 7.8557 55.7003 8.00831 49.0231 8.2647C52.9386 8.5333 53.752 7.87401 56.8163 7.77023C59.7103 8.03273 58.4241 8.63097 55.303 8.85074L58.9726 8.57604L58.9159 8.69812L62.1126 8.35627C65.4796 8.68591 62.8314 8.96673 66.3119 9.0522L67.0685 8.51499L69.4329 8.83242C68.5439 8.58214 70.6057 8.47836 73.1403 8.43563L73.0836 8.55773L76.1668 8.45394C73.1214 8.78359 78.9852 8.56994 77.5855 8.96063C80.2147 8.98505 80.2715 8.97894 85.0193 8.88127L84.187 8.51499C90.3913 8.19756 84.4518 9.06441 89.4644 9.09494L89.1428 8.67372C96.3686 9.38796 101.419 8.27082 106.753 8.72866C103.689 8.82633 104.464 9.3208 104.521 9.19871C109.137 9.04609 116.627 9.16208 121.394 8.6493C123.134 9.26586 123.55 9.44901 128.449 9.72371C132.005 9.68708 132.535 9.62603 133.708 9.27196C137.15 9.51004 143.619 9.15598 143.79 9.60161C144.584 9.24755 146.892 9.67487 148.783 9.37575L149.181 9.55888L148.878 9.13157C154.988 10.0839 159.206 8.60046 165.372 9.42458L164.313 9.54057L166.923 9.37575C167.339 9.55889 166.28 9.67486 166.148 9.91905L178.216 9.99841L175.851 9.68098C178.386 9.63825 180.107 9.22924 183.001 9.48563C178.178 10.1205 187.012 9.51005 187.787 9.99841L185.196 10.1632C187.554 10.1388 188.638 9.98417 188.449 9.69929C193.046 9.55279 191.589 10.5112 195.826 10.0534L192.819 10.035C191.93 9.78475 194.105 9.4368 196.11 9.44901C196.583 9.51616 198.02 9.7054 196.469 9.75423C200.082 9.59552 205.511 9.81529 207.1 9.64436C209.067 9.77866 208.405 10.0778 207.365 10.1938C215.082 9.82139 210.845 10.2731 218.6 9.90685L218.468 10.151L221.116 9.86411L224.918 10.3769L223.556 10.0656C226.091 10.0228 227.68 9.85192 230.65 9.99233L229.458 10.3464C236.627 10.151 237.743 10.9446 244.552 10.4441C245.025 10.5112 243.966 10.6211 243.418 10.6821C249.735 10.1205 248.184 11.3231 254.54 10.6333C254.143 10.7554 254.843 10.9019 254.597 11.0057L257.491 10.7737L257.264 11.256L259.628 10.5478L261.406 11.0484L262.522 10.8164C265.605 11.7443 269.975 11.0484 274.193 11.7382L273.474 11.1278C284.143 9.87023 297.837 11.8359 310.7 11.256L310.473 11.7382L315.788 11.1705C318.626 11.549 314.067 11.5795 314.956 11.8298C320.631 11.5673 317.32 11.1217 323.922 10.9813C327.289 11.3109 322.749 11.3353 321.16 11.5063C327.346 11.2682 336.482 11.0057 340.87 11.2743C340.965 11.2071 341.23 11.1217 341.003 11.0973C345.145 10.8775 350.574 11.0973 355.132 11.0667C355.019 11.2865 353.903 11.3231 352.749 11.372C354.395 11.4025 356.627 11.5551 358.026 11.3292L356.305 11.7443C359.805 11.8298 366.52 11.4513 367.295 11.9397C366.879 11.7566 367.049 11.3903 370.076 11.4147C371.74 12.1534 378.285 11.1034 383.127 11.5002C382.56 11.6772 379.004 11.7138 380.006 11.7199C382.427 11.9153 384.622 11.5673 386.74 11.3414L386.078 11.6406L397.352 11.2316C399.016 11.9702 408.001 11.1217 407.226 11.665C411.255 11.6894 403.859 11.3414 408.947 11.256C410.309 11.5673 413.543 11.1034 413.335 11.5917L412.787 11.6467L416.343 11.6101L414.111 12.0801C417.175 11.9763 419.426 11.5063 419.577 11.1461C422.472 11.4086 426.595 11.1949 427.919 11.6223L426.841 11.7382C434.994 11.5551 440.347 13.0446 446.759 12.2388C447.232 12.306 447.175 12.422 446.173 12.4159L451.204 12.4464L450.012 12.8004L458.354 12.251L458.241 12.4952C463.745 12.5929 472.352 12.4708 479.445 12.3976L478.386 12.5135C486.103 12.1411 485.838 12.7455 491.494 12.4769C491.305 12.5379 491.097 12.5685 490.908 12.5807L495.996 12.5685L494.88 12.8004C498.644 12.2816 505.662 13.4781 503.335 13.0385C505.473 12.8127 509.142 12.5319 509.766 12.2388C515.328 12.2144 511.128 12.5502 514.571 12.7516C518.581 12.776 519.3 12.3609 524.729 12.5807L524.615 12.8188C527.15 12.776 528.739 12.6051 532.276 12.5685L531.217 12.6845C537.005 12.1778 538.423 13.3987 542.963 12.3426C545.384 12.538 550 12.3915 549.773 12.8737C556.98 12.5563 562.579 12.4159 569.729 12.2205C570.882 13.0141 571.261 12.1717 575.592 12.6234L575.271 12.2022C585.391 12.1473 596.986 13.1973 608.146 13.0263L608.467 13.4537L610.699 12.9836C622.711 13.1851 638.24 13.3499 647.812 13.356C650.952 13.1362 655.699 12.6234 660.693 12.7761L660.164 12.8371C668.827 12.5929 677.982 12.4159 687.44 12.6601C686.948 12.8127 687.534 12.9287 687.08 13.0263C689.312 12.6601 692.377 13.0569 694.306 13.0691L691.923 12.7516C694.609 12.3487 698.467 12.7394 699.848 13.0508L704.104 12.5929C704.388 12.6356 704.823 12.7028 704.88 12.77L705.636 12.5441L707.887 13.1057C708.947 12.9897 714.564 12.8493 716.324 12.3121C716.721 12.4952 720.693 12.6418 717.629 12.7455L733.158 12.9104L730.737 12.7089C730.435 12.2877 735.107 12.013 737.509 12.2083C734.35 12.5502 737.244 12.8127 738.606 13.124C740.706 12.8981 736.771 12.7516 737.887 12.5136C740.535 12.2327 746.153 12.0801 747.572 12.2755L745.983 12.4464C749.577 12.2877 751.261 13.0263 754.798 12.9958C757.994 12.654 760.34 12.9714 759.678 12.2389C764.293 12.0862 761.456 12.7333 762.95 12.8066C765.126 12.4586 771.557 12.6845 772.389 13.0569C774.924 11.9825 784.817 13.4415 785.743 12.5441L789.527 13.0508C789.64 12.8127 790.397 12.2694 793.48 12.1717C796.374 12.4342 795.674 12.8554 796.563 13.0996L798.511 12.2022C815.176 13.1668 837.156 12.5258 855.428 13.3194C863.581 13.1301 873.852 12.715 883.366 12.8432L882.307 12.9592L891.765 13.2034L884.898 12.7944C886.96 12.6906 888.568 12.5136 890.573 12.5319C900.958 12.9043 914.804 13.3621 927.591 12.9043C935.876 11.8726 933.095 13.82 941.021 13.0691C940.34 13.1668 940.094 13.3133 939.488 13.4109C948.038 13.0691 952.673 12.8921 961.222 12.2877C960.239 13.3072 966.784 12.2633 966.027 12.8005L966.746 12.3854C968.656 12.6418 973.12 12.7334 972.477 13.0264L976.241 12.5075L976.563 12.9348C981.557 12.9653 992.3 12.6174 994.93 13.4842C1007.32 12.8432 1026.88 13.0325 1042.43 13.2034C1044.6 12.8554 1049.16 12.8249 1052.7 12.7883L1056.48 13.295C1060.07 13.1363 1063.91 12.5014 1067.28 12.8249C1067.28 12.886 1067.13 12.9287 1066.88 12.9531C1070.55 12.8493 1074.03 13.1179 1077.46 12.6479C1081 12.6723 1084.46 12.886 1084.36 13.2583C1085.71 12.715 1092.65 13.5392 1092.65 13.5392C1092.65 13.5392 1230.16 14.9127 1308 12.9165C1304.65 11.0668 1302.59 8.98518 1302.27 6.85468L1302.33 6.84857Z" fill="#231916"/>
<path d="M343.065 2.50805L345.486 2.5813C345.486 2.47142 345.599 2.34932 346.715 2.23333L343.065 2.50805Z" fill="#231916"/>
<path d="M457.996 2.81323C458.299 2.77655 458.603 2.73988 458.868 2.68486C458.28 2.7032 458.091 2.75821 457.996 2.81323Z" fill="#231916"/>
<path d="M485.915 1.95844C483.91 2.06221 485.707 2.19041 486.672 2.3186C486.71 2.22093 486.672 2.10495 485.915 1.95844Z" fill="#231916"/>
<path d="M277.94 3.79004C278.359 3.74731 278.625 3.68016 278.549 3.57639C277.978 3.66185 277.863 3.729 277.94 3.79004Z" fill="#231916"/>
<path d="M97.9972 3.43634C98.2248 3.46057 98.4334 3.47874 98.7178 3.50903C98.5851 3.47268 98.3385 3.44845 97.9972 3.43634Z" fill="#231916"/>
<path d="M107.965 4.19946C108.457 4.19946 109.1 4.18736 109.989 4.13283C109.1 4.1086 108.476 4.14494 107.965 4.19946Z" fill="#231916"/>
<path d="M321.558 3.61304C322.22 3.59477 322.882 3.56431 323.45 3.46078C322.409 3.47296 321.899 3.53995 321.558 3.61304Z" fill="#231916"/>
<path d="M112.07 4.02176L114.586 4.0769C114.586 4.04627 114.624 4.02176 114.624 3.97887L112.07 4.02176Z" fill="#231916"/>
<path d="M94.837 3.37443C95.8206 3.39277 97.1447 3.39275 97.9959 3.43555C96.7475 3.30105 95.7639 3.30107 94.837 3.37443Z" fill="#231916"/>
<path d="M211.886 4.41309C211.886 4.41309 212.057 4.40698 212.152 4.40087C214.105 4.19301 212.891 4.27859 211.886 4.41309Z" fill="#231916"/>
<path d="M123.04 3.19138C123.135 3.19749 123.268 3.2036 123.382 3.20972L124.121 3.07522L123.04 3.19138Z" fill="#231916"/>
<path d="M83.9802 3.18555C84.4531 3.17337 84.8881 3.15511 85.2286 3.1003C84.8314 3.08203 84.3774 3.06376 83.8099 3.04548C83.9423 3.10639 83.9802 3.14902 83.9802 3.19165L83.9802 3.18555Z" fill="#231916"/>
<path d="M174.208 3.66105C173.507 3.83808 173.223 3.96629 173.204 4.05786C174.037 4.05786 174.568 3.97238 174.208 3.66105Z" fill="#231916"/>
</svg>
